<svg width="1286" height="602" viewBox="0 0 1286 602" fill="none" xmlns="http://www.w3.org/2000/svg">
<path d="M25.8714 644.976L509.047 918.161C516.875 922.642 525.741 925 534.765 925C543.788 925 552.655 922.642 560.483 918.161L1191.5 622.503C1199.27 617.947 1321.02 630.314 1325.5 622.503C1325.5 631.504 1329.98 614.692 1325.5 622.503C1325.5 622.503 1269 585.846 1223 559.003C1205 548.5 1133.24 505.836 1125.46 501.28L644.204 223.996C636.311 219.414 627.343 217 618.213 217C609.082 217 600.114 219.414 592.22 223.996L26.1452 555.371C18.2291 559.866 11.642 566.37 7.05104 574.223C2.46007 582.076 0.0280092 591.001 0.000244141 600.094C-0.0275209 609.187 2.35031 618.126 6.89323 626.007C11.4361 633.888 17.9828 640.432 25.8714 644.976Z" fill="url(#paint0_linear)"/>
<g filter="url(#filter0_d)">
<path d="M882.549 386.87C894.202 386.87 903.649 381.484 903.649 374.84C903.649 368.196 894.202 362.81 882.549 362.81C870.896 362.81 861.449 368.196 861.449 374.84C861.449 381.484 870.896 386.87 882.549 386.87Z" fill="url(#paint1_linear)"/>
<path d="M903.399 374.84C903.399 378.033 901.127 380.973 897.345 383.129C893.571 385.281 888.34 386.62 882.549 386.62C876.758 386.62 871.527 385.281 867.753 383.129C863.972 380.973 861.699 378.033 861.699 374.84C861.699 371.647 863.972 368.707 867.753 366.551C871.527 364.399 876.758 363.06 882.549 363.06C888.34 363.06 893.571 364.399 897.345 366.551C901.127 368.707 903.399 371.647 903.399 374.84Z" stroke="#3B4974" stroke-width="0.5"/>
</g>
<mask id="path-4-inside-1" fill="white">
<path d="M861.459 374.84V368.03H903.649V374.84"/>
</mask>
<path d="M861.459 374.84V368.03H903.649V374.84" fill="#FF2473"/>
<path d="M861.459 368.03V367.53H860.959V368.03H861.459ZM903.649 368.03H904.149V367.53H903.649V368.03ZM861.959 374.84V368.03H860.959V374.84H861.959ZM861.459 368.53H903.649V367.53H861.459V368.53ZM903.149 368.03V374.84H904.149V368.03H903.149Z" fill="#313A55" mask="url(#path-4-inside-1)"/>
<path d="M903.399 368.03C903.399 371.223 901.127 374.163 897.345 376.319C893.571 378.471 888.34 379.81 882.549 379.81C876.758 379.81 871.527 378.471 867.753 376.319C863.972 374.163 861.699 371.223 861.699 368.03C861.699 364.837 863.972 361.897 867.753 359.741C871.527 357.589 876.758 356.25 882.549 356.25C888.34 356.25 893.571 357.589 897.345 359.741C901.127 361.897 903.399 364.837 903.399 368.03Z" fill="url(#paint2_radial)" stroke="#3B4974" stroke-width="0.5"/>
<g filter="url(#filter1_d)">
<path d="M839.549 412.87C851.202 412.87 860.649 407.484 860.649 400.84C860.649 394.196 851.202 388.81 839.549 388.81C827.896 388.81 818.449 394.196 818.449 400.84C818.449 407.484 827.896 412.87 839.549 412.87Z" fill="url(#paint3_linear)"/>
<path d="M860.399 400.84C860.399 404.033 858.127 406.973 854.345 409.129C850.571 411.281 845.34 412.62 839.549 412.62C833.758 412.62 828.527 411.281 824.753 409.129C820.972 406.973 818.699 404.033 818.699 400.84C818.699 397.647 820.972 394.707 824.753 392.551C828.527 390.399 833.758 389.06 839.549 389.06C845.34 389.06 850.571 390.399 854.345 392.551C858.127 394.707 860.399 397.647 860.399 400.84Z" stroke="#3B4974" stroke-width="0.5"/>
</g>
<mask id="path-9-inside-2" fill="white">
<path d="M818.459 400.84V394.03H860.649V400.84"/>
</mask>
<path d="M818.459 400.84V394.03H860.649V400.84" fill="#FF2473"/>
<path d="M818.459 394.03V393.53H817.959V394.03H818.459ZM860.649 394.03H861.149V393.53H860.649V394.03ZM818.959 400.84V394.03H817.959V400.84H818.959ZM818.459 394.53H860.649V393.53H818.459V394.53ZM860.149 394.03V400.84H861.149V394.03H860.149Z" fill="#313A55" mask="url(#path-9-inside-2)"/>
<path d="M860.399 394.03C860.399 397.223 858.127 400.163 854.345 402.319C850.571 404.471 845.34 405.81 839.549 405.81C833.758 405.81 828.527 404.471 824.753 402.319C820.972 400.163 818.699 397.223 818.699 394.03C818.699 390.837 820.972 387.897 824.753 385.741C828.527 383.589 833.758 382.25 839.549 382.25C845.34 382.25 850.571 383.589 854.345 385.741C858.127 387.897 860.399 390.837 860.399 394.03Z" fill="url(#paint4_radial)" stroke="#3B4974" stroke-width="0.5"/>
<g filter="url(#filter2_d)">
<path d="M876.288 430.897V457.491H867.53L864.518 442.842" fill="#23293D"/>
<path d="M364.152 345.681V319.559L374.908 334.019L364.152 345.681Z" fill="#23293D"/>
<path d="M374.57 326.688L510.832 246.245C515.663 243.393 521.142 241.891 526.72 241.891C532.298 241.891 537.778 243.393 542.608 246.245L865.747 437.058C868.998 438.958 871.701 441.703 873.58 445.015C875.46 448.328 876.449 452.089 876.449 455.919C876.449 459.749 875.46 463.511 873.58 466.823C871.701 470.136 868.998 472.881 865.747 474.78L729.239 555.381C724.619 558.109 719.378 559.546 714.043 559.546C708.707 559.546 703.466 558.109 698.846 555.381L374.57 363.782C371.385 361.904 368.74 359.201 366.901 355.946C365.062 352.69 364.093 348.996 364.093 345.235C364.093 341.475 365.062 337.781 366.901 334.525C368.74 331.269 371.385 328.566 374.57 326.688Z" fill="url(#paint5_linear)"/>
<path d="M374.285 303.262L374.288 303.26L510.55 222.785C515.304 219.978 520.696 218.5 526.184 218.5C531.672 218.5 537.064 219.978 541.818 222.785L542.07 222.358L541.818 222.785L864.987 413.629L864.989 413.631C868.163 415.485 870.803 418.166 872.64 421.403C874.476 424.64 875.444 428.316 875.444 432.06C875.444 435.804 874.476 439.481 872.64 442.717C870.803 445.954 868.163 448.635 864.989 450.49L864.987 450.491L728.479 531.091C723.935 533.775 718.782 535.187 713.537 535.187C708.292 535.187 703.138 533.775 698.595 531.091L698.34 531.522L698.595 531.091L374.288 339.618L374.285 339.617C371.148 337.792 368.539 335.15 366.723 331.957C364.907 328.764 363.949 325.135 363.949 321.439C363.949 317.743 364.907 314.114 366.723 310.921C368.539 307.728 371.148 305.086 374.285 303.262Z" fill="#313A55" stroke="#313A55"/>
</g>
<g filter="url(#filter3_d)">
<path d="M334.549 399.87C346.203 399.87 355.649 394.484 355.649 387.84C355.649 381.196 346.203 375.81 334.549 375.81C322.896 375.81 313.449 381.196 313.449 387.84C313.449 394.484 322.896 399.87 334.549 399.87Z" fill="url(#paint6_linear)"/>
</g>
<path d="M313.459 387.84V381.03H355.649V387.84" fill="url(#paint7_linear)"/>
<path d="M355.399 381.03C355.399 384.223 353.127 387.163 349.346 389.319C345.571 391.471 340.341 392.81 334.549 392.81C328.758 392.81 323.528 391.471 319.753 389.319C315.972 387.163 313.699 384.223 313.699 381.03C313.699 377.837 315.972 374.897 319.753 372.741C323.528 370.589 328.758 369.25 334.549 369.25C340.341 369.25 345.571 370.589 349.346 372.741C353.127 374.897 355.399 377.837 355.399 381.03Z" fill="url(#paint8_radial)" stroke="#313A55" stroke-width="0.5"/>
<g filter="url(#filter4_d)">
<path d="M273.549 435.87C285.203 435.87 294.649 430.484 294.649 423.84C294.649 417.196 285.203 411.81 273.549 411.81C261.896 411.81 252.449 417.196 252.449 423.84C252.449 430.484 261.896 435.87 273.549 435.87Z" fill="url(#paint9_linear)"/>
</g>
<path d="M252.459 423.84V417.03H294.649V423.84" fill="url(#paint10_linear)"/>
<path d="M294.399 417.03C294.399 420.223 292.127 423.163 288.346 425.319C284.571 427.471 279.341 428.81 273.549 428.81C267.758 428.81 262.528 427.471 258.753 425.319C254.972 423.163 252.699 420.223 252.699 417.03C252.699 413.837 254.972 410.897 258.753 408.741C262.528 406.589 267.758 405.25 273.549 405.25C279.341 405.25 284.571 406.589 288.346 408.741C292.127 410.897 294.399 413.837 294.399 417.03Z" fill="url(#paint11_radial)" stroke="#313A55" stroke-width="0.5"/>
<g filter="url(#filter5_d)">
<path d="M355.549 446.87C367.203 446.87 376.649 441.484 376.649 434.84C376.649 428.196 367.203 422.81 355.549 422.81C343.896 422.81 334.449 428.196 334.449 434.84C334.449 441.484 343.896 446.87 355.549 446.87Z" fill="url(#paint12_linear)"/>
</g>
<path d="M334.459 434.84V428.03H376.649V434.84" fill="url(#paint13_linear)"/>
<path d="M376.399 428.03C376.399 431.223 374.127 434.163 370.346 436.319C366.571 438.471 361.341 439.81 355.549 439.81C349.758 439.81 344.528 438.471 340.753 436.319C336.972 434.163 334.699 431.223 334.699 428.03C334.699 424.837 336.972 421.897 340.753 419.741C344.528 417.589 349.758 416.25 355.549 416.25C361.341 416.25 366.571 417.589 370.346 419.741C374.127 421.897 376.399 424.837 376.399 428.03Z" fill="url(#paint14_radial)" stroke="#313A55" stroke-width="0.5"/>
<g filter="url(#filter6_d)">
<path d="M777.549 476.87C789.202 476.87 798.649 471.484 798.649 464.84C798.649 458.196 789.202 452.81 777.549 452.81C765.896 452.81 756.449 458.196 756.449 464.84C756.449 471.484 765.896 476.87 777.549 476.87Z" fill="url(#paint15_linear)"/>
</g>
<path d="M756.459 464.84V458.03H798.649V464.84" fill="url(#paint16_linear)"/>
<path d="M798.399 458.03C798.399 461.223 796.127 464.163 792.345 466.319C788.571 468.471 783.34 469.81 777.549 469.81C771.758 469.81 766.527 468.471 762.753 466.319C758.972 464.163 756.699 461.223 756.699 458.03C756.699 454.837 758.972 451.897 762.753 449.741C766.527 447.589 771.758 446.25 777.549 446.25C783.34 446.25 788.571 447.589 792.345 449.741C796.127 451.897 798.399 454.837 798.399 458.03Z" fill="url(#paint17_radial)" stroke="#313A55" stroke-width="0.5"/>
<g filter="url(#filter7_d)">
<path d="M831.549 443.87C843.202 443.87 852.649 438.484 852.649 431.84C852.649 425.196 843.202 419.81 831.549 419.81C819.896 419.81 810.449 425.196 810.449 431.84C810.449 438.484 819.896 443.87 831.549 443.87Z" fill="url(#paint18_linear)"/>
</g>
<path d="M810.459 431.84V425.03H852.649V431.84" fill="url(#paint19_linear)"/>
<path d="M852.399 425.03C852.399 428.223 850.127 431.163 846.345 433.319C842.571 435.471 837.34 436.81 831.549 436.81C825.758 436.81 820.527 435.471 816.753 433.319C812.972 431.163 810.699 428.223 810.699 425.03C810.699 421.837 812.972 418.897 816.753 416.741C820.527 414.589 825.758 413.25 831.549 413.25C837.34 413.25 842.571 414.589 846.345 416.741C850.127 418.897 852.399 421.837 852.399 425.03Z" fill="url(#paint20_radial)" stroke="#313A55" stroke-width="0.5"/>
<g filter="url(#filter8_d)">
<path d="M780.549 416.87C792.202 416.87 801.649 411.484 801.649 404.84C801.649 398.196 792.202 392.81 780.549 392.81C768.896 392.81 759.449 398.196 759.449 404.84C759.449 411.484 768.896 416.87 780.549 416.87Z" fill="url(#paint21_linear)"/>
</g>
<path d="M759.459 404.84V398.03H801.649V404.84" fill="url(#paint22_linear)"/>
<path d="M801.399 398.03C801.399 401.223 799.127 404.163 795.345 406.319C791.571 408.471 786.34 409.81 780.549 409.81C774.758 409.81 769.527 408.471 765.753 406.319C761.972 404.163 759.699 401.223 759.699 398.03C759.699 394.837 761.972 391.897 765.753 389.741C769.527 387.589 774.758 386.25 780.549 386.25C786.34 386.25 791.571 387.589 795.345 389.741C799.127 391.897 801.399 394.837 801.399 398.03Z" fill="url(#paint23_radial)" stroke="#313A55" stroke-width="0.5"/>
<g filter="url(#filter9_d)">
<path d="M731.549 388.87C743.202 388.87 752.649 383.484 752.649 376.84C752.649 370.196 743.202 364.81 731.549 364.81C719.896 364.81 710.449 370.196 710.449 376.84C710.449 383.484 719.896 388.87 731.549 388.87Z" fill="url(#paint24_linear)"/>
</g>
<path d="M710.459 376.84V370.03H752.649V376.84" fill="url(#paint25_linear)"/>
<path d="M752.399 370.03C752.399 373.223 750.127 376.163 746.345 378.319C742.571 380.471 737.34 381.81 731.549 381.81C725.758 381.81 720.527 380.471 716.753 378.319C712.972 376.163 710.699 373.223 710.699 370.03C710.699 366.837 712.972 363.897 716.753 361.741C720.527 359.589 725.758 358.25 731.549 358.25C737.34 358.25 742.571 359.589 746.345 361.741C750.127 363.897 752.399 366.837 752.399 370.03Z" fill="url(#paint26_radial)" stroke="#313A55" stroke-width="0.5"/>
<g filter="url(#filter10_d)">
<path d="M205.549 474.87C217.203 474.87 226.649 469.484 226.649 462.84C226.649 456.196 217.203 450.81 205.549 450.81C193.896 450.81 184.449 456.196 184.449 462.84C184.449 469.484 193.896 474.87 205.549 474.87Z" fill="url(#paint27_linear)"/>
</g>
<path d="M184.459 462.84V456.03H226.649V462.84" fill="url(#paint28_linear)"/>
<path d="M226.399 456.03C226.399 459.223 224.127 462.163 220.346 464.319C216.571 466.471 211.341 467.81 205.549 467.81C199.758 467.81 194.528 466.471 190.753 464.319C186.972 462.163 184.699 459.223 184.699 456.03C184.699 452.837 186.972 449.897 190.753 447.741C194.528 445.589 199.758 444.25 205.549 444.25C211.341 444.25 216.571 445.589 220.346 447.741C224.127 449.897 226.399 452.837 226.399 456.03Z" fill="url(#paint29_radial)" stroke="#313A55" stroke-width="0.5"/>
<g filter="url(#filter11_d)">
<path d="M288.549 485.87C300.203 485.87 309.649 480.484 309.649 473.84C309.649 467.196 300.203 461.81 288.549 461.81C276.896 461.81 267.449 467.196 267.449 473.84C267.449 480.484 276.896 485.87 288.549 485.87Z" fill="url(#paint30_linear)"/>
</g>
<path d="M267.459 473.84V467.03H309.649V473.84" fill="url(#paint31_linear)"/>
<path d="M309.399 467.03C309.399 470.223 307.127 473.163 303.346 475.319C299.571 477.471 294.341 478.81 288.549 478.81C282.758 478.81 277.528 477.471 273.753 475.319C269.972 473.163 267.699 470.223 267.699 467.03C267.699 463.837 269.972 460.897 273.753 458.741C277.528 456.589 282.758 455.25 288.549 455.25C294.341 455.25 299.571 456.589 303.346 458.741C307.127 460.897 309.399 463.837 309.399 467.03Z" fill="url(#paint32_radial)" stroke="#313A55" stroke-width="0.5"/>
<g filter="url(#filter12_d)">
<line x1="510.695" y1="382.698" x2="617.195" y2="443.698" stroke="url(#paint33_linear)" stroke-width="3"/>
</g>
<g filter="url(#filter13_d)">
<path d="M505.05 389.87C516.703 389.87 526.15 384.484 526.15 377.84C526.15 371.196 516.703 365.81 505.05 365.81C493.397 365.81 483.95 371.196 483.95 377.84C483.95 384.484 493.397 389.87 505.05 389.87Z" fill="url(#paint34_radial)"/>
<path d="M525.65 377.84C525.65 380.905 523.466 383.777 519.722 385.912C515.992 388.039 510.806 389.37 505.05 389.37C499.294 389.37 494.107 388.039 490.377 385.912C486.633 383.777 484.45 380.905 484.45 377.84C484.45 374.775 486.633 371.903 490.377 369.768C494.107 367.641 499.294 366.31 505.05 366.31C510.806 366.31 515.992 367.641 519.722 369.768C523.466 371.903 525.65 374.775 525.65 377.84Z" stroke="#FF4588"/>
</g>
<path d="M483.96 377.84V371.03H526.15V377.84" fill="#FF2473"/>
<g filter="url(#filter14_d)">
<path d="M505.05 383.06C516.703 383.06 526.15 377.674 526.15 371.03C526.15 364.386 516.703 359 505.05 359C493.397 359 483.95 364.386 483.95 371.03C483.95 377.674 493.397 383.06 505.05 383.06Z" fill="url(#paint35_radial)"/>
<path d="M525.65 371.03C525.65 374.095 523.466 376.967 519.722 379.102C515.992 381.229 510.806 382.56 505.05 382.56C499.294 382.56 494.107 381.229 490.377 379.102C486.633 376.967 484.45 374.095 484.45 371.03C484.45 367.965 486.633 365.093 490.377 362.958C494.107 360.831 499.294 359.5 505.05 359.5C510.806 359.5 515.992 360.831 519.722 362.958C523.466 365.093 525.65 367.965 525.65 371.03Z" stroke="#DE063A"/>
</g>
<g filter="url(#filter15_d)">
<line x1="504.45" y1="369.012" x2="503.465" y2="242.012" stroke="url(#paint36_linear)" stroke-width="3"/>
</g>
<path d="M365.963 252.103V244.474L369.6 248.182C369.642 248.689 369.579 249.201 369.415 249.682C369.25 250.163 368.987 250.603 368.644 250.974C368.3 251.344 367.884 251.636 367.422 251.831C366.96 252.026 366.463 252.119 365.963 252.103Z" fill="#23293D"/>
<rect x="586.95" y="206" width="5" height="12" rx="2.5" fill="#23293D"/>
<path d="M368.799 246.95L506.007 166.638C507.471 165.773 509.133 165.318 510.825 165.318C512.517 165.318 514.179 165.773 515.643 166.638L588.875 210.315C589.731 210.82 590.441 211.547 590.935 212.421C591.429 213.295 591.689 214.285 591.689 215.294C591.689 216.302 591.944 216.626 591.45 217.5C590.956 218.374 589.731 219.767 588.875 220.273L453.124 300.344C451.171 301.498 448.951 302.099 446.694 302.085C444.436 302.071 442.224 301.442 440.285 300.264L368.707 256.882C367.862 256.366 367.164 255.634 366.682 254.758C366.2 253.882 365.952 252.893 365.961 251.889C365.97 250.885 366.237 249.901 366.735 249.035C367.233 248.168 367.944 247.45 368.799 246.95Z" fill="#23293D"/>
<path d="M368.799 240.632L506.007 160.32C507.471 159.455 509.133 159 510.825 159C512.517 159 514.179 159.455 515.643 160.32L588.875 203.997C589.731 204.503 590.441 205.229 590.935 206.103C591.429 206.977 591.689 207.967 591.689 208.976C591.689 209.985 591.429 210.975 590.935 211.849C590.441 212.723 589.731 213.449 588.875 213.955L453.124 294.026C451.171 295.18 448.951 295.782 446.694 295.767C444.436 295.753 442.224 295.124 440.285 293.946L368.707 250.578C367.859 250.063 367.158 249.33 366.674 248.453C366.19 247.576 365.941 246.584 365.95 245.578C365.959 244.572 366.227 243.585 366.727 242.718C367.227 241.85 367.941 241.131 368.799 240.632Z" fill="#313A55"/>
<path d="M503.181 167C504.026 167.278 580.95 212.401 580.95 212.401L452.515 288L374.95 242.995L503.181 167Z" fill="#23293D"/>
<path d="M530.963 153.103V145.474L534.6 149.182C534.642 149.689 534.579 150.201 534.415 150.682C534.25 151.163 533.987 151.603 533.644 151.974C533.3 152.344 532.884 152.636 532.422 152.831C531.96 153.026 531.463 153.119 530.963 153.103Z" fill="#23293D"/>
<rect x="751.95" y="108" width="5" height="12" rx="2.5" fill="#23293D"/>
<path d="M533.799 147.95L671.007 67.6383C672.471 66.7734 674.133 66.3179 675.825 66.3179C677.517 66.3179 679.179 66.7734 680.643 67.6383L753.875 111.315C754.731 111.82 755.441 112.547 755.935 113.421C756.429 114.295 756.689 115.285 756.689 116.294C756.689 117.302 756.944 118.126 756.45 119C755.956 119.874 754.731 120.767 753.875 121.273L618.124 201.344C616.171 202.498 613.951 203.099 611.694 203.085C609.436 203.071 607.224 202.442 605.285 201.264L533.707 157.882C532.862 157.366 532.164 156.634 531.682 155.758C531.2 154.882 530.952 153.893 530.961 152.889C530.97 151.885 531.237 150.901 531.735 150.035C532.233 149.168 532.944 148.45 533.799 147.95Z" fill="#23293D"/>
<path d="M533.799 141.632L671.007 61.3204C672.471 60.4555 674.133 60 675.825 60C677.517 60 679.179 60.4555 680.643 61.3204L753.875 104.997C754.731 105.503 755.441 106.229 755.935 107.103C756.429 107.977 756.689 108.967 756.689 109.976C756.689 110.985 756.429 111.975 755.935 112.849C755.441 113.723 754.731 114.449 753.875 114.955L618.124 195.026C616.171 196.18 613.951 196.782 611.694 196.767C609.436 196.753 607.224 196.124 605.285 194.946L533.707 151.578C532.859 151.063 532.158 150.33 531.674 149.453C531.19 148.576 530.941 147.584 530.95 146.578C530.959 145.572 531.227 144.585 531.727 143.718C532.227 142.85 532.941 142.131 533.799 141.632Z" fill="#313A55"/>
<path d="M668.181 68C669.026 68.2783 745.95 113.401 745.95 113.401L617.515 189L539.95 143.995L668.181 68Z" fill="#23293D"/>
<g filter="url(#filter16_i)">
<path d="M473.218 198.97L496.403 212.355C496.779 212.574 497.204 212.69 497.637 212.69C498.07 212.69 498.495 212.574 498.871 212.355L525.929 196.293C526.302 196.069 526.612 195.751 526.827 195.368C527.042 194.985 527.155 194.552 527.155 194.111C527.155 193.67 527.042 193.236 526.827 192.854C526.612 192.471 526.302 192.152 525.929 191.929L502.836 178.343C502.457 178.118 502.027 178 501.589 178C501.151 178 500.72 178.118 500.342 178.343L473.178 194.579C472.801 194.804 472.489 195.127 472.273 195.514C472.057 195.902 471.946 196.34 471.95 196.786C471.954 197.232 472.073 197.668 472.296 198.052C472.518 198.435 472.836 198.752 473.218 198.97Z" fill="url(#paint37_radial)"/>
</g>
<path d="M473.343 198.753L473.342 198.753C472.999 198.557 472.713 198.272 472.512 197.926C472.311 197.58 472.203 197.186 472.2 196.784C472.196 196.381 472.297 195.985 472.491 195.636C472.686 195.286 472.967 194.996 473.306 194.794L473.306 194.794L500.469 178.558C500.469 178.558 500.469 178.558 500.469 178.558C500.81 178.356 501.196 178.25 501.589 178.25C501.982 178.25 502.368 178.356 502.708 178.558L502.709 178.558L525.801 192.143C525.801 192.144 525.801 192.144 525.802 192.144C526.137 192.344 526.415 192.631 526.609 192.976C526.803 193.321 526.905 193.712 526.905 194.111C526.905 194.509 526.803 194.9 526.609 195.245C526.415 195.591 526.136 195.877 525.801 196.078L498.745 212.139C498.745 212.139 498.744 212.139 498.744 212.14C498.407 212.337 498.025 212.44 497.637 212.44C497.249 212.44 496.867 212.336 496.529 212.139L496.528 212.138L473.343 198.753Z" stroke="#FF4185" stroke-width="0.5"/>
<g filter="url(#filter17_d)">
<path d="M473.218 199.97L496.403 213.355C496.779 213.574 497.204 213.69 497.637 213.69C498.07 213.69 498.495 213.574 498.871 213.355L525.929 197.293C526.302 197.069 526.612 196.751 526.827 196.368C527.042 195.985 527.155 195.552 527.155 195.111C527.155 194.67 527.042 194.236 526.827 193.854C526.612 193.471 526.302 193.152 525.929 192.929L502.836 179.343C502.457 179.118 502.027 179 501.589 179C501.151 179 500.72 179.118 500.342 179.343L473.178 195.579C472.801 195.804 472.489 196.127 472.273 196.514C472.057 196.902 471.946 197.34 471.95 197.786C471.954 198.232 472.073 198.668 472.296 199.052C472.518 199.435 472.836 199.752 473.218 199.97Z" fill="url(#paint38_radial)"/>
<path d="M473.343 199.753L473.342 199.753C472.999 199.557 472.713 199.272 472.512 198.926C472.311 198.58 472.203 198.186 472.2 197.784C472.196 197.381 472.297 196.985 472.491 196.636C472.686 196.286 472.967 195.996 473.306 195.794L473.306 195.794L500.469 179.558C500.469 179.558 500.469 179.558 500.469 179.558C500.81 179.356 501.196 179.25 501.589 179.25C501.982 179.25 502.368 179.356 502.708 179.558L502.709 179.558L525.801 193.143C525.801 193.144 525.801 193.144 525.802 193.144C526.137 193.344 526.415 193.631 526.609 193.976C526.803 194.321 526.905 194.712 526.905 195.111C526.905 195.509 526.803 195.9 526.609 196.245C526.415 196.591 526.136 196.877 525.801 197.078L498.745 213.139C498.745 213.139 498.744 213.139 498.744 213.14C498.407 213.337 498.025 213.44 497.637 213.44C497.249 213.44 496.867 213.336 496.529 213.139L496.528 213.138L473.343 199.753Z" stroke="#FF4789" stroke-width="0.5"/>
</g>
<path d="M472.2 196.324V193.172C472.311 193.263 472.438 193.322 472.579 193.351C472.847 193.406 473.129 193.342 473.383 193.246C473.641 193.148 473.902 193.004 474.139 192.866C474.227 192.814 474.311 192.763 474.39 192.716C474.531 192.631 474.659 192.554 474.778 192.49C474.869 192.441 474.943 192.406 475.001 192.386C475.003 192.385 475.004 192.385 475.005 192.384C475.005 192.396 475.004 192.408 475.003 192.423C474.986 192.598 474.907 192.897 474.731 193.371L472.2 196.324Z" fill="#DE063A" stroke="#DE063A" stroke-width="0.5"/>
<path d="M523.95 192.5C523.95 194.5 526.95 190.1 526.95 194.5V189L523.95 192.5Z" fill="#DE063A" stroke="#DE063A" stroke-width="0.3"/>
<path d="M473.468 193.537L473.466 193.536C473.162 193.362 472.907 193.109 472.728 192.801C472.549 192.492 472.453 192.141 472.45 191.782C472.447 191.422 472.537 191.069 472.71 190.757C472.883 190.446 473.133 190.188 473.434 190.009L473.435 190.008L500.596 173.773C500.597 173.773 500.597 173.773 500.597 173.772C500.899 173.594 501.241 173.5 501.589 173.5C501.937 173.5 502.279 173.594 502.581 173.773L502.582 173.774L525.673 187.358C525.673 187.358 525.674 187.359 525.674 187.359C525.971 187.537 526.218 187.791 526.391 188.098C526.563 188.406 526.655 188.755 526.655 189.111C526.655 189.466 526.563 189.815 526.391 190.123C526.218 190.43 525.971 190.685 525.673 190.863C525.673 190.863 525.673 190.863 525.673 190.863L498.619 206.923C498.618 206.923 498.618 206.924 498.618 206.924C498.318 207.099 497.98 207.19 497.637 207.19C497.293 207.19 496.955 207.098 496.655 206.923L496.653 206.922L473.468 193.537Z" fill="url(#paint39_diamond)" stroke="url(#paint40_radial)"/>
<line x1="500.45" y1="189" x2="500.471" y2="110.999" stroke="url(#paint41_linear)" stroke-width="3"/>
<path d="M454.236 112.984L540.757 62.4559C541.221 62.1986 541.749 62.0649 542.286 62.0684C542.822 62.072 543.348 62.2128 543.809 62.4762C544.27 62.7396 544.649 63.1161 544.907 63.5669C545.165 64.0176 545.293 64.5262 545.277 65.0401V93.9135C545.282 94.4345 545.145 94.9476 544.881 95.403C544.617 95.8583 544.234 96.2405 543.77 96.5121L457.22 146.001C456.758 146.257 455.894 146.697 455.361 146.695C454.827 146.692 454.303 146.554 453.843 146.294C453.383 146.034 453.004 145.928 452.743 145.482C452.483 145.035 452.351 144.264 452.361 143.752L452.248 116.594C452.213 115.877 452.38 115.164 452.73 114.53C453.079 113.895 453.599 113.362 454.236 112.984Z" fill="url(#paint42_linear)"/>
<rect width="7.03421" height="1.79331" rx="0.896657" transform="matrix(0.949664 0.31327 -0.372662 0.927967 542.462 62)" fill="#DE063A"/>
<rect width="9.25776" height="3.00527" rx="1.50263" transform="matrix(0.941782 0.336225 -0.398604 0.917123 453.148 143.206)" fill="#FF4A8C"/>
<path d="M550.029 66.845L550.029 66.845V66.8526L550.029 95.726L550.029 95.7281C550.033 96.2038 549.909 96.673 549.667 97.0901C549.425 97.5069 549.074 97.858 548.647 98.1083C548.647 98.1085 548.646 98.1087 548.646 98.1089L462.101 147.595C462.1 147.595 462.1 147.596 462.099 147.596C461.872 147.722 461.55 147.89 461.223 148.027C460.886 148.167 460.577 148.258 460.364 148.257C459.872 148.255 459.39 148.128 458.968 147.889C458.546 147.651 458.199 147.309 457.961 146.902C457.724 146.495 457.604 146.035 457.613 145.57H457.613L457.613 145.564L457.499 118.405H457.5L457.499 118.394C457.467 117.724 457.623 117.057 457.95 116.463C458.278 115.869 458.766 115.367 459.365 115.012C459.366 115.012 459.366 115.012 459.366 115.012L545.88 64.4871C545.881 64.4867 545.881 64.4862 545.882 64.4858C546.308 64.2504 546.793 64.1276 547.286 64.1309C547.78 64.1342 548.264 64.2639 548.687 64.5057C549.11 64.7475 549.456 65.0924 549.692 65.5036C549.927 65.9147 550.044 66.3777 550.029 66.845Z" fill="#313A55" stroke="url(#paint43_linear)" stroke-width="0.5"/>
<g filter="url(#filter18_d)">
<path d="M631.549 387.87C643.202 387.87 652.649 382.484 652.649 375.84C652.649 369.196 643.202 363.81 631.549 363.81C619.896 363.81 610.449 369.196 610.449 375.84C610.449 382.484 619.896 387.87 631.549 387.87Z" fill="url(#paint44_radial)"/>
<path d="M652.149 375.84C652.149 378.905 649.966 381.777 646.222 383.912C642.492 386.039 637.305 387.37 631.549 387.37C625.793 387.37 620.607 386.039 616.877 383.912C613.133 381.777 610.949 378.905 610.949 375.84C610.949 372.775 613.133 369.903 616.877 367.768C620.607 365.641 625.793 364.31 631.549 364.31C637.305 364.31 642.492 365.641 646.222 367.768C649.966 369.903 652.149 372.775 652.149 375.84Z" stroke="#FF4588"/>
</g>
<path d="M610.459 375.84V369.03H652.649V375.84" fill="#FF2473"/>
<g filter="url(#filter19_d)">
<path d="M631.549 381.06C643.202 381.06 652.649 375.674 652.649 369.03C652.649 362.386 643.202 357 631.549 357C619.896 357 610.449 362.386 610.449 369.03C610.449 375.674 619.896 381.06 631.549 381.06Z" fill="url(#paint45_radial)"/>
<path d="M652.149 369.03C652.149 372.095 649.966 374.967 646.222 377.102C642.492 379.229 637.305 380.56 631.549 380.56C625.793 380.56 620.607 379.229 616.877 377.102C613.133 374.967 610.949 372.095 610.949 369.03C610.949 365.965 613.133 363.093 616.877 360.958C620.607 358.831 625.793 357.5 631.549 357.5C637.305 357.5 642.492 358.831 646.222 360.958C649.966 363.093 652.149 365.965 652.149 369.03Z" stroke="#DE063A"/>
</g>
<g filter="url(#filter20_d)">
<path d="M628.549 331.87C640.202 331.87 649.649 326.484 649.649 319.84C649.649 313.196 640.202 307.81 628.549 307.81C616.896 307.81 607.449 313.196 607.449 319.84C607.449 326.484 616.896 331.87 628.549 331.87Z" fill="url(#paint46_radial)"/>
<path d="M649.149 319.84C649.149 322.905 646.966 325.777 643.222 327.912C639.492 330.039 634.305 331.37 628.549 331.37C622.793 331.37 617.607 330.039 613.877 327.912C610.133 325.777 607.949 322.905 607.949 319.84C607.949 316.775 610.133 313.903 613.877 311.768C617.607 309.641 622.793 308.31 628.549 308.31C634.305 308.31 639.492 309.641 643.222 311.768C646.966 313.903 649.149 316.775 649.149 319.84Z" stroke="#FF4588"/>
</g>
<path d="M607.459 319.84V313.03H649.649V319.84" fill="#FF2473"/>
<g filter="url(#filter21_d)">
<path d="M628.549 325.06C640.202 325.06 649.649 319.674 649.649 313.03C649.649 306.386 640.202 301 628.549 301C616.896 301 607.449 306.386 607.449 313.03C607.449 319.674 616.896 325.06 628.549 325.06Z" fill="url(#paint47_radial)"/>
<path d="M649.149 313.03C649.149 316.095 646.966 318.967 643.222 321.102C639.492 323.229 634.305 324.56 628.549 324.56C622.793 324.56 617.607 323.229 613.877 321.102C610.133 318.967 607.949 316.095 607.949 313.03C607.949 309.965 610.133 307.093 613.877 304.958C617.607 302.831 622.793 301.5 628.549 301.5C634.305 301.5 639.492 302.831 643.222 304.958C646.966 307.093 649.149 309.965 649.149 313.03Z" stroke="#DE063A"/>
</g>
<path d="M451.236 63.5256L537.757 12.46C538.221 12.2 538.749 12.0648 539.286 12.0684C539.822 12.072 540.348 12.2143 540.809 12.4805C541.27 12.7467 541.649 13.1273 541.907 13.5828C542.165 14.0383 542.293 14.5523 542.277 15.0717V44.252C542.282 44.7785 542.145 45.297 541.881 45.7573C541.617 46.2175 541.234 46.6037 540.77 46.8782L454.22 96.8933C453.758 97.1519 452.894 97.5967 452.361 97.5943C451.827 97.5919 451.303 97.4522 450.843 97.1895C450.383 96.9268 450.004 96.8196 449.743 96.3683C449.483 95.9169 449.351 95.1375 449.361 94.6206L449.248 67.1732C449.213 66.4487 449.38 65.7287 449.73 65.0874C450.079 64.4461 450.599 63.9069 451.236 63.5256Z" fill="url(#paint48_linear)"/>
<rect width="7.04158" height="1.80974" rx="0.904869" transform="matrix(0.94867 0.316268 -0.36928 0.929318 539.462 12)" fill="#FF2473"/>
<rect width="9.26894" height="3.03216" rx="1.51608" transform="matrix(0.940646 0.339389 -0.39507 0.918651 450.148 94.0688)" fill="#FF8200"/>
<path d="M547.029 16.8966L547.029 16.8966V16.9042L547.029 46.0845L547.029 46.0866C547.033 46.5683 546.908 47.0433 546.666 47.4654C546.424 47.8872 546.073 48.2422 545.646 48.4951C545.646 48.4953 545.645 48.4954 545.645 48.4956L459.1 98.5077C459.099 98.508 459.099 98.5083 459.098 98.5086C458.871 98.6358 458.549 98.8061 458.222 98.9438C457.885 99.0855 457.576 99.1778 457.364 99.1768C456.872 99.1746 456.391 99.0461 455.969 98.805C455.547 98.5638 455.2 98.2191 454.962 97.8067C454.724 97.3945 454.604 96.9291 454.613 96.4581H454.613L454.613 96.4521L454.499 69.0046H454.5L454.499 68.9939C454.467 68.3156 454.623 67.6409 454.951 67.0396C455.279 66.4384 455.767 65.9318 456.366 65.573C456.366 65.5729 456.367 65.5728 456.367 65.5726L542.881 14.5107C542.882 14.5103 542.882 14.5098 542.883 14.5093C543.309 14.2716 543.793 14.1476 544.286 14.1509C544.78 14.1543 545.263 14.2851 545.686 14.5295C546.109 14.7738 546.456 15.1225 546.691 15.5386C546.927 15.9546 547.044 16.4234 547.029 16.8966Z" fill="#313A55" stroke="url(#paint49_linear)" stroke-width="0.5"/>
<rect width="9.29437" height="3.09259" rx="1.54629" transform="matrix(0.938072 0.34644 -0.38735 0.921933 562.147 84.0034)" fill="#313A55"/>
<path d="M563.236 52.7402L649.757 0.470731C650.221 0.204592 650.749 0.0662071 651.286 0.0698961C651.822 0.0735851 652.348 0.219195 652.809 0.491696C653.27 0.764197 653.649 1.1537 653.907 1.61996C654.165 2.08622 654.293 2.61233 654.277 3.14393V33.0122C654.281 33.551 654.145 34.0818 653.881 34.5529C653.617 35.024 653.234 35.4193 652.77 35.7003L566.22 86.8945C565.757 87.1592 564.894 87.6144 564.36 87.612C563.826 87.6095 563.303 87.4665 562.843 87.1976C562.383 86.9287 562.003 86.8191 561.743 86.357C561.483 85.895 561.351 85.0973 561.361 84.5682L561.247 56.4737C561.213 55.7322 561.38 54.9951 561.729 54.3387C562.079 53.6823 562.599 53.1305 563.236 52.7402Z" fill="url(#paint50_linear)"/>
<rect width="7.05836" height="1.84664" rx="0.923321" transform="matrix(0.946415 0.322954 -0.3619 0.932217 651.462 0)" fill="#313A55"/>
<path d="M658.779 5.00516L658.779 5.01253V5.0199L658.779 34.8881L658.779 34.8922C658.783 35.3439 658.668 35.789 658.447 36.1844C658.225 36.579 657.905 36.9108 657.515 37.1472C657.515 37.1477 657.514 37.1482 657.513 37.1486L570.973 88.3365C570.972 88.3371 570.971 88.3377 570.97 88.3382C570.746 88.4663 570.435 88.6349 570.121 88.7702C569.787 88.9138 569.52 88.9887 569.365 88.988C568.918 88.9859 568.481 88.8664 568.097 88.642L567.845 89.0736L568.097 88.642C567.713 88.4176 567.397 88.0965 567.181 87.7121C566.964 87.3277 566.855 86.8934 566.863 86.4538H566.863L566.863 86.4421L566.749 58.3476L566.749 58.3372L566.749 58.3267C566.719 57.6751 566.865 57.0271 567.173 56.4498C567.48 55.8728 567.937 55.3871 568.498 55.0431C568.499 55.0429 568.499 55.0427 568.499 55.0425L655.012 2.77783C655.398 2.55749 655.837 2.44279 656.284 2.44586C656.732 2.44894 657.172 2.57065 657.556 2.79805C657.941 3.02543 658.256 3.35011 658.471 3.73809C658.686 4.12604 658.792 4.56345 658.779 5.00516Z" fill="#23293D" stroke="#313A55"/>
<g filter="url(#filter22_d)">
<path d="M672.449 410L618.449 438" stroke="url(#paint51_linear)" stroke-width="2"/>
</g>
<g filter="url(#filter23_d)">
<path d="M570.717 140.97L593.902 154.355C594.278 154.574 594.704 154.69 595.137 154.69C595.57 154.69 595.995 154.574 596.371 154.355L623.429 138.293C623.802 138.069 624.111 137.751 624.326 137.368C624.541 136.985 624.654 136.552 624.654 136.111C624.654 135.67 624.541 135.236 624.326 134.854C624.111 134.471 623.802 134.152 623.429 133.929L600.335 120.343C599.957 120.118 599.526 120 599.088 120C598.65 120 598.22 120.118 597.841 120.343L570.678 136.579C570.301 136.804 569.988 137.127 569.773 137.514C569.557 137.902 569.445 138.34 569.449 138.786C569.453 139.232 569.573 139.668 569.795 140.052C570.018 140.435 570.336 140.752 570.717 140.97Z" fill="#313A55"/>
<path d="M570.842 140.753L570.841 140.753C570.499 140.557 570.212 140.272 570.011 139.926C569.811 139.58 569.703 139.186 569.699 138.784C569.696 138.381 569.796 137.985 569.991 137.636C570.185 137.286 570.467 136.996 570.806 136.794L570.806 136.794L597.969 120.558C597.969 120.558 597.969 120.558 597.969 120.558C598.309 120.356 598.695 120.25 599.088 120.25C599.481 120.25 599.868 120.356 600.208 120.558L600.209 120.558L623.3 134.143C623.301 134.144 623.301 134.144 623.301 134.144C623.636 134.344 623.915 134.631 624.108 134.976C624.302 135.321 624.404 135.712 624.404 136.111C624.404 136.509 624.302 136.9 624.108 137.245C623.914 137.591 623.636 137.877 623.3 138.078L596.244 154.139C596.244 154.139 596.244 154.139 596.243 154.14C595.906 154.337 595.525 154.44 595.137 154.44C594.748 154.44 594.366 154.336 594.029 154.139L594.027 154.138L570.842 140.753Z" stroke="#313A55" stroke-width="0.5"/>
</g>
<path d="M573.986 134.182C576.255 129.818 569.449 136.8 569.449 132V138L573.986 134.182Z" fill="#313A55"/>
<path d="M618.449 133.818C618.449 136 624.449 131.2 624.449 136V130L618.449 133.818Z" fill="#313A55" stroke="#313A55" stroke-width="0.3"/>
<path d="M570.842 134.753L570.841 134.753C570.499 134.557 570.212 134.272 570.011 133.926C569.811 133.58 569.703 133.186 569.699 132.784C569.696 132.381 569.796 131.985 569.991 131.636C570.185 131.286 570.467 130.996 570.806 130.794L570.806 130.794L597.969 114.558C597.969 114.558 597.969 114.558 597.969 114.558C598.309 114.356 598.695 114.25 599.088 114.25C599.481 114.25 599.868 114.356 600.208 114.558L600.209 114.558L623.301 128.143C623.301 128.144 623.301 128.144 623.301 128.144C623.636 128.344 623.915 128.631 624.108 128.976C624.302 129.321 624.404 129.712 624.404 130.111C624.404 130.509 624.302 130.9 624.108 131.245C623.914 131.591 623.636 131.877 623.301 132.078L596.244 148.139C596.244 148.139 596.244 148.139 596.244 148.14C595.906 148.337 595.525 148.44 595.137 148.44C594.748 148.44 594.366 148.336 594.029 148.139L594.027 148.138L570.842 134.753Z" fill="#23293D" stroke="#313A55" stroke-width="0.5"/>
<g filter="url(#filter24_d)">
<path d="M627.717 105.97L650.902 119.355C651.278 119.574 651.704 119.69 652.137 119.69C652.57 119.69 652.995 119.574 653.371 119.355L680.429 103.293C680.802 103.069 681.111 102.751 681.326 102.368C681.541 101.985 681.654 101.552 681.654 101.111C681.654 100.67 681.541 100.236 681.326 99.8536C681.111 99.4709 680.802 99.1521 680.429 98.9289L657.335 85.3428C656.957 85.1183 656.526 85 656.088 85C655.65 85 655.22 85.1183 654.841 85.3428L627.678 101.579C627.301 101.804 626.988 102.127 626.773 102.514C626.557 102.902 626.445 103.34 626.449 103.786C626.453 104.232 626.573 104.668 626.795 105.052C627.018 105.435 627.336 105.752 627.717 105.97Z" fill="#313A55"/>
<path d="M627.842 105.753L627.841 105.753C627.499 105.557 627.212 105.272 627.011 104.926C626.811 104.58 626.703 104.186 626.699 103.784C626.696 103.381 626.796 102.985 626.991 102.636C627.185 102.286 627.467 101.996 627.806 101.794L627.806 101.794L654.969 85.5579C654.969 85.5578 654.969 85.5577 654.969 85.5577C655.309 85.356 655.695 85.25 656.088 85.25C656.481 85.25 656.868 85.3561 657.208 85.5579L657.209 85.5583L680.3 99.1434C680.301 99.1436 680.301 99.1437 680.301 99.1439C680.636 99.3445 680.915 99.6312 681.108 99.9761C681.302 100.321 681.404 100.712 681.404 101.111C681.404 101.509 681.302 101.9 681.108 102.245C680.914 102.591 680.636 102.877 680.3 103.078L653.244 119.139C653.244 119.139 653.244 119.139 653.243 119.14C652.906 119.337 652.525 119.44 652.137 119.44C651.748 119.44 651.366 119.336 651.029 119.139L651.027 119.138L627.842 105.753Z" stroke="#313A55" stroke-width="0.5"/>
</g>
<path d="M630.986 99.1818C633.255 94.8182 626.449 101.8 626.449 97V103L630.986 99.1818Z" fill="#313A55"/>
<path d="M675.449 98.8182C675.449 101 681.449 96.2 681.449 101V95L675.449 98.8182Z" fill="#313A55" stroke="#313A55" stroke-width="0.3"/>
<path d="M627.842 99.7531L627.841 99.7526C627.499 99.5567 627.212 99.2718 627.011 98.9261C626.811 98.5803 626.703 98.1862 626.699 97.7838C626.696 97.3813 626.796 96.9853 626.991 96.6358C627.185 96.2864 627.467 95.9961 627.806 95.7939L627.806 95.7938L654.969 79.5579C654.969 79.5578 654.969 79.5577 654.969 79.5577C655.309 79.356 655.695 79.25 656.088 79.25C656.481 79.25 656.868 79.3561 657.208 79.5579L657.209 79.5583L680.301 93.1434C680.301 93.1436 680.301 93.1437 680.301 93.1439C680.636 93.3445 680.915 93.6312 681.108 93.9761C681.302 94.3212 681.404 94.7124 681.404 95.1107C681.404 95.5091 681.302 95.9002 681.108 96.2454C680.914 96.5905 680.636 96.8774 680.301 97.078L653.244 113.139C653.244 113.139 653.244 113.139 653.244 113.14C652.906 113.337 652.525 113.44 652.137 113.44C651.748 113.44 651.366 113.336 651.029 113.139L651.027 113.138L627.842 99.7531Z" fill="#23293D" stroke="#313A55" stroke-width="0.5"/>
<g filter="url(#filter25_d)">
<path d="M723.549 506.87C735.202 506.87 744.649 501.484 744.649 494.84C744.649 488.196 735.202 482.81 723.549 482.81C711.896 482.81 702.449 488.196 702.449 494.84C702.449 501.484 711.896 506.87 723.549 506.87Z" fill="url(#paint52_linear)"/>
<path d="M744.399 494.84C744.399 498.033 742.127 500.973 738.345 503.129C734.571 505.281 729.34 506.62 723.549 506.62C717.758 506.62 712.527 505.281 708.753 503.129C704.972 500.973 702.699 498.033 702.699 494.84C702.699 491.647 704.972 488.707 708.753 486.551C712.527 484.399 717.758 483.06 723.549 483.06C729.34 483.06 734.571 484.399 738.345 486.551C742.127 488.707 744.399 491.647 744.399 494.84Z" stroke="#3B4974" stroke-width="0.5"/>
</g>
<mask id="path-103-inside-3" fill="white">
<path d="M702.459 494.84V488.03H744.649V494.84"/>
</mask>
<path d="M702.459 494.84V488.03H744.649V494.84" fill="#FF2473"/>
<path d="M702.459 488.03V487.53H701.959V488.03H702.459ZM744.649 488.03H745.149V487.53H744.649V488.03ZM702.959 494.84V488.03H701.959V494.84H702.959ZM702.459 488.53H744.649V487.53H702.459V488.53ZM744.149 488.03V494.84H745.149V488.03H744.149Z" fill="#313A55" mask="url(#path-103-inside-3)"/>
<path d="M744.399 488.03C744.399 491.223 742.127 494.163 738.345 496.319C734.571 498.471 729.34 499.81 723.549 499.81C717.758 499.81 712.527 498.471 708.753 496.319C704.972 494.163 702.699 491.223 702.699 488.03C702.699 484.837 704.972 481.897 708.753 479.741C712.527 477.589 717.758 476.25 723.549 476.25C729.34 476.25 734.571 477.589 738.345 479.741C742.127 481.897 744.399 484.837 744.399 488.03Z" fill="url(#paint53_radial)" stroke="#3B4974" stroke-width="0.5"/>
<g filter="url(#filter26_d)">
<path d="M672.549 475.87C684.202 475.87 693.649 470.484 693.649 463.84C693.649 457.196 684.202 451.81 672.549 451.81C660.896 451.81 651.449 457.196 651.449 463.84C651.449 470.484 660.896 475.87 672.549 475.87Z" fill="url(#paint54_linear)"/>
<path d="M693.399 463.84C693.399 467.033 691.127 469.973 687.345 472.129C683.571 474.281 678.34 475.62 672.549 475.62C666.758 475.62 661.527 474.281 657.753 472.129C653.972 469.973 651.699 467.033 651.699 463.84C651.699 460.647 653.972 457.707 657.753 455.551C661.527 453.399 666.758 452.06 672.549 452.06C678.34 452.06 683.571 453.399 687.345 455.551C691.127 457.707 693.399 460.647 693.399 463.84Z" stroke="#3B4974" stroke-width="0.5"/>
</g>
<mask id="path-108-inside-4" fill="white">
<path d="M651.459 463.84V457.03H693.649V463.84"/>
</mask>
<path d="M651.459 463.84V457.03H693.649V463.84" fill="#FF2473"/>
<path d="M651.459 457.03V456.53H650.959V457.03H651.459ZM693.649 457.03H694.149V456.53H693.649V457.03ZM651.959 463.84V457.03H650.959V463.84H651.959ZM651.459 457.53H693.649V456.53H651.459V457.53ZM693.149 457.03V463.84H694.149V457.03H693.149Z" fill="#313A55" mask="url(#path-108-inside-4)"/>
<path d="M693.399 457.03C693.399 460.223 691.127 463.163 687.345 465.319C683.571 467.471 678.34 468.81 672.549 468.81C666.758 468.81 661.527 467.471 657.753 465.319C653.972 463.163 651.699 460.223 651.699 457.03C651.699 453.837 653.972 450.897 657.753 448.741C661.527 446.589 666.758 445.25 672.549 445.25C678.34 445.25 683.571 446.589 687.345 448.741C691.127 450.897 693.399 453.837 693.399 457.03Z" fill="url(#paint55_radial)" stroke="#3B4974" stroke-width="0.5"/>
<g filter="url(#filter27_d)">
<path d="M727.549 446.87C739.202 446.87 748.649 441.484 748.649 434.84C748.649 428.196 739.202 422.81 727.549 422.81C715.896 422.81 706.449 428.196 706.449 434.84C706.449 441.484 715.896 446.87 727.549 446.87Z" fill="url(#paint56_linear)"/>
<path d="M748.399 434.84C748.399 438.033 746.127 440.973 742.345 443.129C738.571 445.281 733.34 446.62 727.549 446.62C721.758 446.62 716.527 445.281 712.753 443.129C708.972 440.973 706.699 438.033 706.699 434.84C706.699 431.647 708.972 428.707 712.753 426.551C716.527 424.399 721.758 423.06 727.549 423.06C733.34 423.06 738.571 424.399 742.345 426.551C746.127 428.707 748.399 431.647 748.399 434.84Z" stroke="#3B4974" stroke-width="0.5"/>
</g>
<mask id="path-113-inside-5" fill="white">
<path d="M706.459 434.84V428.03H748.649V434.84"/>
</mask>
<path d="M706.459 434.84V428.03H748.649V434.84" fill="#FF2473"/>
<path d="M706.459 428.03V427.53H705.959V428.03H706.459ZM748.649 428.03H749.149V427.53H748.649V428.03ZM706.959 434.84V428.03H705.959V434.84H706.959ZM706.459 428.53H748.649V427.53H706.459V428.53ZM748.149 428.03V434.84H749.149V428.03H748.149Z" fill="#313A55" mask="url(#path-113-inside-5)"/>
<path d="M748.399 428.03C748.399 431.223 746.127 434.163 742.345 436.319C738.571 438.471 733.34 439.81 727.549 439.81C721.758 439.81 716.527 438.471 712.753 436.319C708.972 434.163 706.699 431.223 706.699 428.03C706.699 424.837 708.972 421.897 712.753 419.741C716.527 417.589 721.758 416.25 727.549 416.25C733.34 416.25 738.571 417.589 742.345 419.741C746.127 421.897 748.399 424.837 748.399 428.03Z" fill="url(#paint57_radial)" stroke="#3B4974" stroke-width="0.5"/>
<g filter="url(#filter28_d)">
<path d="M685.549 359.87C697.202 359.87 706.649 354.484 706.649 347.84C706.649 341.196 697.202 335.81 685.549 335.81C673.896 335.81 664.449 341.196 664.449 347.84C664.449 354.484 673.896 359.87 685.549 359.87Z" fill="url(#paint58_linear)"/>
<path d="M706.399 347.84C706.399 351.033 704.127 353.973 700.345 356.129C696.571 358.281 691.34 359.62 685.549 359.62C679.758 359.62 674.527 358.281 670.753 356.129C666.972 353.973 664.699 351.033 664.699 347.84C664.699 344.647 666.972 341.707 670.753 339.551C674.527 337.399 679.758 336.06 685.549 336.06C691.34 336.06 696.571 337.399 700.345 339.551C704.127 341.707 706.399 344.647 706.399 347.84Z" stroke="#3B4974" stroke-width="0.5"/>
</g>
<mask id="path-118-inside-6" fill="white">
<path d="M664.459 347.84V341.03H706.649V347.84"/>
</mask>
<path d="M664.459 347.84V341.03H706.649V347.84" fill="#FF2473"/>
<path d="M664.459 341.03V340.53H663.959V341.03H664.459ZM706.649 341.03H707.149V340.53H706.649V341.03ZM664.959 347.84V341.03H663.959V347.84H664.959ZM664.459 341.53H706.649V340.53H664.459V341.53ZM706.149 341.03V347.84H707.149V341.03H706.149Z" fill="#313A55" mask="url(#path-118-inside-6)"/>
<path d="M706.399 341.03C706.399 344.223 704.127 347.163 700.345 349.319C696.571 351.471 691.34 352.81 685.549 352.81C679.758 352.81 674.527 351.471 670.753 349.319C666.972 347.163 664.699 344.223 664.699 341.03C664.699 337.837 666.972 334.897 670.753 332.741C674.527 330.589 679.758 329.25 685.549 329.25C691.34 329.25 696.571 330.589 700.345 332.741C704.127 334.897 706.399 337.837 706.399 341.03Z" fill="url(#paint59_radial)" stroke="#3B4974" stroke-width="0.5"/>
<g filter="url(#filter29_d)">
<path d="M620.549 451.87C632.202 451.87 641.649 446.484 641.649 439.84C641.649 433.196 632.202 427.81 620.549 427.81C608.896 427.81 599.449 433.196 599.449 439.84C599.449 446.484 608.896 451.87 620.549 451.87Z" fill="url(#paint60_radial)"/>
<path d="M641.549 439.84C641.549 443.111 639.223 446.091 635.42 448.26C631.619 450.427 626.362 451.77 620.549 451.77C614.737 451.77 609.479 450.427 605.679 448.26C601.875 446.091 599.549 443.111 599.549 439.84C599.549 436.57 601.875 433.589 605.679 431.42C609.479 429.254 614.737 427.91 620.549 427.91C626.362 427.91 631.619 429.254 635.42 431.42C639.223 433.589 641.549 436.57 641.549 439.84Z" stroke="#313A55" stroke-opacity="0.44" stroke-width="0.2"/>
</g>
<mask id="path-123-inside-7" fill="white">
<path d="M599.459 439.84V433.03H641.649V439.84"/>
</mask>
<path d="M599.459 439.84V433.03H641.649V439.84" fill="url(#paint61_linear)"/>
<path d="M599.459 433.03V432.03H598.459V433.03H599.459ZM641.649 433.03H642.649V432.03H641.649V433.03ZM600.459 439.84V433.03H598.459V439.84H600.459ZM599.459 434.03H641.649V432.03H599.459V434.03ZM640.649 433.03V439.84H642.649V433.03H640.649Z" fill="#FF1167" mask="url(#path-123-inside-7)"/>
<g filter="url(#filter30_d)">
<path d="M620.549 445.06C632.202 445.06 641.649 439.674 641.649 433.03C641.649 426.386 632.202 421 620.549 421C608.896 421 599.449 426.386 599.449 433.03C599.449 439.674 608.896 445.06 620.549 445.06Z" fill="url(#paint62_radial)"/>
<path d="M641.149 433.03C641.149 436.095 638.966 438.967 635.222 441.102C631.492 443.229 626.305 444.56 620.549 444.56C614.793 444.56 609.607 443.229 605.877 441.102C602.133 438.967 599.949 436.095 599.949 433.03C599.949 429.965 602.133 427.093 605.877 424.958C609.607 422.831 614.793 421.5 620.549 421.5C626.305 421.5 631.492 422.831 635.222 424.958C638.966 427.093 641.149 429.965 641.149 433.03Z" stroke="#DE063A"/>
</g>
<g filter="url(#filter31_d)">
<path d="M681.049 416.87C692.702 416.87 702.149 411.484 702.149 404.84C702.149 398.196 692.702 392.81 681.049 392.81C669.396 392.81 659.949 398.196 659.949 404.84C659.949 411.484 669.396 416.87 681.049 416.87Z" fill="url(#paint63_radial)"/>
<path d="M702.049 404.84C702.049 408.111 699.723 411.091 695.919 413.26C692.119 415.427 686.861 416.77 681.049 416.77C675.237 416.77 669.979 415.427 666.179 413.26C662.375 411.091 660.049 408.111 660.049 404.84C660.049 401.57 662.375 398.589 666.179 396.42C669.979 394.254 675.237 392.91 681.049 392.91C686.861 392.91 692.119 394.254 695.919 396.42C699.723 398.589 702.049 401.57 702.049 404.84Z" stroke="#313A55" stroke-opacity="0.44" stroke-width="0.2"/>
</g>
<mask id="path-129-inside-8" fill="white">
<path d="M659.959 404.84V398.03H702.149V404.84"/>
</mask>
<path d="M659.959 404.84V398.03H702.149V404.84" fill="url(#paint64_linear)"/>
<path d="M659.959 398.03V397.03H658.959V398.03H659.959ZM702.149 398.03H703.149V397.03H702.149V398.03ZM660.959 404.84V398.03H658.959V404.84H660.959ZM659.959 399.03H702.149V397.03H659.959V399.03ZM701.149 398.03V404.84H703.149V398.03H701.149Z" fill="#FF1167" mask="url(#path-129-inside-8)"/>
<g filter="url(#filter32_d)">
<path d="M681.049 410.06C692.702 410.06 702.149 404.674 702.149 398.03C702.149 391.386 692.702 386 681.049 386C669.396 386 659.949 391.386 659.949 398.03C659.949 404.674 669.396 410.06 681.049 410.06Z" fill="url(#paint65_radial)"/>
<path d="M701.649 398.03C701.649 401.095 699.466 403.967 695.721 406.102C691.991 408.229 686.805 409.56 681.049 409.56C675.293 409.56 670.107 408.229 666.377 406.102C662.632 403.967 660.449 401.095 660.449 398.03C660.449 394.965 662.632 392.093 666.377 389.958C670.107 387.831 675.293 386.5 681.049 386.5C686.805 386.5 691.991 387.831 695.721 389.958C699.466 392.093 701.649 394.965 701.649 398.03Z" stroke="#DE063A"/>
</g>
<defs>
<filter id="filter0_d" x="851.449" y="356.81" width="62.2" height="44.06" filterUnits="userSpaceOnUse" color-interpolation-filters="sRGB">
<feFlood flood-opacity="0" result="BackgroundImageFix"/>
<feColorMatrix in="SourceAlpha" type="matrix" values="0 0 0 0 0 0 0 0 0 0 0 0 0 0 0 0 0 0 127 0"/>
<feOffset dy="4"/>
<feGaussianBlur stdDeviation="5"/>
<feColorMatrix type="matrix" values="0 0 0 0 0.137255 0 0 0 0 0.160784 0 0 0 0 0.239216 0 0 0 1 0"/>
<feBlend mode="normal" in2="BackgroundImageFix" result="effect1_dropShadow"/>
<feBlend mode="normal" in="SourceGraphic" in2="effect1_dropShadow" result="shape"/>
</filter>
<filter id="filter1_d" x="808.449" y="382.81" width="62.2" height="44.06" filterUnits="userSpaceOnUse" color-interpolation-filters="sRGB">
<feFlood flood-opacity="0" result="BackgroundImageFix"/>
<feColorMatrix in="SourceAlpha" type="matrix" values="0 0 0 0 0 0 0 0 0 0 0 0 0 0 0 0 0 0 127 0"/>
<feOffset dy="4"/>
<feGaussianBlur stdDeviation="5"/>
<feColorMatrix type="matrix" values="0 0 0 0 0.137255 0 0 0 0 0.160784 0 0 0 0 0.239216 0 0 0 1 0"/>
<feBlend mode="normal" in2="BackgroundImageFix" result="effect1_dropShadow"/>
<feBlend mode="normal" in="SourceGraphic" in2="effect1_dropShadow" result="shape"/>
</filter>
<filter id="filter2_d" x="343.449" y="213" width="553" height="381.546" filterUnits="userSpaceOnUse" color-interpolation-filters="sRGB">
<feFlood flood-opacity="0" result="BackgroundImageFix"/>
<feColorMatrix in="SourceAlpha" type="matrix" values="0 0 0 0 0 0 0 0 0 0 0 0 0 0 0 0 0 0 127 0"/>
<feOffset dy="15"/>
<feGaussianBlur stdDeviation="10"/>
<feColorMatrix type="matrix" values="0 0 0 0 0.137255 0 0 0 0 0.160784 0 0 0 0 0.239216 0 0 0 0.5 0"/>
<feBlend mode="normal" in2="BackgroundImageFix" result="effect1_dropShadow"/>
<feBlend mode="normal" in="SourceGraphic" in2="effect1_dropShadow" result="shape"/>
</filter>
<filter id="filter3_d" x="303.449" y="369.81" width="62.2" height="44.06" filterUnits="userSpaceOnUse" color-interpolation-filters="sRGB">
<feFlood flood-opacity="0" result="BackgroundImageFix"/>
<feColorMatrix in="SourceAlpha" type="matrix" values="0 0 0 0 0 0 0 0 0 0 0 0 0 0 0 0 0 0 127 0"/>
<feOffset dy="4"/>
<feGaussianBlur stdDeviation="5"/>
<feColorMatrix type="matrix" values="0 0 0 0 0.137255 0 0 0 0 0.160784 0 0 0 0 0.239216 0 0 0 1 0"/>
<feBlend mode="normal" in2="BackgroundImageFix" result="effect1_dropShadow"/>
<feBlend mode="normal" in="SourceGraphic" in2="effect1_dropShadow" result="shape"/>
</filter>
<filter id="filter4_d" x="242.449" y="405.81" width="62.2" height="44.06" filterUnits="userSpaceOnUse" color-interpolation-filters="sRGB">
<feFlood flood-opacity="0" result="BackgroundImageFix"/>
<feColorMatrix in="SourceAlpha" type="matrix" values="0 0 0 0 0 0 0 0 0 0 0 0 0 0 0 0 0 0 127 0"/>
<feOffset dy="4"/>
<feGaussianBlur stdDeviation="5"/>
<feColorMatrix type="matrix" values="0 0 0 0 0.137255 0 0 0 0 0.160784 0 0 0 0 0.239216 0 0 0 1 0"/>
<feBlend mode="normal" in2="BackgroundImageFix" result="effect1_dropShadow"/>
<feBlend mode="normal" in="SourceGraphic" in2="effect1_dropShadow" result="shape"/>
</filter>
<filter id="filter5_d" x="324.449" y="416.81" width="62.2" height="44.06" filterUnits="userSpaceOnUse" color-interpolation-filters="sRGB">
<feFlood flood-opacity="0" result="BackgroundImageFix"/>
<feColorMatrix in="SourceAlpha" type="matrix" values="0 0 0 0 0 0 0 0 0 0 0 0 0 0 0 0 0 0 127 0"/>
<feOffset dy="4"/>
<feGaussianBlur stdDeviation="5"/>
<feColorMatrix type="matrix" values="0 0 0 0 0.137255 0 0 0 0 0.160784 0 0 0 0 0.239216 0 0 0 1 0"/>
<feBlend mode="normal" in2="BackgroundImageFix" result="effect1_dropShadow"/>
<feBlend mode="normal" in="SourceGraphic" in2="effect1_dropShadow" result="shape"/>
</filter>
<filter id="filter6_d" x="746.449" y="446.81" width="62.2" height="44.06" filterUnits="userSpaceOnUse" color-interpolation-filters="sRGB">
<feFlood flood-opacity="0" result="BackgroundImageFix"/>
<feColorMatrix in="SourceAlpha" type="matrix" values="0 0 0 0 0 0 0 0 0 0 0 0 0 0 0 0 0 0 127 0"/>
<feOffset dy="4"/>
<feGaussianBlur stdDeviation="5"/>
<feColorMatrix type="matrix" values="0 0 0 0 0.137255 0 0 0 0 0.160784 0 0 0 0 0.239216 0 0 0 1 0"/>
<feBlend mode="normal" in2="BackgroundImageFix" result="effect1_dropShadow"/>
<feBlend mode="normal" in="SourceGraphic" in2="effect1_dropShadow" result="shape"/>
</filter>
<filter id="filter7_d" x="800.449" y="413.81" width="62.2" height="44.06" filterUnits="userSpaceOnUse" color-interpolation-filters="sRGB">
<feFlood flood-opacity="0" result="BackgroundImageFix"/>
<feColorMatrix in="SourceAlpha" type="matrix" values="0 0 0 0 0 0 0 0 0 0 0 0 0 0 0 0 0 0 127 0"/>
<feOffset dy="4"/>
<feGaussianBlur stdDeviation="5"/>
<feColorMatrix type="matrix" values="0 0 0 0 0.137255 0 0 0 0 0.160784 0 0 0 0 0.239216 0 0 0 1 0"/>
<feBlend mode="normal" in2="BackgroundImageFix" result="effect1_dropShadow"/>
<feBlend mode="normal" in="SourceGraphic" in2="effect1_dropShadow" result="shape"/>
</filter>
<filter id="filter8_d" x="749.449" y="386.81" width="62.2" height="44.06" filterUnits="userSpaceOnUse" color-interpolation-filters="sRGB">
<feFlood flood-opacity="0" result="BackgroundImageFix"/>
<feColorMatrix in="SourceAlpha" type="matrix" values="0 0 0 0 0 0 0 0 0 0 0 0 0 0 0 0 0 0 127 0"/>
<feOffset dy="4"/>
<feGaussianBlur stdDeviation="5"/>
<feColorMatrix type="matrix" values="0 0 0 0 0.137255 0 0 0 0 0.160784 0 0 0 0 0.239216 0 0 0 1 0"/>
<feBlend mode="normal" in2="BackgroundImageFix" result="effect1_dropShadow"/>
<feBlend mode="normal" in="SourceGraphic" in2="effect1_dropShadow" result="shape"/>
</filter>
<filter id="filter9_d" x="700.449" y="358.81" width="62.2" height="44.06" filterUnits="userSpaceOnUse" color-interpolation-filters="sRGB">
<feFlood flood-opacity="0" result="BackgroundImageFix"/>
<feColorMatrix in="SourceAlpha" type="matrix" values="0 0 0 0 0 0 0 0 0 0 0 0 0 0 0 0 0 0 127 0"/>
<feOffset dy="4"/>
<feGaussianBlur stdDeviation="5"/>
<feColorMatrix type="matrix" values="0 0 0 0 0.137255 0 0 0 0 0.160784 0 0 0 0 0.239216 0 0 0 1 0"/>
<feBlend mode="normal" in2="BackgroundImageFix" result="effect1_dropShadow"/>
<feBlend mode="normal" in="SourceGraphic" in2="effect1_dropShadow" result="shape"/>
</filter>
<filter id="filter10_d" x="174.449" y="444.81" width="62.2" height="44.06" filterUnits="userSpaceOnUse" color-interpolation-filters="sRGB">
<feFlood flood-opacity="0" result="BackgroundImageFix"/>
<feColorMatrix in="SourceAlpha" type="matrix" values="0 0 0 0 0 0 0 0 0 0 0 0 0 0 0 0 0 0 127 0"/>
<feOffset dy="4"/>
<feGaussianBlur stdDeviation="5"/>
<feColorMatrix type="matrix" values="0 0 0 0 0.137255 0 0 0 0 0.160784 0 0 0 0 0.239216 0 0 0 1 0"/>
<feBlend mode="normal" in2="BackgroundImageFix" result="effect1_dropShadow"/>
<feBlend mode="normal" in="SourceGraphic" in2="effect1_dropShadow" result="shape"/>
</filter>
<filter id="filter11_d" x="257.449" y="455.81" width="62.2" height="44.06" filterUnits="userSpaceOnUse" color-interpolation-filters="sRGB">
<feFlood flood-opacity="0" result="BackgroundImageFix"/>
<feColorMatrix in="SourceAlpha" type="matrix" values="0 0 0 0 0 0 0 0 0 0 0 0 0 0 0 0 0 0 127 0"/>
<feOffset dy="4"/>
<feGaussianBlur stdDeviation="5"/>
<feColorMatrix type="matrix" values="0 0 0 0 0.137255 0 0 0 0 0.160784 0 0 0 0 0.239216 0 0 0 1 0"/>
<feBlend mode="normal" in2="BackgroundImageFix" result="effect1_dropShadow"/>
<feBlend mode="normal" in="SourceGraphic" in2="effect1_dropShadow" result="shape"/>
</filter>
<filter id="filter12_d" x="504.95" y="380.397" width="117.991" height="73.6032" filterUnits="userSpaceOnUse" color-interpolation-filters="sRGB">
<feFlood flood-opacity="0" result="BackgroundImageFix"/>
<feColorMatrix in="SourceAlpha" type="matrix" values="0 0 0 0 0 0 0 0 0 0 0 0 0 0 0 0 0 0 127 0"/>
<feOffset dy="4"/>
<feGaussianBlur stdDeviation="2.5"/>
<feColorMatrix type="matrix" values="0 0 0 0 1 0 0 0 0 0.141176 0 0 0 0 0.45098 0 0 0 0.75 0"/>
<feBlend mode="normal" in2="BackgroundImageFix" result="effect1_dropShadow"/>
<feBlend mode="normal" in="SourceGraphic" in2="effect1_dropShadow" result="shape"/>
</filter>
<filter id="filter13_d" x="473.95" y="360.81" width="62.2" height="44.06" filterUnits="userSpaceOnUse" color-interpolation-filters="sRGB">
<feFlood flood-opacity="0" result="BackgroundImageFix"/>
<feColorMatrix in="SourceAlpha" type="matrix" values="0 0 0 0 0 0 0 0 0 0 0 0 0 0 0 0 0 0 127 0"/>
<feOffset dy="5"/>
<feGaussianBlur stdDeviation="5"/>
<feColorMatrix type="matrix" values="0 0 0 0 1 0 0 0 0 0.141176 0 0 0 0 0.45098 0 0 0 0.5 0"/>
<feBlend mode="normal" in2="BackgroundImageFix" result="effect1_dropShadow"/>
<feBlend mode="normal" in="SourceGraphic" in2="effect1_dropShadow" result="shape"/>
</filter>
<filter id="filter14_d" x="479.95" y="359" width="50.2" height="32.06" filterUnits="userSpaceOnUse" color-interpolation-filters="sRGB">
<feFlood flood-opacity="0" result="BackgroundImageFix"/>
<feColorMatrix in="SourceAlpha" type="matrix" values="0 0 0 0 0 0 0 0 0 0 0 0 0 0 0 0 0 0 127 0"/>
<feOffset dy="4"/>
<feGaussianBlur stdDeviation="2"/>
<feColorMatrix type="matrix" values="0 0 0 0 0 0 0 0 0 0 0 0 0 0 0 0 0 0 0.25 0"/>
<feBlend mode="normal" in2="BackgroundImageFix" result="effect1_dropShadow"/>
<feBlend mode="normal" in="SourceGraphic" in2="effect1_dropShadow" result="shape"/>
</filter>
<filter id="filter15_d" x="495.965" y="240" width="11.9844" height="135.023" filterUnits="userSpaceOnUse" color-interpolation-filters="sRGB">
<feFlood flood-opacity="0" result="BackgroundImageFix"/>
<feColorMatrix in="SourceAlpha" type="matrix" values="0 0 0 0 0 0 0 0 0 0 0 0 0 0 0 0 0 0 127 0"/>
<feOffset dx="-2" dy="2"/>
<feGaussianBlur stdDeviation="2"/>
<feColorMatrix type="matrix" values="0 0 0 0 1 0 0 0 0 0.141176 0 0 0 0 0.45098 0 0 0 0.5 0"/>
<feBlend mode="normal" in2="BackgroundImageFix" result="effect1_dropShadow"/>
<feBlend mode="normal" in="SourceGraphic" in2="effect1_dropShadow" result="shape"/>
</filter>
<filter id="filter16_i" x="471.95" y="178" width="55.205" height="39.69" filterUnits="userSpaceOnUse" color-interpolation-filters="sRGB">
<feFlood flood-opacity="0" result="BackgroundImageFix"/>
<feBlend mode="normal" in="SourceGraphic" in2="BackgroundImageFix" result="shape"/>
<feColorMatrix in="SourceAlpha" type="matrix" values="0 0 0 0 0 0 0 0 0 0 0 0 0 0 0 0 0 0 127 0" result="hardAlpha"/>
<feOffset dy="5"/>
<feGaussianBlur stdDeviation="7.5"/>
<feComposite in2="hardAlpha" operator="arithmetic" k2="-1" k3="1"/>
<feColorMatrix type="matrix" values="0 0 0 0 1 0 0 0 0 0.141176 0 0 0 0 0.45098 0 0 0 1 0"/>
<feBlend mode="normal" in2="shape" result="effect1_innerShadow"/>
</filter>
<filter id="filter17_d" x="461.95" y="174" width="75.205" height="54.69" filterUnits="userSpaceOnUse" color-interpolation-filters="sRGB">
<feFlood flood-opacity="0" result="BackgroundImageFix"/>
<feColorMatrix in="SourceAlpha" type="matrix" values="0 0 0 0 0 0 0 0 0 0 0 0 0 0 0 0 0 0 127 0"/>
<feOffset dy="5"/>
<feGaussianBlur stdDeviation="5"/>
<feColorMatrix type="matrix" values="0 0 0 0 1 0 0 0 0 0.141176 0 0 0 0 0.45098 0 0 0 0.5 0"/>
<feBlend mode="normal" in2="BackgroundImageFix" result="effect1_dropShadow"/>
<feBlend mode="normal" in="SourceGraphic" in2="effect1_dropShadow" result="shape"/>
</filter>
<filter id="filter18_d" x="600.449" y="357.81" width="62.2" height="44.06" filterUnits="userSpaceOnUse" color-interpolation-filters="sRGB">
<feFlood flood-opacity="0" result="BackgroundImageFix"/>
<feColorMatrix in="SourceAlpha" type="matrix" values="0 0 0 0 0 0 0 0 0 0 0 0 0 0 0 0 0 0 127 0"/>
<feOffset dy="4"/>
<feGaussianBlur stdDeviation="5"/>
<feColorMatrix type="matrix" values="0 0 0 0 1 0 0 0 0 0.141176 0 0 0 0 0.45098 0 0 0 0.5 0"/>
<feBlend mode="normal" in2="BackgroundImageFix" result="effect1_dropShadow"/>
<feBlend mode="normal" in="SourceGraphic" in2="effect1_dropShadow" result="shape"/>
</filter>
<filter id="filter19_d" x="606.449" y="357" width="50.2" height="32.06" filterUnits="userSpaceOnUse" color-interpolation-filters="sRGB">
<feFlood flood-opacity="0" result="BackgroundImageFix"/>
<feColorMatrix in="SourceAlpha" type="matrix" values="0 0 0 0 0 0 0 0 0 0 0 0 0 0 0 0 0 0 127 0"/>
<feOffset dy="4"/>
<feGaussianBlur stdDeviation="2"/>
<feColorMatrix type="matrix" values="0 0 0 0 0 0 0 0 0 0 0 0 0 0 0 0 0 0 0.25 0"/>
<feBlend mode="normal" in2="BackgroundImageFix" result="effect1_dropShadow"/>
<feBlend mode="normal" in="SourceGraphic" in2="effect1_dropShadow" result="shape"/>
</filter>
<filter id="filter20_d" x="597.449" y="301.81" width="62.2" height="44.06" filterUnits="userSpaceOnUse" color-interpolation-filters="sRGB">
<feFlood flood-opacity="0" result="BackgroundImageFix"/>
<feColorMatrix in="SourceAlpha" type="matrix" values="0 0 0 0 0 0 0 0 0 0 0 0 0 0 0 0 0 0 127 0"/>
<feOffset dy="4"/>
<feGaussianBlur stdDeviation="5"/>
<feColorMatrix type="matrix" values="0 0 0 0 1 0 0 0 0 0.141176 0 0 0 0 0.45098 0 0 0 0.5 0"/>
<feBlend mode="normal" in2="BackgroundImageFix" result="effect1_dropShadow"/>
<feBlend mode="normal" in="SourceGraphic" in2="effect1_dropShadow" result="shape"/>
</filter>
<filter id="filter21_d" x="603.449" y="301" width="50.2" height="32.06" filterUnits="userSpaceOnUse" color-interpolation-filters="sRGB">
<feFlood flood-opacity="0" result="BackgroundImageFix"/>
<feColorMatrix in="SourceAlpha" type="matrix" values="0 0 0 0 0 0 0 0 0 0 0 0 0 0 0 0 0 0 127 0"/>
<feOffset dy="4"/>
<feGaussianBlur stdDeviation="2"/>
<feColorMatrix type="matrix" values="0 0 0 0 0 0 0 0 0 0 0 0 0 0 0 0 0 0 0.25 0"/>
<feBlend mode="normal" in2="BackgroundImageFix" result="effect1_dropShadow"/>
<feBlend mode="normal" in="SourceGraphic" in2="effect1_dropShadow" result="shape"/>
</filter>
<filter id="filter22_d" x="615.989" y="408.112" width="58.9206" height="33.7755" filterUnits="userSpaceOnUse" color-interpolation-filters="sRGB">
<feFlood flood-opacity="0" result="BackgroundImageFix"/>
<feColorMatrix in="SourceAlpha" type="matrix" values="0 0 0 0 0 0 0 0 0 0 0 0 0 0 0 0 0 0 127 0"/>
<feOffset dy="1"/>
<feGaussianBlur stdDeviation="1"/>
<feColorMatrix type="matrix" values="0 0 0 0 1 0 0 0 0 0.141176 0 0 0 0 0.45098 0 0 0 1 0"/>
<feBlend mode="normal" in2="BackgroundImageFix" result="effect1_dropShadow"/>
<feBlend mode="normal" in="SourceGraphic" in2="effect1_dropShadow" result="shape"/>
</filter>
<filter id="filter23_d" x="559.449" y="115" width="75.205" height="54.69" filterUnits="userSpaceOnUse" color-interpolation-filters="sRGB">
<feFlood flood-opacity="0" result="BackgroundImageFix"/>
<feColorMatrix in="SourceAlpha" type="matrix" values="0 0 0 0 0 0 0 0 0 0 0 0 0 0 0 0 0 0 127 0"/>
<feOffset dy="5"/>
<feGaussianBlur stdDeviation="5"/>
<feColorMatrix type="matrix" values="0 0 0 0 0.192157 0 0 0 0 0.227451 0 0 0 0 0.333333 0 0 0 1 0"/>
<feBlend mode="normal" in2="BackgroundImageFix" result="effect1_dropShadow"/>
<feBlend mode="normal" in="SourceGraphic" in2="effect1_dropShadow" result="shape"/>
</filter>
<filter id="filter24_d" x="616.449" y="80" width="75.205" height="54.69" filterUnits="userSpaceOnUse" color-interpolation-filters="sRGB">
<feFlood flood-opacity="0" result="BackgroundImageFix"/>
<feColorMatrix in="SourceAlpha" type="matrix" values="0 0 0 0 0 0 0 0 0 0 0 0 0 0 0 0 0 0 127 0"/>
<feOffset dy="5"/>
<feGaussianBlur stdDeviation="5"/>
<feColorMatrix type="matrix" values="0 0 0 0 0.192157 0 0 0 0 0.227451 0 0 0 0 0.333333 0 0 0 1 0"/>
<feBlend mode="normal" in2="BackgroundImageFix" result="effect1_dropShadow"/>
<feBlend mode="normal" in="SourceGraphic" in2="effect1_dropShadow" result="shape"/>
</filter>
<filter id="filter25_d" x="692.449" y="476.81" width="62.2" height="44.06" filterUnits="userSpaceOnUse" color-interpolation-filters="sRGB">
<feFlood flood-opacity="0" result="BackgroundImageFix"/>
<feColorMatrix in="SourceAlpha" type="matrix" values="0 0 0 0 0 0 0 0 0 0 0 0 0 0 0 0 0 0 127 0"/>
<feOffset dy="4"/>
<feGaussianBlur stdDeviation="5"/>
<feColorMatrix type="matrix" values="0 0 0 0 0.137255 0 0 0 0 0.160784 0 0 0 0 0.239216 0 0 0 1 0"/>
<feBlend mode="normal" in2="BackgroundImageFix" result="effect1_dropShadow"/>
<feBlend mode="normal" in="SourceGraphic" in2="effect1_dropShadow" result="shape"/>
</filter>
<filter id="filter26_d" x="641.449" y="445.81" width="62.2" height="44.06" filterUnits="userSpaceOnUse" color-interpolation-filters="sRGB">
<feFlood flood-opacity="0" result="BackgroundImageFix"/>
<feColorMatrix in="SourceAlpha" type="matrix" values="0 0 0 0 0 0 0 0 0 0 0 0 0 0 0 0 0 0 127 0"/>
<feOffset dy="4"/>
<feGaussianBlur stdDeviation="5"/>
<feColorMatrix type="matrix" values="0 0 0 0 0.137255 0 0 0 0 0.160784 0 0 0 0 0.239216 0 0 0 1 0"/>
<feBlend mode="normal" in2="BackgroundImageFix" result="effect1_dropShadow"/>
<feBlend mode="normal" in="SourceGraphic" in2="effect1_dropShadow" result="shape"/>
</filter>
<filter id="filter27_d" x="696.449" y="416.81" width="62.2" height="44.06" filterUnits="userSpaceOnUse" color-interpolation-filters="sRGB">
<feFlood flood-opacity="0" result="BackgroundImageFix"/>
<feColorMatrix in="SourceAlpha" type="matrix" values="0 0 0 0 0 0 0 0 0 0 0 0 0 0 0 0 0 0 127 0"/>
<feOffset dy="4"/>
<feGaussianBlur stdDeviation="5"/>
<feColorMatrix type="matrix" values="0 0 0 0 0.137255 0 0 0 0 0.160784 0 0 0 0 0.239216 0 0 0 1 0"/>
<feBlend mode="normal" in2="BackgroundImageFix" result="effect1_dropShadow"/>
<feBlend mode="normal" in="SourceGraphic" in2="effect1_dropShadow" result="shape"/>
</filter>
<filter id="filter28_d" x="654.449" y="329.81" width="62.2" height="44.06" filterUnits="userSpaceOnUse" color-interpolation-filters="sRGB">
<feFlood flood-opacity="0" result="BackgroundImageFix"/>
<feColorMatrix in="SourceAlpha" type="matrix" values="0 0 0 0 0 0 0 0 0 0 0 0 0 0 0 0 0 0 127 0"/>
<feOffset dy="4"/>
<feGaussianBlur stdDeviation="5"/>
<feColorMatrix type="matrix" values="0 0 0 0 0.137255 0 0 0 0 0.160784 0 0 0 0 0.239216 0 0 0 1 0"/>
<feBlend mode="normal" in2="BackgroundImageFix" result="effect1_dropShadow"/>
<feBlend mode="normal" in="SourceGraphic" in2="effect1_dropShadow" result="shape"/>
</filter>
<filter id="filter29_d" x="589.449" y="421.81" width="62.2" height="44.06" filterUnits="userSpaceOnUse" color-interpolation-filters="sRGB">
<feFlood flood-opacity="0" result="BackgroundImageFix"/>
<feColorMatrix in="SourceAlpha" type="matrix" values="0 0 0 0 0 0 0 0 0 0 0 0 0 0 0 0 0 0 127 0"/>
<feOffset dy="4"/>
<feGaussianBlur stdDeviation="5"/>
<feColorMatrix type="matrix" values="0 0 0 0 0.192157 0 0 0 0 0.227451 0 0 0 0 0.333333 0 0 0 0.5 0"/>
<feBlend mode="normal" in2="BackgroundImageFix" result="effect1_dropShadow"/>
<feBlend mode="normal" in="SourceGraphic" in2="effect1_dropShadow" result="shape"/>
</filter>
<filter id="filter30_d" x="595.449" y="421" width="50.2" height="32.06" filterUnits="userSpaceOnUse" color-interpolation-filters="sRGB">
<feFlood flood-opacity="0" result="BackgroundImageFix"/>
<feColorMatrix in="SourceAlpha" type="matrix" values="0 0 0 0 0 0 0 0 0 0 0 0 0 0 0 0 0 0 127 0"/>
<feOffset dy="4"/>
<feGaussianBlur stdDeviation="2"/>
<feColorMatrix type="matrix" values="0 0 0 0 0 0 0 0 0 0 0 0 0 0 0 0 0 0 0.25 0"/>
<feBlend mode="normal" in2="BackgroundImageFix" result="effect1_dropShadow"/>
<feBlend mode="normal" in="SourceGraphic" in2="effect1_dropShadow" result="shape"/>
</filter>
<filter id="filter31_d" x="649.949" y="386.81" width="62.2" height="44.06" filterUnits="userSpaceOnUse" color-interpolation-filters="sRGB">
<feFlood flood-opacity="0" result="BackgroundImageFix"/>
<feColorMatrix in="SourceAlpha" type="matrix" values="0 0 0 0 0 0 0 0 0 0 0 0 0 0 0 0 0 0 127 0"/>
<feOffset dy="4"/>
<feGaussianBlur stdDeviation="5"/>
<feColorMatrix type="matrix" values="0 0 0 0 0.192157 0 0 0 0 0.227451 0 0 0 0 0.333333 0 0 0 0.5 0"/>
<feBlend mode="normal" in2="BackgroundImageFix" result="effect1_dropShadow"/>
<feBlend mode="normal" in="SourceGraphic" in2="effect1_dropShadow" result="shape"/>
</filter>
<filter id="filter32_d" x="655.949" y="386" width="50.2" height="32.06" filterUnits="userSpaceOnUse" color-interpolation-filters="sRGB">
<feFlood flood-opacity="0" result="BackgroundImageFix"/>
<feColorMatrix in="SourceAlpha" type="matrix" values="0 0 0 0 0 0 0 0 0 0 0 0 0 0 0 0 0 0 127 0"/>
<feOffset dy="4"/>
<feGaussianBlur stdDeviation="2"/>
<feColorMatrix type="matrix" values="0 0 0 0 0 0 0 0 0 0 0 0 0 0 0 0 0 0 0.25 0"/>
<feBlend mode="normal" in2="BackgroundImageFix" result="effect1_dropShadow"/>
<feBlend mode="normal" in="SourceGraphic" in2="effect1_dropShadow" result="shape"/>
</filter>
<linearGradient id="paint0_linear" x1="1413.52" y1="547.765" x2="86.9758" y2="557.017" gradientUnits="userSpaceOnUse">
<stop offset="0.432292" stop-color="#313A55"/>
<stop offset="0.953125" stop-color="#DE063A"/>
</linearGradient>
<linearGradient id="paint1_linear" x1="846.949" y1="379.5" x2="920.949" y2="380.5" gradientUnits="userSpaceOnUse">
<stop offset="0.151042" stop-color="#FF2473"/>
<stop offset="0.501325" stop-color="#FF8200"/>
<stop offset="0.859375" stop-color="#FF2473"/>
</linearGradient>
<radialGradient id="paint2_radial" cx="0" cy="0" r="1" gradientUnits="userSpaceOnUse" gradientTransform="translate(882.549 368.03) rotate(90) scale(12.03 22.1104)">
<stop offset="0.786458" stop-color="#23293D"/>
<stop offset="1" stop-color="#313A55"/>
</radialGradient>
<linearGradient id="paint3_linear" x1="803.949" y1="405.5" x2="877.949" y2="406.5" gradientUnits="userSpaceOnUse">
<stop offset="0.151042" stop-color="#FF2473"/>
<stop offset="0.501325" stop-color="#FF8200"/>
<stop offset="0.859375" stop-color="#FF2473"/>
</linearGradient>
<radialGradient id="paint4_radial" cx="0" cy="0" r="1" gradientUnits="userSpaceOnUse" gradientTransform="translate(839.549 394.03) rotate(90) scale(12.03 22.1104)">
<stop offset="0.786458" stop-color="#23293D"/>
<stop offset="1" stop-color="#313A55"/>
</radialGradient>
<linearGradient id="paint5_linear" x1="400.608" y1="282.052" x2="936.19" y2="501.463" gradientUnits="userSpaceOnUse">
<stop stop-color="#23293D"/>
<stop offset="0.677083" stop-color="#23293D"/>
<stop offset="0.833333" stop-color="#23293D"/>
</linearGradient>
<linearGradient id="paint6_linear" x1="313.949" y1="391" x2="354.949" y2="391" gradientUnits="userSpaceOnUse">
<stop stop-color="#23293D"/>
<stop offset="0.177006" stop-color="#3B4974"/>
<stop offset="1" stop-color="#23293D"/>
</linearGradient>
<linearGradient id="paint7_linear" x1="314.449" y1="388" x2="334.554" y2="387.84" gradientUnits="userSpaceOnUse">
<stop stop-color="#23293D"/>
<stop offset="0.114583" stop-color="#313A55"/>
<stop offset="1" stop-color="#23293D"/>
</linearGradient>
<radialGradient id="paint8_radial" cx="0" cy="0" r="1" gradientUnits="userSpaceOnUse" gradientTransform="translate(334.549 381.03) rotate(90) scale(12.03 22.1104)">
<stop offset="0.927083" stop-color="#23293D"/>
<stop offset="1" stop-color="#313A55"/>
</radialGradient>
<linearGradient id="paint9_linear" x1="252.949" y1="427" x2="293.949" y2="427" gradientUnits="userSpaceOnUse">
<stop stop-color="#23293D"/>
<stop offset="0.177006" stop-color="#3B4974"/>
<stop offset="1" stop-color="#23293D"/>
</linearGradient>
<linearGradient id="paint10_linear" x1="253.449" y1="424" x2="273.554" y2="423.84" gradientUnits="userSpaceOnUse">
<stop stop-color="#23293D"/>
<stop offset="0.114583" stop-color="#313A55"/>
<stop offset="1" stop-color="#23293D"/>
</linearGradient>
<radialGradient id="paint11_radial" cx="0" cy="0" r="1" gradientUnits="userSpaceOnUse" gradientTransform="translate(273.549 417.03) rotate(90) scale(12.03 22.1104)">
<stop offset="0.927083" stop-color="#23293D"/>
<stop offset="1" stop-color="#313A55"/>
</radialGradient>
<linearGradient id="paint12_linear" x1="334.949" y1="438" x2="375.949" y2="438" gradientUnits="userSpaceOnUse">
<stop stop-color="#23293D"/>
<stop offset="0.177006" stop-color="#3B4974"/>
<stop offset="1" stop-color="#23293D"/>
</linearGradient>
<linearGradient id="paint13_linear" x1="335.449" y1="435" x2="355.554" y2="434.84" gradientUnits="userSpaceOnUse">
<stop stop-color="#23293D"/>
<stop offset="0.114583" stop-color="#313A55"/>
<stop offset="1" stop-color="#23293D"/>
</linearGradient>
<radialGradient id="paint14_radial" cx="0" cy="0" r="1" gradientUnits="userSpaceOnUse" gradientTransform="translate(355.549 428.03) rotate(90) scale(12.03 22.1104)">
<stop offset="0.927083" stop-color="#23293D"/>
<stop offset="1" stop-color="#313A55"/>
</radialGradient>
<linearGradient id="paint15_linear" x1="756.949" y1="468" x2="797.949" y2="468" gradientUnits="userSpaceOnUse">
<stop stop-color="#23293D"/>
<stop offset="0.177006" stop-color="#3B4974"/>
<stop offset="1" stop-color="#23293D"/>
</linearGradient>
<linearGradient id="paint16_linear" x1="757.449" y1="465" x2="777.554" y2="464.84" gradientUnits="userSpaceOnUse">
<stop stop-color="#23293D"/>
<stop offset="0.114583" stop-color="#313A55"/>
<stop offset="1" stop-color="#23293D"/>
</linearGradient>
<radialGradient id="paint17_radial" cx="0" cy="0" r="1" gradientUnits="userSpaceOnUse" gradientTransform="translate(777.549 458.03) rotate(90) scale(12.03 22.1104)">
<stop offset="0.927083" stop-color="#23293D"/>
<stop offset="1" stop-color="#313A55"/>
</radialGradient>
<linearGradient id="paint18_linear" x1="810.949" y1="435" x2="851.949" y2="435" gradientUnits="userSpaceOnUse">
<stop stop-color="#23293D"/>
<stop offset="0.177006" stop-color="#3B4974"/>
<stop offset="1" stop-color="#23293D"/>
</linearGradient>
<linearGradient id="paint19_linear" x1="811.449" y1="432" x2="831.554" y2="431.84" gradientUnits="userSpaceOnUse">
<stop stop-color="#23293D"/>
<stop offset="0.114583" stop-color="#313A55"/>
<stop offset="1" stop-color="#23293D"/>
</linearGradient>
<radialGradient id="paint20_radial" cx="0" cy="0" r="1" gradientUnits="userSpaceOnUse" gradientTransform="translate(831.549 425.03) rotate(90) scale(12.03 22.1104)">
<stop offset="0.927083" stop-color="#23293D"/>
<stop offset="1" stop-color="#313A55"/>
</radialGradient>
<linearGradient id="paint21_linear" x1="759.949" y1="408" x2="800.949" y2="408" gradientUnits="userSpaceOnUse">
<stop stop-color="#23293D"/>
<stop offset="0.177006" stop-color="#3B4974"/>
<stop offset="1" stop-color="#23293D"/>
</linearGradient>
<linearGradient id="paint22_linear" x1="760.449" y1="405" x2="780.554" y2="404.84" gradientUnits="userSpaceOnUse">
<stop stop-color="#23293D"/>
<stop offset="0.114583" stop-color="#313A55"/>
<stop offset="1" stop-color="#23293D"/>
</linearGradient>
<radialGradient id="paint23_radial" cx="0" cy="0" r="1" gradientUnits="userSpaceOnUse" gradientTransform="translate(780.549 398.03) rotate(90) scale(12.03 22.1104)">
<stop offset="0.927083" stop-color="#23293D"/>
<stop offset="1" stop-color="#313A55"/>
</radialGradient>
<linearGradient id="paint24_linear" x1="710.949" y1="380" x2="751.949" y2="380" gradientUnits="userSpaceOnUse">
<stop stop-color="#23293D"/>
<stop offset="0.177006" stop-color="#3B4974"/>
<stop offset="1" stop-color="#23293D"/>
</linearGradient>
<linearGradient id="paint25_linear" x1="711.449" y1="377" x2="731.554" y2="376.84" gradientUnits="userSpaceOnUse">
<stop stop-color="#23293D"/>
<stop offset="0.114583" stop-color="#313A55"/>
<stop offset="1" stop-color="#23293D"/>
</linearGradient>
<radialGradient id="paint26_radial" cx="0" cy="0" r="1" gradientUnits="userSpaceOnUse" gradientTransform="translate(731.549 370.03) rotate(90) scale(12.03 22.1104)">
<stop offset="0.927083" stop-color="#23293D"/>
<stop offset="1" stop-color="#313A55"/>
</radialGradient>
<linearGradient id="paint27_linear" x1="184.949" y1="466" x2="225.949" y2="466" gradientUnits="userSpaceOnUse">
<stop stop-color="#23293D"/>
<stop offset="0.177006" stop-color="#3B4974"/>
<stop offset="1" stop-color="#23293D"/>
</linearGradient>
<linearGradient id="paint28_linear" x1="185.449" y1="463" x2="205.554" y2="462.84" gradientUnits="userSpaceOnUse">
<stop stop-color="#23293D"/>
<stop offset="0.114583" stop-color="#313A55"/>
<stop offset="1" stop-color="#23293D"/>
</linearGradient>
<radialGradient id="paint29_radial" cx="0" cy="0" r="1" gradientUnits="userSpaceOnUse" gradientTransform="translate(205.549 456.03) rotate(90) scale(12.03 22.1104)">
<stop offset="0.927083" stop-color="#23293D"/>
<stop offset="1" stop-color="#313A55"/>
</radialGradient>
<linearGradient id="paint30_linear" x1="267.949" y1="477" x2="308.949" y2="477" gradientUnits="userSpaceOnUse">
<stop stop-color="#23293D"/>
<stop offset="0.177006" stop-color="#3B4974"/>
<stop offset="1" stop-color="#23293D"/>
</linearGradient>
<linearGradient id="paint31_linear" x1="268.449" y1="474" x2="288.554" y2="473.84" gradientUnits="userSpaceOnUse">
<stop stop-color="#23293D"/>
<stop offset="0.114583" stop-color="#313A55"/>
<stop offset="1" stop-color="#23293D"/>
</linearGradient>
<radialGradient id="paint32_radial" cx="0" cy="0" r="1" gradientUnits="userSpaceOnUse" gradientTransform="translate(288.549 467.03) rotate(90) scale(12.03 22.1104)">
<stop offset="0.927083" stop-color="#23293D"/>
<stop offset="1" stop-color="#313A55"/>
</radialGradient>
<linearGradient id="paint33_linear" x1="566.619" y1="406.973" x2="556.501" y2="424.697" gradientUnits="userSpaceOnUse">
<stop offset="0.109375" stop-color="#23293D"/>
<stop offset="0.338542" stop-color="#FF2473"/>
<stop offset="0.401042" stop-color="#FF8200"/>
</linearGradient>
<radialGradient id="paint34_radial" cx="0" cy="0" r="1" gradientUnits="userSpaceOnUse" gradientTransform="translate(505.05 377.84) rotate(90) scale(12.03 21.1)">
<stop offset="0.302083" stop-color="#DE063A"/>
<stop offset="1" stop-color="#FF2473"/>
</radialGradient>
<radialGradient id="paint35_radial" cx="0" cy="0" r="1" gradientUnits="userSpaceOnUse" gradientTransform="translate(505.05 371.03) rotate(90) scale(12.03 22.1104)">
<stop offset="0.244792" stop-color="#FF2473"/>
<stop offset="0.244892" stop-color="#23293D"/>
</radialGradient>
<linearGradient id="paint36_linear" x1="480.458" y1="305.694" x2="521.457" y2="305.376" gradientUnits="userSpaceOnUse">
<stop offset="0.463542" stop-color="#DE063A"/>
<stop offset="0.5625" stop-color="#FF4B8C"/>
<stop offset="0.677083" stop-color="#23293D"/>
</linearGradient>
<radialGradient id="paint37_radial" cx="0" cy="0" r="1" gradientUnits="userSpaceOnUse" gradientTransform="translate(497.7 195.5) rotate(89.1815) scale(17.5018 27.852)">
<stop stop-color="#DE063A"/>
<stop offset="1" stop-color="#FF3F84"/>
</radialGradient>
<radialGradient id="paint38_radial" cx="0" cy="0" r="1" gradientUnits="userSpaceOnUse" gradientTransform="translate(497.7 196.5) rotate(89.1815) scale(17.5018 27.852)">
<stop stop-color="#DE063A"/>
<stop offset="1" stop-color="#FF639B"/>
</radialGradient>
<radialGradient id="paint39_diamond" cx="0" cy="0" r="1" gradientUnits="userSpaceOnUse" gradientTransform="translate(499.95 188) rotate(79.5085) scale(27.4591 39.2893)">
<stop stop-color="#FF2473"/>
<stop offset="0.15625" stop-color="#23293D"/>
<stop offset="1" stop-color="#313A55"/>
</radialGradient>
<radialGradient id="paint40_radial" cx="0" cy="0" r="1" gradientUnits="userSpaceOnUse" gradientTransform="translate(499.552 190.345) rotate(90) scale(17.345 27.6025)">
<stop offset="0.901042" stop-color="#DE063A"/>
<stop offset="1" stop-color="#FF2473"/>
</radialGradient>
<linearGradient id="paint41_linear" x1="476.96" y1="149.993" x2="517.96" y2="150.004" gradientUnits="userSpaceOnUse">
<stop offset="0.463542" stop-color="#DE063A"/>
<stop offset="0.5625" stop-color="#FF4B8C"/>
<stop offset="0.677083" stop-color="#23293D"/>
</linearGradient>
<linearGradient id="paint42_linear" x1="498.761" y1="62.0684" x2="464.249" y2="157.31" gradientUnits="userSpaceOnUse">
<stop stop-color="#DE063A"/>
<stop offset="0.869792" stop-color="#FF5B96"/>
</linearGradient>
<linearGradient id="paint43_linear" x1="562.95" y1="69.9999" x2="444.45" y2="140.5" gradientUnits="userSpaceOnUse">
<stop stop-color="#DE063A"/>
<stop offset="1" stop-color="#FF2473"/>
</linearGradient>
<radialGradient id="paint44_radial" cx="0" cy="0" r="1" gradientUnits="userSpaceOnUse" gradientTransform="translate(631.549 375.84) rotate(90) scale(12.03 21.1)">
<stop offset="0.302083" stop-color="#DE063A"/>
<stop offset="1" stop-color="#FF2473"/>
</radialGradient>
<radialGradient id="paint45_radial" cx="0" cy="0" r="1" gradientUnits="userSpaceOnUse" gradientTransform="translate(631.549 369.03) rotate(90) scale(12.03 22.1104)">
<stop offset="0.84375" stop-color="#23293D"/>
<stop offset="1" stop-color="#FF2473"/>
</radialGradient>
<radialGradient id="paint46_radial" cx="0" cy="0" r="1" gradientUnits="userSpaceOnUse" gradientTransform="translate(628.549 319.84) rotate(90) scale(12.03 21.1)">
<stop offset="0.302083" stop-color="#DE063A"/>
<stop offset="1" stop-color="#FF2473"/>
</radialGradient>
<radialGradient id="paint47_radial" cx="0" cy="0" r="1" gradientUnits="userSpaceOnUse" gradientTransform="translate(628.549 313.03) rotate(90) scale(12.03 22.1104)">
<stop offset="0.84375" stop-color="#23293D"/>
<stop offset="1" stop-color="#FF2473"/>
</radialGradient>
<linearGradient id="paint48_linear" x1="495.761" y1="12.0684" x2="460.599" y2="108.085" gradientUnits="userSpaceOnUse">
<stop stop-color="#FF2473"/>
<stop offset="0.869792" stop-color="#FF8200"/>
</linearGradient>
<linearGradient id="paint49_linear" x1="554.45" y1="24" x2="436.95" y2="91.5" gradientUnits="userSpaceOnUse">
<stop stop-color="#FF2473"/>
<stop offset="1" stop-color="#FF8200"/>
</linearGradient>
<linearGradient id="paint50_linear" x1="607.761" y1="0.0698228" x2="571.128" y2="97.7983" gradientUnits="userSpaceOnUse">
<stop stop-color="#313A55"/>
<stop offset="0.869792" stop-color="#343E5B"/>
</linearGradient>
<linearGradient id="paint51_linear" x1="643.197" y1="424.417" x2="640.343" y2="418.84" gradientUnits="userSpaceOnUse">
<stop stop-color="#FF2473"/>
<stop offset="0.0001" stop-color="#FF8200"/>
<stop offset="0.411458" stop-color="#23293D" stop-opacity="0.79"/>
</linearGradient>
<linearGradient id="paint52_linear" x1="687.949" y1="499.5" x2="761.949" y2="500.5" gradientUnits="userSpaceOnUse">
<stop offset="0.151042" stop-color="#FF2473"/>
<stop offset="0.501325" stop-color="#FF8200"/>
<stop offset="0.859375" stop-color="#FF2473"/>
</linearGradient>
<radialGradient id="paint53_radial" cx="0" cy="0" r="1" gradientUnits="userSpaceOnUse" gradientTransform="translate(723.549 488.03) rotate(90) scale(12.03 22.1104)">
<stop offset="0.786458" stop-color="#23293D"/>
<stop offset="1" stop-color="#313A55"/>
</radialGradient>
<linearGradient id="paint54_linear" x1="636.949" y1="468.5" x2="710.949" y2="469.5" gradientUnits="userSpaceOnUse">
<stop offset="0.151042" stop-color="#FF2473"/>
<stop offset="0.501325" stop-color="#FF8200"/>
<stop offset="0.859375" stop-color="#FF2473"/>
</linearGradient>
<radialGradient id="paint55_radial" cx="0" cy="0" r="1" gradientUnits="userSpaceOnUse" gradientTransform="translate(672.549 457.03) rotate(90) scale(12.03 22.1104)">
<stop offset="0.786458" stop-color="#23293D"/>
<stop offset="1" stop-color="#313A55"/>
</radialGradient>
<linearGradient id="paint56_linear" x1="691.949" y1="439.5" x2="765.949" y2="440.5" gradientUnits="userSpaceOnUse">
<stop offset="0.151042" stop-color="#FF2473"/>
<stop offset="0.501325" stop-color="#FF8200"/>
<stop offset="0.859375" stop-color="#FF2473"/>
</linearGradient>
<radialGradient id="paint57_radial" cx="0" cy="0" r="1" gradientUnits="userSpaceOnUse" gradientTransform="translate(727.549 428.03) rotate(90) scale(12.03 22.1104)">
<stop offset="0.786458" stop-color="#23293D"/>
<stop offset="1" stop-color="#313A55"/>
</radialGradient>
<linearGradient id="paint58_linear" x1="649.949" y1="352.5" x2="723.949" y2="353.5" gradientUnits="userSpaceOnUse">
<stop offset="0.151042" stop-color="#FF2473"/>
<stop offset="0.501325" stop-color="#FF8200"/>
<stop offset="0.859375" stop-color="#FF2473"/>
</linearGradient>
<radialGradient id="paint59_radial" cx="0" cy="0" r="1" gradientUnits="userSpaceOnUse" gradientTransform="translate(685.549 341.03) rotate(90) scale(12.03 22.1104)">
<stop offset="0.786458" stop-color="#23293D"/>
<stop offset="1" stop-color="#313A55"/>
</radialGradient>
<radialGradient id="paint60_radial" cx="0" cy="0" r="1" gradientUnits="userSpaceOnUse" gradientTransform="translate(620.449 436.5) rotate(89.6272) scale(15.3703 29.2412)">
<stop offset="0.5625" stop-color="#FF2473"/>
<stop offset="1" stop-color="#FF8200"/>
</radialGradient>
<linearGradient id="paint61_linear" x1="595.949" y1="436" x2="639.449" y2="436" gradientUnits="userSpaceOnUse">
<stop stop-color="#FF2473"/>
<stop offset="0.661458" stop-color="#FF8200"/>
<stop offset="1" stop-color="#FF2473"/>
</linearGradient>
<radialGradient id="paint62_radial" cx="0" cy="0" r="1" gradientUnits="userSpaceOnUse" gradientTransform="translate(620.549 433.03) rotate(90) scale(12.03 22.5331)">
<stop offset="0.822917" stop-color="#23293D"/>
<stop offset="0.901042" stop-color="#313A55"/>
</radialGradient>
<radialGradient id="paint63_radial" cx="0" cy="0" r="1" gradientUnits="userSpaceOnUse" gradientTransform="translate(680.949 401.5) rotate(89.6272) scale(15.3703 29.2412)">
<stop offset="0.5625" stop-color="#FF2473"/>
<stop offset="1" stop-color="#FF8200"/>
</radialGradient>
<linearGradient id="paint64_linear" x1="656.449" y1="401" x2="699.949" y2="401" gradientUnits="userSpaceOnUse">
<stop stop-color="#FF2473"/>
<stop offset="0.661458" stop-color="#FF8200"/>
<stop offset="1" stop-color="#FF2473"/>
</linearGradient>
<radialGradient id="paint65_radial" cx="0" cy="0" r="1" gradientUnits="userSpaceOnUse" gradientTransform="translate(681.049 398.03) rotate(90) scale(12.03 22.5331)">
<stop offset="0.822917" stop-color="#23293D"/>
<stop offset="0.901042" stop-color="#313A55"/>
</radialGradient>
</defs>
</svg>
