<svg width="1262" height="643" viewBox="0 0 1262 643" fill="none" xmlns="http://www.w3.org/2000/svg">
<path d="M25.8714 612.976L509.047 886.161C516.875 890.642 525.741 893 534.765 893C543.788 893 552.655 890.642 560.483 886.161L1213.5 643C1221.27 638.444 1252.5 627 1261 594.007C1261 594.007 1269 553.846 1223 527.003C1205 516.5 1133.24 473.836 1125.46 469.28L644.204 191.996C636.311 187.414 627.343 185 618.213 185C609.082 185 600.114 187.414 592.22 191.996L26.1452 523.371C18.2291 527.866 11.642 534.37 7.05103 542.223C2.46007 550.076 0.0280055 559.001 0.000240392 568.094C-0.0275247 577.187 2.35031 586.126 6.89323 594.007C11.4361 601.888 17.9828 608.432 25.8714 612.976Z" fill="url(#paint0_linear)"/>
<g filter="url(#filter0_d)">
<path d="M834.549 384.87C846.202 384.87 855.649 379.484 855.649 372.84C855.649 366.196 846.202 360.81 834.549 360.81C822.896 360.81 813.449 366.196 813.449 372.84C813.449 379.484 822.896 384.87 834.549 384.87Z" fill="url(#paint1_linear)"/>
<path d="M855.399 372.84C855.399 376.033 853.127 378.973 849.345 381.129C845.571 383.281 840.34 384.62 834.549 384.62C828.758 384.62 823.527 383.281 819.753 381.129C815.972 378.973 813.699 376.033 813.699 372.84C813.699 369.647 815.972 366.707 819.753 364.551C823.527 362.399 828.758 361.06 834.549 361.06C840.34 361.06 845.571 362.399 849.345 364.551C853.127 366.707 855.399 369.647 855.399 372.84Z" stroke="#3B4974" stroke-width="0.5"/>
</g>
<mask id="path-4-inside-1" fill="white">
<path d="M813.459 372.84V366.03H855.649V372.84"/>
</mask>
<path d="M813.459 372.84V366.03H855.649V372.84" fill="#FF2473"/>
<path d="M813.459 366.03V365.53H812.959V366.03H813.459ZM855.649 366.03H856.149V365.53H855.649V366.03ZM813.959 372.84V366.03H812.959V372.84H813.959ZM813.459 366.53H855.649V365.53H813.459V366.53ZM855.149 366.03V372.84H856.149V366.03H855.149Z" fill="#313A55" mask="url(#path-4-inside-1)"/>
<path d="M855.399 366.03C855.399 369.223 853.127 372.163 849.345 374.319C845.571 376.471 840.34 377.81 834.549 377.81C828.758 377.81 823.527 376.471 819.753 374.319C815.972 372.163 813.699 369.223 813.699 366.03C813.699 362.837 815.972 359.897 819.753 357.741C823.527 355.589 828.758 354.25 834.549 354.25C840.34 354.25 845.571 355.589 849.345 357.741C853.127 359.897 855.399 362.837 855.399 366.03Z" fill="url(#paint2_radial)" stroke="#3B4974" stroke-width="0.5"/>
<g filter="url(#filter1_d)">
<path d="M881.1 357.87C892.753 357.87 902.2 352.484 902.2 345.84C902.2 339.196 892.753 333.81 881.1 333.81C869.447 333.81 860 339.196 860 345.84C860 352.484 869.447 357.87 881.1 357.87Z" fill="url(#paint3_linear)"/>
<path d="M901.95 345.84C901.95 349.033 899.677 351.973 895.896 354.129C892.122 356.281 886.891 357.62 881.1 357.62C875.309 357.62 870.078 356.281 866.304 354.129C862.523 351.973 860.25 349.033 860.25 345.84C860.25 342.647 862.523 339.707 866.304 337.551C870.078 335.399 875.309 334.06 881.1 334.06C886.891 334.06 892.122 335.399 895.896 337.551C899.677 339.707 901.95 342.647 901.95 345.84Z" stroke="#3B4974" stroke-width="0.5"/>
</g>
<mask id="path-9-inside-2" fill="white">
<path d="M860.01 345.84V339.03H902.2V345.84"/>
</mask>
<path d="M860.01 345.84V339.03H902.2V345.84" fill="#FF2473"/>
<path d="M860.01 339.03V338.53H859.51V339.03H860.01ZM902.2 339.03H902.7V338.53H902.2V339.03ZM860.51 345.84V339.03H859.51V345.84H860.51ZM860.01 339.53H902.2V338.53H860.01V339.53ZM901.7 339.03V345.84H902.7V339.03H901.7Z" fill="#313A55" mask="url(#path-9-inside-2)"/>
<path d="M901.95 339.03C901.95 342.223 899.677 345.163 895.896 347.319C892.122 349.471 886.891 350.81 881.1 350.81C875.309 350.81 870.078 349.471 866.304 347.319C862.523 345.163 860.25 342.223 860.25 339.03C860.25 335.837 862.523 332.897 866.304 330.741C870.078 328.589 875.309 327.25 881.1 327.25C886.891 327.25 892.122 328.589 895.896 330.741C899.677 332.897 901.95 335.837 901.95 339.03Z" fill="url(#paint4_radial)" stroke="#3B4974" stroke-width="0.5"/>
<g filter="url(#filter2_d)">
<path d="M787.549 412.87C799.202 412.87 808.649 407.484 808.649 400.84C808.649 394.196 799.202 388.81 787.549 388.81C775.896 388.81 766.449 394.196 766.449 400.84C766.449 407.484 775.896 412.87 787.549 412.87Z" fill="url(#paint5_linear)"/>
<path d="M808.399 400.84C808.399 404.033 806.127 406.973 802.345 409.129C798.571 411.281 793.34 412.62 787.549 412.62C781.758 412.62 776.527 411.281 772.753 409.129C768.972 406.973 766.699 404.033 766.699 400.84C766.699 397.647 768.972 394.707 772.753 392.551C776.527 390.399 781.758 389.06 787.549 389.06C793.34 389.06 798.571 390.399 802.345 392.551C806.127 394.707 808.399 397.647 808.399 400.84Z" stroke="#3B4974" stroke-width="0.5"/>
</g>
<mask id="path-14-inside-3" fill="white">
<path d="M766.459 400.84V394.03H808.649V400.84"/>
</mask>
<path d="M766.459 400.84V394.03H808.649V400.84" fill="#FF2473"/>
<path d="M766.459 394.03V393.53H765.959V394.03H766.459ZM808.649 394.03H809.149V393.53H808.649V394.03ZM766.959 400.84V394.03H765.959V400.84H766.959ZM766.459 394.53H808.649V393.53H766.459V394.53ZM808.149 394.03V400.84H809.149V394.03H808.149Z" fill="#313A55" mask="url(#path-14-inside-3)"/>
<path d="M808.399 394.03C808.399 397.223 806.127 400.163 802.345 402.319C798.571 404.471 793.34 405.81 787.549 405.81C781.758 405.81 776.527 404.471 772.753 402.319C768.972 400.163 766.699 397.223 766.699 394.03C766.699 390.837 768.972 387.897 772.753 385.741C776.527 383.589 781.758 382.25 787.549 382.25C793.34 382.25 798.571 383.589 802.345 385.741C806.127 387.897 808.399 390.837 808.399 394.03Z" fill="url(#paint6_radial)" stroke="#3B4974" stroke-width="0.5"/>
<g filter="url(#filter3_d)">
<path d="M824.288 430.897V457.491H815.53L812.518 442.842" fill="#23293D"/>
<path d="M312.152 345.681V319.559L322.908 334.019L312.152 345.681Z" fill="#23293D"/>
<path d="M322.57 326.688L458.832 246.245C463.663 243.393 469.142 241.891 474.72 241.891C480.298 241.891 485.778 243.393 490.608 246.245L813.747 437.058C816.998 438.958 819.701 441.703 821.58 445.015C823.46 448.328 824.449 452.089 824.449 455.919C824.449 459.749 823.46 463.511 821.58 466.823C819.701 470.136 816.998 472.881 813.747 474.78L677.239 555.381C672.619 558.109 667.378 559.546 662.043 559.546C656.707 559.546 651.466 558.109 646.846 555.381L322.57 363.782C319.385 361.904 316.74 359.201 314.901 355.946C313.062 352.69 312.093 348.996 312.093 345.235C312.093 341.475 313.062 337.781 314.901 334.525C316.74 331.269 319.385 328.566 322.57 326.688Z" fill="url(#paint7_linear)"/>
<path d="M322.285 303.262L322.288 303.26L458.55 222.785C463.304 219.978 468.696 218.5 474.184 218.5C479.672 218.5 485.064 219.978 489.818 222.785L490.07 222.358L489.818 222.785L812.987 413.629L812.989 413.631C816.163 415.485 818.803 418.166 820.64 421.403C822.476 424.64 823.444 428.316 823.444 432.06C823.444 435.804 822.476 439.481 820.64 442.717C818.803 445.954 816.163 448.635 812.989 450.49L812.987 450.491L676.479 531.091C671.935 533.775 666.782 535.187 661.537 535.187C656.292 535.187 651.138 533.775 646.595 531.091L322.288 339.618L322.285 339.617C319.148 337.792 316.539 335.15 314.723 331.957C312.907 328.764 311.949 325.135 311.949 321.439C311.949 317.743 312.907 314.114 314.723 310.921C316.539 307.728 319.148 305.086 322.285 303.262Z" fill="#313A55" stroke="#313A55"/>
</g>
<g filter="url(#filter4_d)">
<path d="M282.549 399.87C294.203 399.87 303.649 394.484 303.649 387.84C303.649 381.196 294.203 375.81 282.549 375.81C270.896 375.81 261.449 381.196 261.449 387.84C261.449 394.484 270.896 399.87 282.549 399.87Z" fill="url(#paint8_linear)"/>
</g>
<path d="M261.459 387.84V381.03H303.649V387.84" fill="url(#paint9_linear)"/>
<path d="M303.399 381.03C303.399 384.223 301.127 387.163 297.346 389.319C293.571 391.471 288.341 392.81 282.549 392.81C276.758 392.81 271.528 391.471 267.753 389.319C263.972 387.163 261.699 384.223 261.699 381.03C261.699 377.837 263.972 374.897 267.753 372.741C271.528 370.589 276.758 369.25 282.549 369.25C288.341 369.25 293.571 370.589 297.346 372.741C301.127 374.897 303.399 377.837 303.399 381.03Z" fill="url(#paint10_radial)" stroke="#313A55" stroke-width="0.5"/>
<g filter="url(#filter5_d)">
<path d="M221.549 435.87C233.203 435.87 242.649 430.484 242.649 423.84C242.649 417.196 233.203 411.81 221.549 411.81C209.896 411.81 200.449 417.196 200.449 423.84C200.449 430.484 209.896 435.87 221.549 435.87Z" fill="url(#paint11_linear)"/>
</g>
<path d="M200.459 423.84V417.03H242.649V423.84" fill="url(#paint12_linear)"/>
<path d="M242.399 417.03C242.399 420.223 240.127 423.163 236.346 425.319C232.571 427.471 227.341 428.81 221.549 428.81C215.758 428.81 210.528 427.471 206.753 425.319C202.972 423.163 200.699 420.223 200.699 417.03C200.699 413.837 202.972 410.897 206.753 408.741C210.528 406.589 215.758 405.25 221.549 405.25C227.341 405.25 232.571 406.589 236.346 408.741C240.127 410.897 242.399 413.837 242.399 417.03Z" fill="url(#paint13_radial)" stroke="#313A55" stroke-width="0.5"/>
<g filter="url(#filter6_d)">
<path d="M303.549 446.87C315.203 446.87 324.649 441.484 324.649 434.84C324.649 428.196 315.203 422.81 303.549 422.81C291.896 422.81 282.449 428.196 282.449 434.84C282.449 441.484 291.896 446.87 303.549 446.87Z" fill="url(#paint14_linear)"/>
</g>
<path d="M282.459 434.84V428.03H324.649V434.84" fill="url(#paint15_linear)"/>
<path d="M324.399 428.03C324.399 431.223 322.127 434.163 318.346 436.319C314.571 438.471 309.341 439.81 303.549 439.81C297.758 439.81 292.528 438.471 288.753 436.319C284.972 434.163 282.699 431.223 282.699 428.03C282.699 424.837 284.972 421.897 288.753 419.741C292.528 417.589 297.758 416.25 303.549 416.25C309.341 416.25 314.571 417.589 318.346 419.741C322.127 421.897 324.399 424.837 324.399 428.03Z" fill="url(#paint16_radial)" stroke="#313A55" stroke-width="0.5"/>
<g filter="url(#filter7_d)">
<path d="M725.549 476.87C737.202 476.87 746.649 471.484 746.649 464.84C746.649 458.196 737.202 452.81 725.549 452.81C713.896 452.81 704.449 458.196 704.449 464.84C704.449 471.484 713.896 476.87 725.549 476.87Z" fill="url(#paint17_linear)"/>
</g>
<path d="M704.459 464.84V458.03H746.649V464.84" fill="url(#paint18_linear)"/>
<path d="M746.399 458.03C746.399 461.223 744.127 464.163 740.345 466.319C736.571 468.471 731.34 469.81 725.549 469.81C719.758 469.81 714.527 468.471 710.753 466.319C706.972 464.163 704.699 461.223 704.699 458.03C704.699 454.837 706.972 451.897 710.753 449.741C714.527 447.589 719.758 446.25 725.549 446.25C731.34 446.25 736.571 447.589 740.345 449.741C744.127 451.897 746.399 454.837 746.399 458.03Z" fill="url(#paint19_radial)" stroke="#313A55" stroke-width="0.5"/>
<g filter="url(#filter8_d)">
<path d="M779.549 443.87C791.202 443.87 800.649 438.484 800.649 431.84C800.649 425.196 791.202 419.81 779.549 419.81C767.896 419.81 758.449 425.196 758.449 431.84C758.449 438.484 767.896 443.87 779.549 443.87Z" fill="url(#paint20_linear)"/>
</g>
<path d="M758.459 431.84V425.03H800.649V431.84" fill="url(#paint21_linear)"/>
<path d="M800.399 425.03C800.399 428.223 798.127 431.163 794.345 433.319C790.571 435.471 785.34 436.81 779.549 436.81C773.758 436.81 768.527 435.471 764.753 433.319C760.972 431.163 758.699 428.223 758.699 425.03C758.699 421.837 760.972 418.897 764.753 416.741C768.527 414.589 773.758 413.25 779.549 413.25C785.34 413.25 790.571 414.589 794.345 416.741C798.127 418.897 800.399 421.837 800.399 425.03Z" fill="url(#paint22_radial)" stroke="#313A55" stroke-width="0.5"/>
<g filter="url(#filter9_d)">
<path d="M728.549 416.87C740.202 416.87 749.649 411.484 749.649 404.84C749.649 398.196 740.202 392.81 728.549 392.81C716.896 392.81 707.449 398.196 707.449 404.84C707.449 411.484 716.896 416.87 728.549 416.87Z" fill="url(#paint23_linear)"/>
</g>
<path d="M707.459 404.84V398.03H749.649V404.84" fill="url(#paint24_linear)"/>
<path d="M749.399 398.03C749.399 401.223 747.127 404.163 743.345 406.319C739.571 408.471 734.34 409.81 728.549 409.81C722.758 409.81 717.527 408.471 713.753 406.319C709.972 404.163 707.699 401.223 707.699 398.03C707.699 394.837 709.972 391.897 713.753 389.741C717.527 387.589 722.758 386.25 728.549 386.25C734.34 386.25 739.571 387.589 743.345 389.741C747.127 391.897 749.399 394.837 749.399 398.03Z" fill="url(#paint25_radial)" stroke="#313A55" stroke-width="0.5"/>
<g filter="url(#filter10_d)">
<path d="M679.549 388.87C691.202 388.87 700.649 383.484 700.649 376.84C700.649 370.196 691.202 364.81 679.549 364.81C667.896 364.81 658.449 370.196 658.449 376.84C658.449 383.484 667.896 388.87 679.549 388.87Z" fill="url(#paint26_linear)"/>
</g>
<path d="M658.459 376.84V370.03H700.649V376.84" fill="url(#paint27_linear)"/>
<path d="M700.399 370.03C700.399 373.223 698.127 376.163 694.345 378.319C690.571 380.471 685.34 381.81 679.549 381.81C673.758 381.81 668.527 380.471 664.753 378.319C660.972 376.163 658.699 373.223 658.699 370.03C658.699 366.837 660.972 363.897 664.753 361.741C668.527 359.589 673.758 358.25 679.549 358.25C685.34 358.25 690.571 359.589 694.345 361.741C698.127 363.897 700.399 366.837 700.399 370.03Z" fill="url(#paint28_radial)" stroke="#313A55" stroke-width="0.5"/>
<g filter="url(#filter11_d)">
<path d="M153.549 474.87C165.203 474.87 174.649 469.484 174.649 462.84C174.649 456.196 165.203 450.81 153.549 450.81C141.896 450.81 132.449 456.196 132.449 462.84C132.449 469.484 141.896 474.87 153.549 474.87Z" fill="url(#paint29_linear)"/>
</g>
<path d="M132.459 462.84V456.03H174.649V462.84" fill="url(#paint30_linear)"/>
<path d="M174.399 456.03C174.399 459.223 172.127 462.163 168.346 464.319C164.571 466.471 159.341 467.81 153.549 467.81C147.758 467.81 142.528 466.471 138.753 464.319C134.972 462.163 132.699 459.223 132.699 456.03C132.699 452.837 134.972 449.897 138.753 447.741C142.528 445.589 147.758 444.25 153.549 444.25C159.341 444.25 164.571 445.589 168.346 447.741C172.127 449.897 174.399 452.837 174.399 456.03Z" fill="url(#paint31_radial)" stroke="#313A55" stroke-width="0.5"/>
<g filter="url(#filter12_d)">
<path d="M236.549 485.87C248.203 485.87 257.649 480.484 257.649 473.84C257.649 467.196 248.203 461.81 236.549 461.81C224.896 461.81 215.449 467.196 215.449 473.84C215.449 480.484 224.896 485.87 236.549 485.87Z" fill="url(#paint32_linear)"/>
</g>
<path d="M215.459 473.84V467.03H257.649V473.84" fill="url(#paint33_linear)"/>
<path d="M257.399 467.03C257.399 470.223 255.127 473.163 251.346 475.319C247.571 477.471 242.341 478.81 236.549 478.81C230.758 478.81 225.528 477.471 221.753 475.319C217.972 473.163 215.699 470.223 215.699 467.03C215.699 463.837 217.972 460.897 221.753 458.741C225.528 456.589 230.758 455.25 236.549 455.25C242.341 455.25 247.571 456.589 251.346 458.741C255.127 460.897 257.399 463.837 257.399 467.03Z" fill="url(#paint34_radial)" stroke="#313A55" stroke-width="0.5"/>
<g filter="url(#filter13_d)">
<line x1="458.695" y1="382.698" x2="565.195" y2="443.698" stroke="url(#paint35_linear)" stroke-width="3"/>
</g>
<g filter="url(#filter14_d)">
<path d="M453.05 389.87C464.703 389.87 474.15 384.484 474.15 377.84C474.15 371.196 464.703 365.81 453.05 365.81C441.397 365.81 431.95 371.196 431.95 377.84C431.95 384.484 441.397 389.87 453.05 389.87Z" fill="url(#paint36_radial)"/>
<path d="M473.65 377.84C473.65 380.904 471.466 383.777 467.722 385.912C463.992 388.039 458.806 389.37 453.05 389.37C447.294 389.37 442.107 388.039 438.377 385.912C434.633 383.777 432.45 380.904 432.45 377.84C432.45 374.775 434.633 371.903 438.377 369.768C442.107 367.641 447.294 366.31 453.05 366.31C458.806 366.31 463.992 367.641 467.722 369.768C471.466 371.903 473.65 374.775 473.65 377.84Z" stroke="#FF4588"/>
</g>
<path d="M431.96 377.84V371.03H474.15V377.84" fill="#FF2473"/>
<g filter="url(#filter15_d)">
<path d="M453.05 383.06C464.703 383.06 474.15 377.674 474.15 371.03C474.15 364.386 464.703 359 453.05 359C441.397 359 431.95 364.386 431.95 371.03C431.95 377.674 441.397 383.06 453.05 383.06Z" fill="url(#paint37_radial)"/>
<path d="M473.65 371.03C473.65 374.095 471.466 376.967 467.722 379.102C463.992 381.229 458.806 382.56 453.05 382.56C447.294 382.56 442.107 381.229 438.377 379.102C434.633 376.967 432.45 374.095 432.45 371.03C432.45 367.965 434.633 365.093 438.377 362.958C442.107 360.831 447.294 359.5 453.05 359.5C458.806 359.5 463.992 360.831 467.722 362.958C471.466 365.093 473.65 367.965 473.65 371.03Z" stroke="#DE063A"/>
</g>
<g filter="url(#filter16_d)">
<line x1="452.45" y1="369.012" x2="451.465" y2="242.012" stroke="url(#paint38_linear)" stroke-width="3"/>
</g>
<path d="M313.963 252.103V244.474L317.6 248.182C317.642 248.689 317.579 249.201 317.415 249.682C317.25 250.163 316.987 250.603 316.644 250.974C316.3 251.344 315.884 251.636 315.422 251.831C314.96 252.026 314.463 252.119 313.963 252.103V252.103Z" fill="#23293D"/>
<rect x="534.95" y="206" width="5" height="12" rx="2.5" fill="#23293D"/>
<path d="M316.799 246.95L454.007 166.638C455.471 165.773 457.133 165.318 458.825 165.318C460.517 165.318 462.179 165.773 463.643 166.638L536.875 210.315C537.731 210.82 538.441 211.547 538.935 212.421C539.429 213.295 539.689 214.285 539.689 215.294C539.689 216.302 539.944 216.626 539.45 217.5C538.956 218.374 537.731 219.767 536.875 220.273L401.124 300.344C399.171 301.498 396.951 302.099 394.694 302.085C392.436 302.071 390.224 301.442 388.285 300.264L316.707 256.882C315.862 256.366 315.164 255.634 314.682 254.758C314.2 253.882 313.952 252.893 313.961 251.889C313.97 250.885 314.237 249.901 314.735 249.035C315.233 248.168 315.944 247.45 316.799 246.95Z" fill="#23293D"/>
<path d="M316.799 240.632L454.007 160.32C455.471 159.455 457.133 159 458.825 159C460.517 159 462.179 159.455 463.643 160.32L536.875 203.997C537.731 204.503 538.442 205.229 538.935 206.103C539.429 206.977 539.689 207.967 539.689 208.976C539.689 209.985 539.429 210.975 538.935 211.849C538.442 212.723 537.731 213.449 536.875 213.955L401.124 294.026C399.171 295.18 396.951 295.782 394.694 295.767C392.436 295.753 390.224 295.124 388.285 293.946L316.707 250.578C315.859 250.063 315.158 249.33 314.674 248.453C314.19 247.576 313.941 246.584 313.95 245.578C313.959 244.572 314.227 243.585 314.727 242.718C315.227 241.85 315.941 241.131 316.799 240.632V240.632Z" fill="#313A55"/>
<path d="M451.181 167C452.026 167.278 528.95 212.401 528.95 212.401L400.515 288L322.95 242.995L451.181 167Z" fill="#23293D"/>
<path d="M478.963 153.103V145.474L482.6 149.182C482.642 149.689 482.579 150.201 482.415 150.682C482.25 151.163 481.987 151.603 481.644 151.974C481.3 152.344 480.884 152.636 480.422 152.831C479.96 153.026 479.463 153.119 478.963 153.103V153.103Z" fill="#23293D"/>
<rect x="699.95" y="108" width="5" height="12" rx="2.5" fill="#23293D"/>
<path d="M481.799 147.95L619.007 67.6382C620.471 66.7733 622.133 66.3178 623.825 66.3178C625.517 66.3178 627.179 66.7733 628.643 67.6382L701.875 111.315C702.731 111.82 703.441 112.547 703.935 113.421C704.429 114.294 704.689 115.285 704.689 116.294C704.689 117.302 704.944 118.126 704.45 119C703.956 119.874 702.731 120.767 701.875 121.273L566.124 201.344C564.171 202.498 561.951 203.099 559.694 203.085C557.436 203.071 555.224 202.442 553.285 201.264L481.707 157.882C480.862 157.366 480.164 156.634 479.682 155.758C479.2 154.882 478.952 153.893 478.961 152.889C478.97 151.885 479.237 150.901 479.735 150.035C480.233 149.168 480.944 148.45 481.799 147.95Z" fill="#23293D"/>
<path d="M481.799 141.632L619.007 61.3204C620.471 60.4555 622.133 60 623.825 60C625.517 60 627.179 60.4555 628.643 61.3204L701.875 104.997C702.731 105.503 703.441 106.229 703.935 107.103C704.429 107.977 704.689 108.967 704.689 109.976C704.689 110.985 704.429 111.975 703.935 112.849C703.441 113.723 702.731 114.449 701.875 114.955L566.124 195.026C564.171 196.18 561.951 196.782 559.694 196.767C557.436 196.753 555.224 196.124 553.285 194.946L481.707 151.578C480.859 151.063 480.158 150.33 479.674 149.453C479.19 148.576 478.941 147.584 478.95 146.578C478.959 145.572 479.227 144.585 479.727 143.718C480.227 142.85 480.941 142.131 481.799 141.632Z" fill="#313A55"/>
<path d="M616.181 68C617.026 68.2783 693.95 113.401 693.95 113.401L565.515 189L487.95 143.995L616.181 68Z" fill="#23293D"/>
<g filter="url(#filter17_i)">
<path d="M421.218 198.97L444.403 212.355C444.779 212.574 445.204 212.69 445.637 212.69C446.07 212.69 446.495 212.574 446.871 212.355L473.929 196.293C474.302 196.069 474.612 195.751 474.827 195.368C475.042 194.985 475.155 194.552 475.155 194.111C475.155 193.67 475.042 193.236 474.827 192.854C474.612 192.471 474.302 192.152 473.929 191.929L450.836 178.343C450.457 178.118 450.027 178 449.589 178C449.151 178 448.72 178.118 448.342 178.343L421.178 194.579C420.801 194.804 420.489 195.127 420.273 195.514C420.057 195.902 419.946 196.34 419.95 196.786C419.954 197.232 420.073 197.668 420.296 198.052C420.518 198.435 420.836 198.752 421.218 198.97Z" fill="url(#paint39_radial)"/>
</g>
<path d="M421.343 198.753L421.342 198.753C420.999 198.557 420.713 198.272 420.512 197.926C420.311 197.58 420.203 197.186 420.2 196.784C420.196 196.381 420.297 195.985 420.491 195.636C420.686 195.286 420.967 194.996 421.306 194.794L421.306 194.794L448.469 178.558C448.469 178.558 448.469 178.558 448.469 178.558C448.81 178.356 449.196 178.25 449.589 178.25C449.982 178.25 450.368 178.356 450.708 178.558L450.709 178.558L473.801 192.143C473.801 192.144 473.801 192.144 473.802 192.144C474.137 192.344 474.415 192.631 474.609 192.976C474.803 193.321 474.905 193.712 474.905 194.111C474.905 194.509 474.803 194.9 474.609 195.245C474.415 195.591 474.136 195.877 473.801 196.078L446.745 212.139C446.745 212.139 446.744 212.139 446.744 212.14C446.407 212.337 446.025 212.44 445.637 212.44C445.249 212.44 444.867 212.336 444.529 212.139L444.528 212.138L421.343 198.753Z" stroke="#FF4185" stroke-width="0.5"/>
<g filter="url(#filter18_d)">
<path d="M421.218 199.97L444.403 213.355C444.779 213.574 445.204 213.69 445.637 213.69C446.07 213.69 446.495 213.574 446.871 213.355L473.929 197.293C474.302 197.069 474.612 196.751 474.827 196.368C475.042 195.985 475.155 195.552 475.155 195.111C475.155 194.67 475.042 194.236 474.827 193.854C474.612 193.471 474.302 193.152 473.929 192.929L450.836 179.343C450.457 179.118 450.027 179 449.589 179C449.151 179 448.72 179.118 448.342 179.343L421.178 195.579C420.801 195.804 420.489 196.127 420.273 196.514C420.057 196.902 419.946 197.34 419.95 197.786C419.954 198.232 420.073 198.668 420.296 199.052C420.518 199.435 420.836 199.752 421.218 199.97Z" fill="url(#paint40_radial)"/>
<path d="M421.343 199.753L421.342 199.753C420.999 199.557 420.713 199.272 420.512 198.926C420.311 198.58 420.203 198.186 420.2 197.784C420.196 197.381 420.297 196.985 420.491 196.636C420.686 196.286 420.967 195.996 421.306 195.794L421.306 195.794L448.469 179.558C448.469 179.558 448.469 179.558 448.469 179.558C448.81 179.356 449.196 179.25 449.589 179.25C449.982 179.25 450.368 179.356 450.708 179.558L450.709 179.558L473.801 193.143C473.801 193.144 473.801 193.144 473.802 193.144C474.137 193.344 474.415 193.631 474.609 193.976C474.803 194.321 474.905 194.712 474.905 195.111C474.905 195.509 474.803 195.9 474.609 196.245C474.415 196.591 474.136 196.877 473.801 197.078L446.745 213.139C446.745 213.139 446.744 213.139 446.744 213.14C446.407 213.337 446.025 213.44 445.637 213.44C445.249 213.44 444.867 213.336 444.529 213.139L444.528 213.138L421.343 199.753Z" stroke="#FF4789" stroke-width="0.5"/>
</g>
<path d="M422.731 193.371L420.2 196.324V193.172C420.311 193.263 420.438 193.322 420.579 193.351C420.847 193.406 421.129 193.342 421.383 193.246C421.641 193.148 421.902 193.004 422.139 192.866C422.227 192.814 422.311 192.763 422.39 192.716C422.531 192.631 422.659 192.554 422.778 192.49C422.869 192.441 422.943 192.406 423.001 192.386C423.003 192.385 423.004 192.385 423.005 192.384C423.005 192.396 423.004 192.408 423.003 192.423C422.986 192.598 422.907 192.897 422.731 193.371Z" fill="#DE063A" stroke="#DE063A" stroke-width="0.5"/>
<path d="M471.95 192.5C471.95 194.5 474.95 190.1 474.95 194.5V189L471.95 192.5Z" fill="#DE063A" stroke="#DE063A" stroke-width="0.3"/>
<path d="M444.655 206.923L444.653 206.922L421.468 193.537L421.218 193.97L421.466 193.536C421.162 193.362 420.907 193.109 420.728 192.801C420.549 192.492 420.453 192.141 420.45 191.782C420.447 191.422 420.537 191.069 420.71 190.757C420.883 190.446 421.133 190.188 421.434 190.009L421.435 190.008L448.596 173.773C448.597 173.773 448.597 173.773 448.597 173.773C448.899 173.594 449.241 173.5 449.589 173.5C449.937 173.5 450.279 173.594 450.581 173.773L450.582 173.774L473.673 187.358C473.673 187.358 473.674 187.359 473.674 187.359C473.971 187.537 474.218 187.791 474.391 188.098C474.563 188.406 474.655 188.755 474.655 189.111C474.655 189.466 474.563 189.815 474.391 190.123C474.218 190.43 473.97 190.685 473.673 190.863C473.673 190.863 473.673 190.863 473.673 190.863L446.619 206.923C446.618 206.923 446.618 206.924 446.618 206.924C446.318 207.099 445.98 207.19 445.637 207.19C445.293 207.19 444.955 207.098 444.655 206.923Z" fill="url(#paint41_diamond)" stroke="url(#paint42_radial)"/>
<line x1="448.45" y1="189" x2="448.471" y2="110.999" stroke="url(#paint43_linear)" stroke-width="3"/>
<path d="M402.236 112.984L488.757 62.4559C489.221 62.1986 489.749 62.0649 490.286 62.0684C490.822 62.072 491.348 62.2128 491.809 62.4762C492.27 62.7396 492.649 63.1161 492.907 63.5669C493.165 64.0176 493.293 64.5262 493.277 65.0401V93.9135C493.282 94.4345 493.145 94.9476 492.881 95.403C492.617 95.8583 492.234 96.2405 491.77 96.5121L405.22 146.001C404.758 146.257 403.894 146.697 403.361 146.695C402.827 146.692 402.303 146.554 401.843 146.294C401.383 146.034 401.004 145.928 400.743 145.482C400.483 145.035 400.351 144.264 400.361 143.752L400.248 116.594C400.213 115.877 400.38 115.164 400.73 114.53C401.079 113.895 401.599 113.362 402.236 112.984Z" fill="url(#paint44_linear)"/>
<rect width="7.03421" height="1.79331" rx="0.896657" transform="matrix(0.949664 0.31327 -0.372662 0.927967 490.462 62)" fill="#DE063A"/>
<rect width="9.25776" height="3.00527" rx="1.50263" transform="matrix(0.941782 0.336225 -0.398604 0.917123 401.148 143.206)" fill="#FF4A8C"/>
<path d="M498.029 66.845L498.029 66.845V66.8526L498.029 95.7261L498.029 95.7282C498.033 96.2039 497.909 96.673 497.667 97.0901C497.425 97.507 497.074 97.8581 496.647 98.1084C496.647 98.1086 496.646 98.1088 496.646 98.109L410.101 147.595C410.1 147.595 410.1 147.596 410.099 147.596C409.872 147.722 409.55 147.89 409.223 148.027C408.886 148.167 408.577 148.258 408.364 148.257C407.872 148.255 407.39 148.128 406.968 147.889C406.546 147.651 406.199 147.31 405.961 146.902C405.724 146.495 405.604 146.035 405.613 145.57H405.613L405.613 145.564L405.499 118.405L405.5 118.405L405.499 118.394C405.467 117.724 405.623 117.057 405.95 116.463C406.278 115.869 406.766 115.368 407.365 115.012C407.365 115.012 407.366 115.012 407.366 115.012L493.88 64.4872C493.881 64.4867 493.881 64.4863 493.882 64.4858C494.308 64.2505 494.793 64.1277 495.286 64.131C495.78 64.1343 496.264 64.2639 496.687 64.5058C497.11 64.7476 497.456 65.0925 497.692 65.5037C497.927 65.9148 498.044 66.3778 498.029 66.845Z" fill="#313A55" stroke="url(#paint45_linear)" stroke-width="0.5"/>
<g filter="url(#filter19_d)">
<path d="M579.549 387.87C591.202 387.87 600.649 382.484 600.649 375.84C600.649 369.196 591.202 363.81 579.549 363.81C567.896 363.81 558.449 369.196 558.449 375.84C558.449 382.484 567.896 387.87 579.549 387.87Z" fill="url(#paint46_radial)"/>
<path d="M600.149 375.84C600.149 378.904 597.966 381.777 594.222 383.912C590.492 386.039 585.305 387.37 579.549 387.37C573.793 387.37 568.607 386.039 564.877 383.912C561.133 381.777 558.949 378.904 558.949 375.84C558.949 372.775 561.133 369.903 564.877 367.768C568.607 365.641 573.793 364.31 579.549 364.31C585.305 364.31 590.492 365.641 594.222 367.768C597.966 369.903 600.149 372.775 600.149 375.84Z" stroke="#FF4588"/>
</g>
<path d="M558.459 375.84V369.03H600.649V375.84" fill="#FF2473"/>
<g filter="url(#filter20_d)">
<path d="M579.549 381.06C591.202 381.06 600.649 375.674 600.649 369.03C600.649 362.386 591.202 357 579.549 357C567.896 357 558.449 362.386 558.449 369.03C558.449 375.674 567.896 381.06 579.549 381.06Z" fill="url(#paint47_radial)"/>
<path d="M600.149 369.03C600.149 372.095 597.966 374.967 594.222 377.102C590.492 379.229 585.305 380.56 579.549 380.56C573.793 380.56 568.607 379.229 564.877 377.102C561.133 374.967 558.949 372.095 558.949 369.03C558.949 365.965 561.133 363.093 564.877 360.958C568.607 358.831 573.793 357.5 579.549 357.5C585.305 357.5 590.492 358.831 594.222 360.958C597.966 363.093 600.149 365.965 600.149 369.03Z" stroke="#DE063A"/>
</g>
<g filter="url(#filter21_d)">
<path d="M576.549 331.87C588.202 331.87 597.649 326.484 597.649 319.84C597.649 313.196 588.202 307.81 576.549 307.81C564.896 307.81 555.449 313.196 555.449 319.84C555.449 326.484 564.896 331.87 576.549 331.87Z" fill="url(#paint48_radial)"/>
<path d="M597.149 319.84C597.149 322.904 594.966 325.777 591.222 327.912C587.492 330.039 582.305 331.37 576.549 331.37C570.793 331.37 565.607 330.039 561.877 327.912C558.133 325.777 555.949 322.904 555.949 319.84C555.949 316.775 558.133 313.903 561.877 311.768C565.607 309.641 570.793 308.31 576.549 308.31C582.305 308.31 587.492 309.641 591.222 311.768C594.966 313.903 597.149 316.775 597.149 319.84Z" stroke="#FF4588"/>
</g>
<path d="M555.459 319.84V313.03H597.649V319.84" fill="#FF2473"/>
<g filter="url(#filter22_d)">
<path d="M576.549 325.06C588.202 325.06 597.649 319.674 597.649 313.03C597.649 306.386 588.202 301 576.549 301C564.896 301 555.449 306.386 555.449 313.03C555.449 319.674 564.896 325.06 576.549 325.06Z" fill="url(#paint49_radial)"/>
<path d="M597.149 313.03C597.149 316.095 594.966 318.967 591.222 321.102C587.492 323.229 582.305 324.56 576.549 324.56C570.793 324.56 565.607 323.229 561.877 321.102C558.133 318.967 555.949 316.095 555.949 313.03C555.949 309.965 558.133 307.093 561.877 304.958C565.607 302.831 570.793 301.5 576.549 301.5C582.305 301.5 587.492 302.831 591.222 304.958C594.966 307.093 597.149 309.965 597.149 313.03Z" stroke="#DE063A"/>
</g>
<path d="M399.236 63.5256L485.757 12.46C486.221 12.2 486.749 12.0648 487.286 12.0684C487.822 12.072 488.348 12.2142 488.809 12.4805C489.27 12.7467 489.649 13.1272 489.907 13.5827C490.165 14.0383 490.293 14.5522 490.277 15.0716V44.2519C490.282 44.7784 490.145 45.297 489.881 45.7572C489.617 46.2174 489.234 46.6036 488.77 46.8782L402.22 96.8933C401.758 97.1519 400.894 97.5966 400.361 97.5942C399.827 97.5919 399.303 97.4521 398.843 97.1894C398.383 96.9267 398.004 96.8196 397.743 96.3682C397.483 95.9168 397.351 95.1375 397.361 94.6206L397.248 67.1731C397.213 66.4487 397.38 65.7286 397.73 65.0873C398.079 64.4461 398.599 63.9069 399.236 63.5256Z" fill="url(#paint50_linear)"/>
<rect width="7.04158" height="1.80974" rx="0.904869" transform="matrix(0.94867 0.316268 -0.36928 0.929318 487.462 12)" fill="#FF2473"/>
<rect width="9.26894" height="3.03216" rx="1.51608" transform="matrix(0.940646 0.339389 -0.39507 0.918651 398.148 94.0688)" fill="#FF8200"/>
<path d="M495.029 16.8966L495.029 16.8966V16.9042L495.029 46.0845L495.029 46.0866C495.033 46.5683 494.908 47.0433 494.666 47.4654C494.424 47.8871 494.073 48.2421 493.646 48.4949C493.646 48.4952 493.645 48.4954 493.645 48.4956L407.1 98.5077C407.099 98.508 407.099 98.5082 407.098 98.5085C406.871 98.6358 406.549 98.8061 406.222 98.9438C405.885 99.0855 405.576 99.1778 405.364 99.1768C404.872 99.1746 404.391 99.0461 403.969 98.8049C403.547 98.5638 403.2 98.2191 402.962 97.8067C402.724 97.3945 402.604 96.9291 402.613 96.4581H402.613L402.613 96.4521L402.499 69.0046H402.5L402.499 68.9939C402.467 68.3156 402.623 67.6409 402.951 67.0396C403.279 66.4384 403.767 65.9318 404.366 65.5731C404.366 65.5729 404.367 65.5728 404.367 65.5726L490.881 14.5107C490.882 14.5103 490.882 14.5098 490.883 14.5093C491.309 14.2716 491.793 14.1476 492.286 14.1509C492.78 14.1543 493.263 14.2851 493.686 14.5295C494.109 14.7738 494.456 15.1225 494.691 15.5386C494.927 15.9546 495.044 16.4234 495.029 16.8966Z" fill="#313A55" stroke="url(#paint51_linear)" stroke-width="0.5"/>
<rect width="9.29437" height="3.09259" rx="1.54629" transform="matrix(0.938072 0.34644 -0.38735 0.921933 510.147 84.0034)" fill="#313A55"/>
<path d="M511.236 52.7402L597.757 0.470792C598.221 0.204653 598.749 0.0662682 599.286 0.0699571C599.822 0.0736461 600.348 0.219256 600.809 0.491757C601.27 0.764258 601.649 1.15376 601.907 1.62002C602.165 2.08628 602.293 2.61239 602.277 3.14399V33.0122C602.281 33.5511 602.145 34.0819 601.881 34.553C601.617 35.024 601.234 35.4193 600.77 35.7004L514.22 86.8945C513.757 87.1592 512.894 87.6145 512.36 87.612C511.826 87.6096 511.303 87.4666 510.843 87.1977C510.383 86.9288 510.003 86.8191 509.743 86.3571C509.483 85.8951 509.351 85.0973 509.361 84.5682L509.247 56.4737C509.213 55.7322 509.38 54.9952 509.729 54.3388C510.079 53.6824 510.599 53.1305 511.236 52.7402Z" fill="url(#paint52_linear)"/>
<rect width="7.05836" height="1.84664" rx="0.923321" transform="matrix(0.946415 0.322954 -0.3619 0.932217 599.462 0)" fill="#313A55"/>
<path d="M606.779 5.00504L606.779 5.01241V5.01978L606.779 34.888L606.779 34.8921C606.783 35.3438 606.668 35.7889 606.447 36.1843C606.225 36.579 605.905 36.9109 605.515 37.1473C605.514 37.1477 605.514 37.1481 605.513 37.1485L518.973 88.3364C518.972 88.337 518.971 88.3375 518.97 88.3381C518.746 88.4662 518.435 88.6348 518.121 88.77C517.787 88.9137 517.52 88.9885 517.365 88.9878C516.918 88.9858 516.481 88.8663 516.097 88.6419C515.713 88.4175 515.397 88.0964 515.181 87.7119C514.964 87.3275 514.855 86.8933 514.863 86.4537H514.863L514.863 86.442L514.749 58.3475L514.749 58.337L514.749 58.3266C514.719 57.6749 514.865 57.027 515.173 56.4497C515.48 55.8728 515.937 55.3871 516.498 55.0432C516.498 55.0429 516.499 55.0426 516.499 55.0423L603.012 2.77771C603.398 2.55737 603.837 2.44267 604.284 2.44574C604.732 2.44882 605.172 2.57053 605.556 2.79793C605.941 3.02531 606.256 3.34998 606.471 3.73797C606.686 4.12592 606.792 4.56332 606.779 5.00504Z" fill="#23293D" stroke="#313A55"/>
<g filter="url(#filter23_d)">
<path d="M620.449 410L566.449 438" stroke="url(#paint53_linear)" stroke-width="2"/>
</g>
<g filter="url(#filter24_d)">
<path d="M518.717 140.97L541.902 154.355C542.278 154.574 542.704 154.69 543.137 154.69C543.57 154.69 543.995 154.574 544.371 154.355L571.429 138.293C571.802 138.069 572.111 137.751 572.326 137.368C572.541 136.985 572.654 136.552 572.654 136.111C572.654 135.67 572.541 135.236 572.326 134.854C572.111 134.471 571.802 134.152 571.429 133.929L548.335 120.343C547.957 120.118 547.526 120 547.088 120C546.65 120 546.22 120.118 545.841 120.343L518.678 136.579C518.301 136.804 517.988 137.127 517.773 137.514C517.557 137.902 517.445 138.34 517.449 138.786C517.453 139.232 517.573 139.668 517.795 140.052C518.018 140.435 518.336 140.752 518.717 140.97Z" fill="#313A55"/>
<path d="M518.842 140.753L518.841 140.753C518.499 140.557 518.212 140.272 518.011 139.926C517.811 139.58 517.703 139.186 517.699 138.784C517.696 138.381 517.796 137.985 517.991 137.636C518.185 137.286 518.467 136.996 518.806 136.794L518.806 136.794L545.969 120.558C545.969 120.558 545.969 120.558 545.969 120.558C546.309 120.356 546.695 120.25 547.088 120.25C547.481 120.25 547.868 120.356 548.208 120.558L548.209 120.558L571.3 134.143C571.301 134.144 571.301 134.144 571.301 134.144C571.636 134.344 571.915 134.631 572.108 134.976C572.302 135.321 572.404 135.712 572.404 136.111C572.404 136.509 572.302 136.9 572.108 137.245C571.914 137.591 571.636 137.877 571.3 138.078L544.244 154.139C544.244 154.139 544.244 154.139 544.243 154.14C543.906 154.337 543.525 154.44 543.137 154.44C542.748 154.44 542.366 154.336 542.029 154.139L542.027 154.138L518.842 140.753Z" stroke="#313A55" stroke-width="0.5"/>
</g>
<path d="M521.986 134.182C524.255 129.818 517.449 136.8 517.449 132V138L521.986 134.182Z" fill="#313A55"/>
<path d="M566.449 133.818C566.449 136 572.449 131.2 572.449 136V130L566.449 133.818Z" fill="#313A55" stroke="#313A55" stroke-width="0.3"/>
<path d="M542.029 148.139L542.027 148.138L518.842 134.753L518.717 134.97L518.841 134.753C518.499 134.557 518.212 134.272 518.011 133.926C517.811 133.58 517.703 133.186 517.699 132.784C517.696 132.381 517.796 131.985 517.991 131.636C518.185 131.286 518.467 130.996 518.806 130.794L518.806 130.794L545.969 114.558C545.969 114.558 545.969 114.558 545.969 114.558C546.309 114.356 546.695 114.25 547.088 114.25C547.481 114.25 547.868 114.356 548.208 114.558L548.209 114.558L571.301 128.143C571.301 128.144 571.301 128.144 571.301 128.144C571.636 128.344 571.915 128.631 572.108 128.976C572.302 129.321 572.404 129.712 572.404 130.111C572.404 130.509 572.302 130.9 572.108 131.245C571.914 131.59 571.636 131.877 571.301 132.078C571.301 132.078 571.301 132.078 571.301 132.078L544.244 148.139C544.244 148.139 544.244 148.139 544.244 148.14C543.906 148.337 543.525 148.44 543.137 148.44C542.748 148.44 542.366 148.336 542.029 148.139Z" fill="#23293D" stroke="#313A55" stroke-width="0.5"/>
<g filter="url(#filter25_d)">
<path d="M575.717 105.97L598.902 119.355C599.278 119.574 599.704 119.69 600.137 119.69C600.57 119.69 600.995 119.574 601.371 119.355L628.429 103.293C628.802 103.069 629.111 102.751 629.326 102.368C629.541 101.985 629.654 101.552 629.654 101.111C629.654 100.67 629.541 100.236 629.326 99.8536C629.111 99.4709 628.802 99.1521 628.429 98.9289L605.335 85.3428C604.957 85.1183 604.526 85 604.088 85C603.65 85 603.22 85.1183 602.841 85.3428L575.678 101.579C575.301 101.804 574.988 102.127 574.773 102.514C574.557 102.902 574.445 103.34 574.449 103.786C574.453 104.232 574.573 104.668 574.795 105.052C575.018 105.435 575.336 105.752 575.717 105.97Z" fill="#313A55"/>
<path d="M575.842 105.753L575.841 105.753C575.499 105.557 575.212 105.272 575.011 104.926C574.811 104.58 574.703 104.186 574.699 103.784C574.696 103.381 574.796 102.985 574.991 102.636C575.185 102.286 575.467 101.996 575.806 101.794L575.806 101.794L602.969 85.5579C602.969 85.5578 602.969 85.5577 602.969 85.5577C603.309 85.356 603.695 85.25 604.088 85.25C604.481 85.25 604.868 85.3561 605.208 85.5579L605.209 85.5583L628.3 99.1434C628.301 99.1436 628.301 99.1437 628.301 99.1439C628.636 99.3445 628.915 99.6312 629.108 99.9761C629.302 100.321 629.404 100.712 629.404 101.111C629.404 101.509 629.302 101.9 629.108 102.245C628.914 102.591 628.636 102.877 628.3 103.078L601.244 119.139C601.244 119.139 601.244 119.139 601.243 119.14C600.906 119.337 600.525 119.44 600.137 119.44C599.748 119.44 599.366 119.336 599.029 119.139L599.027 119.138L575.842 105.753Z" stroke="#313A55" stroke-width="0.5"/>
</g>
<path d="M578.986 99.1818C581.255 94.8182 574.449 101.8 574.449 97V103L578.986 99.1818Z" fill="#313A55"/>
<path d="M623.449 98.8182C623.449 101 629.449 96.2 629.449 101V95L623.449 98.8182Z" fill="#313A55" stroke="#313A55" stroke-width="0.3"/>
<path d="M599.029 113.139L599.027 113.138L575.842 99.7531L575.717 99.9696L575.841 99.7526C575.499 99.5567 575.212 99.2718 575.011 98.9261C574.811 98.5803 574.703 98.1862 574.699 97.7838C574.696 97.3813 574.796 96.9853 574.991 96.6358C575.185 96.2864 575.467 95.9961 575.806 95.7939L575.806 95.7938L602.969 79.5579C602.969 79.5578 602.969 79.5577 602.969 79.5577C603.309 79.356 603.695 79.25 604.088 79.25C604.481 79.25 604.868 79.3561 605.208 79.5579L605.209 79.5583L628.301 93.1434C628.301 93.1436 628.301 93.1437 628.301 93.1439C628.636 93.3445 628.915 93.6312 629.108 93.9761C629.302 94.3212 629.404 94.7124 629.404 95.1107C629.404 95.5091 629.302 95.9002 629.108 96.2454C628.914 96.5904 628.636 96.8772 628.301 97.0778C628.301 97.0779 628.301 97.0779 628.301 97.078L601.244 113.139C601.244 113.139 601.244 113.139 601.244 113.14C600.906 113.337 600.525 113.44 600.137 113.44C599.748 113.44 599.366 113.336 599.029 113.139Z" fill="#23293D" stroke="#313A55" stroke-width="0.5"/>
<g filter="url(#filter26_d)">
<path d="M671.549 506.87C683.202 506.87 692.649 501.484 692.649 494.84C692.649 488.196 683.202 482.81 671.549 482.81C659.896 482.81 650.449 488.196 650.449 494.84C650.449 501.484 659.896 506.87 671.549 506.87Z" fill="url(#paint54_linear)"/>
<path d="M692.399 494.84C692.399 498.033 690.127 500.973 686.345 503.129C682.571 505.281 677.34 506.62 671.549 506.62C665.758 506.62 660.527 505.281 656.753 503.129C652.972 500.973 650.699 498.033 650.699 494.84C650.699 491.647 652.972 488.707 656.753 486.551C660.527 484.399 665.758 483.06 671.549 483.06C677.34 483.06 682.571 484.399 686.345 486.551C690.127 488.707 692.399 491.647 692.399 494.84Z" stroke="#3B4974" stroke-width="0.5"/>
</g>
<mask id="path-108-inside-4" fill="white">
<path d="M650.459 494.84V488.03H692.649V494.84"/>
</mask>
<path d="M650.459 494.84V488.03H692.649V494.84" fill="#FF2473"/>
<path d="M650.459 488.03V487.53H649.959V488.03H650.459ZM692.649 488.03H693.149V487.53H692.649V488.03ZM650.959 494.84V488.03H649.959V494.84H650.959ZM650.459 488.53H692.649V487.53H650.459V488.53ZM692.149 488.03V494.84H693.149V488.03H692.149Z" fill="#313A55" mask="url(#path-108-inside-4)"/>
<path d="M692.399 488.03C692.399 491.223 690.127 494.163 686.345 496.319C682.571 498.471 677.34 499.81 671.549 499.81C665.758 499.81 660.527 498.471 656.753 496.319C652.972 494.163 650.699 491.223 650.699 488.03C650.699 484.837 652.972 481.897 656.753 479.741C660.527 477.589 665.758 476.25 671.549 476.25C677.34 476.25 682.571 477.589 686.345 479.741C690.127 481.897 692.399 484.837 692.399 488.03Z" fill="url(#paint55_radial)" stroke="#3B4974" stroke-width="0.5"/>
<g filter="url(#filter27_d)">
<path d="M620.549 475.87C632.202 475.87 641.649 470.484 641.649 463.84C641.649 457.196 632.202 451.81 620.549 451.81C608.896 451.81 599.449 457.196 599.449 463.84C599.449 470.484 608.896 475.87 620.549 475.87Z" fill="url(#paint56_linear)"/>
<path d="M641.399 463.84C641.399 467.033 639.127 469.973 635.345 472.129C631.571 474.281 626.34 475.62 620.549 475.62C614.758 475.62 609.527 474.281 605.753 472.129C601.972 469.973 599.699 467.033 599.699 463.84C599.699 460.647 601.972 457.707 605.753 455.551C609.527 453.399 614.758 452.06 620.549 452.06C626.34 452.06 631.571 453.399 635.345 455.551C639.127 457.707 641.399 460.647 641.399 463.84Z" stroke="#3B4974" stroke-width="0.5"/>
</g>
<mask id="path-113-inside-5" fill="white">
<path d="M599.459 463.84V457.03H641.649V463.84"/>
</mask>
<path d="M599.459 463.84V457.03H641.649V463.84" fill="#FF2473"/>
<path d="M599.459 457.03V456.53H598.959V457.03H599.459ZM641.649 457.03H642.149V456.53H641.649V457.03ZM599.959 463.84V457.03H598.959V463.84H599.959ZM599.459 457.53H641.649V456.53H599.459V457.53ZM641.149 457.03V463.84H642.149V457.03H641.149Z" fill="#313A55" mask="url(#path-113-inside-5)"/>
<path d="M641.399 457.03C641.399 460.223 639.127 463.163 635.345 465.319C631.571 467.471 626.34 468.81 620.549 468.81C614.758 468.81 609.527 467.471 605.753 465.319C601.972 463.163 599.699 460.223 599.699 457.03C599.699 453.837 601.972 450.897 605.753 448.741C609.527 446.589 614.758 445.25 620.549 445.25C626.34 445.25 631.571 446.589 635.345 448.741C639.127 450.897 641.399 453.837 641.399 457.03Z" fill="url(#paint57_radial)" stroke="#3B4974" stroke-width="0.5"/>
<g filter="url(#filter28_d)">
<path d="M675.549 446.87C687.202 446.87 696.649 441.484 696.649 434.84C696.649 428.196 687.202 422.81 675.549 422.81C663.896 422.81 654.449 428.196 654.449 434.84C654.449 441.484 663.896 446.87 675.549 446.87Z" fill="url(#paint58_linear)"/>
<path d="M696.399 434.84C696.399 438.033 694.127 440.973 690.345 443.129C686.571 445.281 681.34 446.62 675.549 446.62C669.758 446.62 664.527 445.281 660.753 443.129C656.972 440.973 654.699 438.033 654.699 434.84C654.699 431.647 656.972 428.707 660.753 426.551C664.527 424.399 669.758 423.06 675.549 423.06C681.34 423.06 686.571 424.399 690.345 426.551C694.127 428.707 696.399 431.647 696.399 434.84Z" stroke="#3B4974" stroke-width="0.5"/>
</g>
<mask id="path-118-inside-6" fill="white">
<path d="M654.459 434.84V428.03H696.649V434.84"/>
</mask>
<path d="M654.459 434.84V428.03H696.649V434.84" fill="#FF2473"/>
<path d="M654.459 428.03V427.53H653.959V428.03H654.459ZM696.649 428.03H697.149V427.53H696.649V428.03ZM654.959 434.84V428.03H653.959V434.84H654.959ZM654.459 428.53H696.649V427.53H654.459V428.53ZM696.149 428.03V434.84H697.149V428.03H696.149Z" fill="#313A55" mask="url(#path-118-inside-6)"/>
<path d="M696.399 428.03C696.399 431.223 694.127 434.163 690.345 436.319C686.571 438.471 681.34 439.81 675.549 439.81C669.758 439.81 664.527 438.471 660.753 436.319C656.972 434.163 654.699 431.223 654.699 428.03C654.699 424.837 656.972 421.897 660.753 419.741C664.527 417.589 669.758 416.25 675.549 416.25C681.34 416.25 686.571 417.589 690.345 419.741C694.127 421.897 696.399 424.837 696.399 428.03Z" fill="url(#paint59_radial)" stroke="#3B4974" stroke-width="0.5"/>
<g filter="url(#filter29_d)">
<path d="M633.549 359.87C645.202 359.87 654.649 354.484 654.649 347.84C654.649 341.196 645.202 335.81 633.549 335.81C621.896 335.81 612.449 341.196 612.449 347.84C612.449 354.484 621.896 359.87 633.549 359.87Z" fill="url(#paint60_linear)"/>
<path d="M654.399 347.84C654.399 351.033 652.127 353.973 648.345 356.129C644.571 358.281 639.34 359.62 633.549 359.62C627.758 359.62 622.527 358.281 618.753 356.129C614.972 353.973 612.699 351.033 612.699 347.84C612.699 344.647 614.972 341.707 618.753 339.551C622.527 337.399 627.758 336.06 633.549 336.06C639.34 336.06 644.571 337.399 648.345 339.551C652.127 341.707 654.399 344.647 654.399 347.84Z" stroke="#3B4974" stroke-width="0.5"/>
</g>
<mask id="path-123-inside-7" fill="white">
<path d="M612.459 347.84V341.03H654.649V347.84"/>
</mask>
<path d="M612.459 347.84V341.03H654.649V347.84" fill="#FF2473"/>
<path d="M612.459 341.03V340.53H611.959V341.03H612.459ZM654.649 341.03H655.149V340.53H654.649V341.03ZM612.959 347.84V341.03H611.959V347.84H612.959ZM612.459 341.53H654.649V340.53H612.459V341.53ZM654.149 341.03V347.84H655.149V341.03H654.149Z" fill="#313A55" mask="url(#path-123-inside-7)"/>
<path d="M654.399 341.03C654.399 344.223 652.127 347.163 648.345 349.319C644.571 351.471 639.34 352.81 633.549 352.81C627.758 352.81 622.527 351.471 618.753 349.319C614.972 347.163 612.699 344.223 612.699 341.03C612.699 337.837 614.972 334.897 618.753 332.741C622.527 330.589 627.758 329.25 633.549 329.25C639.34 329.25 644.571 330.589 648.345 332.741C652.127 334.897 654.399 337.837 654.399 341.03Z" fill="url(#paint61_radial)" stroke="#3B4974" stroke-width="0.5"/>
<g filter="url(#filter30_d)">
<path d="M568.549 451.87C580.202 451.87 589.649 446.484 589.649 439.84C589.649 433.196 580.202 427.81 568.549 427.81C556.896 427.81 547.449 433.196 547.449 439.84C547.449 446.484 556.896 451.87 568.549 451.87Z" fill="url(#paint62_radial)"/>
<path d="M589.549 439.84C589.549 443.11 587.223 446.091 583.42 448.26C579.619 450.426 574.362 451.77 568.549 451.77C562.737 451.77 557.479 450.426 553.679 448.26C549.875 446.091 547.549 443.11 547.549 439.84C547.549 436.569 549.875 433.589 553.679 431.42C557.479 429.253 562.737 427.91 568.549 427.91C574.362 427.91 579.619 429.253 583.42 431.42C587.223 433.589 589.549 436.569 589.549 439.84Z" stroke="#313A55" stroke-opacity="0.44" stroke-width="0.2"/>
</g>
<mask id="path-128-inside-8" fill="white">
<path d="M547.459 439.84V433.03H589.649V439.84"/>
</mask>
<path d="M547.459 439.84V433.03H589.649V439.84" fill="url(#paint63_linear)"/>
<path d="M547.459 433.03V432.03H546.459V433.03H547.459ZM589.649 433.03H590.649V432.03H589.649V433.03ZM548.459 439.84V433.03H546.459V439.84H548.459ZM547.459 434.03H589.649V432.03H547.459V434.03ZM588.649 433.03V439.84H590.649V433.03H588.649Z" fill="#FF1167" mask="url(#path-128-inside-8)"/>
<g filter="url(#filter31_d)">
<path d="M568.549 445.06C580.202 445.06 589.649 439.674 589.649 433.03C589.649 426.386 580.202 421 568.549 421C556.896 421 547.449 426.386 547.449 433.03C547.449 439.674 556.896 445.06 568.549 445.06Z" fill="url(#paint64_radial)"/>
<path d="M589.149 433.03C589.149 436.095 586.966 438.967 583.222 441.102C579.492 443.229 574.305 444.56 568.549 444.56C562.793 444.56 557.607 443.229 553.877 441.102C550.133 438.967 547.949 436.095 547.949 433.03C547.949 429.965 550.133 427.093 553.877 424.958C557.607 422.831 562.793 421.5 568.549 421.5C574.305 421.5 579.492 422.831 583.222 424.958C586.966 427.093 589.149 429.965 589.149 433.03Z" stroke="#DE063A"/>
</g>
<g filter="url(#filter32_d)">
<path d="M629.049 416.87C640.702 416.87 650.149 411.484 650.149 404.84C650.149 398.196 640.702 392.81 629.049 392.81C617.396 392.81 607.949 398.196 607.949 404.84C607.949 411.484 617.396 416.87 629.049 416.87Z" fill="url(#paint65_radial)"/>
<path d="M650.049 404.84C650.049 408.11 647.723 411.091 643.919 413.26C640.119 415.426 634.861 416.77 629.049 416.77C623.237 416.77 617.979 415.426 614.179 413.26C610.375 411.091 608.049 408.11 608.049 404.84C608.049 401.569 610.375 398.589 614.179 396.42C617.979 394.253 623.237 392.91 629.049 392.91C634.861 392.91 640.119 394.253 643.919 396.42C647.723 398.589 650.049 401.569 650.049 404.84Z" stroke="#313A55" stroke-opacity="0.44" stroke-width="0.2"/>
</g>
<mask id="path-134-inside-9" fill="white">
<path d="M607.959 404.84V398.03H650.149V404.84"/>
</mask>
<path d="M607.959 404.84V398.03H650.149V404.84" fill="url(#paint66_linear)"/>
<path d="M607.959 398.03V397.03H606.959V398.03H607.959ZM650.149 398.03H651.149V397.03H650.149V398.03ZM608.959 404.84V398.03H606.959V404.84H608.959ZM607.959 399.03H650.149V397.03H607.959V399.03ZM649.149 398.03V404.84H651.149V398.03H649.149Z" fill="#FF1167" mask="url(#path-134-inside-9)"/>
<g filter="url(#filter33_d)">
<path d="M629.049 410.06C640.702 410.06 650.149 404.674 650.149 398.03C650.149 391.386 640.702 386 629.049 386C617.396 386 607.949 391.386 607.949 398.03C607.949 404.674 617.396 410.06 629.049 410.06Z" fill="url(#paint67_radial)"/>
<path d="M649.649 398.03C649.649 401.095 647.466 403.967 643.721 406.102C639.991 408.229 634.805 409.56 629.049 409.56C623.293 409.56 618.107 408.229 614.377 406.102C610.632 403.967 608.449 401.095 608.449 398.03C608.449 394.965 610.632 392.093 614.377 389.958C618.107 387.831 623.293 386.5 629.049 386.5C634.805 386.5 639.991 387.831 643.721 389.958C647.466 392.093 649.649 394.965 649.649 398.03Z" stroke="#DE063A"/>
</g>
<defs>
<filter id="filter0_d" x="803.449" y="354.81" width="62.2" height="44.06" filterUnits="userSpaceOnUse" color-interpolation-filters="sRGB">
<feFlood flood-opacity="0" result="BackgroundImageFix"/>
<feColorMatrix in="SourceAlpha" type="matrix" values="0 0 0 0 0 0 0 0 0 0 0 0 0 0 0 0 0 0 127 0"/>
<feOffset dy="4"/>
<feGaussianBlur stdDeviation="5"/>
<feColorMatrix type="matrix" values="0 0 0 0 0.137255 0 0 0 0 0.160784 0 0 0 0 0.239216 0 0 0 1 0"/>
<feBlend mode="normal" in2="BackgroundImageFix" result="effect1_dropShadow"/>
<feBlend mode="normal" in="SourceGraphic" in2="effect1_dropShadow" result="shape"/>
</filter>
<filter id="filter1_d" x="850" y="327.81" width="62.2" height="44.06" filterUnits="userSpaceOnUse" color-interpolation-filters="sRGB">
<feFlood flood-opacity="0" result="BackgroundImageFix"/>
<feColorMatrix in="SourceAlpha" type="matrix" values="0 0 0 0 0 0 0 0 0 0 0 0 0 0 0 0 0 0 127 0"/>
<feOffset dy="4"/>
<feGaussianBlur stdDeviation="5"/>
<feColorMatrix type="matrix" values="0 0 0 0 0.137255 0 0 0 0 0.160784 0 0 0 0 0.239216 0 0 0 1 0"/>
<feBlend mode="normal" in2="BackgroundImageFix" result="effect1_dropShadow"/>
<feBlend mode="normal" in="SourceGraphic" in2="effect1_dropShadow" result="shape"/>
</filter>
<filter id="filter2_d" x="756.449" y="382.81" width="62.2" height="44.06" filterUnits="userSpaceOnUse" color-interpolation-filters="sRGB">
<feFlood flood-opacity="0" result="BackgroundImageFix"/>
<feColorMatrix in="SourceAlpha" type="matrix" values="0 0 0 0 0 0 0 0 0 0 0 0 0 0 0 0 0 0 127 0"/>
<feOffset dy="4"/>
<feGaussianBlur stdDeviation="5"/>
<feColorMatrix type="matrix" values="0 0 0 0 0.137255 0 0 0 0 0.160784 0 0 0 0 0.239216 0 0 0 1 0"/>
<feBlend mode="normal" in2="BackgroundImageFix" result="effect1_dropShadow"/>
<feBlend mode="normal" in="SourceGraphic" in2="effect1_dropShadow" result="shape"/>
</filter>
<filter id="filter3_d" x="291.449" y="213" width="553" height="381.546" filterUnits="userSpaceOnUse" color-interpolation-filters="sRGB">
<feFlood flood-opacity="0" result="BackgroundImageFix"/>
<feColorMatrix in="SourceAlpha" type="matrix" values="0 0 0 0 0 0 0 0 0 0 0 0 0 0 0 0 0 0 127 0"/>
<feOffset dy="15"/>
<feGaussianBlur stdDeviation="10"/>
<feColorMatrix type="matrix" values="0 0 0 0 0.137255 0 0 0 0 0.160784 0 0 0 0 0.239216 0 0 0 0.5 0"/>
<feBlend mode="normal" in2="BackgroundImageFix" result="effect1_dropShadow"/>
<feBlend mode="normal" in="SourceGraphic" in2="effect1_dropShadow" result="shape"/>
</filter>
<filter id="filter4_d" x="251.449" y="369.81" width="62.2" height="44.06" filterUnits="userSpaceOnUse" color-interpolation-filters="sRGB">
<feFlood flood-opacity="0" result="BackgroundImageFix"/>
<feColorMatrix in="SourceAlpha" type="matrix" values="0 0 0 0 0 0 0 0 0 0 0 0 0 0 0 0 0 0 127 0"/>
<feOffset dy="4"/>
<feGaussianBlur stdDeviation="5"/>
<feColorMatrix type="matrix" values="0 0 0 0 0.137255 0 0 0 0 0.160784 0 0 0 0 0.239216 0 0 0 1 0"/>
<feBlend mode="normal" in2="BackgroundImageFix" result="effect1_dropShadow"/>
<feBlend mode="normal" in="SourceGraphic" in2="effect1_dropShadow" result="shape"/>
</filter>
<filter id="filter5_d" x="190.449" y="405.81" width="62.2" height="44.06" filterUnits="userSpaceOnUse" color-interpolation-filters="sRGB">
<feFlood flood-opacity="0" result="BackgroundImageFix"/>
<feColorMatrix in="SourceAlpha" type="matrix" values="0 0 0 0 0 0 0 0 0 0 0 0 0 0 0 0 0 0 127 0"/>
<feOffset dy="4"/>
<feGaussianBlur stdDeviation="5"/>
<feColorMatrix type="matrix" values="0 0 0 0 0.137255 0 0 0 0 0.160784 0 0 0 0 0.239216 0 0 0 1 0"/>
<feBlend mode="normal" in2="BackgroundImageFix" result="effect1_dropShadow"/>
<feBlend mode="normal" in="SourceGraphic" in2="effect1_dropShadow" result="shape"/>
</filter>
<filter id="filter6_d" x="272.449" y="416.81" width="62.2" height="44.06" filterUnits="userSpaceOnUse" color-interpolation-filters="sRGB">
<feFlood flood-opacity="0" result="BackgroundImageFix"/>
<feColorMatrix in="SourceAlpha" type="matrix" values="0 0 0 0 0 0 0 0 0 0 0 0 0 0 0 0 0 0 127 0"/>
<feOffset dy="4"/>
<feGaussianBlur stdDeviation="5"/>
<feColorMatrix type="matrix" values="0 0 0 0 0.137255 0 0 0 0 0.160784 0 0 0 0 0.239216 0 0 0 1 0"/>
<feBlend mode="normal" in2="BackgroundImageFix" result="effect1_dropShadow"/>
<feBlend mode="normal" in="SourceGraphic" in2="effect1_dropShadow" result="shape"/>
</filter>
<filter id="filter7_d" x="694.449" y="446.81" width="62.2" height="44.06" filterUnits="userSpaceOnUse" color-interpolation-filters="sRGB">
<feFlood flood-opacity="0" result="BackgroundImageFix"/>
<feColorMatrix in="SourceAlpha" type="matrix" values="0 0 0 0 0 0 0 0 0 0 0 0 0 0 0 0 0 0 127 0"/>
<feOffset dy="4"/>
<feGaussianBlur stdDeviation="5"/>
<feColorMatrix type="matrix" values="0 0 0 0 0.137255 0 0 0 0 0.160784 0 0 0 0 0.239216 0 0 0 1 0"/>
<feBlend mode="normal" in2="BackgroundImageFix" result="effect1_dropShadow"/>
<feBlend mode="normal" in="SourceGraphic" in2="effect1_dropShadow" result="shape"/>
</filter>
<filter id="filter8_d" x="748.449" y="413.81" width="62.2" height="44.06" filterUnits="userSpaceOnUse" color-interpolation-filters="sRGB">
<feFlood flood-opacity="0" result="BackgroundImageFix"/>
<feColorMatrix in="SourceAlpha" type="matrix" values="0 0 0 0 0 0 0 0 0 0 0 0 0 0 0 0 0 0 127 0"/>
<feOffset dy="4"/>
<feGaussianBlur stdDeviation="5"/>
<feColorMatrix type="matrix" values="0 0 0 0 0.137255 0 0 0 0 0.160784 0 0 0 0 0.239216 0 0 0 1 0"/>
<feBlend mode="normal" in2="BackgroundImageFix" result="effect1_dropShadow"/>
<feBlend mode="normal" in="SourceGraphic" in2="effect1_dropShadow" result="shape"/>
</filter>
<filter id="filter9_d" x="697.449" y="386.81" width="62.2" height="44.06" filterUnits="userSpaceOnUse" color-interpolation-filters="sRGB">
<feFlood flood-opacity="0" result="BackgroundImageFix"/>
<feColorMatrix in="SourceAlpha" type="matrix" values="0 0 0 0 0 0 0 0 0 0 0 0 0 0 0 0 0 0 127 0"/>
<feOffset dy="4"/>
<feGaussianBlur stdDeviation="5"/>
<feColorMatrix type="matrix" values="0 0 0 0 0.137255 0 0 0 0 0.160784 0 0 0 0 0.239216 0 0 0 1 0"/>
<feBlend mode="normal" in2="BackgroundImageFix" result="effect1_dropShadow"/>
<feBlend mode="normal" in="SourceGraphic" in2="effect1_dropShadow" result="shape"/>
</filter>
<filter id="filter10_d" x="648.449" y="358.81" width="62.2" height="44.06" filterUnits="userSpaceOnUse" color-interpolation-filters="sRGB">
<feFlood flood-opacity="0" result="BackgroundImageFix"/>
<feColorMatrix in="SourceAlpha" type="matrix" values="0 0 0 0 0 0 0 0 0 0 0 0 0 0 0 0 0 0 127 0"/>
<feOffset dy="4"/>
<feGaussianBlur stdDeviation="5"/>
<feColorMatrix type="matrix" values="0 0 0 0 0.137255 0 0 0 0 0.160784 0 0 0 0 0.239216 0 0 0 1 0"/>
<feBlend mode="normal" in2="BackgroundImageFix" result="effect1_dropShadow"/>
<feBlend mode="normal" in="SourceGraphic" in2="effect1_dropShadow" result="shape"/>
</filter>
<filter id="filter11_d" x="122.449" y="444.81" width="62.2" height="44.06" filterUnits="userSpaceOnUse" color-interpolation-filters="sRGB">
<feFlood flood-opacity="0" result="BackgroundImageFix"/>
<feColorMatrix in="SourceAlpha" type="matrix" values="0 0 0 0 0 0 0 0 0 0 0 0 0 0 0 0 0 0 127 0"/>
<feOffset dy="4"/>
<feGaussianBlur stdDeviation="5"/>
<feColorMatrix type="matrix" values="0 0 0 0 0.137255 0 0 0 0 0.160784 0 0 0 0 0.239216 0 0 0 1 0"/>
<feBlend mode="normal" in2="BackgroundImageFix" result="effect1_dropShadow"/>
<feBlend mode="normal" in="SourceGraphic" in2="effect1_dropShadow" result="shape"/>
</filter>
<filter id="filter12_d" x="205.449" y="455.81" width="62.2" height="44.06" filterUnits="userSpaceOnUse" color-interpolation-filters="sRGB">
<feFlood flood-opacity="0" result="BackgroundImageFix"/>
<feColorMatrix in="SourceAlpha" type="matrix" values="0 0 0 0 0 0 0 0 0 0 0 0 0 0 0 0 0 0 127 0"/>
<feOffset dy="4"/>
<feGaussianBlur stdDeviation="5"/>
<feColorMatrix type="matrix" values="0 0 0 0 0.137255 0 0 0 0 0.160784 0 0 0 0 0.239216 0 0 0 1 0"/>
<feBlend mode="normal" in2="BackgroundImageFix" result="effect1_dropShadow"/>
<feBlend mode="normal" in="SourceGraphic" in2="effect1_dropShadow" result="shape"/>
</filter>
<filter id="filter13_d" x="452.95" y="380.397" width="117.991" height="73.6032" filterUnits="userSpaceOnUse" color-interpolation-filters="sRGB">
<feFlood flood-opacity="0" result="BackgroundImageFix"/>
<feColorMatrix in="SourceAlpha" type="matrix" values="0 0 0 0 0 0 0 0 0 0 0 0 0 0 0 0 0 0 127 0"/>
<feOffset dy="4"/>
<feGaussianBlur stdDeviation="2.5"/>
<feColorMatrix type="matrix" values="0 0 0 0 1 0 0 0 0 0.141176 0 0 0 0 0.45098 0 0 0 0.75 0"/>
<feBlend mode="normal" in2="BackgroundImageFix" result="effect1_dropShadow"/>
<feBlend mode="normal" in="SourceGraphic" in2="effect1_dropShadow" result="shape"/>
</filter>
<filter id="filter14_d" x="421.95" y="360.81" width="62.2" height="44.06" filterUnits="userSpaceOnUse" color-interpolation-filters="sRGB">
<feFlood flood-opacity="0" result="BackgroundImageFix"/>
<feColorMatrix in="SourceAlpha" type="matrix" values="0 0 0 0 0 0 0 0 0 0 0 0 0 0 0 0 0 0 127 0"/>
<feOffset dy="5"/>
<feGaussianBlur stdDeviation="5"/>
<feColorMatrix type="matrix" values="0 0 0 0 1 0 0 0 0 0.141176 0 0 0 0 0.45098 0 0 0 0.5 0"/>
<feBlend mode="normal" in2="BackgroundImageFix" result="effect1_dropShadow"/>
<feBlend mode="normal" in="SourceGraphic" in2="effect1_dropShadow" result="shape"/>
</filter>
<filter id="filter15_d" x="427.95" y="359" width="50.2" height="32.06" filterUnits="userSpaceOnUse" color-interpolation-filters="sRGB">
<feFlood flood-opacity="0" result="BackgroundImageFix"/>
<feColorMatrix in="SourceAlpha" type="matrix" values="0 0 0 0 0 0 0 0 0 0 0 0 0 0 0 0 0 0 127 0"/>
<feOffset dy="4"/>
<feGaussianBlur stdDeviation="2"/>
<feColorMatrix type="matrix" values="0 0 0 0 0 0 0 0 0 0 0 0 0 0 0 0 0 0 0.25 0"/>
<feBlend mode="normal" in2="BackgroundImageFix" result="effect1_dropShadow"/>
<feBlend mode="normal" in="SourceGraphic" in2="effect1_dropShadow" result="shape"/>
</filter>
<filter id="filter16_d" x="443.965" y="240" width="11.9844" height="135.023" filterUnits="userSpaceOnUse" color-interpolation-filters="sRGB">
<feFlood flood-opacity="0" result="BackgroundImageFix"/>
<feColorMatrix in="SourceAlpha" type="matrix" values="0 0 0 0 0 0 0 0 0 0 0 0 0 0 0 0 0 0 127 0"/>
<feOffset dx="-2" dy="2"/>
<feGaussianBlur stdDeviation="2"/>
<feColorMatrix type="matrix" values="0 0 0 0 1 0 0 0 0 0.141176 0 0 0 0 0.45098 0 0 0 0.5 0"/>
<feBlend mode="normal" in2="BackgroundImageFix" result="effect1_dropShadow"/>
<feBlend mode="normal" in="SourceGraphic" in2="effect1_dropShadow" result="shape"/>
</filter>
<filter id="filter17_i" x="419.95" y="178" width="55.205" height="39.69" filterUnits="userSpaceOnUse" color-interpolation-filters="sRGB">
<feFlood flood-opacity="0" result="BackgroundImageFix"/>
<feBlend mode="normal" in="SourceGraphic" in2="BackgroundImageFix" result="shape"/>
<feColorMatrix in="SourceAlpha" type="matrix" values="0 0 0 0 0 0 0 0 0 0 0 0 0 0 0 0 0 0 127 0" result="hardAlpha"/>
<feOffset dy="5"/>
<feGaussianBlur stdDeviation="7.5"/>
<feComposite in2="hardAlpha" operator="arithmetic" k2="-1" k3="1"/>
<feColorMatrix type="matrix" values="0 0 0 0 1 0 0 0 0 0.141176 0 0 0 0 0.45098 0 0 0 1 0"/>
<feBlend mode="normal" in2="shape" result="effect1_innerShadow"/>
</filter>
<filter id="filter18_d" x="409.95" y="174" width="75.205" height="54.69" filterUnits="userSpaceOnUse" color-interpolation-filters="sRGB">
<feFlood flood-opacity="0" result="BackgroundImageFix"/>
<feColorMatrix in="SourceAlpha" type="matrix" values="0 0 0 0 0 0 0 0 0 0 0 0 0 0 0 0 0 0 127 0"/>
<feOffset dy="5"/>
<feGaussianBlur stdDeviation="5"/>
<feColorMatrix type="matrix" values="0 0 0 0 1 0 0 0 0 0.141176 0 0 0 0 0.45098 0 0 0 0.5 0"/>
<feBlend mode="normal" in2="BackgroundImageFix" result="effect1_dropShadow"/>
<feBlend mode="normal" in="SourceGraphic" in2="effect1_dropShadow" result="shape"/>
</filter>
<filter id="filter19_d" x="548.449" y="357.81" width="62.2" height="44.06" filterUnits="userSpaceOnUse" color-interpolation-filters="sRGB">
<feFlood flood-opacity="0" result="BackgroundImageFix"/>
<feColorMatrix in="SourceAlpha" type="matrix" values="0 0 0 0 0 0 0 0 0 0 0 0 0 0 0 0 0 0 127 0"/>
<feOffset dy="4"/>
<feGaussianBlur stdDeviation="5"/>
<feColorMatrix type="matrix" values="0 0 0 0 1 0 0 0 0 0.141176 0 0 0 0 0.45098 0 0 0 0.5 0"/>
<feBlend mode="normal" in2="BackgroundImageFix" result="effect1_dropShadow"/>
<feBlend mode="normal" in="SourceGraphic" in2="effect1_dropShadow" result="shape"/>
</filter>
<filter id="filter20_d" x="554.449" y="357" width="50.2" height="32.06" filterUnits="userSpaceOnUse" color-interpolation-filters="sRGB">
<feFlood flood-opacity="0" result="BackgroundImageFix"/>
<feColorMatrix in="SourceAlpha" type="matrix" values="0 0 0 0 0 0 0 0 0 0 0 0 0 0 0 0 0 0 127 0"/>
<feOffset dy="4"/>
<feGaussianBlur stdDeviation="2"/>
<feColorMatrix type="matrix" values="0 0 0 0 0 0 0 0 0 0 0 0 0 0 0 0 0 0 0.25 0"/>
<feBlend mode="normal" in2="BackgroundImageFix" result="effect1_dropShadow"/>
<feBlend mode="normal" in="SourceGraphic" in2="effect1_dropShadow" result="shape"/>
</filter>
<filter id="filter21_d" x="545.449" y="301.81" width="62.2" height="44.06" filterUnits="userSpaceOnUse" color-interpolation-filters="sRGB">
<feFlood flood-opacity="0" result="BackgroundImageFix"/>
<feColorMatrix in="SourceAlpha" type="matrix" values="0 0 0 0 0 0 0 0 0 0 0 0 0 0 0 0 0 0 127 0"/>
<feOffset dy="4"/>
<feGaussianBlur stdDeviation="5"/>
<feColorMatrix type="matrix" values="0 0 0 0 1 0 0 0 0 0.141176 0 0 0 0 0.45098 0 0 0 0.5 0"/>
<feBlend mode="normal" in2="BackgroundImageFix" result="effect1_dropShadow"/>
<feBlend mode="normal" in="SourceGraphic" in2="effect1_dropShadow" result="shape"/>
</filter>
<filter id="filter22_d" x="551.449" y="301" width="50.2" height="32.06" filterUnits="userSpaceOnUse" color-interpolation-filters="sRGB">
<feFlood flood-opacity="0" result="BackgroundImageFix"/>
<feColorMatrix in="SourceAlpha" type="matrix" values="0 0 0 0 0 0 0 0 0 0 0 0 0 0 0 0 0 0 127 0"/>
<feOffset dy="4"/>
<feGaussianBlur stdDeviation="2"/>
<feColorMatrix type="matrix" values="0 0 0 0 0 0 0 0 0 0 0 0 0 0 0 0 0 0 0.25 0"/>
<feBlend mode="normal" in2="BackgroundImageFix" result="effect1_dropShadow"/>
<feBlend mode="normal" in="SourceGraphic" in2="effect1_dropShadow" result="shape"/>
</filter>
<filter id="filter23_d" x="563.989" y="408.112" width="58.9206" height="33.7755" filterUnits="userSpaceOnUse" color-interpolation-filters="sRGB">
<feFlood flood-opacity="0" result="BackgroundImageFix"/>
<feColorMatrix in="SourceAlpha" type="matrix" values="0 0 0 0 0 0 0 0 0 0 0 0 0 0 0 0 0 0 127 0"/>
<feOffset dy="1"/>
<feGaussianBlur stdDeviation="1"/>
<feColorMatrix type="matrix" values="0 0 0 0 1 0 0 0 0 0.141176 0 0 0 0 0.45098 0 0 0 1 0"/>
<feBlend mode="normal" in2="BackgroundImageFix" result="effect1_dropShadow"/>
<feBlend mode="normal" in="SourceGraphic" in2="effect1_dropShadow" result="shape"/>
</filter>
<filter id="filter24_d" x="507.449" y="115" width="75.205" height="54.69" filterUnits="userSpaceOnUse" color-interpolation-filters="sRGB">
<feFlood flood-opacity="0" result="BackgroundImageFix"/>
<feColorMatrix in="SourceAlpha" type="matrix" values="0 0 0 0 0 0 0 0 0 0 0 0 0 0 0 0 0 0 127 0"/>
<feOffset dy="5"/>
<feGaussianBlur stdDeviation="5"/>
<feColorMatrix type="matrix" values="0 0 0 0 0.192157 0 0 0 0 0.227451 0 0 0 0 0.333333 0 0 0 1 0"/>
<feBlend mode="normal" in2="BackgroundImageFix" result="effect1_dropShadow"/>
<feBlend mode="normal" in="SourceGraphic" in2="effect1_dropShadow" result="shape"/>
</filter>
<filter id="filter25_d" x="564.449" y="80" width="75.205" height="54.69" filterUnits="userSpaceOnUse" color-interpolation-filters="sRGB">
<feFlood flood-opacity="0" result="BackgroundImageFix"/>
<feColorMatrix in="SourceAlpha" type="matrix" values="0 0 0 0 0 0 0 0 0 0 0 0 0 0 0 0 0 0 127 0"/>
<feOffset dy="5"/>
<feGaussianBlur stdDeviation="5"/>
<feColorMatrix type="matrix" values="0 0 0 0 0.192157 0 0 0 0 0.227451 0 0 0 0 0.333333 0 0 0 1 0"/>
<feBlend mode="normal" in2="BackgroundImageFix" result="effect1_dropShadow"/>
<feBlend mode="normal" in="SourceGraphic" in2="effect1_dropShadow" result="shape"/>
</filter>
<filter id="filter26_d" x="640.449" y="476.81" width="62.2" height="44.06" filterUnits="userSpaceOnUse" color-interpolation-filters="sRGB">
<feFlood flood-opacity="0" result="BackgroundImageFix"/>
<feColorMatrix in="SourceAlpha" type="matrix" values="0 0 0 0 0 0 0 0 0 0 0 0 0 0 0 0 0 0 127 0"/>
<feOffset dy="4"/>
<feGaussianBlur stdDeviation="5"/>
<feColorMatrix type="matrix" values="0 0 0 0 0.137255 0 0 0 0 0.160784 0 0 0 0 0.239216 0 0 0 1 0"/>
<feBlend mode="normal" in2="BackgroundImageFix" result="effect1_dropShadow"/>
<feBlend mode="normal" in="SourceGraphic" in2="effect1_dropShadow" result="shape"/>
</filter>
<filter id="filter27_d" x="589.449" y="445.81" width="62.2" height="44.06" filterUnits="userSpaceOnUse" color-interpolation-filters="sRGB">
<feFlood flood-opacity="0" result="BackgroundImageFix"/>
<feColorMatrix in="SourceAlpha" type="matrix" values="0 0 0 0 0 0 0 0 0 0 0 0 0 0 0 0 0 0 127 0"/>
<feOffset dy="4"/>
<feGaussianBlur stdDeviation="5"/>
<feColorMatrix type="matrix" values="0 0 0 0 0.137255 0 0 0 0 0.160784 0 0 0 0 0.239216 0 0 0 1 0"/>
<feBlend mode="normal" in2="BackgroundImageFix" result="effect1_dropShadow"/>
<feBlend mode="normal" in="SourceGraphic" in2="effect1_dropShadow" result="shape"/>
</filter>
<filter id="filter28_d" x="644.449" y="416.81" width="62.2" height="44.06" filterUnits="userSpaceOnUse" color-interpolation-filters="sRGB">
<feFlood flood-opacity="0" result="BackgroundImageFix"/>
<feColorMatrix in="SourceAlpha" type="matrix" values="0 0 0 0 0 0 0 0 0 0 0 0 0 0 0 0 0 0 127 0"/>
<feOffset dy="4"/>
<feGaussianBlur stdDeviation="5"/>
<feColorMatrix type="matrix" values="0 0 0 0 0.137255 0 0 0 0 0.160784 0 0 0 0 0.239216 0 0 0 1 0"/>
<feBlend mode="normal" in2="BackgroundImageFix" result="effect1_dropShadow"/>
<feBlend mode="normal" in="SourceGraphic" in2="effect1_dropShadow" result="shape"/>
</filter>
<filter id="filter29_d" x="602.449" y="329.81" width="62.2" height="44.06" filterUnits="userSpaceOnUse" color-interpolation-filters="sRGB">
<feFlood flood-opacity="0" result="BackgroundImageFix"/>
<feColorMatrix in="SourceAlpha" type="matrix" values="0 0 0 0 0 0 0 0 0 0 0 0 0 0 0 0 0 0 127 0"/>
<feOffset dy="4"/>
<feGaussianBlur stdDeviation="5"/>
<feColorMatrix type="matrix" values="0 0 0 0 0.137255 0 0 0 0 0.160784 0 0 0 0 0.239216 0 0 0 1 0"/>
<feBlend mode="normal" in2="BackgroundImageFix" result="effect1_dropShadow"/>
<feBlend mode="normal" in="SourceGraphic" in2="effect1_dropShadow" result="shape"/>
</filter>
<filter id="filter30_d" x="537.449" y="421.81" width="62.2" height="44.06" filterUnits="userSpaceOnUse" color-interpolation-filters="sRGB">
<feFlood flood-opacity="0" result="BackgroundImageFix"/>
<feColorMatrix in="SourceAlpha" type="matrix" values="0 0 0 0 0 0 0 0 0 0 0 0 0 0 0 0 0 0 127 0"/>
<feOffset dy="4"/>
<feGaussianBlur stdDeviation="5"/>
<feColorMatrix type="matrix" values="0 0 0 0 0.192157 0 0 0 0 0.227451 0 0 0 0 0.333333 0 0 0 0.5 0"/>
<feBlend mode="normal" in2="BackgroundImageFix" result="effect1_dropShadow"/>
<feBlend mode="normal" in="SourceGraphic" in2="effect1_dropShadow" result="shape"/>
</filter>
<filter id="filter31_d" x="543.449" y="421" width="50.2" height="32.06" filterUnits="userSpaceOnUse" color-interpolation-filters="sRGB">
<feFlood flood-opacity="0" result="BackgroundImageFix"/>
<feColorMatrix in="SourceAlpha" type="matrix" values="0 0 0 0 0 0 0 0 0 0 0 0 0 0 0 0 0 0 127 0"/>
<feOffset dy="4"/>
<feGaussianBlur stdDeviation="2"/>
<feColorMatrix type="matrix" values="0 0 0 0 0 0 0 0 0 0 0 0 0 0 0 0 0 0 0.25 0"/>
<feBlend mode="normal" in2="BackgroundImageFix" result="effect1_dropShadow"/>
<feBlend mode="normal" in="SourceGraphic" in2="effect1_dropShadow" result="shape"/>
</filter>
<filter id="filter32_d" x="597.949" y="386.81" width="62.2" height="44.06" filterUnits="userSpaceOnUse" color-interpolation-filters="sRGB">
<feFlood flood-opacity="0" result="BackgroundImageFix"/>
<feColorMatrix in="SourceAlpha" type="matrix" values="0 0 0 0 0 0 0 0 0 0 0 0 0 0 0 0 0 0 127 0"/>
<feOffset dy="4"/>
<feGaussianBlur stdDeviation="5"/>
<feColorMatrix type="matrix" values="0 0 0 0 0.192157 0 0 0 0 0.227451 0 0 0 0 0.333333 0 0 0 0.5 0"/>
<feBlend mode="normal" in2="BackgroundImageFix" result="effect1_dropShadow"/>
<feBlend mode="normal" in="SourceGraphic" in2="effect1_dropShadow" result="shape"/>
</filter>
<filter id="filter33_d" x="603.949" y="386" width="50.2" height="32.06" filterUnits="userSpaceOnUse" color-interpolation-filters="sRGB">
<feFlood flood-opacity="0" result="BackgroundImageFix"/>
<feColorMatrix in="SourceAlpha" type="matrix" values="0 0 0 0 0 0 0 0 0 0 0 0 0 0 0 0 0 0 127 0"/>
<feOffset dy="4"/>
<feGaussianBlur stdDeviation="2"/>
<feColorMatrix type="matrix" values="0 0 0 0 0 0 0 0 0 0 0 0 0 0 0 0 0 0 0.25 0"/>
<feBlend mode="normal" in2="BackgroundImageFix" result="effect1_dropShadow"/>
<feBlend mode="normal" in="SourceGraphic" in2="effect1_dropShadow" result="shape"/>
</filter>
<linearGradient id="paint0_linear" x1="1429.52" y1="517.264" x2="102.976" y2="526.516" gradientUnits="userSpaceOnUse">
<stop offset="0.432292" stop-color="#313A55"/>
<stop offset="0.953125" stop-color="#DE063A"/>
</linearGradient>
<linearGradient id="paint1_linear" x1="798.949" y1="377.5" x2="872.949" y2="378.5" gradientUnits="userSpaceOnUse">
<stop offset="0.151042" stop-color="#FF2473"/>
<stop offset="0.501325" stop-color="#FF8200"/>
<stop offset="0.859375" stop-color="#FF2473"/>
</linearGradient>
<radialGradient id="paint2_radial" cx="0" cy="0" r="1" gradientUnits="userSpaceOnUse" gradientTransform="translate(834.549 366.03) rotate(90) scale(12.03 22.1104)">
<stop offset="0.786458" stop-color="#23293D"/>
<stop offset="1" stop-color="#313A55"/>
</radialGradient>
<linearGradient id="paint3_linear" x1="845.5" y1="350.5" x2="919.5" y2="351.5" gradientUnits="userSpaceOnUse">
<stop offset="0.151042" stop-color="#FF2473"/>
<stop offset="0.501325" stop-color="#FF8200"/>
<stop offset="0.859375" stop-color="#FF2473"/>
</linearGradient>
<radialGradient id="paint4_radial" cx="0" cy="0" r="1" gradientUnits="userSpaceOnUse" gradientTransform="translate(881.1 339.03) rotate(90) scale(12.03 22.1104)">
<stop offset="0.786458" stop-color="#23293D"/>
<stop offset="1" stop-color="#313A55"/>
</radialGradient>
<linearGradient id="paint5_linear" x1="751.949" y1="405.5" x2="825.949" y2="406.5" gradientUnits="userSpaceOnUse">
<stop offset="0.151042" stop-color="#FF2473"/>
<stop offset="0.501325" stop-color="#FF8200"/>
<stop offset="0.859375" stop-color="#FF2473"/>
</linearGradient>
<radialGradient id="paint6_radial" cx="0" cy="0" r="1" gradientUnits="userSpaceOnUse" gradientTransform="translate(787.549 394.03) rotate(90) scale(12.03 22.1104)">
<stop offset="0.786458" stop-color="#23293D"/>
<stop offset="1" stop-color="#313A55"/>
</radialGradient>
<linearGradient id="paint7_linear" x1="348.608" y1="282.052" x2="884.19" y2="501.463" gradientUnits="userSpaceOnUse">
<stop stop-color="#23293D"/>
<stop offset="0.677083" stop-color="#23293D"/>
<stop offset="0.833333" stop-color="#23293D"/>
</linearGradient>
<linearGradient id="paint8_linear" x1="261.949" y1="391" x2="302.949" y2="391" gradientUnits="userSpaceOnUse">
<stop stop-color="#23293D"/>
<stop offset="0.177006" stop-color="#3B4974"/>
<stop offset="1" stop-color="#23293D"/>
</linearGradient>
<linearGradient id="paint9_linear" x1="262.449" y1="388" x2="282.554" y2="387.84" gradientUnits="userSpaceOnUse">
<stop stop-color="#23293D"/>
<stop offset="0.114583" stop-color="#313A55"/>
<stop offset="1" stop-color="#23293D"/>
</linearGradient>
<radialGradient id="paint10_radial" cx="0" cy="0" r="1" gradientUnits="userSpaceOnUse" gradientTransform="translate(282.549 381.03) rotate(90) scale(12.03 22.1104)">
<stop offset="0.927083" stop-color="#23293D"/>
<stop offset="1" stop-color="#313A55"/>
</radialGradient>
<linearGradient id="paint11_linear" x1="200.949" y1="427" x2="241.949" y2="427" gradientUnits="userSpaceOnUse">
<stop stop-color="#23293D"/>
<stop offset="0.177006" stop-color="#3B4974"/>
<stop offset="1" stop-color="#23293D"/>
</linearGradient>
<linearGradient id="paint12_linear" x1="201.449" y1="424" x2="221.554" y2="423.84" gradientUnits="userSpaceOnUse">
<stop stop-color="#23293D"/>
<stop offset="0.114583" stop-color="#313A55"/>
<stop offset="1" stop-color="#23293D"/>
</linearGradient>
<radialGradient id="paint13_radial" cx="0" cy="0" r="1" gradientUnits="userSpaceOnUse" gradientTransform="translate(221.549 417.03) rotate(90) scale(12.03 22.1104)">
<stop offset="0.927083" stop-color="#23293D"/>
<stop offset="1" stop-color="#313A55"/>
</radialGradient>
<linearGradient id="paint14_linear" x1="282.949" y1="438" x2="323.949" y2="438" gradientUnits="userSpaceOnUse">
<stop stop-color="#23293D"/>
<stop offset="0.177006" stop-color="#3B4974"/>
<stop offset="1" stop-color="#23293D"/>
</linearGradient>
<linearGradient id="paint15_linear" x1="283.449" y1="435" x2="303.554" y2="434.84" gradientUnits="userSpaceOnUse">
<stop stop-color="#23293D"/>
<stop offset="0.114583" stop-color="#313A55"/>
<stop offset="1" stop-color="#23293D"/>
</linearGradient>
<radialGradient id="paint16_radial" cx="0" cy="0" r="1" gradientUnits="userSpaceOnUse" gradientTransform="translate(303.549 428.03) rotate(90) scale(12.03 22.1104)">
<stop offset="0.927083" stop-color="#23293D"/>
<stop offset="1" stop-color="#313A55"/>
</radialGradient>
<linearGradient id="paint17_linear" x1="704.949" y1="468" x2="745.949" y2="468" gradientUnits="userSpaceOnUse">
<stop stop-color="#23293D"/>
<stop offset="0.177006" stop-color="#3B4974"/>
<stop offset="1" stop-color="#23293D"/>
</linearGradient>
<linearGradient id="paint18_linear" x1="705.449" y1="465" x2="725.554" y2="464.84" gradientUnits="userSpaceOnUse">
<stop stop-color="#23293D"/>
<stop offset="0.114583" stop-color="#313A55"/>
<stop offset="1" stop-color="#23293D"/>
</linearGradient>
<radialGradient id="paint19_radial" cx="0" cy="0" r="1" gradientUnits="userSpaceOnUse" gradientTransform="translate(725.549 458.03) rotate(90) scale(12.03 22.1104)">
<stop offset="0.927083" stop-color="#23293D"/>
<stop offset="1" stop-color="#313A55"/>
</radialGradient>
<linearGradient id="paint20_linear" x1="758.949" y1="435" x2="799.949" y2="435" gradientUnits="userSpaceOnUse">
<stop stop-color="#23293D"/>
<stop offset="0.177006" stop-color="#3B4974"/>
<stop offset="1" stop-color="#23293D"/>
</linearGradient>
<linearGradient id="paint21_linear" x1="759.449" y1="432" x2="779.554" y2="431.84" gradientUnits="userSpaceOnUse">
<stop stop-color="#23293D"/>
<stop offset="0.114583" stop-color="#313A55"/>
<stop offset="1" stop-color="#23293D"/>
</linearGradient>
<radialGradient id="paint22_radial" cx="0" cy="0" r="1" gradientUnits="userSpaceOnUse" gradientTransform="translate(779.549 425.03) rotate(90) scale(12.03 22.1104)">
<stop offset="0.927083" stop-color="#23293D"/>
<stop offset="1" stop-color="#313A55"/>
</radialGradient>
<linearGradient id="paint23_linear" x1="707.949" y1="408" x2="748.949" y2="408" gradientUnits="userSpaceOnUse">
<stop stop-color="#23293D"/>
<stop offset="0.177006" stop-color="#3B4974"/>
<stop offset="1" stop-color="#23293D"/>
</linearGradient>
<linearGradient id="paint24_linear" x1="708.449" y1="405" x2="728.554" y2="404.84" gradientUnits="userSpaceOnUse">
<stop stop-color="#23293D"/>
<stop offset="0.114583" stop-color="#313A55"/>
<stop offset="1" stop-color="#23293D"/>
</linearGradient>
<radialGradient id="paint25_radial" cx="0" cy="0" r="1" gradientUnits="userSpaceOnUse" gradientTransform="translate(728.549 398.03) rotate(90) scale(12.03 22.1104)">
<stop offset="0.927083" stop-color="#23293D"/>
<stop offset="1" stop-color="#313A55"/>
</radialGradient>
<linearGradient id="paint26_linear" x1="658.949" y1="380" x2="699.949" y2="380" gradientUnits="userSpaceOnUse">
<stop stop-color="#23293D"/>
<stop offset="0.177006" stop-color="#3B4974"/>
<stop offset="1" stop-color="#23293D"/>
</linearGradient>
<linearGradient id="paint27_linear" x1="659.449" y1="377" x2="679.554" y2="376.84" gradientUnits="userSpaceOnUse">
<stop stop-color="#23293D"/>
<stop offset="0.114583" stop-color="#313A55"/>
<stop offset="1" stop-color="#23293D"/>
</linearGradient>
<radialGradient id="paint28_radial" cx="0" cy="0" r="1" gradientUnits="userSpaceOnUse" gradientTransform="translate(679.549 370.03) rotate(90) scale(12.03 22.1104)">
<stop offset="0.927083" stop-color="#23293D"/>
<stop offset="1" stop-color="#313A55"/>
</radialGradient>
<linearGradient id="paint29_linear" x1="132.949" y1="466" x2="173.949" y2="466" gradientUnits="userSpaceOnUse">
<stop stop-color="#23293D"/>
<stop offset="0.177006" stop-color="#3B4974"/>
<stop offset="1" stop-color="#23293D"/>
</linearGradient>
<linearGradient id="paint30_linear" x1="133.449" y1="463" x2="153.554" y2="462.84" gradientUnits="userSpaceOnUse">
<stop stop-color="#23293D"/>
<stop offset="0.114583" stop-color="#313A55"/>
<stop offset="1" stop-color="#23293D"/>
</linearGradient>
<radialGradient id="paint31_radial" cx="0" cy="0" r="1" gradientUnits="userSpaceOnUse" gradientTransform="translate(153.549 456.03) rotate(90) scale(12.03 22.1104)">
<stop offset="0.927083" stop-color="#23293D"/>
<stop offset="1" stop-color="#313A55"/>
</radialGradient>
<linearGradient id="paint32_linear" x1="215.949" y1="477" x2="256.949" y2="477" gradientUnits="userSpaceOnUse">
<stop stop-color="#23293D"/>
<stop offset="0.177006" stop-color="#3B4974"/>
<stop offset="1" stop-color="#23293D"/>
</linearGradient>
<linearGradient id="paint33_linear" x1="216.449" y1="474" x2="236.554" y2="473.84" gradientUnits="userSpaceOnUse">
<stop stop-color="#23293D"/>
<stop offset="0.114583" stop-color="#313A55"/>
<stop offset="1" stop-color="#23293D"/>
</linearGradient>
<radialGradient id="paint34_radial" cx="0" cy="0" r="1" gradientUnits="userSpaceOnUse" gradientTransform="translate(236.549 467.03) rotate(90) scale(12.03 22.1104)">
<stop offset="0.927083" stop-color="#23293D"/>
<stop offset="1" stop-color="#313A55"/>
</radialGradient>
<linearGradient id="paint35_linear" x1="514.619" y1="406.973" x2="504.501" y2="424.697" gradientUnits="userSpaceOnUse">
<stop offset="0.109375" stop-color="#23293D"/>
<stop offset="0.338542" stop-color="#FF2473"/>
<stop offset="0.401042" stop-color="#FF8200"/>
</linearGradient>
<radialGradient id="paint36_radial" cx="0" cy="0" r="1" gradientUnits="userSpaceOnUse" gradientTransform="translate(453.05 377.84) rotate(90) scale(12.03 21.1)">
<stop offset="0.302083" stop-color="#DE063A"/>
<stop offset="1" stop-color="#FF2473"/>
</radialGradient>
<radialGradient id="paint37_radial" cx="0" cy="0" r="1" gradientUnits="userSpaceOnUse" gradientTransform="translate(453.05 371.03) rotate(90) scale(12.03 22.1104)">
<stop offset="0.244792" stop-color="#FF2473"/>
<stop offset="0.244892" stop-color="#23293D"/>
</radialGradient>
<linearGradient id="paint38_linear" x1="428.458" y1="305.694" x2="469.457" y2="305.376" gradientUnits="userSpaceOnUse">
<stop offset="0.463542" stop-color="#DE063A"/>
<stop offset="0.5625" stop-color="#FF4B8C"/>
<stop offset="0.677083" stop-color="#23293D"/>
</linearGradient>
<radialGradient id="paint39_radial" cx="0" cy="0" r="1" gradientUnits="userSpaceOnUse" gradientTransform="translate(445.7 195.5) rotate(89.1815) scale(17.5018 27.852)">
<stop stop-color="#DE063A"/>
<stop offset="1" stop-color="#FF3F84"/>
</radialGradient>
<radialGradient id="paint40_radial" cx="0" cy="0" r="1" gradientUnits="userSpaceOnUse" gradientTransform="translate(445.7 196.5) rotate(89.1815) scale(17.5018 27.852)">
<stop stop-color="#DE063A"/>
<stop offset="1" stop-color="#FF639B"/>
</radialGradient>
<radialGradient id="paint41_diamond" cx="0" cy="0" r="1" gradientUnits="userSpaceOnUse" gradientTransform="translate(447.95 188) rotate(79.5085) scale(27.4591 39.2893)">
<stop stop-color="#FF2473"/>
<stop offset="0.15625" stop-color="#23293D"/>
<stop offset="1" stop-color="#313A55"/>
</radialGradient>
<radialGradient id="paint42_radial" cx="0" cy="0" r="1" gradientUnits="userSpaceOnUse" gradientTransform="translate(447.552 190.345) rotate(90) scale(17.345 27.6025)">
<stop offset="0.901042" stop-color="#DE063A"/>
<stop offset="1" stop-color="#FF2473"/>
</radialGradient>
<linearGradient id="paint43_linear" x1="424.96" y1="149.993" x2="465.96" y2="150.004" gradientUnits="userSpaceOnUse">
<stop offset="0.463542" stop-color="#DE063A"/>
<stop offset="0.5625" stop-color="#FF4B8C"/>
<stop offset="0.677083" stop-color="#23293D"/>
</linearGradient>
<linearGradient id="paint44_linear" x1="446.761" y1="62.0684" x2="412.249" y2="157.31" gradientUnits="userSpaceOnUse">
<stop stop-color="#DE063A"/>
<stop offset="0.869792" stop-color="#FF5B96"/>
</linearGradient>
<linearGradient id="paint45_linear" x1="510.95" y1="70" x2="392.45" y2="140.5" gradientUnits="userSpaceOnUse">
<stop stop-color="#DE063A"/>
<stop offset="1" stop-color="#FF2473"/>
</linearGradient>
<radialGradient id="paint46_radial" cx="0" cy="0" r="1" gradientUnits="userSpaceOnUse" gradientTransform="translate(579.549 375.84) rotate(90) scale(12.03 21.1)">
<stop offset="0.302083" stop-color="#DE063A"/>
<stop offset="1" stop-color="#FF2473"/>
</radialGradient>
<radialGradient id="paint47_radial" cx="0" cy="0" r="1" gradientUnits="userSpaceOnUse" gradientTransform="translate(579.549 369.03) rotate(90) scale(12.03 22.1104)">
<stop offset="0.84375" stop-color="#23293D"/>
<stop offset="1" stop-color="#FF2473"/>
</radialGradient>
<radialGradient id="paint48_radial" cx="0" cy="0" r="1" gradientUnits="userSpaceOnUse" gradientTransform="translate(576.549 319.84) rotate(90) scale(12.03 21.1)">
<stop offset="0.302083" stop-color="#DE063A"/>
<stop offset="1" stop-color="#FF2473"/>
</radialGradient>
<radialGradient id="paint49_radial" cx="0" cy="0" r="1" gradientUnits="userSpaceOnUse" gradientTransform="translate(576.549 313.03) rotate(90) scale(12.03 22.1104)">
<stop offset="0.84375" stop-color="#23293D"/>
<stop offset="1" stop-color="#FF2473"/>
</radialGradient>
<linearGradient id="paint50_linear" x1="443.761" y1="12.0683" x2="408.599" y2="108.085" gradientUnits="userSpaceOnUse">
<stop stop-color="#FF2473"/>
<stop offset="0.869792" stop-color="#FF8200"/>
</linearGradient>
<linearGradient id="paint51_linear" x1="502.45" y1="24" x2="384.95" y2="91.5" gradientUnits="userSpaceOnUse">
<stop stop-color="#FF2473"/>
<stop offset="1" stop-color="#FF8200"/>
</linearGradient>
<linearGradient id="paint52_linear" x1="555.761" y1="0.0698838" x2="519.128" y2="97.7984" gradientUnits="userSpaceOnUse">
<stop stop-color="#313A55"/>
<stop offset="0.869792" stop-color="#343E5B"/>
</linearGradient>
<linearGradient id="paint53_linear" x1="591.197" y1="424.417" x2="588.343" y2="418.84" gradientUnits="userSpaceOnUse">
<stop stop-color="#FF2473"/>
<stop offset="0.0001" stop-color="#FF8200"/>
<stop offset="0.411458" stop-color="#23293D" stop-opacity="0.79"/>
</linearGradient>
<linearGradient id="paint54_linear" x1="635.949" y1="499.5" x2="709.949" y2="500.5" gradientUnits="userSpaceOnUse">
<stop offset="0.151042" stop-color="#FF2473"/>
<stop offset="0.501325" stop-color="#FF8200"/>
<stop offset="0.859375" stop-color="#FF2473"/>
</linearGradient>
<radialGradient id="paint55_radial" cx="0" cy="0" r="1" gradientUnits="userSpaceOnUse" gradientTransform="translate(671.549 488.03) rotate(90) scale(12.03 22.1104)">
<stop offset="0.786458" stop-color="#23293D"/>
<stop offset="1" stop-color="#313A55"/>
</radialGradient>
<linearGradient id="paint56_linear" x1="584.949" y1="468.5" x2="658.949" y2="469.5" gradientUnits="userSpaceOnUse">
<stop offset="0.151042" stop-color="#FF2473"/>
<stop offset="0.501325" stop-color="#FF8200"/>
<stop offset="0.859375" stop-color="#FF2473"/>
</linearGradient>
<radialGradient id="paint57_radial" cx="0" cy="0" r="1" gradientUnits="userSpaceOnUse" gradientTransform="translate(620.549 457.03) rotate(90) scale(12.03 22.1104)">
<stop offset="0.786458" stop-color="#23293D"/>
<stop offset="1" stop-color="#313A55"/>
</radialGradient>
<linearGradient id="paint58_linear" x1="639.949" y1="439.5" x2="713.949" y2="440.5" gradientUnits="userSpaceOnUse">
<stop offset="0.151042" stop-color="#FF2473"/>
<stop offset="0.501325" stop-color="#FF8200"/>
<stop offset="0.859375" stop-color="#FF2473"/>
</linearGradient>
<radialGradient id="paint59_radial" cx="0" cy="0" r="1" gradientUnits="userSpaceOnUse" gradientTransform="translate(675.549 428.03) rotate(90) scale(12.03 22.1104)">
<stop offset="0.786458" stop-color="#23293D"/>
<stop offset="1" stop-color="#313A55"/>
</radialGradient>
<linearGradient id="paint60_linear" x1="597.949" y1="352.5" x2="671.949" y2="353.5" gradientUnits="userSpaceOnUse">
<stop offset="0.151042" stop-color="#FF2473"/>
<stop offset="0.501325" stop-color="#FF8200"/>
<stop offset="0.859375" stop-color="#FF2473"/>
</linearGradient>
<radialGradient id="paint61_radial" cx="0" cy="0" r="1" gradientUnits="userSpaceOnUse" gradientTransform="translate(633.549 341.03) rotate(90) scale(12.03 22.1104)">
<stop offset="0.786458" stop-color="#23293D"/>
<stop offset="1" stop-color="#313A55"/>
</radialGradient>
<radialGradient id="paint62_radial" cx="0" cy="0" r="1" gradientUnits="userSpaceOnUse" gradientTransform="translate(568.449 436.5) rotate(89.6272) scale(15.3703 29.2412)">
<stop offset="0.5625" stop-color="#FF2473"/>
<stop offset="1" stop-color="#FF8200"/>
</radialGradient>
<linearGradient id="paint63_linear" x1="543.949" y1="436" x2="587.449" y2="436" gradientUnits="userSpaceOnUse">
<stop stop-color="#FF2473"/>
<stop offset="0.661458" stop-color="#FF8200"/>
<stop offset="1" stop-color="#FF2473"/>
</linearGradient>
<radialGradient id="paint64_radial" cx="0" cy="0" r="1" gradientUnits="userSpaceOnUse" gradientTransform="translate(568.549 433.03) rotate(90) scale(12.03 22.5331)">
<stop offset="0.822917" stop-color="#23293D"/>
<stop offset="0.901042" stop-color="#313A55"/>
</radialGradient>
<radialGradient id="paint65_radial" cx="0" cy="0" r="1" gradientUnits="userSpaceOnUse" gradientTransform="translate(628.949 401.5) rotate(89.6272) scale(15.3703 29.2412)">
<stop offset="0.5625" stop-color="#FF2473"/>
<stop offset="1" stop-color="#FF8200"/>
</radialGradient>
<linearGradient id="paint66_linear" x1="604.449" y1="401" x2="647.949" y2="401" gradientUnits="userSpaceOnUse">
<stop stop-color="#FF2473"/>
<stop offset="0.661458" stop-color="#FF8200"/>
<stop offset="1" stop-color="#FF2473"/>
</linearGradient>
<radialGradient id="paint67_radial" cx="0" cy="0" r="1" gradientUnits="userSpaceOnUse" gradientTransform="translate(629.049 398.03) rotate(90) scale(12.03 22.5331)">
<stop offset="0.822917" stop-color="#23293D"/>
<stop offset="0.901042" stop-color="#313A55"/>
</radialGradient>
</defs>
</svg>
