<svg width="1151" height="595" viewBox="0 0 1151 595" fill="none" xmlns="http://www.w3.org/2000/svg">
<path d="M25.8714 620.972L509.047 894.158C516.875 898.639 525.741 900.997 534.765 900.997C543.788 900.997 552.655 898.639 560.483 894.158L1125.46 566.335C1133.24 561.779 1139.68 555.273 1144.16 547.462C1148.64 539.651 1151 530.806 1151 521.806C1151 512.805 1148.64 503.96 1144.16 496.149C1139.68 488.338 1133.24 481.833 1125.46 477.277L644.204 199.993C636.311 195.41 627.343 192.997 618.213 192.997C609.082 192.997 600.114 195.41 592.22 199.993L26.1452 531.367C18.2291 535.863 11.642 542.366 7.05103 550.22C2.46007 558.073 0.0280055 566.997 0.000240392 576.091C-0.0275247 585.184 2.35031 594.123 6.89323 602.004C11.4361 609.885 17.9828 616.428 25.8714 620.972Z" fill="url(#paint0_linear)"/>
<g filter="url(#filter0_d)">
<path d="M881.1 359.87C892.753 359.87 902.2 354.484 902.2 347.84C902.2 341.196 892.753 335.81 881.1 335.81C869.447 335.81 860 341.196 860 347.84C860 354.484 869.447 359.87 881.1 359.87Z" fill="url(#paint1_linear)"/>
<path d="M901.95 347.84C901.95 351.033 899.677 353.973 895.896 356.129C892.122 358.281 886.891 359.62 881.1 359.62C875.309 359.62 870.078 358.281 866.304 356.129C862.523 353.973 860.25 351.033 860.25 347.84C860.25 344.647 862.523 341.707 866.304 339.551C870.078 337.399 875.309 336.06 881.1 336.06C886.891 336.06 892.122 337.399 895.896 339.551C899.677 341.707 901.95 344.647 901.95 347.84Z" stroke="#3B4974" stroke-width="0.5"/>
</g>
<mask id="path-4-inside-1" fill="white">
<path d="M860.01 347.84V341.03H902.2V347.84"/>
</mask>
<path d="M860.01 347.84V341.03H902.2V347.84" fill="#FF2473"/>
<path d="M860.01 341.03V340.53H859.51V341.03H860.01ZM902.2 341.03H902.7V340.53H902.2V341.03ZM860.51 347.84V341.03H859.51V347.84H860.51ZM860.01 341.53H902.2V340.53H860.01V341.53ZM901.7 341.03V347.84H902.7V341.03H901.7Z" fill="#313A55" mask="url(#path-4-inside-1)"/>
<path d="M901.95 341.03C901.95 344.223 899.677 347.163 895.896 349.319C892.122 351.471 886.891 352.81 881.1 352.81C875.309 352.81 870.078 351.471 866.304 349.319C862.523 347.163 860.25 344.223 860.25 341.03C860.25 337.837 862.523 334.897 866.304 332.741C870.078 330.589 875.309 329.25 881.1 329.25C886.891 329.25 892.122 330.589 895.896 332.741C899.677 334.897 901.95 337.837 901.95 341.03Z" fill="url(#paint2_radial)" stroke="#3B4974" stroke-width="0.5"/>
<g filter="url(#filter1_d)">
<path d="M840.1 386.87C851.753 386.87 861.2 381.484 861.2 374.84C861.2 368.196 851.753 362.81 840.1 362.81C828.447 362.81 819 368.196 819 374.84C819 381.484 828.447 386.87 840.1 386.87Z" fill="url(#paint3_linear)"/>
<path d="M860.95 374.84C860.95 378.033 858.677 380.973 854.896 383.129C851.122 385.281 845.891 386.62 840.1 386.62C834.309 386.62 829.078 385.281 825.304 383.129C821.523 380.973 819.25 378.033 819.25 374.84C819.25 371.647 821.523 368.707 825.304 366.551C829.078 364.399 834.309 363.06 840.1 363.06C845.891 363.06 851.122 364.399 854.896 366.551C858.677 368.707 860.95 371.647 860.95 374.84Z" stroke="#3B4974" stroke-width="0.5"/>
</g>
<mask id="path-9-inside-2" fill="white">
<path d="M819.01 374.84V368.03H861.2V374.84"/>
</mask>
<path d="M819.01 374.84V368.03H861.2V374.84" fill="#FF2473"/>
<path d="M819.01 368.03V367.53H818.51V368.03H819.01ZM861.2 368.03H861.7V367.53H861.2V368.03ZM819.51 374.84V368.03H818.51V374.84H819.51ZM819.01 368.53H861.2V367.53H819.01V368.53ZM860.7 368.03V374.84H861.7V368.03H860.7Z" fill="#313A55" mask="url(#path-9-inside-2)"/>
<path d="M860.95 368.03C860.95 371.223 858.677 374.163 854.896 376.319C851.122 378.471 845.891 379.81 840.1 379.81C834.309 379.81 829.078 378.471 825.304 376.319C821.523 374.163 819.25 371.223 819.25 368.03C819.25 364.837 821.523 361.897 825.304 359.741C829.078 357.589 834.309 356.25 840.1 356.25C845.891 356.25 851.122 357.589 854.896 359.741C858.677 361.897 860.95 364.837 860.95 368.03Z" fill="url(#paint4_radial)" stroke="#3B4974" stroke-width="0.5"/>
<g filter="url(#filter2_d)">
<path d="M797.1 412.87C808.753 412.87 818.2 407.484 818.2 400.84C818.2 394.196 808.753 388.81 797.1 388.81C785.447 388.81 776 394.196 776 400.84C776 407.484 785.447 412.87 797.1 412.87Z" fill="url(#paint5_linear)"/>
<path d="M817.95 400.84C817.95 404.033 815.677 406.973 811.896 409.129C808.122 411.281 802.891 412.62 797.1 412.62C791.309 412.62 786.078 411.281 782.304 409.129C778.523 406.973 776.25 404.033 776.25 400.84C776.25 397.647 778.523 394.707 782.304 392.551C786.078 390.399 791.309 389.06 797.1 389.06C802.891 389.06 808.122 390.399 811.896 392.551C815.677 394.707 817.95 397.647 817.95 400.84Z" stroke="#3B4974" stroke-width="0.5"/>
</g>
<mask id="path-14-inside-3" fill="white">
<path d="M776.01 400.84V394.03H818.2V400.84"/>
</mask>
<path d="M776.01 400.84V394.03H818.2V400.84" fill="#FF2473"/>
<path d="M776.01 394.03V393.53H775.51V394.03H776.01ZM818.2 394.03H818.7V393.53H818.2V394.03ZM776.51 400.84V394.03H775.51V400.84H776.51ZM776.01 394.53H818.2V393.53H776.01V394.53ZM817.7 394.03V400.84H818.7V394.03H817.7Z" fill="#313A55" mask="url(#path-14-inside-3)"/>
<path d="M817.95 394.03C817.95 397.223 815.677 400.163 811.896 402.319C808.122 404.471 802.891 405.81 797.1 405.81C791.309 405.81 786.078 404.471 782.304 402.319C778.523 400.163 776.25 397.223 776.25 394.03C776.25 390.837 778.523 387.897 782.304 385.741C786.078 383.589 791.309 382.25 797.1 382.25C802.891 382.25 808.122 383.589 811.896 385.741C815.677 387.897 817.95 390.837 817.95 394.03Z" fill="url(#paint6_radial)" stroke="#3B4974" stroke-width="0.5"/>
<g filter="url(#filter3_d)">
<path d="M833.839 430.897V457.491H825.081L822.069 442.842" fill="#23293D"/>
<path d="M321.703 345.681V319.559L332.459 334.019L321.703 345.681Z" fill="#23293D"/>
<path d="M332.121 326.688L468.383 246.245C473.214 243.393 478.693 241.891 484.271 241.891C489.849 241.891 495.329 243.393 500.159 246.245L823.298 437.058C826.549 438.958 829.251 441.703 831.131 445.015C833.01 448.328 834 452.089 834 455.919C834 459.749 833.01 463.511 831.131 466.823C829.251 470.136 826.549 472.881 823.298 474.78L686.79 555.381C682.17 558.109 676.928 559.546 671.593 559.546C666.258 559.546 661.017 558.109 656.397 555.381L332.121 363.782C328.936 361.904 326.291 359.201 324.452 355.946C322.612 352.69 321.644 348.996 321.644 345.235C321.644 341.475 322.612 337.781 324.452 334.525C326.291 331.269 328.936 328.566 332.121 326.688Z" fill="url(#paint7_linear)"/>
<path d="M331.835 303.262L331.838 303.26L468.101 222.785C472.855 219.978 478.247 218.5 483.734 218.5C489.222 218.5 494.614 219.978 499.368 222.785L499.621 222.358L499.368 222.785L822.538 413.629L822.54 413.631C825.714 415.485 828.354 418.166 830.19 421.403C832.027 424.64 832.994 428.316 832.994 432.06C832.994 435.804 832.027 439.481 830.19 442.717C828.354 445.954 825.714 448.635 822.54 450.49L822.538 450.491L686.03 531.091C681.486 533.775 676.333 535.187 671.087 535.187C665.842 535.187 660.689 533.775 656.145 531.091L655.891 531.522L656.145 531.091L331.838 339.618L331.835 339.617C328.699 337.792 326.089 335.15 324.273 331.957C322.457 328.764 321.5 325.135 321.5 321.439C321.5 317.743 322.457 314.114 324.273 310.921C326.089 307.728 328.699 305.086 331.835 303.262Z" fill="#313A55" stroke="#313A55"/>
</g>
<g filter="url(#filter4_d)">
<path d="M292.1 399.87C303.753 399.87 313.2 394.484 313.2 387.84C313.2 381.196 303.753 375.81 292.1 375.81C280.447 375.81 271 381.196 271 387.84C271 394.484 280.447 399.87 292.1 399.87Z" fill="url(#paint8_linear)"/>
</g>
<path d="M271.01 387.84V381.03H313.2V387.84" fill="url(#paint9_linear)"/>
<path d="M312.95 381.03C312.95 384.223 310.677 387.163 306.896 389.319C303.122 391.471 297.891 392.81 292.1 392.81C286.309 392.81 281.078 391.471 277.304 389.319C273.523 387.163 271.25 384.223 271.25 381.03C271.25 377.837 273.523 374.897 277.304 372.741C281.078 370.589 286.309 369.25 292.1 369.25C297.891 369.25 303.122 370.589 306.896 372.741C310.677 374.897 312.95 377.837 312.95 381.03Z" fill="url(#paint10_radial)" stroke="#313A55" stroke-width="0.5"/>
<g filter="url(#filter5_d)">
<path d="M231.1 435.87C242.753 435.87 252.2 430.484 252.2 423.84C252.2 417.196 242.753 411.81 231.1 411.81C219.447 411.81 210 417.196 210 423.84C210 430.484 219.447 435.87 231.1 435.87Z" fill="url(#paint11_linear)"/>
</g>
<path d="M210.01 423.84V417.03H252.2V423.84" fill="url(#paint12_linear)"/>
<path d="M251.95 417.03C251.95 420.223 249.677 423.163 245.896 425.319C242.122 427.471 236.891 428.81 231.1 428.81C225.309 428.81 220.078 427.471 216.304 425.319C212.523 423.163 210.25 420.223 210.25 417.03C210.25 413.837 212.523 410.897 216.304 408.741C220.078 406.589 225.309 405.25 231.1 405.25C236.891 405.25 242.122 406.589 245.896 408.741C249.677 410.897 251.95 413.837 251.95 417.03Z" fill="url(#paint13_radial)" stroke="#313A55" stroke-width="0.5"/>
<g filter="url(#filter6_d)">
<path d="M313.1 446.87C324.753 446.87 334.2 441.484 334.2 434.84C334.2 428.196 324.753 422.81 313.1 422.81C301.447 422.81 292 428.196 292 434.84C292 441.484 301.447 446.87 313.1 446.87Z" fill="url(#paint14_linear)"/>
</g>
<path d="M292.01 434.84V428.03H334.2V434.84" fill="url(#paint15_linear)"/>
<path d="M333.95 428.03C333.95 431.223 331.677 434.163 327.896 436.319C324.122 438.471 318.891 439.81 313.1 439.81C307.309 439.81 302.078 438.471 298.304 436.319C294.523 434.163 292.25 431.223 292.25 428.03C292.25 424.837 294.523 421.897 298.304 419.741C302.078 417.589 307.309 416.25 313.1 416.25C318.891 416.25 324.122 417.589 327.896 419.741C331.677 421.897 333.95 424.837 333.95 428.03Z" fill="url(#paint16_radial)" stroke="#313A55" stroke-width="0.5"/>
<g filter="url(#filter7_d)">
<path d="M735.1 476.87C746.753 476.87 756.2 471.484 756.2 464.84C756.2 458.196 746.753 452.81 735.1 452.81C723.447 452.81 714 458.196 714 464.84C714 471.484 723.447 476.87 735.1 476.87Z" fill="url(#paint17_linear)"/>
</g>
<path d="M714.01 464.84V458.03H756.2V464.84" fill="url(#paint18_linear)"/>
<path d="M755.95 458.03C755.95 461.223 753.677 464.163 749.896 466.319C746.122 468.471 740.891 469.81 735.1 469.81C729.309 469.81 724.078 468.471 720.304 466.319C716.523 464.163 714.25 461.223 714.25 458.03C714.25 454.837 716.523 451.897 720.304 449.741C724.078 447.589 729.309 446.25 735.1 446.25C740.891 446.25 746.122 447.589 749.896 449.741C753.677 451.897 755.95 454.837 755.95 458.03Z" fill="url(#paint19_radial)" stroke="#313A55" stroke-width="0.5"/>
<g filter="url(#filter8_d)">
<path d="M789.1 443.87C800.753 443.87 810.2 438.484 810.2 431.84C810.2 425.196 800.753 419.81 789.1 419.81C777.447 419.81 768 425.196 768 431.84C768 438.484 777.447 443.87 789.1 443.87Z" fill="url(#paint20_linear)"/>
</g>
<path d="M768.01 431.84V425.03H810.2V431.84" fill="url(#paint21_linear)"/>
<path d="M809.95 425.03C809.95 428.223 807.677 431.163 803.896 433.319C800.122 435.471 794.891 436.81 789.1 436.81C783.309 436.81 778.078 435.471 774.304 433.319C770.523 431.163 768.25 428.223 768.25 425.03C768.25 421.837 770.523 418.897 774.304 416.741C778.078 414.589 783.309 413.25 789.1 413.25C794.891 413.25 800.122 414.589 803.896 416.741C807.677 418.897 809.95 421.837 809.95 425.03Z" fill="url(#paint22_radial)" stroke="#313A55" stroke-width="0.5"/>
<g filter="url(#filter9_d)">
<path d="M738.1 416.87C749.753 416.87 759.2 411.484 759.2 404.84C759.2 398.196 749.753 392.81 738.1 392.81C726.447 392.81 717 398.196 717 404.84C717 411.484 726.447 416.87 738.1 416.87Z" fill="url(#paint23_linear)"/>
</g>
<path d="M717.01 404.84V398.03H759.2V404.84" fill="url(#paint24_linear)"/>
<path d="M758.95 398.03C758.95 401.223 756.677 404.163 752.896 406.319C749.122 408.471 743.891 409.81 738.1 409.81C732.309 409.81 727.078 408.471 723.304 406.319C719.523 404.163 717.25 401.223 717.25 398.03C717.25 394.837 719.523 391.897 723.304 389.741C727.078 387.589 732.309 386.25 738.1 386.25C743.891 386.25 749.122 387.589 752.896 389.741C756.677 391.897 758.95 394.837 758.95 398.03Z" fill="url(#paint25_radial)" stroke="#313A55" stroke-width="0.5"/>
<g filter="url(#filter10_d)">
<path d="M689.1 388.87C700.753 388.87 710.2 383.484 710.2 376.84C710.2 370.196 700.753 364.81 689.1 364.81C677.447 364.81 668 370.196 668 376.84C668 383.484 677.447 388.87 689.1 388.87Z" fill="url(#paint26_linear)"/>
</g>
<path d="M668.01 376.84V370.03H710.2V376.84" fill="url(#paint27_linear)"/>
<path d="M709.95 370.03C709.95 373.223 707.677 376.163 703.896 378.319C700.122 380.471 694.891 381.81 689.1 381.81C683.309 381.81 678.078 380.471 674.304 378.319C670.523 376.163 668.25 373.223 668.25 370.03C668.25 366.837 670.523 363.897 674.304 361.741C678.078 359.589 683.309 358.25 689.1 358.25C694.891 358.25 700.122 359.589 703.896 361.741C707.677 363.897 709.95 366.837 709.95 370.03Z" fill="url(#paint28_radial)" stroke="#313A55" stroke-width="0.5"/>
<g filter="url(#filter11_d)">
<path d="M163.1 474.87C174.753 474.87 184.2 469.484 184.2 462.84C184.2 456.196 174.753 450.81 163.1 450.81C151.447 450.81 142 456.196 142 462.84C142 469.484 151.447 474.87 163.1 474.87Z" fill="url(#paint29_linear)"/>
</g>
<path d="M142.01 462.84V456.03H184.2V462.84" fill="url(#paint30_linear)"/>
<path d="M183.95 456.03C183.95 459.223 181.677 462.163 177.896 464.319C174.122 466.471 168.891 467.81 163.1 467.81C157.309 467.81 152.078 466.471 148.304 464.319C144.523 462.163 142.25 459.223 142.25 456.03C142.25 452.837 144.523 449.897 148.304 447.741C152.078 445.589 157.309 444.25 163.1 444.25C168.891 444.25 174.122 445.589 177.896 447.741C181.677 449.897 183.95 452.837 183.95 456.03Z" fill="url(#paint31_radial)" stroke="#313A55" stroke-width="0.5"/>
<g filter="url(#filter12_d)">
<path d="M246.1 485.87C257.753 485.87 267.2 480.484 267.2 473.84C267.2 467.196 257.753 461.81 246.1 461.81C234.447 461.81 225 467.196 225 473.84C225 480.484 234.447 485.87 246.1 485.87Z" fill="url(#paint32_linear)"/>
</g>
<path d="M225.01 473.84V467.03H267.2V473.84" fill="url(#paint33_linear)"/>
<path d="M266.95 467.03C266.95 470.223 264.677 473.163 260.896 475.319C257.122 477.471 251.891 478.81 246.1 478.81C240.309 478.81 235.078 477.471 231.304 475.319C227.523 473.163 225.25 470.223 225.25 467.03C225.25 463.837 227.523 460.897 231.304 458.741C235.078 456.589 240.309 455.25 246.1 455.25C251.891 455.25 257.122 456.589 260.896 458.741C264.677 460.897 266.95 463.837 266.95 467.03Z" fill="url(#paint34_radial)" stroke="#313A55" stroke-width="0.5"/>
<g filter="url(#filter13_d)">
<line x1="468.246" y1="382.698" x2="574.746" y2="443.698" stroke="url(#paint35_linear)" stroke-width="3"/>
</g>
<g filter="url(#filter14_d)">
<path d="M462.6 389.87C474.253 389.87 483.7 384.484 483.7 377.84C483.7 371.196 474.253 365.81 462.6 365.81C450.947 365.81 441.5 371.196 441.5 377.84C441.5 384.484 450.947 389.87 462.6 389.87Z" fill="url(#paint36_radial)"/>
<path d="M483.2 377.84C483.2 380.905 481.017 383.777 477.273 385.912C473.543 388.039 468.356 389.37 462.6 389.37C456.844 389.37 451.658 388.039 447.928 385.912C444.184 383.777 442 380.905 442 377.84C442 374.775 444.184 371.903 447.928 369.768C451.658 367.641 456.844 366.31 462.6 366.31C468.356 366.31 473.543 367.641 477.273 369.768C481.017 371.903 483.2 374.775 483.2 377.84Z" stroke="#FF4588"/>
</g>
<path d="M441.51 377.84V371.03H483.7V377.84" fill="#FF2473"/>
<g filter="url(#filter15_d)">
<path d="M462.6 383.06C474.253 383.06 483.7 377.674 483.7 371.03C483.7 364.386 474.253 359 462.6 359C450.947 359 441.5 364.386 441.5 371.03C441.5 377.674 450.947 383.06 462.6 383.06Z" fill="url(#paint37_radial)"/>
<path d="M483.2 371.03C483.2 374.095 481.017 376.967 477.273 379.102C473.543 381.229 468.356 382.56 462.6 382.56C456.844 382.56 451.658 381.229 447.928 379.102C444.184 376.967 442 374.095 442 371.03C442 367.965 444.184 365.093 447.928 362.958C451.658 360.831 456.844 359.5 462.6 359.5C468.356 359.5 473.543 360.831 477.273 362.958C481.017 365.093 483.2 367.965 483.2 371.03Z" stroke="#DE063A"/>
</g>
<g filter="url(#filter16_d)">
<line x1="462" y1="369.012" x2="461.016" y2="242.012" stroke="url(#paint38_linear)" stroke-width="3"/>
</g>
<path d="M323.513 252.103V244.474L327.15 248.182C327.193 248.689 327.13 249.201 326.965 249.682C326.8 250.163 326.538 250.603 326.194 250.974C325.851 251.344 325.434 251.636 324.972 251.831C324.51 252.026 324.013 252.119 323.513 252.103Z" fill="#23293D"/>
<rect x="544.5" y="206" width="5" height="12" rx="2.5" fill="#23293D"/>
<path d="M326.349 246.95L463.557 166.638C465.021 165.773 466.684 165.318 468.376 165.318C470.068 165.318 471.73 165.773 473.194 166.638L546.426 210.315C547.282 210.82 547.992 211.547 548.486 212.421C548.98 213.295 549.24 214.285 549.24 215.294C549.24 216.302 549.494 216.626 549 217.5C548.506 218.374 547.282 219.767 546.426 220.273L410.675 300.344C408.722 301.498 406.502 302.099 404.244 302.085C401.987 302.071 399.774 301.442 397.835 300.264L326.257 256.882C325.412 256.366 324.714 255.634 324.233 254.758C323.751 253.882 323.502 252.893 323.512 251.889C323.521 250.885 323.788 249.901 324.286 249.035C324.783 248.168 325.495 247.45 326.349 246.95Z" fill="#23293D"/>
<path d="M326.349 240.632L463.557 160.32C465.021 159.455 466.684 159 468.376 159C470.068 159 471.73 159.455 473.194 160.32L546.426 203.997C547.282 204.503 547.992 205.229 548.486 206.103C548.98 206.977 549.24 207.967 549.24 208.976C549.24 209.985 548.98 210.975 548.486 211.849C547.992 212.723 547.282 213.449 546.426 213.955L410.675 294.026C408.722 295.18 406.502 295.782 404.244 295.767C401.987 295.753 399.774 295.124 397.835 293.946L326.257 250.578C325.409 250.063 324.708 249.33 324.225 248.453C323.741 247.576 323.491 246.584 323.5 245.578C323.51 244.572 323.778 243.585 324.278 242.718C324.777 241.85 325.492 241.131 326.349 240.632Z" fill="#313A55"/>
<path d="M460.731 167C461.576 167.278 538.5 212.401 538.5 212.401L410.065 288L332.5 242.995L460.731 167Z" fill="#23293D"/>
<path d="M488.513 153.103V145.474L492.15 149.182C492.193 149.689 492.13 150.201 491.965 150.682C491.8 151.163 491.538 151.603 491.194 151.974C490.851 152.344 490.434 152.636 489.972 152.831C489.51 153.026 489.013 153.119 488.513 153.103Z" fill="#23293D"/>
<rect x="709.5" y="108" width="5" height="12" rx="2.5" fill="#23293D"/>
<path d="M491.349 147.95L628.557 67.6383C630.021 66.7734 631.684 66.3179 633.376 66.3179C635.068 66.3179 636.73 66.7734 638.194 67.6383L711.426 111.315C712.282 111.82 712.992 112.547 713.486 113.421C713.98 114.295 714.24 115.285 714.24 116.294C714.24 117.302 714.494 118.126 714 119C713.506 119.874 712.282 120.767 711.426 121.273L575.675 201.344C573.722 202.498 571.502 203.099 569.244 203.085C566.987 203.071 564.774 202.442 562.835 201.264L491.257 157.882C490.412 157.366 489.714 156.634 489.233 155.758C488.751 154.882 488.502 153.893 488.512 152.889C488.521 151.885 488.788 150.901 489.286 150.035C489.783 149.168 490.495 148.45 491.349 147.95Z" fill="#23293D"/>
<path d="M491.349 141.632L628.557 61.3204C630.021 60.4555 631.684 60 633.376 60C635.068 60 636.73 60.4555 638.194 61.3204L711.426 104.997C712.282 105.503 712.992 106.229 713.486 107.103C713.98 107.977 714.24 108.967 714.24 109.976C714.24 110.985 713.98 111.975 713.486 112.849C712.992 113.723 712.282 114.449 711.426 114.955L575.675 195.026C573.722 196.18 571.502 196.782 569.244 196.767C566.987 196.753 564.774 196.124 562.835 194.946L491.257 151.578C490.409 151.063 489.708 150.33 489.225 149.453C488.741 148.576 488.491 147.584 488.5 146.578C488.51 145.572 488.778 144.585 489.278 143.718C489.777 142.85 490.492 142.131 491.349 141.632Z" fill="#313A55"/>
<path d="M625.731 68C626.576 68.2783 703.5 113.401 703.5 113.401L575.065 189L497.5 143.995L625.731 68Z" fill="#23293D"/>
<g filter="url(#filter17_i)">
<path d="M430.768 198.97L453.953 212.355C454.329 212.574 454.755 212.69 455.188 212.69C455.621 212.69 456.046 212.574 456.422 212.355L483.48 196.293C483.853 196.069 484.162 195.751 484.377 195.368C484.592 194.985 484.705 194.552 484.705 194.111C484.705 193.67 484.592 193.236 484.377 192.854C484.162 192.471 483.853 192.152 483.48 191.929L460.387 178.343C460.008 178.118 459.577 178 459.139 178C458.701 178 458.271 178.118 457.892 178.343L430.729 194.579C430.352 194.804 430.039 195.127 429.824 195.514C429.608 195.902 429.496 196.34 429.5 196.786C429.504 197.232 429.624 197.668 429.846 198.052C430.069 198.435 430.387 198.752 430.768 198.97Z" fill="url(#paint39_radial)"/>
</g>
<path d="M430.893 198.753L430.892 198.753C430.55 198.557 430.263 198.272 430.063 197.926C429.862 197.58 429.754 197.186 429.75 196.784C429.747 196.381 429.847 195.985 430.042 195.636C430.237 195.286 430.518 194.996 430.857 194.794L430.857 194.794L458.02 178.558C458.02 178.558 458.02 178.558 458.02 178.558C458.36 178.356 458.746 178.25 459.139 178.25C459.532 178.25 459.919 178.356 460.259 178.558L460.26 178.558L483.352 192.143C483.352 192.144 483.352 192.144 483.352 192.144C483.687 192.344 483.966 192.631 484.159 192.976C484.353 193.321 484.455 193.712 484.455 194.111C484.455 194.509 484.353 194.9 484.159 195.245C483.965 195.591 483.687 195.877 483.352 196.078L456.295 212.139C456.295 212.139 456.295 212.139 456.295 212.14C455.957 212.337 455.576 212.44 455.188 212.44C454.799 212.44 454.417 212.336 454.08 212.139L454.078 212.138L430.893 198.753Z" stroke="#FF4185" stroke-width="0.5"/>
<g filter="url(#filter18_d)">
<path d="M430.768 199.97L453.953 213.355C454.329 213.574 454.755 213.69 455.188 213.69C455.621 213.69 456.046 213.574 456.422 213.355L483.48 197.293C483.853 197.069 484.162 196.751 484.377 196.368C484.592 195.985 484.705 195.552 484.705 195.111C484.705 194.67 484.592 194.236 484.377 193.854C484.162 193.471 483.853 193.152 483.48 192.929L460.387 179.343C460.008 179.118 459.577 179 459.139 179C458.701 179 458.271 179.118 457.892 179.343L430.729 195.579C430.352 195.804 430.039 196.127 429.824 196.514C429.608 196.902 429.496 197.34 429.5 197.786C429.504 198.232 429.624 198.668 429.846 199.052C430.069 199.435 430.387 199.752 430.768 199.97Z" fill="url(#paint40_radial)"/>
<path d="M430.893 199.753L430.892 199.753C430.55 199.557 430.263 199.272 430.063 198.926C429.862 198.58 429.754 198.186 429.75 197.784C429.747 197.381 429.847 196.985 430.042 196.636C430.237 196.286 430.518 195.996 430.857 195.794L430.857 195.794L458.02 179.558C458.02 179.558 458.02 179.558 458.02 179.558C458.36 179.356 458.746 179.25 459.139 179.25C459.532 179.25 459.919 179.356 460.259 179.558L460.26 179.558L483.352 193.143C483.352 193.144 483.352 193.144 483.352 193.144C483.687 193.344 483.966 193.631 484.159 193.976C484.353 194.321 484.455 194.712 484.455 195.111C484.455 195.509 484.353 195.9 484.159 196.245C483.965 196.591 483.687 196.877 483.352 197.078L456.295 213.139C456.295 213.139 456.295 213.139 456.295 213.14C455.957 213.337 455.576 213.44 455.188 213.44C454.799 213.44 454.417 213.336 454.08 213.139L454.078 213.138L430.893 199.753Z" stroke="#FF4789" stroke-width="0.5"/>
</g>
<path d="M429.75 196.324V193.172C429.861 193.263 429.989 193.322 430.13 193.351C430.398 193.406 430.679 193.342 430.933 193.246C431.191 193.148 431.453 193.004 431.689 192.866C431.778 192.814 431.861 192.763 431.941 192.716C432.082 192.631 432.21 192.554 432.329 192.49C432.419 192.441 432.493 192.406 432.552 192.386C432.553 192.385 432.555 192.385 432.556 192.384C432.555 192.396 432.554 192.408 432.553 192.423C432.536 192.598 432.458 192.897 432.282 193.371L429.75 196.324Z" fill="#DE063A" stroke="#DE063A" stroke-width="0.5"/>
<path d="M481.5 192.5C481.5 194.5 484.5 190.1 484.5 194.5V189L481.5 192.5Z" fill="#DE063A" stroke="#DE063A" stroke-width="0.3"/>
<path d="M431.018 193.537L431.016 193.536C430.712 193.362 430.458 193.109 430.279 192.801C430.1 192.492 430.004 192.141 430 191.782C429.997 191.422 430.087 191.069 430.26 190.757C430.434 190.446 430.684 190.188 430.985 190.009L430.985 190.008L458.147 173.773C458.147 173.773 458.148 173.773 458.148 173.772C458.45 173.594 458.792 173.5 459.139 173.5C459.487 173.5 459.83 173.594 460.132 173.773L460.133 173.774L483.223 187.358C483.224 187.358 483.224 187.359 483.225 187.359C483.522 187.537 483.769 187.791 483.941 188.098C484.114 188.406 484.205 188.755 484.205 189.111C484.205 189.466 484.114 189.815 483.941 190.123C483.769 190.43 483.521 190.685 483.224 190.863C483.224 190.863 483.223 190.863 483.223 190.863L456.169 206.923C456.169 206.923 456.169 206.924 456.168 206.924C455.869 207.099 455.531 207.19 455.188 207.19C454.844 207.19 454.505 207.098 454.206 206.923L454.203 206.922L431.018 193.537Z" fill="url(#paint41_diamond)" stroke="url(#paint42_radial)"/>
<line x1="458" y1="189" x2="458.022" y2="110.999" stroke="url(#paint43_linear)" stroke-width="3"/>
<path d="M411.787 112.984L498.307 62.4559C498.772 62.1986 499.3 62.0649 499.836 62.0684C500.373 62.072 500.899 62.2128 501.36 62.4762C501.82 62.7396 502.199 63.1161 502.457 63.5669C502.716 64.0176 502.843 64.5262 502.828 65.0401V93.9135C502.832 94.4345 502.696 94.9476 502.432 95.403C502.167 95.8583 501.785 96.2405 501.321 96.5121L414.77 146.001C414.308 146.257 413.445 146.697 412.911 146.695C412.377 146.692 411.853 146.554 411.394 146.294C410.934 146.034 410.554 145.928 410.294 145.482C410.034 145.035 409.902 144.264 409.912 143.752L409.798 116.594C409.764 115.877 409.93 115.164 410.28 114.53C410.63 113.895 411.15 113.362 411.787 112.984Z" fill="url(#paint44_linear)"/>
<rect width="7.03421" height="1.79331" rx="0.896657" transform="matrix(0.949664 0.31327 -0.372662 0.927967 500.013 62)" fill="#DE063A"/>
<rect width="9.25776" height="3.00527" rx="1.50263" transform="matrix(0.941782 0.336225 -0.398604 0.917123 410.698 143.206)" fill="#FF4A8C"/>
<path d="M507.58 66.845L507.58 66.845V66.8526L507.58 95.726L507.58 95.7281C507.584 96.2038 507.459 96.673 507.217 97.0901C506.976 97.5069 506.625 97.858 506.198 98.1083C506.197 98.1085 506.197 98.1087 506.197 98.1089L419.651 147.595C419.651 147.595 419.65 147.596 419.65 147.596C419.422 147.722 419.101 147.89 418.773 148.027C418.437 148.167 418.127 148.258 417.914 148.257C417.422 148.255 416.941 148.128 416.519 147.889C416.096 147.651 415.749 147.309 415.512 146.902C415.274 146.495 415.155 146.035 415.164 145.57H415.164L415.164 145.564L415.05 118.405H415.05L415.05 118.394C415.018 117.724 415.173 117.057 415.501 116.463C415.829 115.869 416.317 115.367 416.916 115.012C416.916 115.012 416.916 115.012 416.916 115.012L503.43 64.4871C503.431 64.4867 503.432 64.4862 503.433 64.4858C503.859 64.2504 504.343 64.1276 504.837 64.1309C505.331 64.1342 505.814 64.2639 506.237 64.5057C506.66 64.7475 507.007 65.0924 507.242 65.5036C507.478 65.9147 507.594 66.3777 507.58 66.845Z" fill="#313A55" stroke="url(#paint45_linear)" stroke-width="0.5"/>
<g filter="url(#filter19_d)">
<path d="M589.1 387.87C600.753 387.87 610.2 382.484 610.2 375.84C610.2 369.196 600.753 363.81 589.1 363.81C577.447 363.81 568 369.196 568 375.84C568 382.484 577.447 387.87 589.1 387.87Z" fill="url(#paint46_radial)"/>
<path d="M609.7 375.84C609.7 378.905 607.517 381.777 603.772 383.912C600.042 386.039 594.856 387.37 589.1 387.37C583.344 387.37 578.158 386.039 574.428 383.912C570.683 381.777 568.5 378.905 568.5 375.84C568.5 372.775 570.683 369.903 574.428 367.768C578.158 365.641 583.344 364.31 589.1 364.31C594.856 364.31 600.042 365.641 603.772 367.768C607.517 369.903 609.7 372.775 609.7 375.84Z" stroke="#FF4588"/>
</g>
<path d="M568.01 375.84V369.03H610.2V375.84" fill="#FF2473"/>
<g filter="url(#filter20_d)">
<path d="M589.1 381.06C600.753 381.06 610.2 375.674 610.2 369.03C610.2 362.386 600.753 357 589.1 357C577.447 357 568 362.386 568 369.03C568 375.674 577.447 381.06 589.1 381.06Z" fill="url(#paint47_radial)"/>
<path d="M609.7 369.03C609.7 372.095 607.517 374.967 603.772 377.102C600.042 379.229 594.856 380.56 589.1 380.56C583.344 380.56 578.158 379.229 574.428 377.102C570.683 374.967 568.5 372.095 568.5 369.03C568.5 365.965 570.683 363.093 574.428 360.958C578.158 358.831 583.344 357.5 589.1 357.5C594.856 357.5 600.042 358.831 603.772 360.958C607.517 363.093 609.7 365.965 609.7 369.03Z" stroke="#DE063A"/>
</g>
<g filter="url(#filter21_d)">
<path d="M586.1 331.87C597.753 331.87 607.2 326.484 607.2 319.84C607.2 313.196 597.753 307.81 586.1 307.81C574.447 307.81 565 313.196 565 319.84C565 326.484 574.447 331.87 586.1 331.87Z" fill="url(#paint48_radial)"/>
<path d="M606.7 319.84C606.7 322.905 604.517 325.777 600.772 327.912C597.042 330.039 591.856 331.37 586.1 331.37C580.344 331.37 575.158 330.039 571.428 327.912C567.683 325.777 565.5 322.905 565.5 319.84C565.5 316.775 567.683 313.903 571.428 311.768C575.158 309.641 580.344 308.31 586.1 308.31C591.856 308.31 597.042 309.641 600.772 311.768C604.517 313.903 606.7 316.775 606.7 319.84Z" stroke="#FF4588"/>
</g>
<path d="M565.01 319.84V313.03H607.2V319.84" fill="#FF2473"/>
<g filter="url(#filter22_d)">
<path d="M586.1 325.06C597.753 325.06 607.2 319.674 607.2 313.03C607.2 306.386 597.753 301 586.1 301C574.447 301 565 306.386 565 313.03C565 319.674 574.447 325.06 586.1 325.06Z" fill="url(#paint49_radial)"/>
<path d="M606.7 313.03C606.7 316.095 604.517 318.967 600.772 321.102C597.042 323.229 591.856 324.56 586.1 324.56C580.344 324.56 575.158 323.229 571.428 321.102C567.683 318.967 565.5 316.095 565.5 313.03C565.5 309.965 567.683 307.093 571.428 304.958C575.158 302.831 580.344 301.5 586.1 301.5C591.856 301.5 597.042 302.831 600.772 304.958C604.517 307.093 606.7 309.965 606.7 313.03Z" stroke="#DE063A"/>
</g>
<path d="M408.787 63.5256L495.307 12.46C495.772 12.2 496.3 12.0648 496.836 12.0684C497.373 12.072 497.899 12.2143 498.36 12.4805C498.82 12.7467 499.199 13.1273 499.457 13.5828C499.716 14.0383 499.843 14.5523 499.828 15.0717V44.252C499.832 44.7785 499.696 45.297 499.432 45.7573C499.167 46.2175 498.785 46.6037 498.321 46.8782L411.77 96.8933C411.308 97.1519 410.445 97.5967 409.911 97.5943C409.377 97.5919 408.853 97.4522 408.394 97.1895C407.934 96.9268 407.554 96.8196 407.294 96.3683C407.034 95.9169 406.902 95.1375 406.912 94.6206L406.798 67.1732C406.764 66.4487 406.93 65.7287 407.28 65.0874C407.63 64.4461 408.15 63.9069 408.787 63.5256Z" fill="url(#paint50_linear)"/>
<rect width="7.04158" height="1.80974" rx="0.904869" transform="matrix(0.94867 0.316268 -0.36928 0.929318 497.013 12)" fill="#FF2473"/>
<rect width="9.26894" height="3.03216" rx="1.51608" transform="matrix(0.940646 0.339389 -0.39507 0.918651 407.698 94.0688)" fill="#FF8200"/>
<path d="M504.58 16.8966L504.58 16.8966V16.9042L504.58 46.0845L504.58 46.0866C504.584 46.5683 504.459 47.0433 504.217 47.4654C503.975 47.8872 503.623 48.2422 503.196 48.4951C503.196 48.4953 503.196 48.4954 503.196 48.4956L416.65 98.5077C416.65 98.508 416.649 98.5083 416.649 98.5086C416.421 98.6358 416.1 98.8061 415.773 98.9438C415.436 99.0855 415.127 99.1778 414.914 99.1768C414.423 99.1746 413.942 99.0461 413.52 98.805C413.098 98.5638 412.75 98.2191 412.512 97.8067C412.275 97.3945 412.155 96.9291 412.164 96.4581H412.164L412.164 96.4521L412.05 69.0046H412.05L412.05 68.9939C412.018 68.3156 412.174 67.6409 412.502 67.0396C412.829 66.4384 413.318 65.9318 413.917 65.573C413.917 65.5729 413.917 65.5728 413.917 65.5726L500.431 14.5107C500.432 14.5103 500.433 14.5098 500.434 14.5093C500.86 14.2716 501.344 14.1476 501.837 14.1509C502.33 14.1543 502.814 14.2851 503.236 14.5295C503.659 14.7738 504.006 15.1225 504.242 15.5386C504.478 15.9546 504.594 16.4234 504.58 16.8966Z" fill="#313A55" stroke="url(#paint51_linear)" stroke-width="0.5"/>
<rect width="9.29437" height="3.09259" rx="1.54629" transform="matrix(0.938072 0.34644 -0.38735 0.921933 519.698 84.0034)" fill="#313A55"/>
<path d="M520.787 52.7402L607.307 0.470731C607.772 0.204592 608.3 0.0662071 608.836 0.0698961C609.373 0.0735851 609.899 0.219195 610.36 0.491696C610.82 0.764197 611.199 1.1537 611.457 1.61996C611.716 2.08622 611.843 2.61233 611.828 3.14393V33.0122C611.832 33.551 611.696 34.0818 611.432 34.5529C611.167 35.024 610.785 35.4193 610.321 35.7003L523.77 86.8945C523.308 87.1592 522.445 87.6144 521.911 87.612C521.377 87.6095 520.853 87.4665 520.394 87.1976C519.934 86.9287 519.554 86.8191 519.294 86.357C519.034 85.895 518.902 85.0973 518.912 84.5682L518.798 56.4737C518.764 55.7322 518.93 54.9951 519.28 54.3387C519.63 53.6823 520.15 53.1305 520.787 52.7402Z" fill="url(#paint52_linear)"/>
<rect width="7.05836" height="1.84664" rx="0.923321" transform="matrix(0.946415 0.322954 -0.3619 0.932217 609.013 0)" fill="#313A55"/>
<path d="M616.33 5.00516L616.33 5.01253V5.0199L616.33 34.8881L616.33 34.8922C616.333 35.3439 616.219 35.789 615.997 36.1844C615.776 36.579 615.456 36.9108 615.066 37.1472C615.065 37.1477 615.065 37.1482 615.064 37.1486L528.524 88.3365C528.523 88.3371 528.522 88.3377 528.521 88.3382C528.297 88.4663 527.986 88.6349 527.672 88.7702C527.338 88.9138 527.071 88.9887 526.915 88.988C526.469 88.9859 526.032 88.8664 525.648 88.642L525.396 89.0736L525.648 88.642C525.264 88.4176 524.948 88.0965 524.731 87.7121C524.515 87.3277 524.405 86.8934 524.414 86.4538H524.414L524.414 86.4421L524.3 58.3476L524.3 58.3372L524.299 58.3267C524.27 57.6751 524.416 57.0271 524.723 56.4498C525.031 55.8728 525.488 55.3871 526.049 55.0431C526.049 55.0429 526.05 55.0427 526.05 55.0425L612.563 2.77783C612.949 2.55749 613.388 2.44279 613.835 2.44586C614.283 2.44894 614.722 2.57065 615.107 2.79805C615.492 3.02543 615.807 3.35011 616.022 3.73809C616.237 4.12604 616.343 4.56345 616.33 5.00516Z" fill="#23293D" stroke="#313A55"/>
<g filter="url(#filter23_d)">
<path d="M630 410L576 438" stroke="url(#paint53_linear)" stroke-width="2"/>
</g>
<g filter="url(#filter24_d)">
<path d="M528.268 140.97L551.453 154.355C551.829 154.574 552.254 154.69 552.687 154.69C553.12 154.69 553.546 154.574 553.921 154.355L580.98 138.293C581.353 138.069 581.662 137.751 581.877 137.368C582.092 136.985 582.205 136.552 582.205 136.111C582.205 135.67 582.092 135.236 581.877 134.854C581.662 134.471 581.353 134.152 580.98 133.929L557.886 120.343C557.507 120.118 557.077 120 556.639 120C556.201 120 555.771 120.118 555.392 120.343L528.229 136.579C527.851 136.804 527.539 137.127 527.323 137.514C527.108 137.902 526.996 138.34 527 138.786C527.004 139.232 527.123 139.668 527.346 140.052C527.569 140.435 527.887 140.752 528.268 140.97Z" fill="#313A55"/>
<path d="M528.393 140.753L528.392 140.753C528.049 140.557 527.763 140.272 527.562 139.926C527.362 139.58 527.254 139.186 527.25 138.784C527.246 138.381 527.347 137.985 527.542 137.636C527.736 137.286 528.018 136.996 528.357 136.794L528.357 136.794L555.519 120.558C555.519 120.558 555.52 120.558 555.52 120.558C555.86 120.356 556.246 120.25 556.639 120.25C557.032 120.25 557.418 120.356 557.759 120.558L557.759 120.558L580.851 134.143C580.852 134.144 580.852 134.144 580.852 134.144C581.187 134.344 581.465 134.631 581.659 134.976C581.853 135.321 581.955 135.712 581.955 136.111C581.955 136.509 581.853 136.9 581.659 137.245C581.465 137.591 581.187 137.877 580.851 138.078L553.795 154.139C553.795 154.139 553.795 154.139 553.794 154.14C553.457 154.337 553.075 154.44 552.687 154.44C552.299 154.44 551.917 154.336 551.579 154.139L551.578 154.138L528.393 140.753Z" stroke="#313A55" stroke-width="0.5"/>
</g>
<path d="M531.537 134.182C533.806 129.818 527 136.8 527 132V138L531.537 134.182Z" fill="#313A55"/>
<path d="M576 133.818C576 136 582 131.2 582 136V130L576 133.818Z" fill="#313A55" stroke="#313A55" stroke-width="0.3"/>
<path d="M528.393 134.753L528.392 134.753C528.049 134.557 527.763 134.272 527.562 133.926C527.362 133.58 527.254 133.186 527.25 132.784C527.246 132.381 527.347 131.985 527.542 131.636C527.736 131.286 528.018 130.996 528.357 130.794L528.357 130.794L555.519 114.558C555.519 114.558 555.52 114.558 555.52 114.558C555.86 114.356 556.246 114.25 556.639 114.25C557.032 114.25 557.418 114.356 557.759 114.558L557.76 114.558L580.851 128.143C580.852 128.144 580.852 128.144 580.852 128.144C581.187 128.344 581.465 128.631 581.659 128.976C581.853 129.321 581.955 129.712 581.955 130.111C581.955 130.509 581.853 130.9 581.659 131.245C581.465 131.591 581.187 131.877 580.851 132.078L553.795 148.139C553.795 148.139 553.795 148.139 553.794 148.14C553.457 148.337 553.075 148.44 552.687 148.44C552.299 148.44 551.917 148.336 551.579 148.139L551.578 148.138L528.393 134.753Z" fill="#23293D" stroke="#313A55" stroke-width="0.5"/>
<g filter="url(#filter25_d)">
<path d="M585.268 105.97L608.453 119.355C608.829 119.574 609.254 119.69 609.687 119.69C610.12 119.69 610.546 119.574 610.921 119.355L637.98 103.293C638.353 103.069 638.662 102.751 638.877 102.368C639.092 101.985 639.205 101.552 639.205 101.111C639.205 100.67 639.092 100.236 638.877 99.8536C638.662 99.4709 638.353 99.1521 637.98 98.9289L614.886 85.3428C614.507 85.1183 614.077 85 613.639 85C613.201 85 612.771 85.1183 612.392 85.3428L585.229 101.579C584.851 101.804 584.539 102.127 584.323 102.514C584.108 102.902 583.996 103.34 584 103.786C584.004 104.232 584.123 104.668 584.346 105.052C584.569 105.435 584.887 105.752 585.268 105.97Z" fill="#313A55"/>
<path d="M585.393 105.753L585.392 105.753C585.049 105.557 584.763 105.272 584.562 104.926C584.362 104.58 584.254 104.186 584.25 103.784C584.246 103.381 584.347 102.985 584.542 102.636C584.736 102.286 585.018 101.996 585.357 101.794L585.357 101.794L612.519 85.5579C612.519 85.5578 612.52 85.5577 612.52 85.5577C612.86 85.356 613.246 85.25 613.639 85.25C614.032 85.25 614.418 85.3561 614.759 85.5579L614.759 85.5583L637.851 99.1434C637.852 99.1436 637.852 99.1437 637.852 99.1439C638.187 99.3445 638.465 99.6312 638.659 99.9761C638.853 100.321 638.955 100.712 638.955 101.111C638.955 101.509 638.853 101.9 638.659 102.245C638.465 102.591 638.187 102.877 637.851 103.078L610.795 119.139C610.795 119.139 610.795 119.139 610.794 119.14C610.457 119.337 610.075 119.44 609.687 119.44C609.299 119.44 608.917 119.336 608.579 119.139L608.578 119.138L585.393 105.753Z" stroke="#313A55" stroke-width="0.5"/>
</g>
<path d="M588.537 99.1818C590.806 94.8182 584 101.8 584 97V103L588.537 99.1818Z" fill="#313A55"/>
<path d="M633 98.8182C633 101 639 96.2 639 101V95L633 98.8182Z" fill="#313A55" stroke="#313A55" stroke-width="0.3"/>
<path d="M585.393 99.7531L585.392 99.7526C585.049 99.5567 584.763 99.2718 584.562 98.9261C584.362 98.5803 584.254 98.1862 584.25 97.7838C584.246 97.3813 584.347 96.9853 584.542 96.6358C584.736 96.2864 585.018 95.9961 585.357 95.7939L585.357 95.7938L612.519 79.5579C612.519 79.5578 612.52 79.5577 612.52 79.5577C612.86 79.356 613.246 79.25 613.639 79.25C614.032 79.25 614.418 79.3561 614.759 79.5579L614.76 79.5583L637.851 93.1434C637.852 93.1436 637.852 93.1437 637.852 93.1439C638.187 93.3445 638.465 93.6312 638.659 93.9761C638.853 94.3212 638.955 94.7124 638.955 95.1107C638.955 95.5091 638.853 95.9002 638.659 96.2454C638.465 96.5905 638.187 96.8774 637.851 97.078L610.795 113.139C610.795 113.139 610.795 113.139 610.794 113.14C610.457 113.337 610.075 113.44 609.687 113.44C609.299 113.44 608.917 113.336 608.579 113.139L608.578 113.138L585.393 99.7531Z" fill="#23293D" stroke="#313A55" stroke-width="0.5"/>
<g filter="url(#filter26_d)">
<path d="M681.1 506.87C692.753 506.87 702.2 501.484 702.2 494.84C702.2 488.196 692.753 482.81 681.1 482.81C669.447 482.81 660 488.196 660 494.84C660 501.484 669.447 506.87 681.1 506.87Z" fill="url(#paint54_linear)"/>
<path d="M701.95 494.84C701.95 498.033 699.677 500.973 695.896 503.129C692.122 505.281 686.891 506.62 681.1 506.62C675.309 506.62 670.078 505.281 666.304 503.129C662.523 500.973 660.25 498.033 660.25 494.84C660.25 491.647 662.523 488.707 666.304 486.551C670.078 484.399 675.309 483.06 681.1 483.06C686.891 483.06 692.122 484.399 695.896 486.551C699.677 488.707 701.95 491.647 701.95 494.84Z" stroke="#3B4974" stroke-width="0.5"/>
</g>
<mask id="path-108-inside-4" fill="white">
<path d="M660.01 494.84V488.03H702.2V494.84"/>
</mask>
<path d="M660.01 494.84V488.03H702.2V494.84" fill="#FF2473"/>
<path d="M660.01 488.03V487.53H659.51V488.03H660.01ZM702.2 488.03H702.7V487.53H702.2V488.03ZM660.51 494.84V488.03H659.51V494.84H660.51ZM660.01 488.53H702.2V487.53H660.01V488.53ZM701.7 488.03V494.84H702.7V488.03H701.7Z" fill="#313A55" mask="url(#path-108-inside-4)"/>
<path d="M701.95 488.03C701.95 491.223 699.677 494.163 695.896 496.319C692.122 498.471 686.891 499.81 681.1 499.81C675.309 499.81 670.078 498.471 666.304 496.319C662.523 494.163 660.25 491.223 660.25 488.03C660.25 484.837 662.523 481.897 666.304 479.741C670.078 477.589 675.309 476.25 681.1 476.25C686.891 476.25 692.122 477.589 695.896 479.741C699.677 481.897 701.95 484.837 701.95 488.03Z" fill="url(#paint55_radial)" stroke="#3B4974" stroke-width="0.5"/>
<g filter="url(#filter27_d)">
<path d="M630.1 475.87C641.753 475.87 651.2 470.484 651.2 463.84C651.2 457.196 641.753 451.81 630.1 451.81C618.447 451.81 609 457.196 609 463.84C609 470.484 618.447 475.87 630.1 475.87Z" fill="url(#paint56_linear)"/>
<path d="M650.95 463.84C650.95 467.033 648.677 469.973 644.896 472.129C641.122 474.281 635.891 475.62 630.1 475.62C624.309 475.62 619.078 474.281 615.304 472.129C611.523 469.973 609.25 467.033 609.25 463.84C609.25 460.647 611.523 457.707 615.304 455.551C619.078 453.399 624.309 452.06 630.1 452.06C635.891 452.06 641.122 453.399 644.896 455.551C648.677 457.707 650.95 460.647 650.95 463.84Z" stroke="#3B4974" stroke-width="0.5"/>
</g>
<mask id="path-113-inside-5" fill="white">
<path d="M609.01 463.84V457.03H651.2V463.84"/>
</mask>
<path d="M609.01 463.84V457.03H651.2V463.84" fill="#FF2473"/>
<path d="M609.01 457.03V456.53H608.51V457.03H609.01ZM651.2 457.03H651.7V456.53H651.2V457.03ZM609.51 463.84V457.03H608.51V463.84H609.51ZM609.01 457.53H651.2V456.53H609.01V457.53ZM650.7 457.03V463.84H651.7V457.03H650.7Z" fill="#313A55" mask="url(#path-113-inside-5)"/>
<path d="M650.95 457.03C650.95 460.223 648.677 463.163 644.896 465.319C641.122 467.471 635.891 468.81 630.1 468.81C624.309 468.81 619.078 467.471 615.304 465.319C611.523 463.163 609.25 460.223 609.25 457.03C609.25 453.837 611.523 450.897 615.304 448.741C619.078 446.589 624.309 445.25 630.1 445.25C635.891 445.25 641.122 446.589 644.896 448.741C648.677 450.897 650.95 453.837 650.95 457.03Z" fill="url(#paint57_radial)" stroke="#3B4974" stroke-width="0.5"/>
<g filter="url(#filter28_d)">
<path d="M685.1 446.87C696.753 446.87 706.2 441.484 706.2 434.84C706.2 428.196 696.753 422.81 685.1 422.81C673.447 422.81 664 428.196 664 434.84C664 441.484 673.447 446.87 685.1 446.87Z" fill="url(#paint58_linear)"/>
<path d="M705.95 434.84C705.95 438.033 703.677 440.973 699.896 443.129C696.122 445.281 690.891 446.62 685.1 446.62C679.309 446.62 674.078 445.281 670.304 443.129C666.523 440.973 664.25 438.033 664.25 434.84C664.25 431.647 666.523 428.707 670.304 426.551C674.078 424.399 679.309 423.06 685.1 423.06C690.891 423.06 696.122 424.399 699.896 426.551C703.677 428.707 705.95 431.647 705.95 434.84Z" stroke="#3B4974" stroke-width="0.5"/>
</g>
<mask id="path-118-inside-6" fill="white">
<path d="M664.01 434.84V428.03H706.2V434.84"/>
</mask>
<path d="M664.01 434.84V428.03H706.2V434.84" fill="#FF2473"/>
<path d="M664.01 428.03V427.53H663.51V428.03H664.01ZM706.2 428.03H706.7V427.53H706.2V428.03ZM664.51 434.84V428.03H663.51V434.84H664.51ZM664.01 428.53H706.2V427.53H664.01V428.53ZM705.7 428.03V434.84H706.7V428.03H705.7Z" fill="#313A55" mask="url(#path-118-inside-6)"/>
<path d="M705.95 428.03C705.95 431.223 703.677 434.163 699.896 436.319C696.122 438.471 690.891 439.81 685.1 439.81C679.309 439.81 674.078 438.471 670.304 436.319C666.523 434.163 664.25 431.223 664.25 428.03C664.25 424.837 666.523 421.897 670.304 419.741C674.078 417.589 679.309 416.25 685.1 416.25C690.891 416.25 696.122 417.589 699.896 419.741C703.677 421.897 705.95 424.837 705.95 428.03Z" fill="url(#paint59_radial)" stroke="#3B4974" stroke-width="0.5"/>
<g filter="url(#filter29_d)">
<path d="M643.1 359.87C654.753 359.87 664.2 354.484 664.2 347.84C664.2 341.196 654.753 335.81 643.1 335.81C631.447 335.81 622 341.196 622 347.84C622 354.484 631.447 359.87 643.1 359.87Z" fill="url(#paint60_linear)"/>
<path d="M663.95 347.84C663.95 351.033 661.677 353.973 657.896 356.129C654.122 358.281 648.891 359.62 643.1 359.62C637.309 359.62 632.078 358.281 628.304 356.129C624.523 353.973 622.25 351.033 622.25 347.84C622.25 344.647 624.523 341.707 628.304 339.551C632.078 337.399 637.309 336.06 643.1 336.06C648.891 336.06 654.122 337.399 657.896 339.551C661.677 341.707 663.95 344.647 663.95 347.84Z" stroke="#3B4974" stroke-width="0.5"/>
</g>
<mask id="path-123-inside-7" fill="white">
<path d="M622.01 347.84V341.03H664.2V347.84"/>
</mask>
<path d="M622.01 347.84V341.03H664.2V347.84" fill="#FF2473"/>
<path d="M622.01 341.03V340.53H621.51V341.03H622.01ZM664.2 341.03H664.7V340.53H664.2V341.03ZM622.51 347.84V341.03H621.51V347.84H622.51ZM622.01 341.53H664.2V340.53H622.01V341.53ZM663.7 341.03V347.84H664.7V341.03H663.7Z" fill="#313A55" mask="url(#path-123-inside-7)"/>
<path d="M663.95 341.03C663.95 344.223 661.677 347.163 657.896 349.319C654.122 351.471 648.891 352.81 643.1 352.81C637.309 352.81 632.078 351.471 628.304 349.319C624.523 347.163 622.25 344.223 622.25 341.03C622.25 337.837 624.523 334.897 628.304 332.741C632.078 330.589 637.309 329.25 643.1 329.25C648.891 329.25 654.122 330.589 657.896 332.741C661.677 334.897 663.95 337.837 663.95 341.03Z" fill="url(#paint61_radial)" stroke="#3B4974" stroke-width="0.5"/>
<g filter="url(#filter30_d)">
<path d="M578.1 451.87C589.753 451.87 599.2 446.484 599.2 439.84C599.2 433.196 589.753 427.81 578.1 427.81C566.447 427.81 557 433.196 557 439.84C557 446.484 566.447 451.87 578.1 451.87Z" fill="url(#paint62_radial)"/>
<path d="M599.1 439.84C599.1 443.111 596.774 446.091 592.97 448.26C589.17 450.427 583.912 451.77 578.1 451.77C572.288 451.77 567.03 450.427 563.23 448.26C559.426 446.091 557.1 443.111 557.1 439.84C557.1 436.57 559.426 433.589 563.23 431.42C567.03 429.254 572.288 427.91 578.1 427.91C583.912 427.91 589.17 429.254 592.97 431.42C596.774 433.589 599.1 436.57 599.1 439.84Z" stroke="#313A55" stroke-opacity="0.44" stroke-width="0.2"/>
</g>
<mask id="path-128-inside-8" fill="white">
<path d="M557.01 439.84V433.03H599.2V439.84"/>
</mask>
<path d="M557.01 439.84V433.03H599.2V439.84" fill="url(#paint63_linear)"/>
<path d="M557.01 433.03V432.03H556.01V433.03H557.01ZM599.2 433.03H600.2V432.03H599.2V433.03ZM558.01 439.84V433.03H556.01V439.84H558.01ZM557.01 434.03H599.2V432.03H557.01V434.03ZM598.2 433.03V439.84H600.2V433.03H598.2Z" fill="#FF1167" mask="url(#path-128-inside-8)"/>
<g filter="url(#filter31_d)">
<path d="M578.1 445.06C589.753 445.06 599.2 439.674 599.2 433.03C599.2 426.386 589.753 421 578.1 421C566.447 421 557 426.386 557 433.03C557 439.674 566.447 445.06 578.1 445.06Z" fill="url(#paint64_radial)"/>
<path d="M598.7 433.03C598.7 436.095 596.517 438.967 592.772 441.102C589.042 443.229 583.856 444.56 578.1 444.56C572.344 444.56 567.158 443.229 563.428 441.102C559.683 438.967 557.5 436.095 557.5 433.03C557.5 429.965 559.683 427.093 563.428 424.958C567.158 422.831 572.344 421.5 578.1 421.5C583.856 421.5 589.042 422.831 592.772 424.958C596.517 427.093 598.7 429.965 598.7 433.03Z" stroke="#DE063A"/>
</g>
<g filter="url(#filter32_d)">
<path d="M638.6 416.87C650.253 416.87 659.7 411.484 659.7 404.84C659.7 398.196 650.253 392.81 638.6 392.81C626.947 392.81 617.5 398.196 617.5 404.84C617.5 411.484 626.947 416.87 638.6 416.87Z" fill="url(#paint65_radial)"/>
<path d="M659.6 404.84C659.6 408.111 657.274 411.091 653.47 413.26C649.669 415.427 644.412 416.77 638.6 416.77C632.787 416.77 627.53 415.427 623.729 413.26C619.926 411.091 617.6 408.111 617.6 404.84C617.6 401.57 619.926 398.589 623.729 396.42C627.53 394.254 632.787 392.91 638.6 392.91C644.412 392.91 649.669 394.254 653.47 396.42C657.274 398.589 659.6 401.57 659.6 404.84Z" stroke="#313A55" stroke-opacity="0.44" stroke-width="0.2"/>
</g>
<mask id="path-134-inside-9" fill="white">
<path d="M617.51 404.84V398.03H659.7V404.84"/>
</mask>
<path d="M617.51 404.84V398.03H659.7V404.84" fill="url(#paint66_linear)"/>
<path d="M617.51 398.03V397.03H616.51V398.03H617.51ZM659.7 398.03H660.7V397.03H659.7V398.03ZM618.51 404.84V398.03H616.51V404.84H618.51ZM617.51 399.03H659.7V397.03H617.51V399.03ZM658.7 398.03V404.84H660.7V398.03H658.7Z" fill="#FF1167" mask="url(#path-134-inside-9)"/>
<g filter="url(#filter33_d)">
<path d="M638.6 410.06C650.253 410.06 659.7 404.674 659.7 398.03C659.7 391.386 650.253 386 638.6 386C626.947 386 617.5 391.386 617.5 398.03C617.5 404.674 626.947 410.06 638.6 410.06Z" fill="url(#paint67_radial)"/>
<path d="M659.2 398.03C659.2 401.095 657.016 403.967 653.272 406.102C649.542 408.229 644.356 409.56 638.6 409.56C632.844 409.56 627.657 408.229 623.927 406.102C620.183 403.967 618 401.095 618 398.03C618 394.965 620.183 392.093 623.927 389.958C627.657 387.831 632.844 386.5 638.6 386.5C644.356 386.5 649.542 387.831 653.272 389.958C657.016 392.093 659.2 394.965 659.2 398.03Z" stroke="#DE063A"/>
</g>
<defs>
<filter id="filter0_d" x="850" y="329.81" width="62.2" height="44.06" filterUnits="userSpaceOnUse" color-interpolation-filters="sRGB">
<feFlood flood-opacity="0" result="BackgroundImageFix"/>
<feColorMatrix in="SourceAlpha" type="matrix" values="0 0 0 0 0 0 0 0 0 0 0 0 0 0 0 0 0 0 127 0"/>
<feOffset dy="4"/>
<feGaussianBlur stdDeviation="5"/>
<feColorMatrix type="matrix" values="0 0 0 0 0.137255 0 0 0 0 0.160784 0 0 0 0 0.239216 0 0 0 1 0"/>
<feBlend mode="normal" in2="BackgroundImageFix" result="effect1_dropShadow"/>
<feBlend mode="normal" in="SourceGraphic" in2="effect1_dropShadow" result="shape"/>
</filter>
<filter id="filter1_d" x="809" y="356.81" width="62.2" height="44.06" filterUnits="userSpaceOnUse" color-interpolation-filters="sRGB">
<feFlood flood-opacity="0" result="BackgroundImageFix"/>
<feColorMatrix in="SourceAlpha" type="matrix" values="0 0 0 0 0 0 0 0 0 0 0 0 0 0 0 0 0 0 127 0"/>
<feOffset dy="4"/>
<feGaussianBlur stdDeviation="5"/>
<feColorMatrix type="matrix" values="0 0 0 0 0.137255 0 0 0 0 0.160784 0 0 0 0 0.239216 0 0 0 1 0"/>
<feBlend mode="normal" in2="BackgroundImageFix" result="effect1_dropShadow"/>
<feBlend mode="normal" in="SourceGraphic" in2="effect1_dropShadow" result="shape"/>
</filter>
<filter id="filter2_d" x="766" y="382.81" width="62.2" height="44.06" filterUnits="userSpaceOnUse" color-interpolation-filters="sRGB">
<feFlood flood-opacity="0" result="BackgroundImageFix"/>
<feColorMatrix in="SourceAlpha" type="matrix" values="0 0 0 0 0 0 0 0 0 0 0 0 0 0 0 0 0 0 127 0"/>
<feOffset dy="4"/>
<feGaussianBlur stdDeviation="5"/>
<feColorMatrix type="matrix" values="0 0 0 0 0.137255 0 0 0 0 0.160784 0 0 0 0 0.239216 0 0 0 1 0"/>
<feBlend mode="normal" in2="BackgroundImageFix" result="effect1_dropShadow"/>
<feBlend mode="normal" in="SourceGraphic" in2="effect1_dropShadow" result="shape"/>
</filter>
<filter id="filter3_d" x="301" y="213" width="553" height="381.546" filterUnits="userSpaceOnUse" color-interpolation-filters="sRGB">
<feFlood flood-opacity="0" result="BackgroundImageFix"/>
<feColorMatrix in="SourceAlpha" type="matrix" values="0 0 0 0 0 0 0 0 0 0 0 0 0 0 0 0 0 0 127 0"/>
<feOffset dy="15"/>
<feGaussianBlur stdDeviation="10"/>
<feColorMatrix type="matrix" values="0 0 0 0 0.137255 0 0 0 0 0.160784 0 0 0 0 0.239216 0 0 0 0.5 0"/>
<feBlend mode="normal" in2="BackgroundImageFix" result="effect1_dropShadow"/>
<feBlend mode="normal" in="SourceGraphic" in2="effect1_dropShadow" result="shape"/>
</filter>
<filter id="filter4_d" x="261" y="369.81" width="62.2" height="44.06" filterUnits="userSpaceOnUse" color-interpolation-filters="sRGB">
<feFlood flood-opacity="0" result="BackgroundImageFix"/>
<feColorMatrix in="SourceAlpha" type="matrix" values="0 0 0 0 0 0 0 0 0 0 0 0 0 0 0 0 0 0 127 0"/>
<feOffset dy="4"/>
<feGaussianBlur stdDeviation="5"/>
<feColorMatrix type="matrix" values="0 0 0 0 0.137255 0 0 0 0 0.160784 0 0 0 0 0.239216 0 0 0 1 0"/>
<feBlend mode="normal" in2="BackgroundImageFix" result="effect1_dropShadow"/>
<feBlend mode="normal" in="SourceGraphic" in2="effect1_dropShadow" result="shape"/>
</filter>
<filter id="filter5_d" x="200" y="405.81" width="62.2" height="44.06" filterUnits="userSpaceOnUse" color-interpolation-filters="sRGB">
<feFlood flood-opacity="0" result="BackgroundImageFix"/>
<feColorMatrix in="SourceAlpha" type="matrix" values="0 0 0 0 0 0 0 0 0 0 0 0 0 0 0 0 0 0 127 0"/>
<feOffset dy="4"/>
<feGaussianBlur stdDeviation="5"/>
<feColorMatrix type="matrix" values="0 0 0 0 0.137255 0 0 0 0 0.160784 0 0 0 0 0.239216 0 0 0 1 0"/>
<feBlend mode="normal" in2="BackgroundImageFix" result="effect1_dropShadow"/>
<feBlend mode="normal" in="SourceGraphic" in2="effect1_dropShadow" result="shape"/>
</filter>
<filter id="filter6_d" x="282" y="416.81" width="62.2" height="44.06" filterUnits="userSpaceOnUse" color-interpolation-filters="sRGB">
<feFlood flood-opacity="0" result="BackgroundImageFix"/>
<feColorMatrix in="SourceAlpha" type="matrix" values="0 0 0 0 0 0 0 0 0 0 0 0 0 0 0 0 0 0 127 0"/>
<feOffset dy="4"/>
<feGaussianBlur stdDeviation="5"/>
<feColorMatrix type="matrix" values="0 0 0 0 0.137255 0 0 0 0 0.160784 0 0 0 0 0.239216 0 0 0 1 0"/>
<feBlend mode="normal" in2="BackgroundImageFix" result="effect1_dropShadow"/>
<feBlend mode="normal" in="SourceGraphic" in2="effect1_dropShadow" result="shape"/>
</filter>
<filter id="filter7_d" x="704" y="446.81" width="62.2" height="44.06" filterUnits="userSpaceOnUse" color-interpolation-filters="sRGB">
<feFlood flood-opacity="0" result="BackgroundImageFix"/>
<feColorMatrix in="SourceAlpha" type="matrix" values="0 0 0 0 0 0 0 0 0 0 0 0 0 0 0 0 0 0 127 0"/>
<feOffset dy="4"/>
<feGaussianBlur stdDeviation="5"/>
<feColorMatrix type="matrix" values="0 0 0 0 0.137255 0 0 0 0 0.160784 0 0 0 0 0.239216 0 0 0 1 0"/>
<feBlend mode="normal" in2="BackgroundImageFix" result="effect1_dropShadow"/>
<feBlend mode="normal" in="SourceGraphic" in2="effect1_dropShadow" result="shape"/>
</filter>
<filter id="filter8_d" x="758" y="413.81" width="62.2" height="44.06" filterUnits="userSpaceOnUse" color-interpolation-filters="sRGB">
<feFlood flood-opacity="0" result="BackgroundImageFix"/>
<feColorMatrix in="SourceAlpha" type="matrix" values="0 0 0 0 0 0 0 0 0 0 0 0 0 0 0 0 0 0 127 0"/>
<feOffset dy="4"/>
<feGaussianBlur stdDeviation="5"/>
<feColorMatrix type="matrix" values="0 0 0 0 0.137255 0 0 0 0 0.160784 0 0 0 0 0.239216 0 0 0 1 0"/>
<feBlend mode="normal" in2="BackgroundImageFix" result="effect1_dropShadow"/>
<feBlend mode="normal" in="SourceGraphic" in2="effect1_dropShadow" result="shape"/>
</filter>
<filter id="filter9_d" x="707" y="386.81" width="62.2" height="44.06" filterUnits="userSpaceOnUse" color-interpolation-filters="sRGB">
<feFlood flood-opacity="0" result="BackgroundImageFix"/>
<feColorMatrix in="SourceAlpha" type="matrix" values="0 0 0 0 0 0 0 0 0 0 0 0 0 0 0 0 0 0 127 0"/>
<feOffset dy="4"/>
<feGaussianBlur stdDeviation="5"/>
<feColorMatrix type="matrix" values="0 0 0 0 0.137255 0 0 0 0 0.160784 0 0 0 0 0.239216 0 0 0 1 0"/>
<feBlend mode="normal" in2="BackgroundImageFix" result="effect1_dropShadow"/>
<feBlend mode="normal" in="SourceGraphic" in2="effect1_dropShadow" result="shape"/>
</filter>
<filter id="filter10_d" x="658" y="358.81" width="62.2" height="44.06" filterUnits="userSpaceOnUse" color-interpolation-filters="sRGB">
<feFlood flood-opacity="0" result="BackgroundImageFix"/>
<feColorMatrix in="SourceAlpha" type="matrix" values="0 0 0 0 0 0 0 0 0 0 0 0 0 0 0 0 0 0 127 0"/>
<feOffset dy="4"/>
<feGaussianBlur stdDeviation="5"/>
<feColorMatrix type="matrix" values="0 0 0 0 0.137255 0 0 0 0 0.160784 0 0 0 0 0.239216 0 0 0 1 0"/>
<feBlend mode="normal" in2="BackgroundImageFix" result="effect1_dropShadow"/>
<feBlend mode="normal" in="SourceGraphic" in2="effect1_dropShadow" result="shape"/>
</filter>
<filter id="filter11_d" x="132" y="444.81" width="62.2" height="44.06" filterUnits="userSpaceOnUse" color-interpolation-filters="sRGB">
<feFlood flood-opacity="0" result="BackgroundImageFix"/>
<feColorMatrix in="SourceAlpha" type="matrix" values="0 0 0 0 0 0 0 0 0 0 0 0 0 0 0 0 0 0 127 0"/>
<feOffset dy="4"/>
<feGaussianBlur stdDeviation="5"/>
<feColorMatrix type="matrix" values="0 0 0 0 0.137255 0 0 0 0 0.160784 0 0 0 0 0.239216 0 0 0 1 0"/>
<feBlend mode="normal" in2="BackgroundImageFix" result="effect1_dropShadow"/>
<feBlend mode="normal" in="SourceGraphic" in2="effect1_dropShadow" result="shape"/>
</filter>
<filter id="filter12_d" x="215" y="455.81" width="62.2" height="44.06" filterUnits="userSpaceOnUse" color-interpolation-filters="sRGB">
<feFlood flood-opacity="0" result="BackgroundImageFix"/>
<feColorMatrix in="SourceAlpha" type="matrix" values="0 0 0 0 0 0 0 0 0 0 0 0 0 0 0 0 0 0 127 0"/>
<feOffset dy="4"/>
<feGaussianBlur stdDeviation="5"/>
<feColorMatrix type="matrix" values="0 0 0 0 0.137255 0 0 0 0 0.160784 0 0 0 0 0.239216 0 0 0 1 0"/>
<feBlend mode="normal" in2="BackgroundImageFix" result="effect1_dropShadow"/>
<feBlend mode="normal" in="SourceGraphic" in2="effect1_dropShadow" result="shape"/>
</filter>
<filter id="filter13_d" x="462.5" y="380.397" width="117.991" height="73.6032" filterUnits="userSpaceOnUse" color-interpolation-filters="sRGB">
<feFlood flood-opacity="0" result="BackgroundImageFix"/>
<feColorMatrix in="SourceAlpha" type="matrix" values="0 0 0 0 0 0 0 0 0 0 0 0 0 0 0 0 0 0 127 0"/>
<feOffset dy="4"/>
<feGaussianBlur stdDeviation="2.5"/>
<feColorMatrix type="matrix" values="0 0 0 0 1 0 0 0 0 0.141176 0 0 0 0 0.45098 0 0 0 0.75 0"/>
<feBlend mode="normal" in2="BackgroundImageFix" result="effect1_dropShadow"/>
<feBlend mode="normal" in="SourceGraphic" in2="effect1_dropShadow" result="shape"/>
</filter>
<filter id="filter14_d" x="431.5" y="360.81" width="62.2" height="44.06" filterUnits="userSpaceOnUse" color-interpolation-filters="sRGB">
<feFlood flood-opacity="0" result="BackgroundImageFix"/>
<feColorMatrix in="SourceAlpha" type="matrix" values="0 0 0 0 0 0 0 0 0 0 0 0 0 0 0 0 0 0 127 0"/>
<feOffset dy="5"/>
<feGaussianBlur stdDeviation="5"/>
<feColorMatrix type="matrix" values="0 0 0 0 1 0 0 0 0 0.141176 0 0 0 0 0.45098 0 0 0 0.5 0"/>
<feBlend mode="normal" in2="BackgroundImageFix" result="effect1_dropShadow"/>
<feBlend mode="normal" in="SourceGraphic" in2="effect1_dropShadow" result="shape"/>
</filter>
<filter id="filter15_d" x="437.5" y="359" width="50.2" height="32.06" filterUnits="userSpaceOnUse" color-interpolation-filters="sRGB">
<feFlood flood-opacity="0" result="BackgroundImageFix"/>
<feColorMatrix in="SourceAlpha" type="matrix" values="0 0 0 0 0 0 0 0 0 0 0 0 0 0 0 0 0 0 127 0"/>
<feOffset dy="4"/>
<feGaussianBlur stdDeviation="2"/>
<feColorMatrix type="matrix" values="0 0 0 0 0 0 0 0 0 0 0 0 0 0 0 0 0 0 0.25 0"/>
<feBlend mode="normal" in2="BackgroundImageFix" result="effect1_dropShadow"/>
<feBlend mode="normal" in="SourceGraphic" in2="effect1_dropShadow" result="shape"/>
</filter>
<filter id="filter16_d" x="453.516" y="240" width="11.9844" height="135.023" filterUnits="userSpaceOnUse" color-interpolation-filters="sRGB">
<feFlood flood-opacity="0" result="BackgroundImageFix"/>
<feColorMatrix in="SourceAlpha" type="matrix" values="0 0 0 0 0 0 0 0 0 0 0 0 0 0 0 0 0 0 127 0"/>
<feOffset dx="-2" dy="2"/>
<feGaussianBlur stdDeviation="2"/>
<feColorMatrix type="matrix" values="0 0 0 0 1 0 0 0 0 0.141176 0 0 0 0 0.45098 0 0 0 0.5 0"/>
<feBlend mode="normal" in2="BackgroundImageFix" result="effect1_dropShadow"/>
<feBlend mode="normal" in="SourceGraphic" in2="effect1_dropShadow" result="shape"/>
</filter>
<filter id="filter17_i" x="429.5" y="178" width="55.205" height="39.69" filterUnits="userSpaceOnUse" color-interpolation-filters="sRGB">
<feFlood flood-opacity="0" result="BackgroundImageFix"/>
<feBlend mode="normal" in="SourceGraphic" in2="BackgroundImageFix" result="shape"/>
<feColorMatrix in="SourceAlpha" type="matrix" values="0 0 0 0 0 0 0 0 0 0 0 0 0 0 0 0 0 0 127 0" result="hardAlpha"/>
<feOffset dy="5"/>
<feGaussianBlur stdDeviation="7.5"/>
<feComposite in2="hardAlpha" operator="arithmetic" k2="-1" k3="1"/>
<feColorMatrix type="matrix" values="0 0 0 0 1 0 0 0 0 0.141176 0 0 0 0 0.45098 0 0 0 1 0"/>
<feBlend mode="normal" in2="shape" result="effect1_innerShadow"/>
</filter>
<filter id="filter18_d" x="419.5" y="174" width="75.205" height="54.69" filterUnits="userSpaceOnUse" color-interpolation-filters="sRGB">
<feFlood flood-opacity="0" result="BackgroundImageFix"/>
<feColorMatrix in="SourceAlpha" type="matrix" values="0 0 0 0 0 0 0 0 0 0 0 0 0 0 0 0 0 0 127 0"/>
<feOffset dy="5"/>
<feGaussianBlur stdDeviation="5"/>
<feColorMatrix type="matrix" values="0 0 0 0 1 0 0 0 0 0.141176 0 0 0 0 0.45098 0 0 0 0.5 0"/>
<feBlend mode="normal" in2="BackgroundImageFix" result="effect1_dropShadow"/>
<feBlend mode="normal" in="SourceGraphic" in2="effect1_dropShadow" result="shape"/>
</filter>
<filter id="filter19_d" x="558" y="357.81" width="62.2" height="44.06" filterUnits="userSpaceOnUse" color-interpolation-filters="sRGB">
<feFlood flood-opacity="0" result="BackgroundImageFix"/>
<feColorMatrix in="SourceAlpha" type="matrix" values="0 0 0 0 0 0 0 0 0 0 0 0 0 0 0 0 0 0 127 0"/>
<feOffset dy="4"/>
<feGaussianBlur stdDeviation="5"/>
<feColorMatrix type="matrix" values="0 0 0 0 1 0 0 0 0 0.141176 0 0 0 0 0.45098 0 0 0 0.5 0"/>
<feBlend mode="normal" in2="BackgroundImageFix" result="effect1_dropShadow"/>
<feBlend mode="normal" in="SourceGraphic" in2="effect1_dropShadow" result="shape"/>
</filter>
<filter id="filter20_d" x="564" y="357" width="50.2" height="32.06" filterUnits="userSpaceOnUse" color-interpolation-filters="sRGB">
<feFlood flood-opacity="0" result="BackgroundImageFix"/>
<feColorMatrix in="SourceAlpha" type="matrix" values="0 0 0 0 0 0 0 0 0 0 0 0 0 0 0 0 0 0 127 0"/>
<feOffset dy="4"/>
<feGaussianBlur stdDeviation="2"/>
<feColorMatrix type="matrix" values="0 0 0 0 0 0 0 0 0 0 0 0 0 0 0 0 0 0 0.25 0"/>
<feBlend mode="normal" in2="BackgroundImageFix" result="effect1_dropShadow"/>
<feBlend mode="normal" in="SourceGraphic" in2="effect1_dropShadow" result="shape"/>
</filter>
<filter id="filter21_d" x="555" y="301.81" width="62.2" height="44.06" filterUnits="userSpaceOnUse" color-interpolation-filters="sRGB">
<feFlood flood-opacity="0" result="BackgroundImageFix"/>
<feColorMatrix in="SourceAlpha" type="matrix" values="0 0 0 0 0 0 0 0 0 0 0 0 0 0 0 0 0 0 127 0"/>
<feOffset dy="4"/>
<feGaussianBlur stdDeviation="5"/>
<feColorMatrix type="matrix" values="0 0 0 0 1 0 0 0 0 0.141176 0 0 0 0 0.45098 0 0 0 0.5 0"/>
<feBlend mode="normal" in2="BackgroundImageFix" result="effect1_dropShadow"/>
<feBlend mode="normal" in="SourceGraphic" in2="effect1_dropShadow" result="shape"/>
</filter>
<filter id="filter22_d" x="561" y="301" width="50.2" height="32.06" filterUnits="userSpaceOnUse" color-interpolation-filters="sRGB">
<feFlood flood-opacity="0" result="BackgroundImageFix"/>
<feColorMatrix in="SourceAlpha" type="matrix" values="0 0 0 0 0 0 0 0 0 0 0 0 0 0 0 0 0 0 127 0"/>
<feOffset dy="4"/>
<feGaussianBlur stdDeviation="2"/>
<feColorMatrix type="matrix" values="0 0 0 0 0 0 0 0 0 0 0 0 0 0 0 0 0 0 0.25 0"/>
<feBlend mode="normal" in2="BackgroundImageFix" result="effect1_dropShadow"/>
<feBlend mode="normal" in="SourceGraphic" in2="effect1_dropShadow" result="shape"/>
</filter>
<filter id="filter23_d" x="573.54" y="408.112" width="58.9206" height="33.7755" filterUnits="userSpaceOnUse" color-interpolation-filters="sRGB">
<feFlood flood-opacity="0" result="BackgroundImageFix"/>
<feColorMatrix in="SourceAlpha" type="matrix" values="0 0 0 0 0 0 0 0 0 0 0 0 0 0 0 0 0 0 127 0"/>
<feOffset dy="1"/>
<feGaussianBlur stdDeviation="1"/>
<feColorMatrix type="matrix" values="0 0 0 0 1 0 0 0 0 0.141176 0 0 0 0 0.45098 0 0 0 1 0"/>
<feBlend mode="normal" in2="BackgroundImageFix" result="effect1_dropShadow"/>
<feBlend mode="normal" in="SourceGraphic" in2="effect1_dropShadow" result="shape"/>
</filter>
<filter id="filter24_d" x="517" y="115" width="75.205" height="54.69" filterUnits="userSpaceOnUse" color-interpolation-filters="sRGB">
<feFlood flood-opacity="0" result="BackgroundImageFix"/>
<feColorMatrix in="SourceAlpha" type="matrix" values="0 0 0 0 0 0 0 0 0 0 0 0 0 0 0 0 0 0 127 0"/>
<feOffset dy="5"/>
<feGaussianBlur stdDeviation="5"/>
<feColorMatrix type="matrix" values="0 0 0 0 0.192157 0 0 0 0 0.227451 0 0 0 0 0.333333 0 0 0 1 0"/>
<feBlend mode="normal" in2="BackgroundImageFix" result="effect1_dropShadow"/>
<feBlend mode="normal" in="SourceGraphic" in2="effect1_dropShadow" result="shape"/>
</filter>
<filter id="filter25_d" x="574" y="80" width="75.205" height="54.69" filterUnits="userSpaceOnUse" color-interpolation-filters="sRGB">
<feFlood flood-opacity="0" result="BackgroundImageFix"/>
<feColorMatrix in="SourceAlpha" type="matrix" values="0 0 0 0 0 0 0 0 0 0 0 0 0 0 0 0 0 0 127 0"/>
<feOffset dy="5"/>
<feGaussianBlur stdDeviation="5"/>
<feColorMatrix type="matrix" values="0 0 0 0 0.192157 0 0 0 0 0.227451 0 0 0 0 0.333333 0 0 0 1 0"/>
<feBlend mode="normal" in2="BackgroundImageFix" result="effect1_dropShadow"/>
<feBlend mode="normal" in="SourceGraphic" in2="effect1_dropShadow" result="shape"/>
</filter>
<filter id="filter26_d" x="650" y="476.81" width="62.2" height="44.06" filterUnits="userSpaceOnUse" color-interpolation-filters="sRGB">
<feFlood flood-opacity="0" result="BackgroundImageFix"/>
<feColorMatrix in="SourceAlpha" type="matrix" values="0 0 0 0 0 0 0 0 0 0 0 0 0 0 0 0 0 0 127 0"/>
<feOffset dy="4"/>
<feGaussianBlur stdDeviation="5"/>
<feColorMatrix type="matrix" values="0 0 0 0 0.137255 0 0 0 0 0.160784 0 0 0 0 0.239216 0 0 0 1 0"/>
<feBlend mode="normal" in2="BackgroundImageFix" result="effect1_dropShadow"/>
<feBlend mode="normal" in="SourceGraphic" in2="effect1_dropShadow" result="shape"/>
</filter>
<filter id="filter27_d" x="599" y="445.81" width="62.2" height="44.06" filterUnits="userSpaceOnUse" color-interpolation-filters="sRGB">
<feFlood flood-opacity="0" result="BackgroundImageFix"/>
<feColorMatrix in="SourceAlpha" type="matrix" values="0 0 0 0 0 0 0 0 0 0 0 0 0 0 0 0 0 0 127 0"/>
<feOffset dy="4"/>
<feGaussianBlur stdDeviation="5"/>
<feColorMatrix type="matrix" values="0 0 0 0 0.137255 0 0 0 0 0.160784 0 0 0 0 0.239216 0 0 0 1 0"/>
<feBlend mode="normal" in2="BackgroundImageFix" result="effect1_dropShadow"/>
<feBlend mode="normal" in="SourceGraphic" in2="effect1_dropShadow" result="shape"/>
</filter>
<filter id="filter28_d" x="654" y="416.81" width="62.2" height="44.06" filterUnits="userSpaceOnUse" color-interpolation-filters="sRGB">
<feFlood flood-opacity="0" result="BackgroundImageFix"/>
<feColorMatrix in="SourceAlpha" type="matrix" values="0 0 0 0 0 0 0 0 0 0 0 0 0 0 0 0 0 0 127 0"/>
<feOffset dy="4"/>
<feGaussianBlur stdDeviation="5"/>
<feColorMatrix type="matrix" values="0 0 0 0 0.137255 0 0 0 0 0.160784 0 0 0 0 0.239216 0 0 0 1 0"/>
<feBlend mode="normal" in2="BackgroundImageFix" result="effect1_dropShadow"/>
<feBlend mode="normal" in="SourceGraphic" in2="effect1_dropShadow" result="shape"/>
</filter>
<filter id="filter29_d" x="612" y="329.81" width="62.2" height="44.06" filterUnits="userSpaceOnUse" color-interpolation-filters="sRGB">
<feFlood flood-opacity="0" result="BackgroundImageFix"/>
<feColorMatrix in="SourceAlpha" type="matrix" values="0 0 0 0 0 0 0 0 0 0 0 0 0 0 0 0 0 0 127 0"/>
<feOffset dy="4"/>
<feGaussianBlur stdDeviation="5"/>
<feColorMatrix type="matrix" values="0 0 0 0 0.137255 0 0 0 0 0.160784 0 0 0 0 0.239216 0 0 0 1 0"/>
<feBlend mode="normal" in2="BackgroundImageFix" result="effect1_dropShadow"/>
<feBlend mode="normal" in="SourceGraphic" in2="effect1_dropShadow" result="shape"/>
</filter>
<filter id="filter30_d" x="547" y="421.81" width="62.2" height="44.06" filterUnits="userSpaceOnUse" color-interpolation-filters="sRGB">
<feFlood flood-opacity="0" result="BackgroundImageFix"/>
<feColorMatrix in="SourceAlpha" type="matrix" values="0 0 0 0 0 0 0 0 0 0 0 0 0 0 0 0 0 0 127 0"/>
<feOffset dy="4"/>
<feGaussianBlur stdDeviation="5"/>
<feColorMatrix type="matrix" values="0 0 0 0 0.192157 0 0 0 0 0.227451 0 0 0 0 0.333333 0 0 0 0.5 0"/>
<feBlend mode="normal" in2="BackgroundImageFix" result="effect1_dropShadow"/>
<feBlend mode="normal" in="SourceGraphic" in2="effect1_dropShadow" result="shape"/>
</filter>
<filter id="filter31_d" x="553" y="421" width="50.2" height="32.06" filterUnits="userSpaceOnUse" color-interpolation-filters="sRGB">
<feFlood flood-opacity="0" result="BackgroundImageFix"/>
<feColorMatrix in="SourceAlpha" type="matrix" values="0 0 0 0 0 0 0 0 0 0 0 0 0 0 0 0 0 0 127 0"/>
<feOffset dy="4"/>
<feGaussianBlur stdDeviation="2"/>
<feColorMatrix type="matrix" values="0 0 0 0 0 0 0 0 0 0 0 0 0 0 0 0 0 0 0.25 0"/>
<feBlend mode="normal" in2="BackgroundImageFix" result="effect1_dropShadow"/>
<feBlend mode="normal" in="SourceGraphic" in2="effect1_dropShadow" result="shape"/>
</filter>
<filter id="filter32_d" x="607.5" y="386.81" width="62.2" height="44.06" filterUnits="userSpaceOnUse" color-interpolation-filters="sRGB">
<feFlood flood-opacity="0" result="BackgroundImageFix"/>
<feColorMatrix in="SourceAlpha" type="matrix" values="0 0 0 0 0 0 0 0 0 0 0 0 0 0 0 0 0 0 127 0"/>
<feOffset dy="4"/>
<feGaussianBlur stdDeviation="5"/>
<feColorMatrix type="matrix" values="0 0 0 0 0.192157 0 0 0 0 0.227451 0 0 0 0 0.333333 0 0 0 0.5 0"/>
<feBlend mode="normal" in2="BackgroundImageFix" result="effect1_dropShadow"/>
<feBlend mode="normal" in="SourceGraphic" in2="effect1_dropShadow" result="shape"/>
</filter>
<filter id="filter33_d" x="613.5" y="386" width="50.2" height="32.06" filterUnits="userSpaceOnUse" color-interpolation-filters="sRGB">
<feFlood flood-opacity="0" result="BackgroundImageFix"/>
<feColorMatrix in="SourceAlpha" type="matrix" values="0 0 0 0 0 0 0 0 0 0 0 0 0 0 0 0 0 0 127 0"/>
<feOffset dy="4"/>
<feGaussianBlur stdDeviation="2"/>
<feColorMatrix type="matrix" values="0 0 0 0 0 0 0 0 0 0 0 0 0 0 0 0 0 0 0.25 0"/>
<feBlend mode="normal" in2="BackgroundImageFix" result="effect1_dropShadow"/>
<feBlend mode="normal" in="SourceGraphic" in2="effect1_dropShadow" result="shape"/>
</filter>
<linearGradient id="paint0_linear" x1="1344.57" y1="518.76" x2="18.0249" y2="528.012" gradientUnits="userSpaceOnUse">
<stop offset="0.432292" stop-color="#313A55"/>
<stop offset="0.953125" stop-color="#DE063A"/>
</linearGradient>
<linearGradient id="paint1_linear" x1="845.5" y1="352.5" x2="919.5" y2="353.5" gradientUnits="userSpaceOnUse">
<stop offset="0.151042" stop-color="#FF2473"/>
<stop offset="0.501325" stop-color="#FF8200"/>
<stop offset="0.859375" stop-color="#FF2473"/>
</linearGradient>
<radialGradient id="paint2_radial" cx="0" cy="0" r="1" gradientUnits="userSpaceOnUse" gradientTransform="translate(881.1 341.03) rotate(90) scale(12.03 22.1104)">
<stop offset="0.786458" stop-color="#23293D"/>
<stop offset="1" stop-color="#313A55"/>
</radialGradient>
<linearGradient id="paint3_linear" x1="804.5" y1="379.5" x2="878.5" y2="380.5" gradientUnits="userSpaceOnUse">
<stop offset="0.151042" stop-color="#FF2473"/>
<stop offset="0.501325" stop-color="#FF8200"/>
<stop offset="0.859375" stop-color="#FF2473"/>
</linearGradient>
<radialGradient id="paint4_radial" cx="0" cy="0" r="1" gradientUnits="userSpaceOnUse" gradientTransform="translate(840.1 368.03) rotate(90) scale(12.03 22.1104)">
<stop offset="0.786458" stop-color="#23293D"/>
<stop offset="1" stop-color="#313A55"/>
</radialGradient>
<linearGradient id="paint5_linear" x1="761.5" y1="405.5" x2="835.5" y2="406.5" gradientUnits="userSpaceOnUse">
<stop offset="0.151042" stop-color="#FF2473"/>
<stop offset="0.501325" stop-color="#FF8200"/>
<stop offset="0.859375" stop-color="#FF2473"/>
</linearGradient>
<radialGradient id="paint6_radial" cx="0" cy="0" r="1" gradientUnits="userSpaceOnUse" gradientTransform="translate(797.1 394.03) rotate(90) scale(12.03 22.1104)">
<stop offset="0.786458" stop-color="#23293D"/>
<stop offset="1" stop-color="#313A55"/>
</radialGradient>
<linearGradient id="paint7_linear" x1="358.159" y1="282.052" x2="893.741" y2="501.463" gradientUnits="userSpaceOnUse">
<stop stop-color="#23293D"/>
<stop offset="0.677083" stop-color="#23293D"/>
<stop offset="0.833333" stop-color="#23293D"/>
</linearGradient>
<linearGradient id="paint8_linear" x1="271.5" y1="391" x2="312.5" y2="391" gradientUnits="userSpaceOnUse">
<stop stop-color="#23293D"/>
<stop offset="0.177006" stop-color="#3B4974"/>
<stop offset="1" stop-color="#23293D"/>
</linearGradient>
<linearGradient id="paint9_linear" x1="272" y1="388" x2="292.105" y2="387.84" gradientUnits="userSpaceOnUse">
<stop stop-color="#23293D"/>
<stop offset="0.114583" stop-color="#313A55"/>
<stop offset="1" stop-color="#23293D"/>
</linearGradient>
<radialGradient id="paint10_radial" cx="0" cy="0" r="1" gradientUnits="userSpaceOnUse" gradientTransform="translate(292.1 381.03) rotate(90) scale(12.03 22.1104)">
<stop offset="0.927083" stop-color="#23293D"/>
<stop offset="1" stop-color="#313A55"/>
</radialGradient>
<linearGradient id="paint11_linear" x1="210.5" y1="427" x2="251.5" y2="427" gradientUnits="userSpaceOnUse">
<stop stop-color="#23293D"/>
<stop offset="0.177006" stop-color="#3B4974"/>
<stop offset="1" stop-color="#23293D"/>
</linearGradient>
<linearGradient id="paint12_linear" x1="211" y1="424" x2="231.105" y2="423.84" gradientUnits="userSpaceOnUse">
<stop stop-color="#23293D"/>
<stop offset="0.114583" stop-color="#313A55"/>
<stop offset="1" stop-color="#23293D"/>
</linearGradient>
<radialGradient id="paint13_radial" cx="0" cy="0" r="1" gradientUnits="userSpaceOnUse" gradientTransform="translate(231.1 417.03) rotate(90) scale(12.03 22.1104)">
<stop offset="0.927083" stop-color="#23293D"/>
<stop offset="1" stop-color="#313A55"/>
</radialGradient>
<linearGradient id="paint14_linear" x1="292.5" y1="438" x2="333.5" y2="438" gradientUnits="userSpaceOnUse">
<stop stop-color="#23293D"/>
<stop offset="0.177006" stop-color="#3B4974"/>
<stop offset="1" stop-color="#23293D"/>
</linearGradient>
<linearGradient id="paint15_linear" x1="293" y1="435" x2="313.105" y2="434.84" gradientUnits="userSpaceOnUse">
<stop stop-color="#23293D"/>
<stop offset="0.114583" stop-color="#313A55"/>
<stop offset="1" stop-color="#23293D"/>
</linearGradient>
<radialGradient id="paint16_radial" cx="0" cy="0" r="1" gradientUnits="userSpaceOnUse" gradientTransform="translate(313.1 428.03) rotate(90) scale(12.03 22.1104)">
<stop offset="0.927083" stop-color="#23293D"/>
<stop offset="1" stop-color="#313A55"/>
</radialGradient>
<linearGradient id="paint17_linear" x1="714.5" y1="468" x2="755.5" y2="468" gradientUnits="userSpaceOnUse">
<stop stop-color="#23293D"/>
<stop offset="0.177006" stop-color="#3B4974"/>
<stop offset="1" stop-color="#23293D"/>
</linearGradient>
<linearGradient id="paint18_linear" x1="715" y1="465" x2="735.105" y2="464.84" gradientUnits="userSpaceOnUse">
<stop stop-color="#23293D"/>
<stop offset="0.114583" stop-color="#313A55"/>
<stop offset="1" stop-color="#23293D"/>
</linearGradient>
<radialGradient id="paint19_radial" cx="0" cy="0" r="1" gradientUnits="userSpaceOnUse" gradientTransform="translate(735.1 458.03) rotate(90) scale(12.03 22.1104)">
<stop offset="0.927083" stop-color="#23293D"/>
<stop offset="1" stop-color="#313A55"/>
</radialGradient>
<linearGradient id="paint20_linear" x1="768.5" y1="435" x2="809.5" y2="435" gradientUnits="userSpaceOnUse">
<stop stop-color="#23293D"/>
<stop offset="0.177006" stop-color="#3B4974"/>
<stop offset="1" stop-color="#23293D"/>
</linearGradient>
<linearGradient id="paint21_linear" x1="769" y1="432" x2="789.105" y2="431.84" gradientUnits="userSpaceOnUse">
<stop stop-color="#23293D"/>
<stop offset="0.114583" stop-color="#313A55"/>
<stop offset="1" stop-color="#23293D"/>
</linearGradient>
<radialGradient id="paint22_radial" cx="0" cy="0" r="1" gradientUnits="userSpaceOnUse" gradientTransform="translate(789.1 425.03) rotate(90) scale(12.03 22.1104)">
<stop offset="0.927083" stop-color="#23293D"/>
<stop offset="1" stop-color="#313A55"/>
</radialGradient>
<linearGradient id="paint23_linear" x1="717.5" y1="408" x2="758.5" y2="408" gradientUnits="userSpaceOnUse">
<stop stop-color="#23293D"/>
<stop offset="0.177006" stop-color="#3B4974"/>
<stop offset="1" stop-color="#23293D"/>
</linearGradient>
<linearGradient id="paint24_linear" x1="718" y1="405" x2="738.105" y2="404.84" gradientUnits="userSpaceOnUse">
<stop stop-color="#23293D"/>
<stop offset="0.114583" stop-color="#313A55"/>
<stop offset="1" stop-color="#23293D"/>
</linearGradient>
<radialGradient id="paint25_radial" cx="0" cy="0" r="1" gradientUnits="userSpaceOnUse" gradientTransform="translate(738.1 398.03) rotate(90) scale(12.03 22.1104)">
<stop offset="0.927083" stop-color="#23293D"/>
<stop offset="1" stop-color="#313A55"/>
</radialGradient>
<linearGradient id="paint26_linear" x1="668.5" y1="380" x2="709.5" y2="380" gradientUnits="userSpaceOnUse">
<stop stop-color="#23293D"/>
<stop offset="0.177006" stop-color="#3B4974"/>
<stop offset="1" stop-color="#23293D"/>
</linearGradient>
<linearGradient id="paint27_linear" x1="669" y1="377" x2="689.105" y2="376.84" gradientUnits="userSpaceOnUse">
<stop stop-color="#23293D"/>
<stop offset="0.114583" stop-color="#313A55"/>
<stop offset="1" stop-color="#23293D"/>
</linearGradient>
<radialGradient id="paint28_radial" cx="0" cy="0" r="1" gradientUnits="userSpaceOnUse" gradientTransform="translate(689.1 370.03) rotate(90) scale(12.03 22.1104)">
<stop offset="0.927083" stop-color="#23293D"/>
<stop offset="1" stop-color="#313A55"/>
</radialGradient>
<linearGradient id="paint29_linear" x1="142.5" y1="466" x2="183.5" y2="466" gradientUnits="userSpaceOnUse">
<stop stop-color="#23293D"/>
<stop offset="0.177006" stop-color="#3B4974"/>
<stop offset="1" stop-color="#23293D"/>
</linearGradient>
<linearGradient id="paint30_linear" x1="143" y1="463" x2="163.105" y2="462.84" gradientUnits="userSpaceOnUse">
<stop stop-color="#23293D"/>
<stop offset="0.114583" stop-color="#313A55"/>
<stop offset="1" stop-color="#23293D"/>
</linearGradient>
<radialGradient id="paint31_radial" cx="0" cy="0" r="1" gradientUnits="userSpaceOnUse" gradientTransform="translate(163.1 456.03) rotate(90) scale(12.03 22.1104)">
<stop offset="0.927083" stop-color="#23293D"/>
<stop offset="1" stop-color="#313A55"/>
</radialGradient>
<linearGradient id="paint32_linear" x1="225.5" y1="477" x2="266.5" y2="477" gradientUnits="userSpaceOnUse">
<stop stop-color="#23293D"/>
<stop offset="0.177006" stop-color="#3B4974"/>
<stop offset="1" stop-color="#23293D"/>
</linearGradient>
<linearGradient id="paint33_linear" x1="226" y1="474" x2="246.105" y2="473.84" gradientUnits="userSpaceOnUse">
<stop stop-color="#23293D"/>
<stop offset="0.114583" stop-color="#313A55"/>
<stop offset="1" stop-color="#23293D"/>
</linearGradient>
<radialGradient id="paint34_radial" cx="0" cy="0" r="1" gradientUnits="userSpaceOnUse" gradientTransform="translate(246.1 467.03) rotate(90) scale(12.03 22.1104)">
<stop offset="0.927083" stop-color="#23293D"/>
<stop offset="1" stop-color="#313A55"/>
</radialGradient>
<linearGradient id="paint35_linear" x1="524.17" y1="406.973" x2="514.051" y2="424.697" gradientUnits="userSpaceOnUse">
<stop offset="0.109375" stop-color="#23293D"/>
<stop offset="0.338542" stop-color="#FF2473"/>
<stop offset="0.401042" stop-color="#FF8200"/>
</linearGradient>
<radialGradient id="paint36_radial" cx="0" cy="0" r="1" gradientUnits="userSpaceOnUse" gradientTransform="translate(462.6 377.84) rotate(90) scale(12.03 21.1)">
<stop offset="0.302083" stop-color="#DE063A"/>
<stop offset="1" stop-color="#FF2473"/>
</radialGradient>
<radialGradient id="paint37_radial" cx="0" cy="0" r="1" gradientUnits="userSpaceOnUse" gradientTransform="translate(462.6 371.03) rotate(90) scale(12.03 22.1104)">
<stop offset="0.244792" stop-color="#FF2473"/>
<stop offset="0.244892" stop-color="#23293D"/>
</radialGradient>
<linearGradient id="paint38_linear" x1="438.009" y1="305.694" x2="479.008" y2="305.376" gradientUnits="userSpaceOnUse">
<stop offset="0.463542" stop-color="#DE063A"/>
<stop offset="0.5625" stop-color="#FF4B8C"/>
<stop offset="0.677083" stop-color="#23293D"/>
</linearGradient>
<radialGradient id="paint39_radial" cx="0" cy="0" r="1" gradientUnits="userSpaceOnUse" gradientTransform="translate(455.25 195.5) rotate(89.1815) scale(17.5018 27.852)">
<stop stop-color="#DE063A"/>
<stop offset="1" stop-color="#FF3F84"/>
</radialGradient>
<radialGradient id="paint40_radial" cx="0" cy="0" r="1" gradientUnits="userSpaceOnUse" gradientTransform="translate(455.25 196.5) rotate(89.1815) scale(17.5018 27.852)">
<stop stop-color="#DE063A"/>
<stop offset="1" stop-color="#FF639B"/>
</radialGradient>
<radialGradient id="paint41_diamond" cx="0" cy="0" r="1" gradientUnits="userSpaceOnUse" gradientTransform="translate(457.5 188) rotate(79.5085) scale(27.4591 39.2893)">
<stop stop-color="#FF2473"/>
<stop offset="0.15625" stop-color="#23293D"/>
<stop offset="1" stop-color="#313A55"/>
</radialGradient>
<radialGradient id="paint42_radial" cx="0" cy="0" r="1" gradientUnits="userSpaceOnUse" gradientTransform="translate(457.103 190.345) rotate(90) scale(17.345 27.6025)">
<stop offset="0.901042" stop-color="#DE063A"/>
<stop offset="1" stop-color="#FF2473"/>
</radialGradient>
<linearGradient id="paint43_linear" x1="434.511" y1="149.993" x2="475.511" y2="150.004" gradientUnits="userSpaceOnUse">
<stop offset="0.463542" stop-color="#DE063A"/>
<stop offset="0.5625" stop-color="#FF4B8C"/>
<stop offset="0.677083" stop-color="#23293D"/>
</linearGradient>
<linearGradient id="paint44_linear" x1="456.311" y1="62.0684" x2="421.8" y2="157.31" gradientUnits="userSpaceOnUse">
<stop stop-color="#DE063A"/>
<stop offset="0.869792" stop-color="#FF5B96"/>
</linearGradient>
<linearGradient id="paint45_linear" x1="520.5" y1="69.9999" x2="402" y2="140.5" gradientUnits="userSpaceOnUse">
<stop stop-color="#DE063A"/>
<stop offset="1" stop-color="#FF2473"/>
</linearGradient>
<radialGradient id="paint46_radial" cx="0" cy="0" r="1" gradientUnits="userSpaceOnUse" gradientTransform="translate(589.1 375.84) rotate(90) scale(12.03 21.1)">
<stop offset="0.302083" stop-color="#DE063A"/>
<stop offset="1" stop-color="#FF2473"/>
</radialGradient>
<radialGradient id="paint47_radial" cx="0" cy="0" r="1" gradientUnits="userSpaceOnUse" gradientTransform="translate(589.1 369.03) rotate(90) scale(12.03 22.1104)">
<stop offset="0.84375" stop-color="#23293D"/>
<stop offset="1" stop-color="#FF2473"/>
</radialGradient>
<radialGradient id="paint48_radial" cx="0" cy="0" r="1" gradientUnits="userSpaceOnUse" gradientTransform="translate(586.1 319.84) rotate(90) scale(12.03 21.1)">
<stop offset="0.302083" stop-color="#DE063A"/>
<stop offset="1" stop-color="#FF2473"/>
</radialGradient>
<radialGradient id="paint49_radial" cx="0" cy="0" r="1" gradientUnits="userSpaceOnUse" gradientTransform="translate(586.1 313.03) rotate(90) scale(12.03 22.1104)">
<stop offset="0.84375" stop-color="#23293D"/>
<stop offset="1" stop-color="#FF2473"/>
</radialGradient>
<linearGradient id="paint50_linear" x1="453.311" y1="12.0684" x2="418.15" y2="108.085" gradientUnits="userSpaceOnUse">
<stop stop-color="#FF2473"/>
<stop offset="0.869792" stop-color="#FF8200"/>
</linearGradient>
<linearGradient id="paint51_linear" x1="512" y1="24" x2="394.5" y2="91.5" gradientUnits="userSpaceOnUse">
<stop stop-color="#FF2473"/>
<stop offset="1" stop-color="#FF8200"/>
</linearGradient>
<linearGradient id="paint52_linear" x1="565.311" y1="0.0698228" x2="528.679" y2="97.7983" gradientUnits="userSpaceOnUse">
<stop stop-color="#313A55"/>
<stop offset="0.869792" stop-color="#343E5B"/>
</linearGradient>
<linearGradient id="paint53_linear" x1="600.748" y1="424.417" x2="597.893" y2="418.84" gradientUnits="userSpaceOnUse">
<stop stop-color="#FF2473"/>
<stop offset="0.0001" stop-color="#FF8200"/>
<stop offset="0.411458" stop-color="#23293D" stop-opacity="0.79"/>
</linearGradient>
<linearGradient id="paint54_linear" x1="645.5" y1="499.5" x2="719.5" y2="500.5" gradientUnits="userSpaceOnUse">
<stop offset="0.151042" stop-color="#FF2473"/>
<stop offset="0.501325" stop-color="#FF8200"/>
<stop offset="0.859375" stop-color="#FF2473"/>
</linearGradient>
<radialGradient id="paint55_radial" cx="0" cy="0" r="1" gradientUnits="userSpaceOnUse" gradientTransform="translate(681.1 488.03) rotate(90) scale(12.03 22.1104)">
<stop offset="0.786458" stop-color="#23293D"/>
<stop offset="1" stop-color="#313A55"/>
</radialGradient>
<linearGradient id="paint56_linear" x1="594.5" y1="468.5" x2="668.5" y2="469.5" gradientUnits="userSpaceOnUse">
<stop offset="0.151042" stop-color="#FF2473"/>
<stop offset="0.501325" stop-color="#FF8200"/>
<stop offset="0.859375" stop-color="#FF2473"/>
</linearGradient>
<radialGradient id="paint57_radial" cx="0" cy="0" r="1" gradientUnits="userSpaceOnUse" gradientTransform="translate(630.1 457.03) rotate(90) scale(12.03 22.1104)">
<stop offset="0.786458" stop-color="#23293D"/>
<stop offset="1" stop-color="#313A55"/>
</radialGradient>
<linearGradient id="paint58_linear" x1="649.5" y1="439.5" x2="723.5" y2="440.5" gradientUnits="userSpaceOnUse">
<stop offset="0.151042" stop-color="#FF2473"/>
<stop offset="0.501325" stop-color="#FF8200"/>
<stop offset="0.859375" stop-color="#FF2473"/>
</linearGradient>
<radialGradient id="paint59_radial" cx="0" cy="0" r="1" gradientUnits="userSpaceOnUse" gradientTransform="translate(685.1 428.03) rotate(90) scale(12.03 22.1104)">
<stop offset="0.786458" stop-color="#23293D"/>
<stop offset="1" stop-color="#313A55"/>
</radialGradient>
<linearGradient id="paint60_linear" x1="607.5" y1="352.5" x2="681.5" y2="353.5" gradientUnits="userSpaceOnUse">
<stop offset="0.151042" stop-color="#FF2473"/>
<stop offset="0.501325" stop-color="#FF8200"/>
<stop offset="0.859375" stop-color="#FF2473"/>
</linearGradient>
<radialGradient id="paint61_radial" cx="0" cy="0" r="1" gradientUnits="userSpaceOnUse" gradientTransform="translate(643.1 341.03) rotate(90) scale(12.03 22.1104)">
<stop offset="0.786458" stop-color="#23293D"/>
<stop offset="1" stop-color="#313A55"/>
</radialGradient>
<radialGradient id="paint62_radial" cx="0" cy="0" r="1" gradientUnits="userSpaceOnUse" gradientTransform="translate(578 436.5) rotate(89.6272) scale(15.3703 29.2412)">
<stop offset="0.5625" stop-color="#FF2473"/>
<stop offset="1" stop-color="#FF8200"/>
</radialGradient>
<linearGradient id="paint63_linear" x1="553.5" y1="436" x2="597" y2="436" gradientUnits="userSpaceOnUse">
<stop stop-color="#FF2473"/>
<stop offset="0.661458" stop-color="#FF8200"/>
<stop offset="1" stop-color="#FF2473"/>
</linearGradient>
<radialGradient id="paint64_radial" cx="0" cy="0" r="1" gradientUnits="userSpaceOnUse" gradientTransform="translate(578.1 433.03) rotate(90) scale(12.03 22.5331)">
<stop offset="0.822917" stop-color="#23293D"/>
<stop offset="0.901042" stop-color="#313A55"/>
</radialGradient>
<radialGradient id="paint65_radial" cx="0" cy="0" r="1" gradientUnits="userSpaceOnUse" gradientTransform="translate(638.5 401.5) rotate(89.6272) scale(15.3703 29.2412)">
<stop offset="0.5625" stop-color="#FF2473"/>
<stop offset="1" stop-color="#FF8200"/>
</radialGradient>
<linearGradient id="paint66_linear" x1="614" y1="401" x2="657.5" y2="401" gradientUnits="userSpaceOnUse">
<stop stop-color="#FF2473"/>
<stop offset="0.661458" stop-color="#FF8200"/>
<stop offset="1" stop-color="#FF2473"/>
</linearGradient>
<radialGradient id="paint67_radial" cx="0" cy="0" r="1" gradientUnits="userSpaceOnUse" gradientTransform="translate(638.6 398.03) rotate(90) scale(12.03 22.5331)">
<stop offset="0.822917" stop-color="#23293D"/>
<stop offset="0.901042" stop-color="#313A55"/>
</radialGradient>
</defs>
</svg>
