<svg id="Ebene_1" data-name="Ebene 1" xmlns="http://www.w3.org/2000/svg" viewBox="0 0 841.89 841.89"><defs><style>.cls-1{fill:#f2f2f2;}.cls-2{fill:none;stroke:#f2f2f2;stroke-linecap:square;stroke-miterlimit:10;stroke-width:2px;}</style></defs><title>1</title><circle class="cls-1" cx="424.02" cy="256.58" r="7.98"/><circle class="cls-1" cx="240.96" cy="493.26" r="7.98"/><circle class="cls-1" cx="543.91" cy="393.66" r="7.98"/><circle class="cls-1" cx="206.41" cy="169.67" r="3.86"/><circle class="cls-1" cx="642.69" cy="102.98" r="3.86"/><circle class="cls-1" cx="86.06" cy="689.09" r="3.86"/><circle class="cls-1" cx="151.39" cy="291.25" r="3.86"/><circle class="cls-1" cx="416.68" cy="628.7" r="3.86"/><circle class="cls-1" cx="624.01" cy="301.02" r="3.86"/><circle class="cls-1" cx="382.21" cy="66.77" r="3.86"/><circle class="cls-1" cx="667.91" cy="593" r="3.86"/><circle class="cls-1" cx="526.64" cy="748.35" r="3.86"/><circle class="cls-1" cx="284.1" cy="785.1" r="3.86"/><circle class="cls-1" cx="580.33" cy="75.22" r="7.98"/><circle class="cls-1" cx="765.77" cy="174.34" r="7.98"/><circle class="cls-1" cx="138.15" cy="130.08" r="7.98"/><circle class="cls-1" cx="401.45" cy="680.92" r="7.98"/><path class="cls-2" d="M-.47,454C131.92,267.56,332.71,128.41,727.85,93.45c37.36-3.3,75.55-5.82,114-7.67"/><path class="cls-2" d="M187.53-.27c1.58,111.5,35.86,541.06,453.71,842.94"/><path class="cls-2" d="M823.64,843.12c-129-68.4-404.15-179.23-636.11-.23"/><path class="cls-2" d="M380.85,842.67c3.76-391.62,328.82-628.91,461-725.52"/><path class="cls-2" d="M842.73,325.83q-48.26-4.15-99.88-9.38C320,273.55,119.51,133.07-.47,23.06"/><path class="cls-2" d="M585.36,0c.37,93.1-27.94,525.22-585.83,528.44"/><path class="cls-2" d="M384.24,0C355.05,378,628.42,466.75,842.73,487.63"/><path class="cls-2" d="M842.73,452.85C742.7,587.57,441.54,752.51-.47,677.14"/><path class="cls-2" d="M-.47,112.84c138.68,114.63,298.22,358.38,283.7,729.75"/><path class="cls-2" d="M316.46-.61c121.21,22.26,280.82,67,422.39,157,33.37,21.21,68.93,48,103.88,76.69"/><path class="cls-2" d="M842.73,291.3C747,380.25,607.82,605.91,658.85,843.12"/><path class="cls-2" d="M842.73,665c-11.25,59-32.37,130.3-71.82,178.1"/><path class="cls-2" d="M-.47,138.7c79.68.48,321.81-9.56,504.09-139"/><path class="cls-2" d="M-.47,480C29.26,596.81,90.65,735.15,216.36,842.9"/></svg>