<svg width="445" height="408" viewBox="0 0 445 408" fill="none" xmlns="http://www.w3.org/2000/svg">
<g clip-path="url(#clip0)">
<path d="M367.55 336.31C354.34 341.38 340.38 344.48 327.43 350.17C306.29 359.51 288.76 375.38 268.76 386.95C260.133 391.955 251.015 396.064 241.55 399.21C232.201 402.319 222.572 404.516 212.8 405.77C199.825 407.447 186.711 407.766 173.67 406.72C161.109 405.754 148.638 403.852 136.36 401.03C117.868 396.765 99.7155 391.143 82.05 384.21C27.23 363.09 -8.56 253.63 15.33 201.88C25.85 179.06 46.43 162.69 61.26 142.41C88.76 104.77 97.03 53.08 133.12 23.55C156.5 4.43002 188.33 -1.88998 218.42 0.470021C248.51 2.83002 277.36 13.17 305.42 24.33C318.96 29.7 332.68 35.45 343.63 45.09C362.93 62.03 370.74 88.09 382.94 110.7C402.89 147.7 436.63 178.77 443.13 220.22C450.82 269.56 414.14 318.38 367.55 336.31Z" fill="url(#paint0_linear)"/>
<path d="M280.21 277.56H134.26V333.93H280.21V277.56Z" fill="#313A55"/>
<path d="M280.21 277.56H134.26V333.93H280.21V277.56Z" fill="url(#paint1_linear)"/>
<path d="M280.21 274.06H134.26V330.43H280.21V274.06Z" fill="#313A55"/>
<path d="M149.6 283.43H139.98V291.74H149.6V283.43Z" fill="#23293D"/>
<path d="M149.6 293.27H139.98V301.58H149.6V293.27Z" fill="#23293D"/>
<path d="M149.6 303.11H139.98V311.42H149.6V303.11Z" fill="#23293D"/>
<path d="M149.6 312.96H139.98V321.27H149.6V312.96Z" fill="#23293D"/>
<path d="M162.28 283.43H152.66V291.74H162.28V283.43Z" fill="#23293D"/>
<path d="M162.28 293.27H152.66V301.58H162.28V293.27Z" fill="#23293D"/>
<path d="M162.28 303.11H152.66V311.42H162.28V303.11Z" fill="#23293D"/>
<path d="M162.28 312.96H152.66V321.27H162.28V312.96Z" fill="#23293D"/>
<path d="M174.97 283.43H165.35V291.74H174.97V283.43Z" fill="#23293D"/>
<path d="M174.97 293.27H165.35V301.58H174.97V293.27Z" fill="#23293D"/>
<path d="M174.97 303.11H165.35V311.42H174.97V303.11Z" fill="#23293D"/>
<path d="M174.97 312.96H165.35V321.27H174.97V312.96Z" fill="#23293D"/>
<path d="M187.65 283.43H178.03V291.74H187.65V283.43Z" fill="#23293D"/>
<path d="M187.65 293.27H178.03V301.58H187.65V293.27Z" fill="#23293D"/>
<path d="M187.65 303.11H178.03V311.42H187.65V303.11Z" fill="#23293D"/>
<path d="M200.34 283.43H190.72V291.74H200.34V283.43Z" fill="#23293D"/>
<path d="M200.34 293.27H190.72V301.58H200.34V293.27Z" fill="#23293D"/>
<path d="M200.34 303.11H190.72V311.42H200.34V303.11Z" fill="#23293D"/>
<path d="M213.02 283.43H203.4V291.74H213.02V283.43Z" fill="#23293D"/>
<path d="M213.02 293.27H203.4V301.58H213.02V293.27Z" fill="#23293D"/>
<path d="M213.02 303.11H203.4V311.42H213.02V303.11Z" fill="#23293D"/>
<path d="M225.71 283.43H216.09V291.74H225.71V283.43Z" fill="#23293D"/>
<path d="M225.71 293.27H216.09V301.58H225.71V293.27Z" fill="#23293D"/>
<path d="M225.71 303.11H216.09V311.42H225.71V303.11Z" fill="#23293D"/>
<path d="M238.39 283.43H228.77V291.74H238.39V283.43Z" fill="#23293D"/>
<path d="M238.39 293.27H228.77V301.58H238.39V293.27Z" fill="#23293D"/>
<path d="M238.39 303.11H228.77V311.42H238.39V303.11Z" fill="#23293D"/>
<path d="M251.07 283.43H241.45V291.74H251.07V283.43Z" fill="#23293D"/>
<path d="M251.07 293.27H241.45V301.58H251.07V293.27Z" fill="#23293D"/>
<path d="M251.07 303.11H241.45V311.42H251.07V303.11Z" fill="#23293D"/>
<path d="M251.07 312.96H241.45V321.27H251.07V312.96Z" fill="#23293D"/>
<path d="M263.76 283.43H254.14V291.74H263.76V283.43Z" fill="#23293D"/>
<path d="M263.76 293.27H254.14V301.58H263.76V293.27Z" fill="#23293D"/>
<path d="M263.76 303.11H254.14V311.42H263.76V303.11Z" fill="#23293D"/>
<path d="M263.76 312.96H254.14V321.27H263.76V312.96Z" fill="#23293D"/>
<path d="M276.44 283.43H266.82V291.74H276.44V283.43Z" fill="#23293D"/>
<path d="M276.44 293.27H266.82V301.58H276.44V293.27Z" fill="#23293D"/>
<path d="M276.44 303.11H266.82V311.42H276.44V303.11Z" fill="#23293D"/>
<path d="M276.44 312.96H266.82V321.27H276.44V312.96Z" fill="#23293D"/>
<path d="M238.67 313.5H163.45V321.65H238.67V313.5Z" fill="url(#paint2_linear)"/>
<path d="M155.16 312.95C155.42 311.84 156.16 310.45 157.28 310.81C157.87 311 158.16 311.65 158.38 312.23C158.99 313.82 161.38 316 161.96 317.6C162.07 313.6 162.22 303.48 164.62 297.69C164.746 297.389 164.968 297.137 165.251 296.974C165.534 296.812 165.862 296.746 166.186 296.788C166.51 296.83 166.811 296.977 167.043 297.207C167.275 297.437 167.425 297.737 167.47 298.06C168.4 304.64 169.01 315.29 169.39 313.11C169.88 310.36 171.39 288.29 175.52 290.81C176.82 294.73 175.9 309.9 175.41 314C176.51 308.57 178.58 287.09 182.74 289.38C185.37 296.24 179.92 313.79 182.42 320.7C182.88 321.97 183.87 323.33 185.23 323.23C186.59 323.13 187.3 321.69 187.38 320.4C187.46 319.11 187.1 317.82 187.2 316.53C187.2 316.179 187.293 315.835 187.468 315.531C187.644 315.227 187.896 314.975 188.2 314.8C189.4 314.28 190.42 315.8 190.76 317.09C192.382 323.138 192.278 329.518 190.46 335.51C188.56 341.76 184.87 347.29 181.24 352.72C180.769 353.524 180.152 354.233 179.42 354.81C179.034 355.066 178.613 355.265 178.17 355.4C175.048 356.434 171.766 356.902 168.48 356.78C154.31 356 155.6 346.87 154.48 339.06C153.035 330.393 153.265 321.53 155.16 312.95V312.95Z" fill="url(#paint3_linear)"/>
<path d="M155.35 357.53C155.927 356.215 156.956 355.151 158.25 354.53C159.012 354.288 159.811 354.179 160.61 354.21C167.199 354.08 173.784 354.63 180.26 355.85C180.885 355.898 181.472 356.171 181.91 356.62C182.135 356.974 182.263 357.381 182.28 357.8C182.681 361.028 182.339 364.304 181.28 367.38C181.173 367.845 180.904 368.256 180.52 368.54C180.101 368.721 179.635 368.763 179.19 368.66C172.517 367.904 165.806 367.536 159.09 367.56C152.33 367.53 152.42 362.89 155.35 357.53Z" fill="white"/>
<path d="M180.6 406.7C167.524 405.692 154.541 403.71 141.76 400.77C141.37 399.491 141.284 398.138 141.51 396.82C143.11 386.899 146.498 377.35 151.51 368.64C151.936 367.717 152.634 366.946 153.51 366.43C154.197 366.136 154.944 366.009 155.69 366.06C163.913 365.869 172.134 366.502 180.23 367.95C180.829 367.978 181.416 368.125 181.958 368.38C182.501 368.636 182.987 368.996 183.39 369.44C183.823 370.192 184.028 371.054 183.98 371.92C184.433 383.613 183.296 395.313 180.6 406.7V406.7Z" fill="#313A55"/>
<path d="M209.96 353.72C209.42 352.72 209.01 351.31 209.96 350.72C210.429 350.469 210.977 350.408 211.49 350.55C213.354 350.854 215.124 351.575 216.67 352.66C219.06 354.33 221.67 357 224.35 355.8C226.67 354.75 226.87 351.59 226.72 349.04C226.213 340.507 225.7 331.97 225.18 323.43C225.18 322.58 225.18 321.54 225.92 321.13C227.05 320.52 228.15 321.97 228.62 323.13L234.74 338.63C235.91 334.9 234.55 322.09 235.12 316.4C235.155 316.033 235.312 315.688 235.566 315.419C235.819 315.151 236.155 314.975 236.52 314.919C236.884 314.863 237.257 314.929 237.58 315.109C237.902 315.288 238.156 315.57 238.3 315.91C240.15 320.36 242.16 331.91 242.51 334.65C243.51 342.81 244.02 335.65 244.32 334.28C245.04 330.88 244.1 319.28 246.15 318.39C249.15 318.61 250.15 322.51 250.22 325.53C250.29 328.55 248.71 340.25 251.65 340.95C252.95 337.69 252.85 331.76 254.6 331.54C257.34 332.8 254.92 345.27 254.05 348.16C251.45 356.82 253.12 355.68 250.53 364.33C250.027 366.504 249.073 368.548 247.73 370.33C246.025 372.061 243.853 373.259 241.48 373.78C227.04 377.8 216.21 365.04 209.96 353.72Z" fill="url(#paint4_linear)"/>
<path d="M227.35 385.53C227.348 385.907 227.426 386.281 227.58 386.626C227.733 386.971 227.958 387.279 228.24 387.53C228.586 387.717 228.968 387.826 229.36 387.85C235.25 388.557 241.22 388.112 246.94 386.54C247.551 386.429 248.12 386.156 248.59 385.75C249.031 385.236 249.297 384.595 249.35 383.92C249.91 380.05 248.19 376.26 246.51 372.73C246.415 372.475 246.248 372.253 246.03 372.09C245.753 371.978 245.448 371.961 245.16 372.04C242.36 372.5 239.543 372.833 236.71 373.04C234.65 373.18 231.27 372.52 229.36 373.31C225.62 374.86 226.98 382.14 227.35 385.53Z" fill="white"/>
<path d="M253.65 398.14C243.893 401.378 233.846 403.668 223.65 404.98C223.78 400.98 223.9 396.84 224.24 392.83C224.52 389.41 227.91 382.67 232.07 382.67C236.24 380.87 240.93 380.74 245.46 380.62C247.05 380.62 248.82 380.62 250.03 381.67C251.24 382.72 251.46 384.22 251.71 385.67C252.43 389.78 253.15 393.95 253.65 398.14Z" fill="#313A55"/>
<path d="M318.29 245.82H76.85L11.53 109.64H399.94L318.29 245.82Z" fill="#23293D"/>
<path opacity="0.27" d="M131.07 231.95H36.16C30.64 231.95 24.73 228.87 22.95 225.06L6.63 190.12C4.86 186.31 7.89 183.23 13.4 183.23H108.32C113.83 183.23 119.74 186.31 121.52 190.12L137.84 225.03C139.62 228.84 136.59 231.95 131.07 231.95Z" fill="white"/>
<path d="M124.95 240.67H30.03C24.52 240.67 18.6 237.59 16.83 233.78L0.510019 198.87C-1.23998 195.06 1.76002 191.95 7.28002 191.95H102.19C107.71 191.95 113.62 195.04 115.4 198.85L131.76 233.78C133.49 237.59 130.46 240.67 124.95 240.67Z" fill="white"/>
<path opacity="0.27" d="M300.56 201.2H395.48C401 201.2 406.91 198.11 408.69 194.31L425 159.39C426.78 155.59 423.75 152.5 418.24 152.5H323.32C317.81 152.5 311.89 155.59 310.11 159.39L293.76 194.31C292.02 198.11 295.05 201.2 300.56 201.2Z" fill="white"/>
<path d="M300.56 213.45H395.48C401 213.45 406.91 210.36 408.69 206.55L425 171.64C426.78 167.84 423.75 164.75 418.24 164.75H323.32C317.81 164.75 311.89 167.84 310.11 171.64L293.76 206.55C292.02 210.36 295.05 213.45 300.56 213.45Z" fill="white"/>
<path d="M102.88 135.55H174.1L174.9 140.66H105.23L102.88 135.55Z" fill="url(#paint5_linear)"/>
<path d="M107.34 145.24H149.01L150.23 149.66H109.37L107.34 145.24Z" fill="url(#paint6_linear)"/>
<path d="M165.82 145.24H296.96L295.25 149.68H166.71L165.82 145.24Z" fill="url(#paint7_linear)"/>
<path d="M132.26 154.18H187.28L187.74 158.47H133.82L132.26 154.18Z" fill="url(#paint8_linear)"/>
<path d="M152.24 162.41H215.29L215.19 166.43H153.37L152.24 162.41Z" fill="url(#paint9_linear)"/>
<path d="M219.4 162.41H272.24L270.92 166.86H219.21L219.4 162.41Z" fill="url(#paint10_linear)"/>
<path d="M154.3 170.04H201.19L201.36 173.55H155.29L154.3 170.04Z" fill="url(#paint11_linear)"/>
<path d="M205.69 170.04H302.45L300.66 173.91H205.79L205.69 170.04Z" fill="url(#paint12_linear)"/>
<path d="M123.12 179.51H180.96L181.49 182.89H124.68L123.12 179.51Z" fill="url(#paint13_linear)"/>
<path d="M126.09 185.95H160.19L161.01 188.92H127.45L126.09 185.95Z" fill="url(#paint14_linear)"/>
<path d="M173.95 185.95H281.28L280.13 188.94H174.55L173.95 185.95Z" fill="url(#paint15_linear)"/>
<path d="M146.01 191.97H191.37L191.69 194.9H147.07L146.01 191.97Z" fill="url(#paint16_linear)"/>
<path d="M162.16 197.62H214.49L214.43 200.39H162.95L162.16 197.62Z" fill="url(#paint17_linear)"/>
<path d="M217.9 197.62H261.76L260.85 200.69H217.77L217.9 197.62Z" fill="url(#paint18_linear)"/>
<path d="M163.58 202.9H202.74L202.86 205.36H164.27L163.58 202.9Z" fill="url(#paint19_linear)"/>
<path d="M206.5 202.9H287.31L286.06 205.61H206.57L206.5 202.9Z" fill="url(#paint20_linear)"/>
<path d="M136.96 209.56H185.65L186.02 211.97H138.07L136.96 209.56Z" fill="url(#paint21_linear)"/>
<path d="M139.07 214.15H167.94L168.53 216.28H140.06L139.07 214.15Z" fill="url(#paint22_linear)"/>
<path d="M179.58 214.15H270.42L269.59 216.29H180.01L179.58 214.15Z" fill="url(#paint23_linear)"/>
<path d="M155.66 218.48H194.24L194.47 220.61H156.43L155.66 218.48Z" fill="url(#paint24_linear)"/>
<path d="M169.2 222.58H213.93L213.88 224.61H169.77L169.2 222.58Z" fill="url(#paint25_linear)"/>
<path d="M216.84 222.58H254.33L253.66 224.83H216.75L216.84 222.58Z" fill="url(#paint26_linear)"/>
<path d="M170.23 226.47H203.85L203.94 228.28H170.74L170.23 226.47Z" fill="url(#paint27_linear)"/>
<path d="M207.08 226.47H276.46L275.54 228.47H207.13L207.08 226.47Z" fill="url(#paint28_linear)"/>
<g opacity="0.52">
<path opacity="0.52" d="M9.19 201.37H45.75L46.16 203.31H10.4L9.19 201.37Z" fill="#313A55"/>
<path opacity="0.52" d="M11.48 205.05H32.87L33.5 206.73H12.53L11.48 205.05Z" fill="#313A55"/>
<path opacity="0.52" d="M41.5 205.05H108.83L107.95 206.74H41.96L41.5 205.05Z" fill="#313A55"/>
<path opacity="0.52" d="M24.27 208.45H52.52L52.76 210.08H25.07L24.27 208.45Z" fill="#313A55"/>
<path opacity="0.52" d="M34.53 211.58H66.9L66.85 213.1H35.11L34.53 211.58Z" fill="#313A55"/>
<path opacity="0.52" d="M69.01 211.58H96.14L95.46 213.27H68.91L69.01 211.58Z" fill="#313A55"/>
<path opacity="0.52" d="M35.59 214.48H59.66L59.75 215.81H36.1L35.59 214.48Z" fill="#313A55"/>
<path opacity="0.52" d="M61.97 214.48H111.64L110.73 215.95H62.02L61.97 214.48Z" fill="#313A55"/>
<path opacity="0.52" d="M19.58 218.08H49.27L49.55 219.37H20.38L19.58 218.08Z" fill="#313A55"/>
<path opacity="0.52" d="M21.1 220.53H38.61L39.03 221.66H21.81L21.1 220.53Z" fill="#313A55"/>
<path opacity="0.52" d="M45.68 220.53H100.78L100.19 221.66H45.98L45.68 220.53Z" fill="#313A55"/>
<path opacity="0.52" d="M31.33 222.81H54.62L54.78 223.93H31.88L31.33 222.81Z" fill="#313A55"/>
<path opacity="0.52" d="M39.63 224.96H66.49L66.46 226.01H40.03L39.63 224.96Z" fill="#313A55"/>
<path opacity="0.52" d="M68.24 224.96H90.76L90.29 226.13H68.17L68.24 224.96Z" fill="#313A55"/>
<path opacity="0.52" d="M40.35 226.97H60.46L60.52 227.9H40.71L40.35 226.97Z" fill="#313A55"/>
<path opacity="0.52" d="M62.39 226.97H103.88L103.23 228H62.42L62.39 226.97Z" fill="#313A55"/>
<path opacity="0.52" d="M26.69 229.5H51.68L51.88 230.42H27.25L26.69 229.5Z" fill="#313A55"/>
<path opacity="0.52" d="M27.77 231.25H42.59L42.89 232.06H28.28L27.77 231.25Z" fill="#313A55"/>
<path opacity="0.52" d="M48.57 231.25H95.2L94.78 232.06H48.79L48.57 231.25Z" fill="#313A55"/>
<path opacity="0.52" d="M36.29 232.89H56.09L56.21 233.7H36.68L36.29 232.89Z" fill="#313A55"/>
<path opacity="0.52" d="M43.24 234.45H66.2L66.17 235.22H43.53L43.24 234.45Z" fill="#313A55"/>
<path opacity="0.52" d="M67.7 234.45H86.94L86.6 235.31H67.65L67.7 234.45Z" fill="#313A55"/>
<path opacity="0.52" d="M43.77 235.93H61.03L61.07 236.62H44.03L43.77 235.93Z" fill="#313A55"/>
<path opacity="0.52" d="M62.69 235.93H98.3L97.83 236.69H62.71L62.69 235.93Z" fill="#313A55"/>
</g>
<g opacity="0.52">
<path opacity="0.52" d="M329.91 175.13H359.97L359.14 176.79H329.74L329.91 175.13Z" fill="#313A55"/>
<path opacity="0.52" d="M329.58 178.29H347.17L346.67 179.73H329.43L329.58 178.29Z" fill="#313A55"/>
<path opacity="0.52" d="M354.26 178.29H409.6L407.86 179.74H353.62L354.26 178.29Z" fill="#313A55"/>
<path opacity="0.52" d="M338.05 181.2H361.27L360.48 182.6H337.73L338.05 181.2Z" fill="#313A55"/>
<path opacity="0.52" d="M344.6 183.88H371.21L370.25 185.19H344.16L344.6 183.88Z" fill="#313A55"/>
<path opacity="0.52" d="M372.94 183.88H395.24L393.67 185.33H371.85L372.94 183.88Z" fill="#313A55"/>
<path opacity="0.52" d="M343.73 186.37H363.51L362.78 187.51H343.34L343.73 186.37Z" fill="#313A55"/>
<path opacity="0.52" d="M365.41 186.37H406.25L404.61 187.63H364.57L365.41 186.37Z" fill="#313A55"/>
<path opacity="0.52" d="M328.4 189.45H352.81L352.26 190.56H328.28L328.4 189.45Z" fill="#313A55"/>
<path opacity="0.52" d="M328.18 191.55H342.57L342.24 192.52H328.08L328.18 191.55Z" fill="#313A55"/>
<path opacity="0.52" d="M348.38 191.55H393.67L392.5 192.52H347.95L348.38 191.55Z" fill="#313A55"/>
<path opacity="0.52" d="M335.21 193.51H354.35L353.82 194.47H334.99L335.21 193.51Z" fill="#313A55"/>
<path opacity="0.52" d="M340.74 195.35H362.82L362.16 196.25H340.43L340.74 195.35Z" fill="#313A55"/>
<path opacity="0.52" d="M364.26 195.35H382.77L381.68 196.35H363.5L364.26 195.35Z" fill="#313A55"/>
<path opacity="0.52" d="M340.12 197.07H356.65L356.14 197.87H339.86L340.12 197.07Z" fill="#313A55"/>
<path opacity="0.52" d="M358.24 197.07H392.34L391.2 197.96H357.65L358.24 197.07Z" fill="#313A55"/>
<path opacity="0.52" d="M327.37 199.24H347.92L347.52 200.03H327.28L327.37 199.24Z" fill="#313A55"/>
<path opacity="0.52" d="M327.21 200.74H339.39L339.15 201.43H327.14L327.21 200.74Z" fill="#313A55"/>
<path opacity="0.52" d="M344.31 200.74H382.64L381.8 201.44H344L344.31 200.74Z" fill="#313A55"/>
<path opacity="0.52" d="M333.22 202.15H349.5L349.11 202.84H333.06L333.22 202.15Z" fill="#313A55"/>
<path opacity="0.52" d="M338 203.49H356.87L356.39 204.15H337.77L338 203.49Z" fill="#313A55"/>
<path opacity="0.52" d="M358.1 203.49H373.92L373.13 204.22H357.55L358.1 203.49Z" fill="#313A55"/>
<path opacity="0.52" d="M337.54 204.75H351.73L351.35 205.34H337.34L337.54 204.75Z" fill="#313A55"/>
<path opacity="0.52" d="M353.09 204.75H382.37L381.53 205.41H352.66L353.09 204.75Z" fill="#313A55"/>
</g>
</g>
<defs>
<linearGradient id="paint0_linear" x1="32.5" y1="83.5" x2="406" y2="331" gradientUnits="userSpaceOnUse">
<stop offset="0.359375" stop-color="#313A55"/>
<stop offset="1" stop-color="#DE063A"/>
</linearGradient>
<linearGradient id="paint1_linear" x1="207.58" y1="316.27" x2="209.76" y2="384.73" gradientUnits="userSpaceOnUse">
<stop stop-color="#010101" stop-opacity="0"/>
<stop offset="0.95" stop-color="#010101"/>
</linearGradient>
<linearGradient id="paint2_linear" x1="15295.5" y1="2752.71" x2="15295" y2="3471.48" gradientUnits="userSpaceOnUse">
<stop stop-color="#010101" stop-opacity="0"/>
<stop offset="0.95" stop-color="#010101"/>
</linearGradient>
<linearGradient id="paint3_linear" x1="153.51" y1="322.96" x2="191.86" y2="322.96" gradientUnits="userSpaceOnUse">
<stop stop-color="#E5C6D6"/>
<stop offset="0.42" stop-color="#EAD4D0"/>
<stop offset="1" stop-color="#F0E9CB"/>
</linearGradient>
<linearGradient id="paint4_linear" x1="14042.6" y1="20936.4" x2="16202" y2="20936.4" gradientUnits="userSpaceOnUse">
<stop stop-color="#E5C6D6"/>
<stop offset="0.42" stop-color="#EAD4D0"/>
<stop offset="1" stop-color="#F0E9CB"/>
</linearGradient>
<linearGradient id="paint5_linear" x1="141.52" y1="-2.69996" x2="137.7" y2="201.71" gradientUnits="userSpaceOnUse">
<stop stop-color="white" stop-opacity="0"/>
<stop offset="0.99" stop-color="white"/>
</linearGradient>
<linearGradient id="paint6_linear" x1="9527.27" y1="2094.72" x2="9525.66" y2="1259.14" gradientUnits="userSpaceOnUse">
<stop stop-color="white" stop-opacity="0"/>
<stop offset="0.99" stop-color="white"/>
</linearGradient>
<linearGradient id="paint7_linear" x1="42421.7" y1="2106.34" x2="42421.2" y2="1252.01" gradientUnits="userSpaceOnUse">
<stop stop-color="white" stop-opacity="0"/>
<stop offset="0.99" stop-color="white"/>
</linearGradient>
<linearGradient id="paint8_linear" x1="14048.9" y1="2003" x2="14047.8" y2="1246.54" gradientUnits="userSpaceOnUse">
<stop stop-color="white" stop-opacity="0"/>
<stop offset="0.99" stop-color="white"/>
</linearGradient>
<linearGradient id="paint9_linear" x1="17462.6" y1="1858.28" x2="17461.8" y2="1193.75" gradientUnits="userSpaceOnUse">
<stop stop-color="white" stop-opacity="0"/>
<stop offset="0.99" stop-color="white"/>
</linearGradient>
<linearGradient id="paint10_linear" x1="18063.8" y1="2033.06" x2="18062.7" y2="1299.89" gradientUnits="userSpaceOnUse">
<stop stop-color="white" stop-opacity="0"/>
<stop offset="0.99" stop-color="white"/>
</linearGradient>
<linearGradient id="paint11_linear" x1="12794.6" y1="1617.95" x2="12793.9" y2="1077.47" gradientUnits="userSpaceOnUse">
<stop stop-color="white" stop-opacity="0"/>
<stop offset="0.99" stop-color="white"/>
</linearGradient>
<linearGradient id="paint12_linear" x1="33572.4" y1="1773.54" x2="33572" y2="1164.03" gradientUnits="userSpaceOnUse">
<stop stop-color="white" stop-opacity="0"/>
<stop offset="0.99" stop-color="white"/>
</linearGradient>
<linearGradient id="paint13_linear" x1="14270.3" y1="1415.1" x2="14269.7" y2="935.856" gradientUnits="userSpaceOnUse">
<stop stop-color="white" stop-opacity="0"/>
<stop offset="0.99" stop-color="white"/>
</linearGradient>
<linearGradient id="paint14_linear" x1="8283.4" y1="1250.64" x2="8282.78" y2="860.748" gradientUnits="userSpaceOnUse">
<stop stop-color="white" stop-opacity="0"/>
<stop offset="0.99" stop-color="white"/>
</linearGradient>
<linearGradient id="paint15_linear" x1="34277" y1="1271.74" x2="34276.8" y2="854.876" gradientUnits="userSpaceOnUse">
<stop stop-color="white" stop-opacity="0"/>
<stop offset="0.99" stop-color="white"/>
</linearGradient>
<linearGradient id="paint16_linear" x1="11973.9" y1="1228.54" x2="11973.5" y2="861.725" gradientUnits="userSpaceOnUse">
<stop stop-color="white" stop-opacity="0"/>
<stop offset="0.99" stop-color="white"/>
</linearGradient>
<linearGradient id="paint17_linear" x1="14731.4" y1="1165.13" x2="14731" y2="834.078" gradientUnits="userSpaceOnUse">
<stop stop-color="white" stop-opacity="0"/>
<stop offset="0.99" stop-color="white"/>
</linearGradient>
<linearGradient id="paint18_linear" x1="14727" y1="1263.96" x2="14726.5" y2="901.508" gradientUnits="userSpaceOnUse">
<stop stop-color="white" stop-opacity="0"/>
<stop offset="0.99" stop-color="white"/>
</linearGradient>
<linearGradient id="paint19_linear" x1="10898.8" y1="1047.3" x2="10898.5" y2="771.976" gradientUnits="userSpaceOnUse">
<stop stop-color="white" stop-opacity="0"/>
<stop offset="0.99" stop-color="white"/>
</linearGradient>
<linearGradient id="paint20_linear" x1="27441.9" y1="1142.76" x2="27441.7" y2="825.603" gradientUnits="userSpaceOnUse">
<stop stop-color="white" stop-opacity="0"/>
<stop offset="0.99" stop-color="white"/>
</linearGradient>
<linearGradient id="paint21_linear" x1="12455.4" y1="958.758" x2="12455.2" y2="705.04" gradientUnits="userSpaceOnUse">
<stop stop-color="white" stop-opacity="0"/>
<stop offset="0.99" stop-color="white"/>
</linearGradient>
<linearGradient id="paint22_linear" x1="7309.04" y1="865.122" x2="7308.76" y2="657.971" gradientUnits="userSpaceOnUse">
<stop stop-color="white" stop-opacity="0"/>
<stop offset="0.99" stop-color="white"/>
</linearGradient>
<linearGradient id="paint23_linear" x1="28766" y1="881.873" x2="28765.9" y2="652.191" gradientUnits="userSpaceOnUse">
<stop stop-color="white" stop-opacity="0"/>
<stop offset="0.99" stop-color="white"/>
</linearGradient>
<linearGradient id="paint24_linear" x1="10428.7" y1="864.979" x2="10428.5" y2="663.963" gradientUnits="userSpaceOnUse">
<stop stop-color="white" stop-opacity="0"/>
<stop offset="0.99" stop-color="white"/>
</linearGradient>
<linearGradient id="paint25_linear" x1="12747.7" y1="834.28" x2="12747.6" y2="648.794" gradientUnits="userSpaceOnUse">
<stop stop-color="white" stop-opacity="0"/>
<stop offset="0.99" stop-color="white"/>
</linearGradient>
<linearGradient id="paint26_linear" x1="12436.3" y1="895.87" x2="12436" y2="694.448" gradientUnits="userSpaceOnUse">
<stop stop-color="white" stop-opacity="0"/>
<stop offset="0.99" stop-color="white"/>
</linearGradient>
<linearGradient id="paint27_linear" x1="9498.8" y1="764.13" x2="9498.65" y2="608.887" gradientUnits="userSpaceOnUse">
<stop stop-color="white" stop-opacity="0"/>
<stop offset="0.99" stop-color="white"/>
</linearGradient>
<linearGradient id="paint28_linear" x1="23205.2" y1="829.15" x2="23205.1" y2="646.206" gradientUnits="userSpaceOnUse">
<stop stop-color="white" stop-opacity="0"/>
<stop offset="0.99" stop-color="white"/>
</linearGradient>
<clipPath id="clip0">
<rect width="444.15" height="407.31" fill="white"/>
</clipPath>
</defs>
</svg>
