<svg width="1151" height="654" viewBox="0 0 1151 654" fill="none" xmlns="http://www.w3.org/2000/svg">
<path d="M25.8714 616.976L509.047 890.161C516.875 894.642 525.741 897 534.765 897C543.788 897 552.655 894.642 560.483 890.161L1125.46 562.338C1133.24 557.782 1139.68 551.277 1144.16 543.466C1148.64 535.655 1151 526.81 1151 517.809C1151 508.808 1148.64 499.964 1144.16 492.153C1139.68 484.342 1133.24 477.836 1125.46 473.28L644.204 195.996C636.311 191.414 627.343 189 618.213 189C609.082 189 600.114 191.414 592.22 195.996L26.1452 527.371C18.2291 531.866 11.642 538.37 7.05103 546.223C2.46007 554.076 0.0280055 563.001 0.000240392 572.094C-0.0275247 581.187 2.35031 590.126 6.89323 598.007C11.4361 605.888 17.9828 612.432 25.8714 616.976Z" fill="url(#paint0_linear)"/>
<path d="M803.839 440.891V467.486H795.081L792.069 452.837" fill="#23293D"/>
<path d="M291.703 356.676V330.553L302.458 345.013L291.703 356.676Z" fill="#23293D"/>
<path d="M302.121 336.683L438.383 256.24C443.213 253.387 448.693 251.885 454.271 251.885C459.849 251.885 465.328 253.387 470.159 256.24L793.298 447.052C796.549 448.952 799.251 451.697 801.131 455.009C803.01 458.322 804 462.084 804 465.913C804 469.743 803.01 473.505 801.131 476.817C799.251 480.13 796.549 482.875 793.298 484.775L656.79 565.375C652.17 568.104 646.928 569.54 641.593 569.54C636.258 569.54 631.017 568.104 626.397 565.375L302.121 373.776C298.936 371.898 296.291 369.196 294.451 365.94C292.612 362.684 291.644 358.99 291.644 355.229C291.644 351.469 292.612 347.775 294.451 344.519C296.291 341.263 298.936 338.56 302.121 336.683Z" fill="url(#paint1_linear)"/>
<path d="M300.835 313.256L300.838 313.254L437.101 232.779C441.855 229.972 447.247 228.494 452.734 228.494C458.222 228.494 463.614 229.972 468.368 232.779L468.621 232.352L468.368 232.779L791.538 423.624L791.54 423.625C794.714 425.479 797.354 428.16 799.19 431.397C801.027 434.634 801.994 438.31 801.994 442.054C801.994 445.798 801.027 449.475 799.19 452.711C797.354 455.948 794.714 458.629 791.54 460.484L791.538 460.485L655.03 541.085C650.486 543.769 645.333 545.181 640.087 545.181C634.842 545.181 629.689 543.769 625.145 541.085L300.838 349.612L300.835 349.611C297.699 347.786 295.089 345.144 293.273 341.951C291.457 338.758 290.5 335.129 290.5 331.433C290.5 327.738 291.457 324.108 293.273 320.915C295.089 317.722 297.699 315.08 300.835 313.256Z" fill="#313A55" stroke="#313A55"/>
<g filter="url(#filter0_d)">
<path d="M597.1 496.87C608.753 496.87 618.2 491.484 618.2 484.84C618.2 478.196 608.753 472.81 597.1 472.81C585.447 472.81 576 478.196 576 484.84C576 491.484 585.447 496.87 597.1 496.87Z" fill="url(#paint2_linear)"/>
</g>
<path d="M576.01 484.84V478.03H618.2V484.84" fill="url(#paint3_linear)"/>
<path d="M617.95 478.03C617.95 481.223 615.677 484.163 611.896 486.319C608.122 488.471 602.891 489.81 597.1 489.81C591.309 489.81 586.078 488.471 582.304 486.319C578.523 484.163 576.25 481.223 576.25 478.03C576.25 474.837 578.523 471.897 582.304 469.741C586.078 467.589 591.309 466.25 597.1 466.25C602.891 466.25 608.122 467.589 611.896 469.741C615.677 471.897 617.95 474.837 617.95 478.03Z" fill="url(#paint4_radial)" stroke="#313A55" stroke-width="0.5"/>
<g filter="url(#filter1_d)">
<path d="M645.1 471.87C656.753 471.87 666.2 466.484 666.2 459.84C666.2 453.196 656.753 447.81 645.1 447.81C633.447 447.81 624 453.196 624 459.84C624 466.484 633.447 471.87 645.1 471.87Z" fill="url(#paint5_linear)"/>
</g>
<path d="M624.01 459.84V453.03H666.2V459.84" fill="url(#paint6_linear)"/>
<path d="M665.95 453.03C665.95 456.223 663.677 459.163 659.896 461.319C656.122 463.471 650.891 464.81 645.1 464.81C639.309 464.81 634.078 463.471 630.304 461.319C626.523 459.163 624.25 456.223 624.25 453.03C624.25 449.837 626.523 446.897 630.304 444.741C634.078 442.589 639.309 441.25 645.1 441.25C650.891 441.25 656.122 442.589 659.896 444.741C663.677 446.897 665.95 449.837 665.95 453.03Z" fill="url(#paint7_radial)" stroke="#313A55" stroke-width="0.5"/>
<g filter="url(#filter2_d)">
<path d="M687.1 447.87C698.753 447.87 708.2 442.484 708.2 435.84C708.2 429.196 698.753 423.81 687.1 423.81C675.447 423.81 666 429.196 666 435.84C666 442.484 675.447 447.87 687.1 447.87Z" fill="url(#paint8_linear)"/>
</g>
<path d="M666.01 435.84V429.03H708.2V435.84" fill="url(#paint9_linear)"/>
<path d="M707.95 429.03C707.95 432.223 705.677 435.163 701.896 437.319C698.122 439.471 692.891 440.81 687.1 440.81C681.309 440.81 676.078 439.471 672.304 437.319C668.523 435.163 666.25 432.223 666.25 429.03C666.25 425.837 668.523 422.897 672.304 420.741C676.078 418.589 681.309 417.25 687.1 417.25C692.891 417.25 698.122 418.589 701.896 420.741C705.677 422.897 707.95 425.837 707.95 429.03Z" fill="url(#paint10_radial)" stroke="#313A55" stroke-width="0.5"/>
<g filter="url(#filter3_d)">
<path d="M639.1 521.87C650.753 521.87 660.2 516.484 660.2 509.84C660.2 503.196 650.753 497.81 639.1 497.81C627.447 497.81 618 503.196 618 509.84C618 516.484 627.447 521.87 639.1 521.87Z" fill="url(#paint11_linear)"/>
</g>
<path d="M618.01 509.84V503.03H660.2V509.84" fill="url(#paint12_linear)"/>
<path d="M659.95 503.03C659.95 506.223 657.677 509.163 653.896 511.319C650.122 513.471 644.891 514.81 639.1 514.81C633.309 514.81 628.078 513.471 624.304 511.319C620.523 509.163 618.25 506.223 618.25 503.03C618.25 499.837 620.523 496.897 624.304 494.741C628.078 492.589 633.309 491.25 639.1 491.25C644.891 491.25 650.122 492.589 653.896 494.741C657.677 496.897 659.95 499.837 659.95 503.03Z" fill="url(#paint13_radial)" stroke="#313A55" stroke-width="0.5"/>
<g filter="url(#filter4_d)">
<path d="M687.1 496.87C698.753 496.87 708.2 491.484 708.2 484.84C708.2 478.196 698.753 472.81 687.1 472.81C675.447 472.81 666 478.196 666 484.84C666 491.484 675.447 496.87 687.1 496.87Z" fill="url(#paint14_linear)"/>
</g>
<path d="M666.01 484.84V478.03H708.2V484.84" fill="url(#paint15_linear)"/>
<path d="M707.95 478.03C707.95 481.223 705.677 484.163 701.896 486.319C698.122 488.471 692.891 489.81 687.1 489.81C681.309 489.81 676.078 488.471 672.304 486.319C668.523 484.163 666.25 481.223 666.25 478.03C666.25 474.837 668.523 471.897 672.304 469.741C676.078 467.589 681.309 466.25 687.1 466.25C692.891 466.25 698.122 467.589 701.896 469.741C705.677 471.897 707.95 474.837 707.95 478.03Z" fill="url(#paint16_radial)" stroke="#313A55" stroke-width="0.5"/>
<g filter="url(#filter5_d)">
<path d="M732.1 472.87C743.753 472.87 753.2 467.484 753.2 460.84C753.2 454.196 743.753 448.81 732.1 448.81C720.447 448.81 711 454.196 711 460.84C711 467.484 720.447 472.87 732.1 472.87Z" fill="url(#paint17_linear)"/>
</g>
<path d="M711.01 460.84V454.03H753.2V460.84" fill="url(#paint18_linear)"/>
<path d="M752.95 454.03C752.95 457.223 750.677 460.163 746.896 462.319C743.122 464.471 737.891 465.81 732.1 465.81C726.309 465.81 721.078 464.471 717.304 462.319C713.523 460.163 711.25 457.223 711.25 454.03C711.25 450.837 713.523 447.897 717.304 445.741C721.078 443.589 726.309 442.25 732.1 442.25C737.891 442.25 743.122 443.589 746.896 445.741C750.677 447.897 752.95 450.837 752.95 454.03Z" fill="url(#paint19_radial)" stroke="#313A55" stroke-width="0.5"/>
<line x1="428.773" y1="392.715" x2="546.773" y2="463.715" stroke="url(#paint20_linear)" stroke-width="3"/>
<g filter="url(#filter6_d)">
<path d="M433.1 408.87C444.753 408.87 454.2 403.484 454.2 396.84C454.2 390.196 444.753 384.81 433.1 384.81C421.447 384.81 412 390.196 412 396.84C412 403.484 421.447 408.87 433.1 408.87Z" fill="url(#paint21_radial)"/>
<path d="M453.7 396.84C453.7 399.904 451.517 402.777 447.772 404.912C444.042 407.039 438.856 408.37 433.1 408.37C427.344 408.37 422.158 407.039 418.428 404.912C414.683 402.777 412.5 399.904 412.5 396.84C412.5 393.775 414.683 390.903 418.428 388.768C422.158 386.641 427.344 385.31 433.1 385.31C438.856 385.31 444.042 386.641 447.772 388.768C451.517 390.903 453.7 393.775 453.7 396.84Z" stroke="#FF4588"/>
</g>
<path d="M412.01 396.84V390.03H454.2V396.84" fill="#FF2473"/>
<g filter="url(#filter7_d)">
<path d="M433.1 402.06C444.753 402.06 454.2 396.674 454.2 390.03C454.2 383.386 444.753 378 433.1 378C421.447 378 412 383.386 412 390.03C412 396.674 421.447 402.06 433.1 402.06Z" fill="url(#paint22_radial)"/>
<path d="M453.7 390.03C453.7 393.095 451.517 395.967 447.772 398.102C444.042 400.229 438.856 401.56 433.1 401.56C427.344 401.56 422.158 400.229 418.428 398.102C414.683 395.967 412.5 393.095 412.5 390.03C412.5 386.965 414.683 384.093 418.428 381.958C422.158 379.831 427.344 378.5 433.1 378.5C438.856 378.5 444.042 379.831 447.772 381.958C451.517 384.093 453.7 386.965 453.7 390.03Z" stroke="#DE063A"/>
</g>
<line x1="432.5" y1="389.012" x2="431.516" y2="262.012" stroke="url(#paint23_linear)" stroke-width="3"/>
<path d="M299.013 265.103V257.474L302.65 261.182C302.693 261.689 302.63 262.201 302.465 262.682C302.3 263.163 302.037 263.603 301.694 263.974C301.351 264.344 300.934 264.636 300.472 264.831C300.01 265.026 299.513 265.119 299.013 265.103V265.103Z" fill="#23293D"/>
<path d="M301.849 259.95L439.057 179.638C440.521 178.773 442.183 178.318 443.875 178.318C445.567 178.318 447.23 178.773 448.694 179.638L521.926 223.315C522.781 223.82 523.492 224.547 523.986 225.421C524.479 226.295 524.739 227.285 524.739 228.294C524.739 229.302 524.479 230.293 523.986 231.167C523.492 232.041 522.781 232.767 521.926 233.273L386.175 313.344C384.222 314.498 382.001 315.099 379.744 315.085C377.487 315.071 375.274 314.442 373.335 313.264L301.757 269.882C300.912 269.366 300.214 268.634 299.732 267.758C299.251 266.882 299.002 265.893 299.011 264.889C299.021 263.885 299.288 262.901 299.785 262.035C300.283 261.168 300.995 260.45 301.849 259.95V259.95Z" fill="#23293D"/>
<path d="M301.849 253.632L439.057 173.32C440.521 172.455 442.183 172 443.875 172C445.567 172 447.23 172.455 448.694 173.32L521.926 216.997C522.781 217.503 523.492 218.229 523.986 219.103C524.479 219.977 524.739 220.967 524.739 221.976C524.739 222.985 524.479 223.975 523.986 224.849C523.492 225.723 522.781 226.449 521.926 226.955L386.175 307.026C384.222 308.18 382.001 308.782 379.744 308.767C377.487 308.753 375.274 308.124 373.335 306.946L301.757 263.578C300.909 263.063 300.208 262.33 299.724 261.453C299.241 260.576 298.991 259.584 299 258.578C299.01 257.572 299.277 256.585 299.777 255.718C300.277 254.85 300.991 254.131 301.849 253.632V253.632Z" fill="#313A55"/>
<path d="M436.231 180C437.076 180.278 514 225.401 514 225.401L385.565 301L308 255.995L436.231 180Z" fill="#23293D"/>
<path d="M457.013 165.103V157.474L460.65 161.182C460.693 161.689 460.63 162.201 460.465 162.682C460.3 163.163 460.037 163.603 459.694 163.974C459.351 164.344 458.934 164.636 458.472 164.831C458.01 165.026 457.513 165.119 457.013 165.103V165.103Z" fill="#23293D"/>
<path d="M459.849 159.95L597.057 79.6383C598.521 78.7734 600.183 78.3179 601.875 78.3179C603.567 78.3179 605.23 78.7734 606.694 79.6383L679.926 123.315C680.781 123.82 681.492 124.547 681.986 125.421C682.479 126.295 682.739 127.285 682.739 128.294C682.739 129.302 682.479 130.293 681.986 131.167C681.492 132.041 680.781 132.767 679.926 133.273L544.175 213.344C542.222 214.498 540.001 215.099 537.744 215.085C535.487 215.071 533.274 214.442 531.335 213.264L459.757 169.882C458.912 169.366 458.214 168.634 457.732 167.758C457.251 166.882 457.002 165.893 457.011 164.889C457.021 163.885 457.288 162.901 457.785 162.035C458.283 161.168 458.995 160.45 459.849 159.95V159.95Z" fill="#23293D"/>
<path d="M459.849 153.632L597.057 73.3204C598.521 72.4555 600.183 72 601.875 72C603.567 72 605.23 72.4555 606.694 73.3204L679.926 116.997C680.781 117.503 681.492 118.229 681.986 119.103C682.479 119.977 682.739 120.967 682.739 121.976C682.739 122.985 682.479 123.975 681.986 124.849C681.492 125.723 680.781 126.449 679.926 126.955L544.175 207.026C542.222 208.18 540.001 208.782 537.744 208.767C535.487 208.753 533.274 208.124 531.335 206.946L459.757 163.578C458.909 163.063 458.208 162.33 457.724 161.453C457.241 160.576 456.991 159.584 457 158.578C457.01 157.572 457.277 156.585 457.777 155.718C458.277 154.85 458.991 154.131 459.849 153.632V153.632Z" fill="#313A55"/>
<path d="M594.231 80C595.076 80.2783 672 125.401 672 125.401L543.565 201L466 155.995L594.231 80Z" fill="#23293D"/>
<g filter="url(#filter8_i)">
<path d="M403.268 214.97L426.453 228.355C426.829 228.574 427.254 228.69 427.687 228.69C428.12 228.69 428.546 228.574 428.921 228.355L455.98 212.293C456.353 212.069 456.662 211.751 456.877 211.368C457.092 210.985 457.205 210.552 457.205 210.111C457.205 209.67 457.092 209.236 456.877 208.854C456.662 208.471 456.353 208.152 455.98 207.929L432.886 194.343C432.507 194.118 432.077 194 431.639 194C431.201 194 430.771 194.118 430.392 194.343L403.229 210.579C402.851 210.804 402.539 211.127 402.323 211.514C402.108 211.902 401.996 212.34 402 212.786C402.004 213.232 402.123 213.668 402.346 214.052C402.569 214.435 402.887 214.752 403.268 214.97Z" fill="url(#paint24_radial)"/>
</g>
<path d="M403.393 214.753L403.392 214.753C403.049 214.557 402.763 214.272 402.562 213.926C402.362 213.58 402.254 213.186 402.25 212.784C402.246 212.381 402.347 211.985 402.542 211.636C402.736 211.286 403.018 210.996 403.357 210.794L403.357 210.794L430.519 194.558C430.519 194.558 430.52 194.558 430.52 194.558C430.86 194.356 431.246 194.25 431.639 194.25C432.032 194.25 432.418 194.356 432.759 194.558L432.759 194.558L455.851 208.143C455.852 208.144 455.852 208.144 455.852 208.144C456.187 208.344 456.465 208.631 456.659 208.976C456.853 209.321 456.955 209.712 456.955 210.111C456.955 210.509 456.853 210.9 456.659 211.245C456.465 211.591 456.187 211.877 455.851 212.078L428.795 228.139C428.795 228.139 428.795 228.139 428.794 228.14C428.457 228.337 428.075 228.44 427.687 228.44C427.299 228.44 426.917 228.336 426.579 228.139L426.578 228.138L403.393 214.753Z" stroke="#FF4185" stroke-width="0.5"/>
<g filter="url(#filter9_d)">
<path d="M403.268 215.97L426.453 229.355C426.829 229.574 427.254 229.69 427.687 229.69C428.12 229.69 428.546 229.574 428.921 229.355L455.98 213.293C456.353 213.069 456.662 212.751 456.877 212.368C457.092 211.985 457.205 211.552 457.205 211.111C457.205 210.67 457.092 210.236 456.877 209.854C456.662 209.471 456.353 209.152 455.98 208.929L432.886 195.343C432.507 195.118 432.077 195 431.639 195C431.201 195 430.771 195.118 430.392 195.343L403.229 211.579C402.851 211.804 402.539 212.127 402.323 212.514C402.108 212.902 401.996 213.34 402 213.786C402.004 214.232 402.123 214.668 402.346 215.052C402.569 215.435 402.887 215.752 403.268 215.97Z" fill="url(#paint25_radial)"/>
<path d="M403.393 215.753L403.392 215.753C403.049 215.557 402.763 215.272 402.562 214.926C402.362 214.58 402.254 214.186 402.25 213.784C402.246 213.381 402.347 212.985 402.542 212.636C402.736 212.286 403.018 211.996 403.357 211.794L403.357 211.794L430.519 195.558C430.519 195.558 430.52 195.558 430.52 195.558C430.86 195.356 431.246 195.25 431.639 195.25C432.032 195.25 432.418 195.356 432.759 195.558L432.759 195.558L455.851 209.143C455.852 209.144 455.852 209.144 455.852 209.144C456.187 209.344 456.465 209.631 456.659 209.976C456.853 210.321 456.955 210.712 456.955 211.111C456.955 211.509 456.853 211.9 456.659 212.245C456.465 212.591 456.187 212.877 455.851 213.078L428.795 229.139C428.795 229.139 428.795 229.139 428.794 229.14C428.457 229.337 428.075 229.44 427.687 229.44C427.299 229.44 426.917 229.336 426.579 229.139L426.578 229.138L403.393 215.753Z" stroke="#FF4789" stroke-width="0.5"/>
</g>
<path d="M402.25 212.324V209.172C402.361 209.263 402.488 209.322 402.63 209.351C402.897 209.406 403.179 209.342 403.433 209.246C403.691 209.148 403.952 209.004 404.189 208.866C404.277 208.814 404.361 208.763 404.44 208.716C404.581 208.631 404.71 208.554 404.828 208.49C404.919 208.441 404.993 208.406 405.052 208.386C405.053 208.385 405.054 208.385 405.056 208.384C405.055 208.396 405.054 208.408 405.053 208.423C405.036 208.598 404.957 208.897 404.781 209.371L402.25 212.324Z" fill="#DE063A" stroke="#DE063A" stroke-width="0.5"/>
<path d="M454 208.5C454 210.5 457 206.1 457 210.5V205L454 208.5Z" fill="#DE063A" stroke="#DE063A" stroke-width="0.3"/>
<path d="M426.706 222.923L426.703 222.922L403.518 209.537L403.268 209.97L403.516 209.536C403.212 209.362 402.957 209.109 402.778 208.801C402.6 208.492 402.503 208.141 402.5 207.782C402.497 207.422 402.587 207.069 402.76 206.757C402.934 206.446 403.184 206.188 403.485 206.009L403.485 206.008L430.647 189.773C430.647 189.773 430.647 189.773 430.647 189.773C430.949 189.594 431.291 189.5 431.639 189.5C431.987 189.5 432.329 189.594 432.631 189.773L432.633 189.774L455.723 203.358C455.723 203.358 455.724 203.359 455.724 203.359C456.021 203.537 456.269 203.791 456.441 204.098C456.614 204.406 456.705 204.755 456.705 205.111C456.705 205.466 456.614 205.815 456.441 206.123C456.268 206.43 456.021 206.685 455.723 206.863C455.723 206.863 455.723 206.863 455.723 206.863L428.669 222.923C428.669 222.923 428.668 222.924 428.668 222.924C428.369 223.099 428.031 223.19 427.687 223.19C427.343 223.19 427.005 223.098 426.706 222.923Z" fill="url(#paint26_diamond)" stroke="url(#paint27_radial)"/>
<line x1="428.5" y1="206" x2="428.521" y2="127.999" stroke="url(#paint28_linear)" stroke-width="3"/>
<path d="M426.287 50.9845L512.807 0.455914C513.272 0.198638 513.799 0.0648628 514.336 0.0684289C514.873 0.0719949 515.399 0.212755 515.859 0.47618C516.32 0.739605 516.699 1.11613 516.957 1.56686C517.215 2.01759 517.343 2.52619 517.327 3.04008V31.9135C517.332 32.4345 517.195 32.9476 516.931 33.403C516.667 33.8583 516.285 34.2405 515.821 34.5121L429.27 84.0012C428.808 84.2571 427.945 84.6972 427.411 84.6948C426.877 84.6925 426.353 84.5542 425.893 84.2943C425.434 84.0344 425.054 83.9283 424.794 83.4817C424.533 83.0351 424.401 82.2639 424.412 81.7524L424.298 54.5936C424.264 53.8768 424.43 53.1643 424.78 52.5298C425.13 51.8953 425.65 51.3618 426.287 50.9845Z" fill="url(#paint29_linear)"/>
<rect width="7.03421" height="1.79331" rx="0.896657" transform="matrix(0.949664 0.31327 -0.372662 0.927967 514.513 0)" fill="#DE063A"/>
<rect width="9.25776" height="3.00527" rx="1.50263" transform="matrix(0.941782 0.336225 -0.398604 0.917123 425.198 81.2056)" fill="#FF4A8C"/>
<path d="M522.079 4.84508L522.079 4.84507V4.8527L522.079 33.7262L522.079 33.7282C522.083 34.2039 521.959 34.6731 521.717 35.0902C521.475 35.507 521.124 35.8581 520.697 36.1084C520.697 36.1086 520.697 36.1088 520.696 36.109L434.151 85.5951C434.15 85.5954 434.15 85.5957 434.149 85.596C433.922 85.7219 433.6 85.8904 433.273 86.0267C432.936 86.167 432.627 86.2584 432.414 86.2575C431.922 86.2553 431.44 86.128 431.018 85.8893C430.596 85.6507 430.249 85.3096 430.011 84.9021C429.774 84.4947 429.654 84.0351 429.663 83.57H429.664L429.664 83.564L429.55 56.4052L429.55 56.4052L429.549 56.3944C429.518 55.7242 429.673 55.0575 430.001 54.4631C430.328 53.8687 430.816 53.3676 431.415 53.0125C431.416 53.0124 431.416 53.0123 431.416 53.0122L517.93 2.48724C517.931 2.48679 517.932 2.48635 517.932 2.4859C518.358 2.25052 518.843 2.12777 519.336 2.13105C519.83 2.13433 520.314 2.26398 520.737 2.50584C521.16 2.74766 521.507 3.09252 521.742 3.50372C521.978 3.91482 522.094 4.37784 522.079 4.84508Z" fill="#313A55" stroke="url(#paint30_linear)" stroke-width="0.5"/>
<g filter="url(#filter10_d)">
<path d="M555.1 427.87C566.753 427.87 576.2 422.484 576.2 415.84C576.2 409.196 566.753 403.81 555.1 403.81C543.447 403.81 534 409.196 534 415.84C534 422.484 543.447 427.87 555.1 427.87Z" fill="url(#paint31_radial)"/>
<path d="M575.7 415.84C575.7 418.904 573.517 421.777 569.772 423.912C566.042 426.039 560.856 427.37 555.1 427.37C549.344 427.37 544.158 426.039 540.428 423.912C536.683 421.777 534.5 418.904 534.5 415.84C534.5 412.775 536.683 409.903 540.428 407.768C544.158 405.641 549.344 404.31 555.1 404.31C560.856 404.31 566.042 405.641 569.772 407.768C573.517 409.903 575.7 412.775 575.7 415.84Z" stroke="#FF4588"/>
</g>
<path d="M534.01 415.84V409.03H576.2V415.84" fill="#FF2473"/>
<g filter="url(#filter11_d)">
<path d="M555.1 421.06C566.753 421.06 576.2 415.674 576.2 409.03C576.2 402.386 566.753 397 555.1 397C543.447 397 534 402.386 534 409.03C534 415.674 543.447 421.06 555.1 421.06Z" fill="url(#paint32_radial)"/>
<path d="M575.7 409.03C575.7 412.095 573.517 414.967 569.772 417.102C566.042 419.229 560.856 420.56 555.1 420.56C549.344 420.56 544.158 419.229 540.428 417.102C536.683 414.967 534.5 412.095 534.5 409.03C534.5 405.965 536.683 403.093 540.428 400.958C544.158 398.831 549.344 397.5 555.1 397.5C560.856 397.5 566.042 398.831 569.772 400.958C573.517 403.093 575.7 405.965 575.7 409.03Z" stroke="#DE063A"/>
</g>
<g filter="url(#filter12_d)">
<path d="M601.1 402.87C612.753 402.87 622.2 397.484 622.2 390.84C622.2 384.196 612.753 378.81 601.1 378.81C589.447 378.81 580 384.196 580 390.84C580 397.484 589.447 402.87 601.1 402.87Z" fill="url(#paint33_radial)"/>
<path d="M621.7 390.84C621.7 393.904 619.517 396.777 615.772 398.912C612.042 401.039 606.856 402.37 601.1 402.37C595.344 402.37 590.158 401.039 586.428 398.912C582.683 396.777 580.5 393.904 580.5 390.84C580.5 387.775 582.683 384.903 586.428 382.768C590.158 380.641 595.344 379.31 601.1 379.31C606.856 379.31 612.042 380.641 615.772 382.768C619.517 384.903 621.7 387.775 621.7 390.84Z" stroke="#FF4588"/>
</g>
<path d="M580.01 390.84V384.03H622.2V390.84" fill="#FF2473"/>
<g filter="url(#filter13_d)">
<path d="M601.1 396.06C612.753 396.06 622.2 390.674 622.2 384.03C622.2 377.386 612.753 372 601.1 372C589.447 372 580 377.386 580 384.03C580 390.674 589.447 396.06 601.1 396.06Z" fill="url(#paint34_radial)"/>
<path d="M621.7 384.03C621.7 387.095 619.517 389.967 615.772 392.102C612.042 394.229 606.856 395.56 601.1 395.56C595.344 395.56 590.158 394.229 586.428 392.102C582.683 389.967 580.5 387.095 580.5 384.03C580.5 380.965 582.683 378.093 586.428 375.958C590.158 373.831 595.344 372.5 601.1 372.5C606.856 372.5 612.042 373.831 615.772 375.958C619.517 378.093 621.7 380.965 621.7 384.03Z" stroke="#DE063A"/>
</g>
<g filter="url(#filter14_d)">
<path d="M384.1 380.87C395.753 380.87 405.2 375.484 405.2 368.84C405.2 362.196 395.753 356.81 384.1 356.81C372.447 356.81 363 362.196 363 368.84C363 375.484 372.447 380.87 384.1 380.87Z" fill="url(#paint35_radial)"/>
<path d="M404.7 368.84C404.7 371.904 402.517 374.777 398.772 376.912C395.042 379.039 389.856 380.37 384.1 380.37C378.344 380.37 373.158 379.039 369.428 376.912C365.683 374.777 363.5 371.904 363.5 368.84C363.5 365.775 365.683 362.903 369.428 360.768C373.158 358.641 378.344 357.31 384.1 357.31C389.856 357.31 395.042 358.641 398.772 360.768C402.517 362.903 404.7 365.775 404.7 368.84Z" stroke="#FF4588"/>
</g>
<path d="M363.01 368.84V362.03H405.2V368.84" fill="#FF2473"/>
<g filter="url(#filter15_d)">
<path d="M384.1 374.06C395.753 374.06 405.2 368.674 405.2 362.03C405.2 355.386 395.753 350 384.1 350C372.447 350 363 355.386 363 362.03C363 368.674 372.447 374.06 384.1 374.06Z" fill="url(#paint36_radial)"/>
<path d="M404.7 362.03C404.7 365.095 402.517 367.967 398.772 370.102C395.042 372.229 389.856 373.56 384.1 373.56C378.344 373.56 373.158 372.229 369.428 370.102C365.683 367.967 363.5 365.095 363.5 362.03C363.5 358.965 365.683 356.093 369.428 353.958C373.158 351.831 378.344 350.5 384.1 350.5C389.856 350.5 395.042 351.831 398.772 353.958C402.517 356.093 404.7 358.965 404.7 362.03Z" stroke="#DE063A"/>
</g>
<path d="M385.287 130.525L471.807 79.4599C472.272 79.1999 472.799 79.0647 473.336 79.0683C473.873 79.0719 474.399 79.2142 474.859 79.4804C475.32 79.7466 475.699 80.1271 475.957 80.5827C476.215 81.0382 476.343 81.5522 476.327 82.0715V111.252C476.332 111.778 476.195 112.297 475.931 112.757C475.667 113.217 475.285 113.604 474.821 113.878L388.27 163.893C387.808 164.152 386.945 164.597 386.411 164.594C385.877 164.592 385.353 164.452 384.893 164.189C384.434 163.927 384.054 163.82 383.794 163.368C383.533 162.917 383.401 162.137 383.412 161.62L383.298 134.173C383.264 133.449 383.43 132.729 383.78 132.087C384.13 131.446 384.65 130.907 385.287 130.525Z" fill="url(#paint37_linear)"/>
<rect width="7.04158" height="1.80974" rx="0.904869" transform="matrix(0.94867 0.316268 -0.36928 0.929318 473.513 79)" fill="#FF2473"/>
<rect width="9.26894" height="3.03216" rx="1.51608" transform="matrix(0.940646 0.339389 -0.39507 0.918651 384.198 161.069)" fill="#FF8200"/>
<path d="M481.079 83.8966L481.079 83.8966V83.9042L481.079 113.085L481.079 113.087C481.083 113.568 480.958 114.043 480.716 114.465C480.474 114.887 480.123 115.242 479.696 115.495C479.696 115.495 479.696 115.495 479.695 115.496L393.15 165.508C393.15 165.508 393.149 165.508 393.148 165.509C392.921 165.636 392.599 165.806 392.272 165.944C391.935 166.086 391.626 166.178 391.414 166.177C390.923 166.175 390.441 166.046 390.019 165.805C389.597 165.564 389.25 165.219 389.012 164.807C388.774 164.394 388.654 163.929 388.663 163.458H388.664L388.664 163.452L388.55 136.005H388.55L388.549 135.994C388.517 135.316 388.673 134.641 389.001 134.04C389.329 133.438 389.817 132.932 390.416 132.573C390.417 132.573 390.417 132.573 390.417 132.573L476.931 81.5107C476.932 81.5103 476.933 81.5098 476.933 81.5093C477.359 81.2716 477.844 81.1476 478.336 81.1509C478.83 81.1543 479.313 81.2851 479.736 81.5295C480.159 81.7738 480.506 82.1225 480.742 82.5386C480.977 82.9546 481.094 83.4234 481.079 83.8966Z" fill="#313A55" stroke="url(#paint38_linear)" stroke-width="0.5"/>
<rect width="9.29437" height="3.09259" rx="1.54629" transform="matrix(0.938072 0.34644 -0.38735 0.921933 488.198 102.003)" fill="#313A55"/>
<path d="M489.287 70.7401L575.807 18.4707C576.272 18.2046 576.799 18.0662 577.336 18.0699C577.873 18.0736 578.399 18.2192 578.859 18.4917C579.32 18.7642 579.699 19.1537 579.957 19.62C580.215 20.0862 580.343 20.6123 580.327 21.1439V51.0122C580.332 51.551 580.195 52.0818 579.931 52.5529C579.667 53.024 579.285 53.4193 578.821 53.7003L492.27 104.894C491.808 105.159 490.945 105.614 490.411 105.612C489.877 105.61 489.353 105.467 488.893 105.198C488.434 104.929 488.054 104.819 487.794 104.357C487.533 103.895 487.401 103.097 487.412 102.568L487.298 74.4737C487.264 73.7322 487.43 72.9951 487.78 72.3387C488.13 71.6823 488.65 71.1305 489.287 70.7401Z" fill="url(#paint39_linear)"/>
<rect width="7.05836" height="1.84664" rx="0.923321" transform="matrix(0.946415 0.322954 -0.3619 0.932217 577.513 18)" fill="#313A55"/>
<path d="M584.83 23.005L584.829 23.0124V23.0198L584.829 52.888L584.829 52.8921C584.833 53.3438 584.719 53.7889 584.497 54.1843C584.276 54.579 583.955 54.9109 583.565 55.1473C583.565 55.1477 583.564 55.1481 583.563 55.1485L497.024 106.336C497.023 106.337 497.022 106.338 497.021 106.338C496.797 106.466 496.485 106.635 496.171 106.77C495.838 106.914 495.571 106.989 495.415 106.988C494.969 106.986 494.531 106.866 494.148 106.642C493.764 106.417 493.448 106.096 493.231 105.712C493.014 105.328 492.905 104.893 492.913 104.454H492.914L492.914 104.442L492.8 76.3475L492.8 76.337L492.799 76.3266C492.769 75.6749 492.915 75.027 493.223 74.4497C493.53 73.8728 493.988 73.3871 494.548 73.0432C494.549 73.0429 494.549 73.0426 494.55 73.0423L581.062 20.7777C581.449 20.5574 581.888 20.4427 582.334 20.4457C582.783 20.4488 583.222 20.5705 583.607 20.7979C583.991 21.0253 584.307 21.35 584.522 21.738C584.736 22.1259 584.843 22.5633 584.83 23.005Z" fill="#23293D" stroke="#313A55"/>
<g filter="url(#filter16_d)">
<path d="M610 433L553 468.5" stroke="url(#paint40_linear)" stroke-width="2"/>
</g>
<g filter="url(#filter17_d)">
<path d="M555.1 473.87C566.753 473.87 576.2 468.484 576.2 461.84C576.2 455.196 566.753 449.81 555.1 449.81C543.447 449.81 534 455.196 534 461.84C534 468.484 543.447 473.87 555.1 473.87Z" fill="url(#paint41_linear)"/>
<path d="M575.95 461.84C575.95 465.033 573.677 467.973 569.896 470.129C566.122 472.281 560.891 473.62 555.1 473.62C549.309 473.62 544.078 472.281 540.304 470.129C536.523 467.973 534.25 465.033 534.25 461.84C534.25 458.647 536.523 455.707 540.304 453.551C544.078 451.399 549.309 450.06 555.1 450.06C560.891 450.06 566.122 451.399 569.896 453.551C573.677 455.707 575.95 458.647 575.95 461.84Z" stroke="#3B4974" stroke-width="0.5"/>
</g>
<mask id="path-77-inside-1" fill="white">
<path d="M534.01 461.84V455.03H576.2V461.84"/>
</mask>
<path d="M534.01 461.84V455.03H576.2V461.84" fill="#FF2473"/>
<path d="M534.01 455.03V454.53H533.51V455.03H534.01ZM576.2 455.03H576.7V454.53H576.2V455.03ZM534.51 461.84V455.03H533.51V461.84H534.51ZM534.01 455.53H576.2V454.53H534.01V455.53ZM575.7 455.03V461.84H576.7V455.03H575.7Z" fill="#313A55" mask="url(#path-77-inside-1)"/>
<path d="M575.95 455.03C575.95 458.223 573.677 461.163 569.896 463.319C566.122 465.471 560.891 466.81 555.1 466.81C549.309 466.81 544.078 465.471 540.304 463.319C536.523 461.163 534.25 458.223 534.25 455.03C534.25 451.837 536.523 448.897 540.304 446.741C544.078 444.589 549.309 443.25 555.1 443.25C560.891 443.25 566.122 444.589 569.896 446.741C573.677 448.897 575.95 451.837 575.95 455.03Z" fill="url(#paint42_radial)" stroke="#3B4974" stroke-width="0.5"/>
<g filter="url(#filter18_d)">
<path d="M603.1 448.87C614.753 448.87 624.2 443.484 624.2 436.84C624.2 430.196 614.753 424.81 603.1 424.81C591.447 424.81 582 430.196 582 436.84C582 443.484 591.447 448.87 603.1 448.87Z" fill="url(#paint43_linear)"/>
<path d="M623.95 436.84C623.95 440.033 621.677 442.973 617.896 445.129C614.122 447.281 608.891 448.62 603.1 448.62C597.309 448.62 592.078 447.281 588.304 445.129C584.523 442.973 582.25 440.033 582.25 436.84C582.25 433.647 584.523 430.707 588.304 428.551C592.078 426.399 597.309 425.06 603.1 425.06C608.891 425.06 614.122 426.399 617.896 428.551C621.677 430.707 623.95 433.647 623.95 436.84Z" stroke="#3B4974" stroke-width="0.5"/>
</g>
<mask id="path-82-inside-2" fill="white">
<path d="M582.01 436.84V430.03H624.2V436.84"/>
</mask>
<path d="M582.01 436.84V430.03H624.2V436.84" fill="#FF2473"/>
<path d="M582.01 430.03V429.53H581.51V430.03H582.01ZM624.2 430.03H624.7V429.53H624.2V430.03ZM582.51 436.84V430.03H581.51V436.84H582.51ZM582.01 430.53H624.2V429.53H582.01V430.53ZM623.7 430.03V436.84H624.7V430.03H623.7Z" fill="#313A55" mask="url(#path-82-inside-2)"/>
<path d="M623.95 430.03C623.95 433.223 621.677 436.163 617.896 438.319C614.122 440.471 608.891 441.81 603.1 441.81C597.309 441.81 592.078 440.471 588.304 438.319C584.523 436.163 582.25 433.223 582.25 430.03C582.25 426.837 584.523 423.897 588.304 421.741C592.078 419.589 597.309 418.25 603.1 418.25C608.891 418.25 614.122 419.589 617.896 421.741C621.677 423.897 623.95 426.837 623.95 430.03Z" fill="url(#paint44_radial)" stroke="#3B4974" stroke-width="0.5"/>
<defs>
<filter id="filter0_d" x="566" y="466.81" width="62.2" height="44.06" filterUnits="userSpaceOnUse" color-interpolation-filters="sRGB">
<feFlood flood-opacity="0" result="BackgroundImageFix"/>
<feColorMatrix in="SourceAlpha" type="matrix" values="0 0 0 0 0 0 0 0 0 0 0 0 0 0 0 0 0 0 127 0"/>
<feOffset dy="4"/>
<feGaussianBlur stdDeviation="5"/>
<feColorMatrix type="matrix" values="0 0 0 0 0.137255 0 0 0 0 0.160784 0 0 0 0 0.239216 0 0 0 1 0"/>
<feBlend mode="normal" in2="BackgroundImageFix" result="effect1_dropShadow"/>
<feBlend mode="normal" in="SourceGraphic" in2="effect1_dropShadow" result="shape"/>
</filter>
<filter id="filter1_d" x="614" y="441.81" width="62.2" height="44.06" filterUnits="userSpaceOnUse" color-interpolation-filters="sRGB">
<feFlood flood-opacity="0" result="BackgroundImageFix"/>
<feColorMatrix in="SourceAlpha" type="matrix" values="0 0 0 0 0 0 0 0 0 0 0 0 0 0 0 0 0 0 127 0"/>
<feOffset dy="4"/>
<feGaussianBlur stdDeviation="5"/>
<feColorMatrix type="matrix" values="0 0 0 0 0.137255 0 0 0 0 0.160784 0 0 0 0 0.239216 0 0 0 1 0"/>
<feBlend mode="normal" in2="BackgroundImageFix" result="effect1_dropShadow"/>
<feBlend mode="normal" in="SourceGraphic" in2="effect1_dropShadow" result="shape"/>
</filter>
<filter id="filter2_d" x="656" y="417.81" width="62.2" height="44.06" filterUnits="userSpaceOnUse" color-interpolation-filters="sRGB">
<feFlood flood-opacity="0" result="BackgroundImageFix"/>
<feColorMatrix in="SourceAlpha" type="matrix" values="0 0 0 0 0 0 0 0 0 0 0 0 0 0 0 0 0 0 127 0"/>
<feOffset dy="4"/>
<feGaussianBlur stdDeviation="5"/>
<feColorMatrix type="matrix" values="0 0 0 0 0.137255 0 0 0 0 0.160784 0 0 0 0 0.239216 0 0 0 1 0"/>
<feBlend mode="normal" in2="BackgroundImageFix" result="effect1_dropShadow"/>
<feBlend mode="normal" in="SourceGraphic" in2="effect1_dropShadow" result="shape"/>
</filter>
<filter id="filter3_d" x="608" y="491.81" width="62.2" height="44.06" filterUnits="userSpaceOnUse" color-interpolation-filters="sRGB">
<feFlood flood-opacity="0" result="BackgroundImageFix"/>
<feColorMatrix in="SourceAlpha" type="matrix" values="0 0 0 0 0 0 0 0 0 0 0 0 0 0 0 0 0 0 127 0"/>
<feOffset dy="4"/>
<feGaussianBlur stdDeviation="5"/>
<feColorMatrix type="matrix" values="0 0 0 0 0.137255 0 0 0 0 0.160784 0 0 0 0 0.239216 0 0 0 1 0"/>
<feBlend mode="normal" in2="BackgroundImageFix" result="effect1_dropShadow"/>
<feBlend mode="normal" in="SourceGraphic" in2="effect1_dropShadow" result="shape"/>
</filter>
<filter id="filter4_d" x="656" y="466.81" width="62.2" height="44.06" filterUnits="userSpaceOnUse" color-interpolation-filters="sRGB">
<feFlood flood-opacity="0" result="BackgroundImageFix"/>
<feColorMatrix in="SourceAlpha" type="matrix" values="0 0 0 0 0 0 0 0 0 0 0 0 0 0 0 0 0 0 127 0"/>
<feOffset dy="4"/>
<feGaussianBlur stdDeviation="5"/>
<feColorMatrix type="matrix" values="0 0 0 0 0.137255 0 0 0 0 0.160784 0 0 0 0 0.239216 0 0 0 1 0"/>
<feBlend mode="normal" in2="BackgroundImageFix" result="effect1_dropShadow"/>
<feBlend mode="normal" in="SourceGraphic" in2="effect1_dropShadow" result="shape"/>
</filter>
<filter id="filter5_d" x="701" y="442.81" width="62.2" height="44.06" filterUnits="userSpaceOnUse" color-interpolation-filters="sRGB">
<feFlood flood-opacity="0" result="BackgroundImageFix"/>
<feColorMatrix in="SourceAlpha" type="matrix" values="0 0 0 0 0 0 0 0 0 0 0 0 0 0 0 0 0 0 127 0"/>
<feOffset dy="4"/>
<feGaussianBlur stdDeviation="5"/>
<feColorMatrix type="matrix" values="0 0 0 0 0.137255 0 0 0 0 0.160784 0 0 0 0 0.239216 0 0 0 1 0"/>
<feBlend mode="normal" in2="BackgroundImageFix" result="effect1_dropShadow"/>
<feBlend mode="normal" in="SourceGraphic" in2="effect1_dropShadow" result="shape"/>
</filter>
<filter id="filter6_d" x="402" y="379.81" width="62.2" height="44.06" filterUnits="userSpaceOnUse" color-interpolation-filters="sRGB">
<feFlood flood-opacity="0" result="BackgroundImageFix"/>
<feColorMatrix in="SourceAlpha" type="matrix" values="0 0 0 0 0 0 0 0 0 0 0 0 0 0 0 0 0 0 127 0"/>
<feOffset dy="5"/>
<feGaussianBlur stdDeviation="5"/>
<feColorMatrix type="matrix" values="0 0 0 0 1 0 0 0 0 0.141176 0 0 0 0 0.45098 0 0 0 0.5 0"/>
<feBlend mode="normal" in2="BackgroundImageFix" result="effect1_dropShadow"/>
<feBlend mode="normal" in="SourceGraphic" in2="effect1_dropShadow" result="shape"/>
</filter>
<filter id="filter7_d" x="408" y="378" width="50.2" height="32.06" filterUnits="userSpaceOnUse" color-interpolation-filters="sRGB">
<feFlood flood-opacity="0" result="BackgroundImageFix"/>
<feColorMatrix in="SourceAlpha" type="matrix" values="0 0 0 0 0 0 0 0 0 0 0 0 0 0 0 0 0 0 127 0"/>
<feOffset dy="4"/>
<feGaussianBlur stdDeviation="2"/>
<feColorMatrix type="matrix" values="0 0 0 0 0 0 0 0 0 0 0 0 0 0 0 0 0 0 0.25 0"/>
<feBlend mode="normal" in2="BackgroundImageFix" result="effect1_dropShadow"/>
<feBlend mode="normal" in="SourceGraphic" in2="effect1_dropShadow" result="shape"/>
</filter>
<filter id="filter8_i" x="402" y="194" width="55.205" height="39.69" filterUnits="userSpaceOnUse" color-interpolation-filters="sRGB">
<feFlood flood-opacity="0" result="BackgroundImageFix"/>
<feBlend mode="normal" in="SourceGraphic" in2="BackgroundImageFix" result="shape"/>
<feColorMatrix in="SourceAlpha" type="matrix" values="0 0 0 0 0 0 0 0 0 0 0 0 0 0 0 0 0 0 127 0" result="hardAlpha"/>
<feOffset dy="5"/>
<feGaussianBlur stdDeviation="7.5"/>
<feComposite in2="hardAlpha" operator="arithmetic" k2="-1" k3="1"/>
<feColorMatrix type="matrix" values="0 0 0 0 1 0 0 0 0 0.141176 0 0 0 0 0.45098 0 0 0 1 0"/>
<feBlend mode="normal" in2="shape" result="effect1_innerShadow"/>
</filter>
<filter id="filter9_d" x="392" y="190" width="75.205" height="54.69" filterUnits="userSpaceOnUse" color-interpolation-filters="sRGB">
<feFlood flood-opacity="0" result="BackgroundImageFix"/>
<feColorMatrix in="SourceAlpha" type="matrix" values="0 0 0 0 0 0 0 0 0 0 0 0 0 0 0 0 0 0 127 0"/>
<feOffset dy="5"/>
<feGaussianBlur stdDeviation="5"/>
<feColorMatrix type="matrix" values="0 0 0 0 1 0 0 0 0 0.141176 0 0 0 0 0.45098 0 0 0 0.5 0"/>
<feBlend mode="normal" in2="BackgroundImageFix" result="effect1_dropShadow"/>
<feBlend mode="normal" in="SourceGraphic" in2="effect1_dropShadow" result="shape"/>
</filter>
<filter id="filter10_d" x="524" y="397.81" width="62.2" height="44.06" filterUnits="userSpaceOnUse" color-interpolation-filters="sRGB">
<feFlood flood-opacity="0" result="BackgroundImageFix"/>
<feColorMatrix in="SourceAlpha" type="matrix" values="0 0 0 0 0 0 0 0 0 0 0 0 0 0 0 0 0 0 127 0"/>
<feOffset dy="4"/>
<feGaussianBlur stdDeviation="5"/>
<feColorMatrix type="matrix" values="0 0 0 0 1 0 0 0 0 0.141176 0 0 0 0 0.45098 0 0 0 0.5 0"/>
<feBlend mode="normal" in2="BackgroundImageFix" result="effect1_dropShadow"/>
<feBlend mode="normal" in="SourceGraphic" in2="effect1_dropShadow" result="shape"/>
</filter>
<filter id="filter11_d" x="530" y="397" width="50.2" height="32.06" filterUnits="userSpaceOnUse" color-interpolation-filters="sRGB">
<feFlood flood-opacity="0" result="BackgroundImageFix"/>
<feColorMatrix in="SourceAlpha" type="matrix" values="0 0 0 0 0 0 0 0 0 0 0 0 0 0 0 0 0 0 127 0"/>
<feOffset dy="4"/>
<feGaussianBlur stdDeviation="2"/>
<feColorMatrix type="matrix" values="0 0 0 0 0 0 0 0 0 0 0 0 0 0 0 0 0 0 0.25 0"/>
<feBlend mode="normal" in2="BackgroundImageFix" result="effect1_dropShadow"/>
<feBlend mode="normal" in="SourceGraphic" in2="effect1_dropShadow" result="shape"/>
</filter>
<filter id="filter12_d" x="570" y="372.81" width="62.2" height="44.06" filterUnits="userSpaceOnUse" color-interpolation-filters="sRGB">
<feFlood flood-opacity="0" result="BackgroundImageFix"/>
<feColorMatrix in="SourceAlpha" type="matrix" values="0 0 0 0 0 0 0 0 0 0 0 0 0 0 0 0 0 0 127 0"/>
<feOffset dy="4"/>
<feGaussianBlur stdDeviation="5"/>
<feColorMatrix type="matrix" values="0 0 0 0 1 0 0 0 0 0.141176 0 0 0 0 0.45098 0 0 0 0.5 0"/>
<feBlend mode="normal" in2="BackgroundImageFix" result="effect1_dropShadow"/>
<feBlend mode="normal" in="SourceGraphic" in2="effect1_dropShadow" result="shape"/>
</filter>
<filter id="filter13_d" x="576" y="372" width="50.2" height="32.06" filterUnits="userSpaceOnUse" color-interpolation-filters="sRGB">
<feFlood flood-opacity="0" result="BackgroundImageFix"/>
<feColorMatrix in="SourceAlpha" type="matrix" values="0 0 0 0 0 0 0 0 0 0 0 0 0 0 0 0 0 0 127 0"/>
<feOffset dy="4"/>
<feGaussianBlur stdDeviation="2"/>
<feColorMatrix type="matrix" values="0 0 0 0 0 0 0 0 0 0 0 0 0 0 0 0 0 0 0.25 0"/>
<feBlend mode="normal" in2="BackgroundImageFix" result="effect1_dropShadow"/>
<feBlend mode="normal" in="SourceGraphic" in2="effect1_dropShadow" result="shape"/>
</filter>
<filter id="filter14_d" x="353" y="350.81" width="62.2" height="44.06" filterUnits="userSpaceOnUse" color-interpolation-filters="sRGB">
<feFlood flood-opacity="0" result="BackgroundImageFix"/>
<feColorMatrix in="SourceAlpha" type="matrix" values="0 0 0 0 0 0 0 0 0 0 0 0 0 0 0 0 0 0 127 0"/>
<feOffset dy="4"/>
<feGaussianBlur stdDeviation="5"/>
<feColorMatrix type="matrix" values="0 0 0 0 1 0 0 0 0 0.141176 0 0 0 0 0.45098 0 0 0 0.5 0"/>
<feBlend mode="normal" in2="BackgroundImageFix" result="effect1_dropShadow"/>
<feBlend mode="normal" in="SourceGraphic" in2="effect1_dropShadow" result="shape"/>
</filter>
<filter id="filter15_d" x="359" y="350" width="50.2" height="32.06" filterUnits="userSpaceOnUse" color-interpolation-filters="sRGB">
<feFlood flood-opacity="0" result="BackgroundImageFix"/>
<feColorMatrix in="SourceAlpha" type="matrix" values="0 0 0 0 0 0 0 0 0 0 0 0 0 0 0 0 0 0 127 0"/>
<feOffset dy="4"/>
<feGaussianBlur stdDeviation="2"/>
<feColorMatrix type="matrix" values="0 0 0 0 0 0 0 0 0 0 0 0 0 0 0 0 0 0 0.25 0"/>
<feBlend mode="normal" in2="BackgroundImageFix" result="effect1_dropShadow"/>
<feBlend mode="normal" in="SourceGraphic" in2="effect1_dropShadow" result="shape"/>
</filter>
<filter id="filter16_d" x="550.471" y="431.151" width="62.0573" height="41.1977" filterUnits="userSpaceOnUse" color-interpolation-filters="sRGB">
<feFlood flood-opacity="0" result="BackgroundImageFix"/>
<feColorMatrix in="SourceAlpha" type="matrix" values="0 0 0 0 0 0 0 0 0 0 0 0 0 0 0 0 0 0 127 0"/>
<feOffset dy="1"/>
<feGaussianBlur stdDeviation="1"/>
<feColorMatrix type="matrix" values="0 0 0 0 1 0 0 0 0 0.141176 0 0 0 0 0.45098 0 0 0 0.5 0"/>
<feBlend mode="normal" in2="BackgroundImageFix" result="effect1_dropShadow"/>
<feBlend mode="normal" in="SourceGraphic" in2="effect1_dropShadow" result="shape"/>
</filter>
<filter id="filter17_d" x="524" y="443.81" width="62.2" height="44.06" filterUnits="userSpaceOnUse" color-interpolation-filters="sRGB">
<feFlood flood-opacity="0" result="BackgroundImageFix"/>
<feColorMatrix in="SourceAlpha" type="matrix" values="0 0 0 0 0 0 0 0 0 0 0 0 0 0 0 0 0 0 127 0"/>
<feOffset dy="4"/>
<feGaussianBlur stdDeviation="5"/>
<feColorMatrix type="matrix" values="0 0 0 0 0.137255 0 0 0 0 0.160784 0 0 0 0 0.239216 0 0 0 1 0"/>
<feBlend mode="normal" in2="BackgroundImageFix" result="effect1_dropShadow"/>
<feBlend mode="normal" in="SourceGraphic" in2="effect1_dropShadow" result="shape"/>
</filter>
<filter id="filter18_d" x="572" y="418.81" width="62.2" height="44.06" filterUnits="userSpaceOnUse" color-interpolation-filters="sRGB">
<feFlood flood-opacity="0" result="BackgroundImageFix"/>
<feColorMatrix in="SourceAlpha" type="matrix" values="0 0 0 0 0 0 0 0 0 0 0 0 0 0 0 0 0 0 127 0"/>
<feOffset dy="4"/>
<feGaussianBlur stdDeviation="5"/>
<feColorMatrix type="matrix" values="0 0 0 0 0.137255 0 0 0 0 0.160784 0 0 0 0 0.239216 0 0 0 1 0"/>
<feBlend mode="normal" in2="BackgroundImageFix" result="effect1_dropShadow"/>
<feBlend mode="normal" in="SourceGraphic" in2="effect1_dropShadow" result="shape"/>
</filter>
<linearGradient id="paint0_linear" x1="1312.07" y1="521.76" x2="-14.4752" y2="531.012" gradientUnits="userSpaceOnUse">
<stop offset="0.432292" stop-color="#313A55"/>
<stop offset="0.953125" stop-color="#DE063A"/>
</linearGradient>
<linearGradient id="paint1_linear" x1="328.158" y1="292.046" x2="863.741" y2="511.458" gradientUnits="userSpaceOnUse">
<stop stop-color="#23293D"/>
<stop offset="0.677083" stop-color="#23293D"/>
<stop offset="0.833333" stop-color="#23293D"/>
</linearGradient>
<linearGradient id="paint2_linear" x1="576.5" y1="488" x2="617.5" y2="488" gradientUnits="userSpaceOnUse">
<stop stop-color="#23293D"/>
<stop offset="0.177006" stop-color="#3B4974"/>
<stop offset="1" stop-color="#23293D"/>
</linearGradient>
<linearGradient id="paint3_linear" x1="577" y1="485" x2="597.105" y2="484.84" gradientUnits="userSpaceOnUse">
<stop stop-color="#23293D"/>
<stop offset="0.114583" stop-color="#313A55"/>
<stop offset="1" stop-color="#23293D"/>
</linearGradient>
<radialGradient id="paint4_radial" cx="0" cy="0" r="1" gradientUnits="userSpaceOnUse" gradientTransform="translate(597.1 478.03) rotate(90) scale(12.03 22.1104)">
<stop offset="0.927083" stop-color="#23293D"/>
<stop offset="1" stop-color="#313A55"/>
</radialGradient>
<linearGradient id="paint5_linear" x1="624.5" y1="463" x2="665.5" y2="463" gradientUnits="userSpaceOnUse">
<stop stop-color="#23293D"/>
<stop offset="0.177006" stop-color="#3B4974"/>
<stop offset="1" stop-color="#23293D"/>
</linearGradient>
<linearGradient id="paint6_linear" x1="625" y1="460" x2="645.105" y2="459.84" gradientUnits="userSpaceOnUse">
<stop stop-color="#23293D"/>
<stop offset="0.114583" stop-color="#313A55"/>
<stop offset="1" stop-color="#23293D"/>
</linearGradient>
<radialGradient id="paint7_radial" cx="0" cy="0" r="1" gradientUnits="userSpaceOnUse" gradientTransform="translate(645.1 453.03) rotate(90) scale(12.03 22.1104)">
<stop offset="0.927083" stop-color="#23293D"/>
<stop offset="1" stop-color="#313A55"/>
</radialGradient>
<linearGradient id="paint8_linear" x1="666.5" y1="439" x2="707.5" y2="439" gradientUnits="userSpaceOnUse">
<stop stop-color="#23293D"/>
<stop offset="0.177006" stop-color="#3B4974"/>
<stop offset="1" stop-color="#23293D"/>
</linearGradient>
<linearGradient id="paint9_linear" x1="667" y1="436" x2="687.105" y2="435.84" gradientUnits="userSpaceOnUse">
<stop stop-color="#23293D"/>
<stop offset="0.114583" stop-color="#313A55"/>
<stop offset="1" stop-color="#23293D"/>
</linearGradient>
<radialGradient id="paint10_radial" cx="0" cy="0" r="1" gradientUnits="userSpaceOnUse" gradientTransform="translate(687.1 429.03) rotate(90) scale(12.03 22.1104)">
<stop offset="0.927083" stop-color="#23293D"/>
<stop offset="1" stop-color="#313A55"/>
</radialGradient>
<linearGradient id="paint11_linear" x1="618.5" y1="513" x2="659.5" y2="513" gradientUnits="userSpaceOnUse">
<stop stop-color="#23293D"/>
<stop offset="0.177006" stop-color="#3B4974"/>
<stop offset="1" stop-color="#23293D"/>
</linearGradient>
<linearGradient id="paint12_linear" x1="619" y1="510" x2="639.105" y2="509.84" gradientUnits="userSpaceOnUse">
<stop stop-color="#23293D"/>
<stop offset="0.114583" stop-color="#313A55"/>
<stop offset="1" stop-color="#23293D"/>
</linearGradient>
<radialGradient id="paint13_radial" cx="0" cy="0" r="1" gradientUnits="userSpaceOnUse" gradientTransform="translate(639.1 503.03) rotate(90) scale(12.03 22.1104)">
<stop offset="0.927083" stop-color="#23293D"/>
<stop offset="1" stop-color="#313A55"/>
</radialGradient>
<linearGradient id="paint14_linear" x1="666.5" y1="488" x2="707.5" y2="488" gradientUnits="userSpaceOnUse">
<stop stop-color="#23293D"/>
<stop offset="0.177006" stop-color="#3B4974"/>
<stop offset="1" stop-color="#23293D"/>
</linearGradient>
<linearGradient id="paint15_linear" x1="667" y1="485" x2="687.105" y2="484.84" gradientUnits="userSpaceOnUse">
<stop stop-color="#23293D"/>
<stop offset="0.114583" stop-color="#313A55"/>
<stop offset="1" stop-color="#23293D"/>
</linearGradient>
<radialGradient id="paint16_radial" cx="0" cy="0" r="1" gradientUnits="userSpaceOnUse" gradientTransform="translate(687.1 478.03) rotate(90) scale(12.03 22.1104)">
<stop offset="0.927083" stop-color="#23293D"/>
<stop offset="1" stop-color="#313A55"/>
</radialGradient>
<linearGradient id="paint17_linear" x1="711.5" y1="464" x2="752.5" y2="464" gradientUnits="userSpaceOnUse">
<stop stop-color="#23293D"/>
<stop offset="0.177006" stop-color="#3B4974"/>
<stop offset="1" stop-color="#23293D"/>
</linearGradient>
<linearGradient id="paint18_linear" x1="712" y1="461" x2="732.105" y2="460.84" gradientUnits="userSpaceOnUse">
<stop stop-color="#23293D"/>
<stop offset="0.114583" stop-color="#313A55"/>
<stop offset="1" stop-color="#23293D"/>
</linearGradient>
<radialGradient id="paint19_radial" cx="0" cy="0" r="1" gradientUnits="userSpaceOnUse" gradientTransform="translate(732.1 454.03) rotate(90) scale(12.03 22.1104)">
<stop offset="0.927083" stop-color="#23293D"/>
<stop offset="1" stop-color="#313A55"/>
</radialGradient>
<linearGradient id="paint20_linear" x1="490.5" y1="422" x2="480" y2="439.5" gradientUnits="userSpaceOnUse">
<stop offset="0.109375" stop-color="#23293D"/>
<stop offset="0.338542" stop-color="#FF2473"/>
<stop offset="0.401042" stop-color="#FF8200"/>
</linearGradient>
<radialGradient id="paint21_radial" cx="0" cy="0" r="1" gradientUnits="userSpaceOnUse" gradientTransform="translate(433.1 396.84) rotate(90) scale(12.03 21.1)">
<stop offset="0.302083" stop-color="#DE063A"/>
<stop offset="1" stop-color="#FF2473"/>
</radialGradient>
<radialGradient id="paint22_radial" cx="0" cy="0" r="1" gradientUnits="userSpaceOnUse" gradientTransform="translate(433.1 390.03) rotate(90) scale(12.03 22.1104)">
<stop offset="0.244792" stop-color="#FF2473"/>
<stop offset="0.244892" stop-color="#23293D"/>
</radialGradient>
<linearGradient id="paint23_linear" x1="408.509" y1="325.694" x2="449.507" y2="325.376" gradientUnits="userSpaceOnUse">
<stop offset="0.463542" stop-color="#DE063A"/>
<stop offset="0.5625" stop-color="#FF4B8C"/>
<stop offset="0.677083" stop-color="#23293D"/>
</linearGradient>
<radialGradient id="paint24_radial" cx="0" cy="0" r="1" gradientUnits="userSpaceOnUse" gradientTransform="translate(427.75 211.5) rotate(89.1815) scale(17.5018 27.852)">
<stop stop-color="#DE063A"/>
<stop offset="1" stop-color="#FF3F84"/>
</radialGradient>
<radialGradient id="paint25_radial" cx="0" cy="0" r="1" gradientUnits="userSpaceOnUse" gradientTransform="translate(427.75 212.5) rotate(89.1815) scale(17.5018 27.852)">
<stop stop-color="#DE063A"/>
<stop offset="1" stop-color="#FF639B"/>
</radialGradient>
<radialGradient id="paint26_diamond" cx="0" cy="0" r="1" gradientUnits="userSpaceOnUse" gradientTransform="translate(430 204) rotate(90) scale(21.5 38.6745)">
<stop offset="0.463542" stop-color="#23293D"/>
<stop offset="1" stop-color="#313A55"/>
</radialGradient>
<radialGradient id="paint27_radial" cx="0" cy="0" r="1" gradientUnits="userSpaceOnUse" gradientTransform="translate(429.603 206.345) rotate(90) scale(17.345 27.6025)">
<stop offset="0.901042" stop-color="#DE063A"/>
<stop offset="1" stop-color="#FF2473"/>
</radialGradient>
<linearGradient id="paint28_linear" x1="405.011" y1="166.993" x2="446.011" y2="167.004" gradientUnits="userSpaceOnUse">
<stop offset="0.463542" stop-color="#DE063A"/>
<stop offset="0.5625" stop-color="#FF4B8C"/>
<stop offset="0.677083" stop-color="#23293D"/>
</linearGradient>
<linearGradient id="paint29_linear" x1="470.811" y1="0.068358" x2="436.3" y2="95.3105" gradientUnits="userSpaceOnUse">
<stop stop-color="#DE063A"/>
<stop offset="0.869792" stop-color="#FF5B96"/>
</linearGradient>
<linearGradient id="paint30_linear" x1="535" y1="8.00006" x2="416.5" y2="78.5001" gradientUnits="userSpaceOnUse">
<stop stop-color="#DE063A"/>
<stop offset="1" stop-color="#FF2473"/>
</linearGradient>
<radialGradient id="paint31_radial" cx="0" cy="0" r="1" gradientUnits="userSpaceOnUse" gradientTransform="translate(555.1 415.84) rotate(90) scale(12.03 21.1)">
<stop offset="0.302083" stop-color="#DE063A"/>
<stop offset="1" stop-color="#FF2473"/>
</radialGradient>
<radialGradient id="paint32_radial" cx="0" cy="0" r="1" gradientUnits="userSpaceOnUse" gradientTransform="translate(555.1 409.03) rotate(90) scale(12.03 22.1104)">
<stop offset="0.84375" stop-color="#23293D"/>
<stop offset="1" stop-color="#FF2473"/>
</radialGradient>
<radialGradient id="paint33_radial" cx="0" cy="0" r="1" gradientUnits="userSpaceOnUse" gradientTransform="translate(601.1 390.84) rotate(90) scale(12.03 21.1)">
<stop offset="0.302083" stop-color="#DE063A"/>
<stop offset="1" stop-color="#FF2473"/>
</radialGradient>
<radialGradient id="paint34_radial" cx="0" cy="0" r="1" gradientUnits="userSpaceOnUse" gradientTransform="translate(601.1 384.03) rotate(90) scale(12.03 22.1104)">
<stop offset="0.84375" stop-color="#23293D"/>
<stop offset="1" stop-color="#FF2473"/>
</radialGradient>
<radialGradient id="paint35_radial" cx="0" cy="0" r="1" gradientUnits="userSpaceOnUse" gradientTransform="translate(384.1 368.84) rotate(90) scale(12.03 21.1)">
<stop offset="0.302083" stop-color="#DE063A"/>
<stop offset="1" stop-color="#FF2473"/>
</radialGradient>
<radialGradient id="paint36_radial" cx="0" cy="0" r="1" gradientUnits="userSpaceOnUse" gradientTransform="translate(384.1 362.03) rotate(90) scale(12.03 22.1104)">
<stop offset="0.84375" stop-color="#23293D"/>
<stop offset="1" stop-color="#FF2473"/>
</radialGradient>
<linearGradient id="paint37_linear" x1="429.811" y1="79.0682" x2="394.649" y2="175.084" gradientUnits="userSpaceOnUse">
<stop stop-color="#FF2473"/>
<stop offset="0.869792" stop-color="#FF8200"/>
</linearGradient>
<linearGradient id="paint38_linear" x1="488.5" y1="91" x2="371" y2="158.5" gradientUnits="userSpaceOnUse">
<stop stop-color="#FF2473"/>
<stop offset="1" stop-color="#FF8200"/>
</linearGradient>
<linearGradient id="paint39_linear" x1="533.811" y1="18.0698" x2="497.179" y2="115.798" gradientUnits="userSpaceOnUse">
<stop stop-color="#313A55"/>
<stop offset="0.869792" stop-color="#343E5B"/>
</linearGradient>
<linearGradient id="paint40_linear" x1="579.094" y1="451.463" x2="575.808" y2="446.129" gradientUnits="userSpaceOnUse">
<stop stop-color="#FF2473"/>
<stop offset="0.0001" stop-color="#FF8200"/>
<stop offset="0.411458" stop-color="#23293D" stop-opacity="0.79"/>
</linearGradient>
<linearGradient id="paint41_linear" x1="519.5" y1="466.5" x2="593.5" y2="467.5" gradientUnits="userSpaceOnUse">
<stop offset="0.151042" stop-color="#FF2473"/>
<stop offset="0.501325" stop-color="#FF8200"/>
<stop offset="0.859375" stop-color="#FF2473"/>
</linearGradient>
<radialGradient id="paint42_radial" cx="0" cy="0" r="1" gradientUnits="userSpaceOnUse" gradientTransform="translate(555.1 455.03) rotate(90) scale(12.03 22.1104)">
<stop offset="0.786458" stop-color="#23293D"/>
<stop offset="1" stop-color="#313A55"/>
</radialGradient>
<linearGradient id="paint43_linear" x1="567.5" y1="441.5" x2="641.5" y2="442.5" gradientUnits="userSpaceOnUse">
<stop offset="0.151042" stop-color="#FF2473"/>
<stop offset="0.501325" stop-color="#FF8200"/>
<stop offset="0.859375" stop-color="#FF2473"/>
</linearGradient>
<radialGradient id="paint44_radial" cx="0" cy="0" r="1" gradientUnits="userSpaceOnUse" gradientTransform="translate(603.1 430.03) rotate(90) scale(12.03 22.1104)">
<stop offset="0.786458" stop-color="#23293D"/>
<stop offset="1" stop-color="#313A55"/>
</radialGradient>
</defs>
</svg>
