<svg width="1440" height="1024" viewBox="0 0 1440 1024" fill="none" xmlns="http://www.w3.org/2000/svg">
<g id="Desktop - 3">
<path id="Vector" d="M269.871 679.976L753.047 953.161C760.875 957.642 769.741 960 778.765 960C787.788 960 796.655 957.642 804.483 953.161L1369.46 625.338C1377.24 620.782 1383.68 614.277 1388.16 606.466C1392.64 598.655 1395 589.81 1395 580.809C1395 571.808 1392.64 562.964 1388.16 555.153C1383.68 547.342 1377.24 540.836 1369.46 536.28L888.204 258.996C880.311 254.414 871.343 252 862.213 252C853.082 252 844.114 254.414 836.22 258.996L270.145 590.371C262.229 594.866 255.642 601.37 251.051 609.223C246.46 617.076 244.028 626.001 244 635.094C243.972 644.187 246.35 653.126 250.893 661.007C255.436 668.888 261.983 675.432 269.871 679.976Z" fill="url(#paint0_linear)"/>
<g id="Board">
<path id="Vector_2" d="M1047.84 503.891V530.486H1039.08L1036.07 515.837" fill="#23293D"/>
<path id="Vector_3" d="M535.703 419.676V393.553L546.458 408.013L535.703 419.676Z" fill="#23293D"/>
<path id="Vector_4" d="M546.121 399.683L682.383 319.239C687.213 316.387 692.693 314.885 698.271 314.885C703.849 314.885 709.328 316.387 714.159 319.239L1037.3 510.052C1040.55 511.952 1043.25 514.697 1045.13 518.009C1047.01 521.322 1048 525.083 1048 528.913C1048 532.743 1047.01 536.505 1045.13 539.817C1043.25 543.13 1040.55 545.875 1037.3 547.775L900.79 628.375C896.17 631.103 890.928 632.54 885.593 632.54C880.258 632.54 875.017 631.103 870.397 628.375L546.121 436.776C542.936 434.898 540.291 432.195 538.451 428.94C536.612 425.684 535.644 421.99 535.644 418.229C535.644 414.469 536.612 410.775 538.451 407.519C540.291 404.263 542.936 401.56 546.121 399.683Z" fill="url(#paint1_linear)"/>
<path id="Vector_5" d="M544.835 376.256L544.838 376.254L681.101 295.779C685.855 292.972 691.247 291.494 696.734 291.494C702.222 291.494 707.614 292.972 712.368 295.779L712.621 295.352L712.368 295.779L1035.54 486.624L1035.54 486.625C1038.71 488.479 1041.35 491.16 1043.19 494.397C1045.03 497.634 1045.99 501.31 1045.99 505.054C1045.99 508.798 1045.03 512.475 1043.19 515.711C1041.35 518.948 1038.71 521.629 1035.54 523.484L1035.54 523.485L899.03 604.085C894.486 606.769 889.333 608.181 884.087 608.181C878.842 608.181 873.689 606.769 869.145 604.085L868.891 604.516L869.145 604.085L544.838 412.612L544.835 412.611C541.699 410.786 539.089 408.144 537.273 404.951C535.457 401.758 534.5 398.129 534.5 394.433C534.5 390.738 535.457 387.108 537.273 383.915C539.089 380.722 541.699 378.08 544.835 376.256Z" fill="#313A55" stroke="#313A55"/>
</g>
<g id="Button Darkblue">
<g id="Vector_6" filter="url(#filter0_d)">
<path d="M841.1 559.87C852.753 559.87 862.2 554.484 862.2 547.84C862.2 541.196 852.753 535.81 841.1 535.81C829.447 535.81 820 541.196 820 547.84C820 554.484 829.447 559.87 841.1 559.87Z" fill="url(#paint2_linear)"/>
</g>
<path id="Vector_7" d="M820.01 547.84V541.03H862.2V547.84" fill="url(#paint3_linear)"/>
<path id="Vector_8" d="M861.95 541.03C861.95 544.223 859.677 547.163 855.896 549.319C852.122 551.471 846.891 552.81 841.1 552.81C835.309 552.81 830.078 551.471 826.304 549.319C822.523 547.163 820.25 544.223 820.25 541.03C820.25 537.837 822.523 534.897 826.304 532.741C830.078 530.589 835.309 529.25 841.1 529.25C846.891 529.25 852.122 530.589 855.896 532.741C859.677 534.897 861.95 537.837 861.95 541.03Z" fill="url(#paint4_radial)" stroke="#313A55" stroke-width="0.5"/>
</g>
<g id="Button Darkblue_2">
<g id="Vector_9" filter="url(#filter1_d)">
<path d="M889.1 534.87C900.753 534.87 910.2 529.484 910.2 522.84C910.2 516.196 900.753 510.81 889.1 510.81C877.447 510.81 868 516.196 868 522.84C868 529.484 877.447 534.87 889.1 534.87Z" fill="url(#paint5_linear)"/>
</g>
<path id="Vector_10" d="M868.01 522.84V516.03H910.2V522.84" fill="url(#paint6_linear)"/>
<path id="Vector_11" d="M909.95 516.03C909.95 519.223 907.677 522.163 903.896 524.319C900.122 526.471 894.891 527.81 889.1 527.81C883.309 527.81 878.078 526.471 874.304 524.319C870.523 522.163 868.25 519.223 868.25 516.03C868.25 512.837 870.523 509.897 874.304 507.741C878.078 505.589 883.309 504.25 889.1 504.25C894.891 504.25 900.122 505.589 903.896 507.741C907.677 509.897 909.95 512.837 909.95 516.03Z" fill="url(#paint7_radial)" stroke="#313A55" stroke-width="0.5"/>
</g>
<g id="Button Darkblue_3">
<g id="Vector_12" filter="url(#filter2_d)">
<path d="M931.1 510.87C942.753 510.87 952.2 505.484 952.2 498.84C952.2 492.196 942.753 486.81 931.1 486.81C919.447 486.81 910 492.196 910 498.84C910 505.484 919.447 510.87 931.1 510.87Z" fill="url(#paint8_linear)"/>
</g>
<path id="Vector_13" d="M910.01 498.84V492.03H952.2V498.84" fill="url(#paint9_linear)"/>
<path id="Vector_14" d="M951.95 492.03C951.95 495.223 949.677 498.163 945.896 500.319C942.122 502.471 936.891 503.81 931.1 503.81C925.309 503.81 920.078 502.471 916.304 500.319C912.523 498.163 910.25 495.223 910.25 492.03C910.25 488.837 912.523 485.897 916.304 483.741C920.078 481.589 925.309 480.25 931.1 480.25C936.891 480.25 942.122 481.589 945.896 483.741C949.677 485.897 951.95 488.837 951.95 492.03Z" fill="url(#paint10_radial)" stroke="#313A55" stroke-width="0.5"/>
</g>
<g id="Button Darkblue_4">
<g id="Vector_15" filter="url(#filter3_d)">
<path d="M883.1 584.87C894.753 584.87 904.2 579.484 904.2 572.84C904.2 566.196 894.753 560.81 883.1 560.81C871.447 560.81 862 566.196 862 572.84C862 579.484 871.447 584.87 883.1 584.87Z" fill="url(#paint11_linear)"/>
</g>
<path id="Vector_16" d="M862.01 572.84V566.03H904.2V572.84" fill="url(#paint12_linear)"/>
<path id="Vector_17" d="M903.95 566.03C903.95 569.223 901.677 572.163 897.896 574.319C894.122 576.471 888.891 577.81 883.1 577.81C877.309 577.81 872.078 576.471 868.304 574.319C864.523 572.163 862.25 569.223 862.25 566.03C862.25 562.837 864.523 559.897 868.304 557.741C872.078 555.589 877.309 554.25 883.1 554.25C888.891 554.25 894.122 555.589 897.896 557.741C901.677 559.897 903.95 562.837 903.95 566.03Z" fill="url(#paint13_radial)" stroke="#313A55" stroke-width="0.5"/>
</g>
<g id="Button Darkblue_5">
<g id="Vector_18" filter="url(#filter4_d)">
<path d="M931.1 559.87C942.753 559.87 952.2 554.484 952.2 547.84C952.2 541.196 942.753 535.81 931.1 535.81C919.447 535.81 910 541.196 910 547.84C910 554.484 919.447 559.87 931.1 559.87Z" fill="url(#paint14_linear)"/>
</g>
<path id="Vector_19" d="M910.01 547.84V541.03H952.2V547.84" fill="url(#paint15_linear)"/>
<path id="Vector_20" d="M951.95 541.03C951.95 544.223 949.677 547.163 945.896 549.319C942.122 551.471 936.891 552.81 931.1 552.81C925.309 552.81 920.078 551.471 916.304 549.319C912.523 547.163 910.25 544.223 910.25 541.03C910.25 537.837 912.523 534.897 916.304 532.741C920.078 530.589 925.309 529.25 931.1 529.25C936.891 529.25 942.122 530.589 945.896 532.741C949.677 534.897 951.95 537.837 951.95 541.03Z" fill="url(#paint16_radial)" stroke="#313A55" stroke-width="0.5"/>
</g>
<g id="Button Darkblue_6">
<g id="Vector_21" filter="url(#filter5_d)">
<path d="M976.1 535.87C987.753 535.87 997.2 530.484 997.2 523.84C997.2 517.196 987.753 511.81 976.1 511.81C964.447 511.81 955 517.196 955 523.84C955 530.484 964.447 535.87 976.1 535.87Z" fill="url(#paint17_linear)"/>
</g>
<path id="Vector_22" d="M955.01 523.84V517.03H997.2V523.84" fill="url(#paint18_linear)"/>
<path id="Vector_23" d="M996.95 517.03C996.95 520.223 994.677 523.163 990.896 525.319C987.122 527.471 981.891 528.81 976.1 528.81C970.309 528.81 965.078 527.471 961.304 525.319C957.523 523.163 955.25 520.223 955.25 517.03C955.25 513.837 957.523 510.897 961.304 508.741C965.078 506.589 970.309 505.25 976.1 505.25C981.891 505.25 987.122 506.589 990.896 508.741C994.677 510.897 996.95 513.837 996.95 517.03Z" fill="url(#paint19_radial)" stroke="#313A55" stroke-width="0.5"/>
</g>
<line id="Line 4" x1="672.773" y1="455.715" x2="790.773" y2="526.715" stroke="url(#paint20_linear)" stroke-width="3"/>
<g id="Button Magenta Glow Donut">
<g id="Vector_24" filter="url(#filter6_d)">
<path d="M677.1 471.87C688.753 471.87 698.2 466.484 698.2 459.84C698.2 453.196 688.753 447.81 677.1 447.81C665.447 447.81 656 453.196 656 459.84C656 466.484 665.447 471.87 677.1 471.87Z" fill="url(#paint21_radial)"/>
<path d="M697.7 459.84C697.7 462.904 695.517 465.777 691.772 467.912C688.042 470.039 682.856 471.37 677.1 471.37C671.344 471.37 666.158 470.039 662.428 467.912C658.683 465.777 656.5 462.904 656.5 459.84C656.5 456.775 658.683 453.903 662.428 451.768C666.158 449.641 671.344 448.31 677.1 448.31C682.856 448.31 688.042 449.641 691.772 451.768C695.517 453.903 697.7 456.775 697.7 459.84Z" stroke="#FF4588"/>
</g>
<path id="Vector_25" d="M656.01 459.84V453.03H698.2V459.84" fill="#FF2473"/>
<g id="Vector_26" filter="url(#filter7_d)">
<path d="M677.1 465.06C688.753 465.06 698.2 459.674 698.2 453.03C698.2 446.386 688.753 441 677.1 441C665.447 441 656 446.386 656 453.03C656 459.674 665.447 465.06 677.1 465.06Z" fill="url(#paint22_radial)"/>
<path d="M697.7 453.03C697.7 456.095 695.517 458.967 691.772 461.102C688.042 463.229 682.856 464.56 677.1 464.56C671.344 464.56 666.158 463.229 662.428 461.102C658.683 458.967 656.5 456.095 656.5 453.03C656.5 449.965 658.683 447.093 662.428 444.958C666.158 442.831 671.344 441.5 677.1 441.5C682.856 441.5 688.042 442.831 691.772 444.958C695.517 447.093 697.7 449.965 697.7 453.03Z" stroke="#DE063A"/>
</g>
</g>
<line id="Line 2" x1="676.5" y1="452.012" x2="675.516" y2="325.012" stroke="url(#paint23_linear)" stroke-width="3"/>
<g id="Tablet View">
<path id="Vector_27" d="M543.013 328.103V320.474L546.65 324.182C546.693 324.689 546.63 325.201 546.465 325.682C546.3 326.163 546.037 326.603 545.694 326.974C545.351 327.344 544.934 327.636 544.472 327.831C544.01 328.026 543.513 328.119 543.013 328.103Z" fill="#23293D"/>
<path id="Vector_28" d="M545.849 322.95L683.057 242.638C684.521 241.773 686.183 241.318 687.875 241.318C689.567 241.318 691.23 241.773 692.694 242.638L765.926 286.315C766.781 286.82 767.492 287.547 767.986 288.421C768.479 289.294 768.739 290.285 768.739 291.294C768.739 292.302 768.479 293.293 767.986 294.167C767.492 295.041 766.781 295.767 765.926 296.273L630.175 376.344C628.222 377.498 626.001 378.099 623.744 378.085C621.487 378.071 619.274 377.442 617.335 376.264L545.757 332.882C544.912 332.366 544.214 331.634 543.732 330.758C543.251 329.882 543.002 328.893 543.011 327.889C543.021 326.885 543.288 325.901 543.785 325.035C544.283 324.168 544.995 323.45 545.849 322.95Z" fill="#23293D"/>
<path id="Vector_29" d="M545.849 316.632L683.057 236.32C684.521 235.455 686.183 235 687.875 235C689.567 235 691.23 235.455 692.694 236.32L765.926 279.997C766.781 280.503 767.492 281.229 767.986 282.103C768.479 282.977 768.739 283.967 768.739 284.976C768.739 285.985 768.479 286.975 767.986 287.849C767.492 288.723 766.781 289.449 765.926 289.955L630.175 370.026C628.222 371.18 626.001 371.782 623.744 371.767C621.487 371.753 619.274 371.124 617.335 369.946L545.757 326.578C544.909 326.063 544.208 325.33 543.724 324.453C543.241 323.576 542.991 322.584 543 321.578C543.01 320.572 543.277 319.585 543.777 318.718C544.277 317.85 544.991 317.131 545.849 316.632Z" fill="#313A55"/>
<path id="Vector_30" d="M680.231 243C681.076 243.278 758 288.401 758 288.401L629.565 364L552 318.995L680.231 243Z" fill="#23293D"/>
</g>
<g id="Tablet View_2">
<path id="Vector_31" d="M701.013 228.103V220.474L704.65 224.182C704.693 224.689 704.63 225.201 704.465 225.682C704.3 226.163 704.037 226.603 703.694 226.974C703.351 227.344 702.934 227.636 702.472 227.831C702.01 228.026 701.513 228.119 701.013 228.103Z" fill="#23293D"/>
<path id="Vector_32" d="M703.849 222.95L841.057 142.638C842.521 141.773 844.183 141.318 845.875 141.318C847.567 141.318 849.23 141.773 850.694 142.638L923.926 186.315C924.781 186.82 925.492 187.547 925.986 188.421C926.479 189.294 926.739 190.285 926.739 191.294C926.739 192.302 926.479 193.293 925.986 194.167C925.492 195.041 924.781 195.767 923.926 196.273L788.175 276.344C786.222 277.498 784.001 278.099 781.744 278.085C779.487 278.071 777.274 277.442 775.335 276.264L703.757 232.882C702.912 232.366 702.214 231.634 701.732 230.758C701.251 229.882 701.002 228.893 701.011 227.889C701.021 226.885 701.288 225.901 701.785 225.035C702.283 224.168 702.995 223.45 703.849 222.95Z" fill="#23293D"/>
<path id="Vector_33" d="M703.849 216.632L841.057 136.32C842.521 135.455 844.183 135 845.875 135C847.567 135 849.23 135.455 850.694 136.32L923.926 179.997C924.781 180.503 925.492 181.229 925.986 182.103C926.479 182.977 926.739 183.967 926.739 184.976C926.739 185.985 926.479 186.975 925.986 187.849C925.492 188.723 924.781 189.449 923.926 189.955L788.175 270.026C786.222 271.18 784.001 271.782 781.744 271.767C779.487 271.753 777.274 271.124 775.335 269.946L703.757 226.578C702.909 226.063 702.208 225.33 701.724 224.453C701.241 223.576 700.991 222.584 701 221.578C701.01 220.572 701.277 219.585 701.777 218.718C702.277 217.85 702.991 217.131 703.849 216.632Z" fill="#313A55"/>
<path id="Vector_34" d="M838.231 143C839.076 143.278 916 188.401 916 188.401L787.565 264L710 218.995L838.231 143Z" fill="#23293D"/>
</g>
<g id="Box Glow">
<g id="Vector_35">
<g filter="url(#filter8_i)">
<path d="M647.268 277.97L670.453 291.355C670.829 291.574 671.254 291.69 671.687 291.69C672.12 291.69 672.546 291.574 672.921 291.355L699.98 275.293C700.353 275.069 700.662 274.751 700.877 274.368C701.092 273.985 701.205 273.552 701.205 273.111C701.205 272.67 701.092 272.236 700.877 271.854C700.662 271.471 700.353 271.152 699.98 270.929L676.886 257.343C676.507 257.118 676.077 257 675.639 257C675.201 257 674.771 257.118 674.392 257.343L647.229 273.579C646.851 273.804 646.539 274.127 646.323 274.514C646.108 274.902 645.996 275.34 646 275.786C646.004 276.232 646.123 276.668 646.346 277.052C646.569 277.435 646.887 277.752 647.268 277.97Z" fill="url(#paint24_radial)"/>
</g>
<path d="M647.393 277.753L647.392 277.753C647.049 277.557 646.763 277.272 646.562 276.926C646.362 276.58 646.254 276.186 646.25 275.784C646.246 275.381 646.347 274.985 646.542 274.636C646.736 274.286 647.018 273.996 647.357 273.794L647.357 273.794L674.519 257.558C674.519 257.558 674.52 257.558 674.52 257.558C674.86 257.356 675.246 257.25 675.639 257.25C676.032 257.25 676.418 257.356 676.759 257.558L676.759 257.558L699.851 271.143C699.852 271.144 699.852 271.144 699.852 271.144C700.187 271.344 700.465 271.631 700.659 271.976C700.853 272.321 700.955 272.712 700.955 273.111C700.955 273.509 700.853 273.9 700.659 274.245C700.465 274.591 700.187 274.877 699.851 275.078L672.795 291.139C672.795 291.139 672.795 291.139 672.794 291.14C672.457 291.337 672.075 291.44 671.687 291.44C671.299 291.44 670.917 291.336 670.579 291.139L670.578 291.138L647.393 277.753Z" stroke="#FF4185" stroke-width="0.5"/>
</g>
<g id="Vector_36" filter="url(#filter9_d)">
<path d="M647.268 278.97L670.453 292.355C670.829 292.574 671.254 292.69 671.687 292.69C672.12 292.69 672.546 292.574 672.921 292.355L699.98 276.293C700.353 276.069 700.662 275.751 700.877 275.368C701.092 274.985 701.205 274.552 701.205 274.111C701.205 273.67 701.092 273.236 700.877 272.854C700.662 272.471 700.353 272.152 699.98 271.929L676.886 258.343C676.507 258.118 676.077 258 675.639 258C675.201 258 674.771 258.118 674.392 258.343L647.229 274.579C646.851 274.804 646.539 275.127 646.323 275.514C646.108 275.902 645.996 276.34 646 276.786C646.004 277.232 646.123 277.668 646.346 278.052C646.569 278.435 646.887 278.752 647.268 278.97Z" fill="url(#paint25_radial)"/>
<path d="M647.393 278.753L647.392 278.753C647.049 278.557 646.763 278.272 646.562 277.926C646.362 277.58 646.254 277.186 646.25 276.784C646.246 276.381 646.347 275.985 646.542 275.636C646.736 275.286 647.018 274.996 647.357 274.794L647.357 274.794L674.519 258.558C674.519 258.558 674.52 258.558 674.52 258.558C674.86 258.356 675.246 258.25 675.639 258.25C676.032 258.25 676.418 258.356 676.759 258.558L676.759 258.558L699.851 272.143C699.852 272.144 699.852 272.144 699.852 272.144C700.187 272.344 700.465 272.631 700.659 272.976C700.853 273.321 700.955 273.712 700.955 274.111C700.955 274.509 700.853 274.9 700.659 275.245C700.465 275.591 700.187 275.877 699.851 276.078L672.795 292.139C672.795 292.139 672.795 292.139 672.794 292.14C672.457 292.337 672.075 292.44 671.687 292.44C671.299 292.44 670.917 292.336 670.579 292.139L670.578 292.138L647.393 278.753Z" stroke="#FF4789" stroke-width="0.5"/>
</g>
<path id="Vector 1" d="M646.25 275.324V272.172C646.361 272.263 646.488 272.322 646.63 272.351C646.897 272.406 647.179 272.342 647.433 272.246C647.691 272.148 647.952 272.004 648.189 271.866C648.277 271.814 648.361 271.763 648.44 271.716C648.581 271.631 648.71 271.554 648.828 271.49C648.919 271.441 648.993 271.406 649.052 271.386C649.053 271.385 649.054 271.385 649.056 271.384C649.055 271.396 649.054 271.408 649.053 271.423C649.036 271.598 648.957 271.897 648.781 272.371L646.25 275.324Z" fill="#DE063A" stroke="#DE063A" stroke-width="0.5"/>
<path id="Vector 2" d="M698 271.5C698 273.5 701 269.1 701 273.5V268L698 271.5Z" fill="#DE063A" stroke="#DE063A" stroke-width="0.3"/>
<path id="Vector_37" d="M647.518 272.537L647.516 272.536C647.212 272.362 646.957 272.109 646.778 271.801C646.6 271.492 646.503 271.141 646.5 270.782C646.497 270.422 646.587 270.069 646.76 269.757C646.934 269.446 647.184 269.188 647.485 269.009L647.485 269.008L674.647 252.773C674.647 252.773 674.647 252.773 674.648 252.772C674.949 252.594 675.291 252.5 675.639 252.5C675.987 252.5 676.329 252.594 676.631 252.773L676.633 252.774L699.723 266.358C699.723 266.358 699.724 266.359 699.724 266.359C700.021 266.537 700.269 266.791 700.441 267.098C700.614 267.406 700.705 267.755 700.705 268.111C700.705 268.466 700.614 268.815 700.441 269.123C700.268 269.43 700.021 269.685 699.724 269.863C699.723 269.863 699.723 269.863 699.723 269.863L672.669 285.923C672.669 285.923 672.668 285.924 672.668 285.924C672.369 286.099 672.031 286.19 671.687 286.19C671.343 286.19 671.005 286.098 670.706 285.923L670.703 285.922L647.518 272.537Z" fill="url(#paint26_diamond)" stroke="url(#paint27_radial)"/>
</g>
<line id="Line 5" x1="672.5" y1="269" x2="672.521" y2="190.999" stroke="url(#paint28_linear)" stroke-width="3"/>
<g id="Flow Glow Magenta">
<path id="Vector_38" d="M670.287 113.984L756.807 63.4559C757.272 63.1986 757.799 63.0649 758.336 63.0684C758.873 63.072 759.399 63.2128 759.859 63.4762C760.32 63.7396 760.699 64.1161 760.957 64.5669C761.215 65.0176 761.343 65.5262 761.327 66.0401V94.9135C761.332 95.4345 761.195 95.9476 760.931 96.403C760.667 96.8583 760.285 97.2405 759.821 97.5121L673.27 147.001C672.808 147.257 671.945 147.697 671.411 147.695C670.877 147.692 670.353 147.554 669.893 147.294C669.434 147.034 669.054 146.928 668.794 146.482C668.533 146.035 668.401 145.264 668.412 144.752L668.298 117.594C668.264 116.877 668.43 116.164 668.78 115.53C669.13 114.895 669.65 114.362 670.287 113.984Z" fill="url(#paint29_linear)"/>
<rect id="Rectangle 1" width="7.03421" height="1.79331" rx="0.896657" transform="matrix(0.949664 0.31327 -0.372662 0.927967 758.513 63)" fill="#DE063A"/>
<rect id="Rectangle 2" width="9.25776" height="3.00527" rx="1.50263" transform="matrix(0.941782 0.336225 -0.398604 0.917123 669.198 144.206)" fill="#FF4A8C"/>
<path id="Vector_39" d="M766.079 67.845L766.079 67.845V67.8526L766.079 96.7261L766.079 96.7282C766.083 97.2039 765.959 97.673 765.717 98.0901C765.475 98.507 765.124 98.8581 764.697 99.1084C764.697 99.1086 764.697 99.1088 764.696 99.109L678.151 148.595C678.15 148.595 678.15 148.596 678.149 148.596C677.922 148.722 677.6 148.89 677.273 149.027C676.936 149.167 676.627 149.258 676.414 149.257C675.922 149.255 675.44 149.128 675.018 148.889C674.596 148.651 674.249 148.31 674.011 147.902C673.774 147.495 673.654 147.035 673.663 146.57H673.664L673.664 146.564L673.55 119.405H673.55L673.549 119.394C673.518 118.724 673.673 118.057 674.001 117.463C674.328 116.869 674.816 116.367 675.416 116.012C675.416 116.012 675.416 116.012 675.416 116.012L761.93 65.4872C761.931 65.4867 761.932 65.4863 761.932 65.4858C762.358 65.2505 762.843 65.1277 763.336 65.131C763.83 65.1343 764.314 65.2639 764.737 65.5058C765.16 65.7476 765.507 66.0925 765.742 66.5037C765.978 66.9148 766.094 67.3778 766.079 67.845Z" fill="#313A55" stroke="url(#paint30_linear)" stroke-width="0.5"/>
</g>
<g id="Button Magenta Glow">
<g id="Vector_40" filter="url(#filter10_d)">
<path d="M799.1 490.87C810.753 490.87 820.2 485.484 820.2 478.84C820.2 472.196 810.753 466.81 799.1 466.81C787.447 466.81 778 472.196 778 478.84C778 485.484 787.447 490.87 799.1 490.87Z" fill="url(#paint31_radial)"/>
<path d="M819.7 478.84C819.7 481.904 817.517 484.777 813.772 486.912C810.042 489.039 804.856 490.37 799.1 490.37C793.344 490.37 788.158 489.039 784.428 486.912C780.683 484.777 778.5 481.904 778.5 478.84C778.5 475.775 780.683 472.903 784.428 470.768C788.158 468.641 793.344 467.31 799.1 467.31C804.856 467.31 810.042 468.641 813.772 470.768C817.517 472.903 819.7 475.775 819.7 478.84Z" stroke="#FF4588"/>
</g>
<path id="Vector_41" d="M778.01 478.84V472.03H820.2V478.84" fill="#FF2473"/>
<g id="Vector_42" filter="url(#filter11_d)">
<path d="M799.1 484.06C810.753 484.06 820.2 478.674 820.2 472.03C820.2 465.386 810.753 460 799.1 460C787.447 460 778 465.386 778 472.03C778 478.674 787.447 484.06 799.1 484.06Z" fill="url(#paint32_radial)"/>
<path d="M819.7 472.03C819.7 475.095 817.517 477.967 813.772 480.102C810.042 482.229 804.856 483.56 799.1 483.56C793.344 483.56 788.158 482.229 784.428 480.102C780.683 477.967 778.5 475.095 778.5 472.03C778.5 468.965 780.683 466.093 784.428 463.958C788.158 461.831 793.344 460.5 799.1 460.5C804.856 460.5 810.042 461.831 813.772 463.958C817.517 466.093 819.7 468.965 819.7 472.03Z" stroke="#DE063A"/>
</g>
</g>
<g id="Button Magenta Glow_2">
<g id="Vector_43" filter="url(#filter12_d)">
<path d="M845.1 465.87C856.753 465.87 866.2 460.484 866.2 453.84C866.2 447.196 856.753 441.81 845.1 441.81C833.447 441.81 824 447.196 824 453.84C824 460.484 833.447 465.87 845.1 465.87Z" fill="url(#paint33_radial)"/>
<path d="M865.7 453.84C865.7 456.904 863.517 459.777 859.772 461.912C856.042 464.039 850.856 465.37 845.1 465.37C839.344 465.37 834.158 464.039 830.428 461.912C826.683 459.777 824.5 456.904 824.5 453.84C824.5 450.775 826.683 447.903 830.428 445.768C834.158 443.641 839.344 442.31 845.1 442.31C850.856 442.31 856.042 443.641 859.772 445.768C863.517 447.903 865.7 450.775 865.7 453.84Z" stroke="#FF4588"/>
</g>
<path id="Vector_44" d="M824.01 453.84V447.03H866.2V453.84" fill="#FF2473"/>
<g id="Vector_45" filter="url(#filter13_d)">
<path d="M845.1 459.06C856.753 459.06 866.2 453.674 866.2 447.03C866.2 440.386 856.753 435 845.1 435C833.447 435 824 440.386 824 447.03C824 453.674 833.447 459.06 845.1 459.06Z" fill="url(#paint34_radial)"/>
<path d="M865.7 447.03C865.7 450.095 863.517 452.967 859.772 455.102C856.042 457.229 850.856 458.56 845.1 458.56C839.344 458.56 834.158 457.229 830.428 455.102C826.683 452.967 824.5 450.095 824.5 447.03C824.5 443.965 826.683 441.093 830.428 438.958C834.158 436.831 839.344 435.5 845.1 435.5C850.856 435.5 856.042 436.831 859.772 438.958C863.517 441.093 865.7 443.965 865.7 447.03Z" stroke="#DE063A"/>
</g>
</g>
<g id="Button Magenta Glow_3">
<g id="Vector_46" filter="url(#filter14_d)">
<path d="M628.1 443.87C639.753 443.87 649.2 438.484 649.2 431.84C649.2 425.196 639.753 419.81 628.1 419.81C616.447 419.81 607 425.196 607 431.84C607 438.484 616.447 443.87 628.1 443.87Z" fill="url(#paint35_radial)"/>
<path d="M648.7 431.84C648.7 434.904 646.517 437.777 642.772 439.912C639.042 442.039 633.856 443.37 628.1 443.37C622.344 443.37 617.158 442.039 613.428 439.912C609.683 437.777 607.5 434.904 607.5 431.84C607.5 428.775 609.683 425.903 613.428 423.768C617.158 421.641 622.344 420.31 628.1 420.31C633.856 420.31 639.042 421.641 642.772 423.768C646.517 425.903 648.7 428.775 648.7 431.84Z" stroke="#FF4588"/>
</g>
<path id="Vector_47" d="M607.01 431.84V425.03H649.2V431.84" fill="#FF2473"/>
<g id="Vector_48" filter="url(#filter15_d)">
<path d="M628.1 437.06C639.753 437.06 649.2 431.674 649.2 425.03C649.2 418.386 639.753 413 628.1 413C616.447 413 607 418.386 607 425.03C607 431.674 616.447 437.06 628.1 437.06Z" fill="url(#paint36_radial)"/>
<path d="M648.7 425.03C648.7 428.095 646.517 430.967 642.772 433.102C639.042 435.229 633.856 436.56 628.1 436.56C622.344 436.56 617.158 435.229 613.428 433.102C609.683 430.967 607.5 428.095 607.5 425.03C607.5 421.965 609.683 419.093 613.428 416.958C617.158 414.831 622.344 413.5 628.1 413.5C633.856 413.5 639.042 414.831 642.772 416.958C646.517 419.093 648.7 421.965 648.7 425.03Z" stroke="#DE063A"/>
</g>
</g>
<g id="Flow Glow Orange">
<path id="Vector_49" d="M629.287 193.526L715.807 142.46C716.272 142.2 716.799 142.065 717.336 142.068C717.873 142.072 718.399 142.214 718.859 142.48C719.32 142.747 719.699 143.127 719.957 143.583C720.215 144.038 720.343 144.552 720.327 145.072V174.252C720.332 174.778 720.195 175.297 719.931 175.757C719.667 176.217 719.285 176.604 718.821 176.878L632.27 226.893C631.808 227.152 630.945 227.597 630.411 227.594C629.877 227.592 629.353 227.452 628.893 227.189C628.434 226.927 628.054 226.82 627.794 226.368C627.533 225.917 627.401 225.137 627.412 224.621L627.298 197.173C627.264 196.449 627.43 195.729 627.78 195.087C628.13 194.446 628.65 193.907 629.287 193.526Z" fill="url(#paint37_linear)"/>
<rect id="Rectangle 1_2" width="7.04158" height="1.80974" rx="0.904869" transform="matrix(0.94867 0.316268 -0.36928 0.929318 717.513 142)" fill="#FF2473"/>
<rect id="Rectangle 2_2" width="9.26894" height="3.03216" rx="1.51608" transform="matrix(0.940646 0.339389 -0.39507 0.918651 628.198 224.069)" fill="#FF8200"/>
<path id="Vector_50" d="M725.079 146.897L725.079 146.897V146.904L725.079 176.085L725.079 176.087C725.083 176.568 724.958 177.043 724.716 177.465C724.474 177.887 724.123 178.242 723.696 178.495C723.696 178.495 723.695 178.495 723.695 178.496L637.15 228.508C637.15 228.508 637.149 228.508 637.148 228.509C636.921 228.636 636.599 228.806 636.272 228.944C635.935 229.086 635.626 229.178 635.414 229.177C634.923 229.175 634.441 229.046 634.019 228.805C633.597 228.564 633.25 228.219 633.012 227.807C632.774 227.394 632.654 226.929 632.663 226.458H632.664L632.664 226.452L632.55 199.005H632.55L632.549 198.994C632.517 198.316 632.673 197.641 633.001 197.04C633.329 196.438 633.817 195.932 634.416 195.573C634.417 195.573 634.417 195.573 634.417 195.573L720.931 144.511C720.932 144.51 720.933 144.51 720.933 144.509C721.359 144.272 721.844 144.148 722.336 144.151C722.83 144.154 723.313 144.285 723.736 144.53C724.159 144.774 724.506 145.122 724.742 145.539C724.977 145.955 725.094 146.423 725.079 146.897Z" fill="#313A55" stroke="url(#paint38_linear)" stroke-width="0.5"/>
</g>
<g id="Blow Darkblue">
<rect id="Rectangle 2_3" width="9.29437" height="3.09259" rx="1.54629" transform="matrix(0.938072 0.34644 -0.38735 0.921933 732.198 165.003)" fill="#313A55"/>
<path id="Vector_51" d="M733.287 133.74L819.807 81.4708C820.272 81.2047 820.799 81.0663 821.336 81.07C821.873 81.0736 822.399 81.2193 822.859 81.4918C823.32 81.7643 823.699 82.1538 823.957 82.62C824.215 83.0863 824.343 83.6124 824.327 84.144V114.012C824.332 114.551 824.195 115.082 823.931 115.553C823.667 116.024 823.285 116.419 822.821 116.7L736.27 167.895C735.808 168.159 734.945 168.614 734.411 168.612C733.877 168.61 733.353 168.467 732.893 168.198C732.434 167.929 732.054 167.819 731.794 167.357C731.533 166.895 731.401 166.097 731.412 165.568L731.298 137.474C731.264 136.732 731.43 135.995 731.78 135.339C732.13 134.682 732.65 134.131 733.287 133.74Z" fill="url(#paint39_linear)"/>
<rect id="Rectangle 1_3" width="7.05836" height="1.84664" rx="0.923321" transform="matrix(0.946415 0.322954 -0.3619 0.932217 821.513 81)" fill="#313A55"/>
<path id="Vector_52" d="M828.83 86.005L828.829 86.0124V86.0198L828.829 115.888L828.829 115.892C828.833 116.344 828.719 116.789 828.497 117.184C828.276 117.579 827.955 117.911 827.566 118.147C827.565 118.148 827.564 118.148 827.563 118.149L741.024 169.336C741.023 169.337 741.022 169.338 741.021 169.338C740.797 169.466 740.485 169.635 740.171 169.77C739.838 169.914 739.571 169.989 739.415 169.988C738.969 169.986 738.531 169.866 738.148 169.642L737.895 170.073L738.148 169.642C737.764 169.417 737.448 169.096 737.231 168.712C737.014 168.328 736.905 167.893 736.913 167.454H736.914L736.914 167.442L736.8 139.348L736.8 139.337L736.799 139.327C736.769 138.675 736.915 138.027 737.223 137.45C737.53 136.873 737.988 136.387 738.549 136.043C738.549 136.043 738.549 136.043 738.55 136.042L825.062 83.7777C825.449 83.5574 825.888 83.4427 826.334 83.4457C826.783 83.4488 827.222 83.5705 827.607 83.7979C827.991 84.0253 828.307 84.35 828.522 84.738C828.736 85.1259 828.843 85.5633 828.83 86.005Z" fill="#23293D" stroke="#313A55"/>
</g>
<g id="Line 1" filter="url(#filter16_d)">
<path d="M854 496L797 531.5" stroke="url(#paint40_linear)" stroke-width="2"/>
</g>
<g id="Button OIH Glow">
<g id="Vector_53" filter="url(#filter17_d)">
<path d="M799.1 536.87C810.753 536.87 820.2 531.484 820.2 524.84C820.2 518.196 810.753 512.81 799.1 512.81C787.447 512.81 778 518.196 778 524.84C778 531.484 787.447 536.87 799.1 536.87Z" fill="url(#paint41_linear)"/>
<path d="M819.95 524.84C819.95 528.033 817.677 530.973 813.896 533.129C810.122 535.281 804.891 536.62 799.1 536.62C793.309 536.62 788.078 535.281 784.304 533.129C780.523 530.973 778.25 528.033 778.25 524.84C778.25 521.647 780.523 518.707 784.304 516.551C788.078 514.399 793.309 513.06 799.1 513.06C804.891 513.06 810.122 514.399 813.896 516.551C817.677 518.707 819.95 521.647 819.95 524.84Z" stroke="#3B4974" stroke-width="0.5"/>
</g>
<g id="Vector_54">
<mask id="path-77-inside-1" fill="white">
<path d="M778.01 524.84V518.03H820.2V524.84"/>
</mask>
<path d="M778.01 524.84V518.03H820.2V524.84" fill="#FF2473"/>
<path d="M778.01 518.03V517.53H777.51V518.03H778.01ZM820.2 518.03H820.7V517.53H820.2V518.03ZM778.51 524.84V518.03H777.51V524.84H778.51ZM778.01 518.53H820.2V517.53H778.01V518.53ZM819.7 518.03V524.84H820.7V518.03H819.7Z" fill="#313A55" mask="url(#path-77-inside-1)"/>
</g>
<path id="Vector_55" d="M819.95 518.03C819.95 521.223 817.677 524.163 813.896 526.319C810.122 528.471 804.891 529.81 799.1 529.81C793.309 529.81 788.078 528.471 784.304 526.319C780.523 524.163 778.25 521.223 778.25 518.03C778.25 514.837 780.523 511.897 784.304 509.741C788.078 507.589 793.309 506.25 799.1 506.25C804.891 506.25 810.122 507.589 813.896 509.741C817.677 511.897 819.95 514.837 819.95 518.03Z" fill="url(#paint42_radial)" stroke="#3B4974" stroke-width="0.5"/>
</g>
<g id="Button OIH Glow_2">
<g id="Vector_56" filter="url(#filter18_d)">
<path d="M847.1 511.87C858.753 511.87 868.2 506.484 868.2 499.84C868.2 493.196 858.753 487.81 847.1 487.81C835.447 487.81 826 493.196 826 499.84C826 506.484 835.447 511.87 847.1 511.87Z" fill="url(#paint43_linear)"/>
<path d="M867.95 499.84C867.95 503.033 865.677 505.973 861.896 508.129C858.122 510.281 852.891 511.62 847.1 511.62C841.309 511.62 836.078 510.281 832.304 508.129C828.523 505.973 826.25 503.033 826.25 499.84C826.25 496.647 828.523 493.707 832.304 491.551C836.078 489.399 841.309 488.06 847.1 488.06C852.891 488.06 858.122 489.399 861.896 491.551C865.677 493.707 867.95 496.647 867.95 499.84Z" stroke="#3B4974" stroke-width="0.5"/>
</g>
<g id="Vector_57">
<mask id="path-82-inside-2" fill="white">
<path d="M826.01 499.84V493.03H868.2V499.84"/>
</mask>
<path d="M826.01 499.84V493.03H868.2V499.84" fill="#FF2473"/>
<path d="M826.01 493.03V492.53H825.51V493.03H826.01ZM868.2 493.03H868.7V492.53H868.2V493.03ZM826.51 499.84V493.03H825.51V499.84H826.51ZM826.01 493.53H868.2V492.53H826.01V493.53ZM867.7 493.03V499.84H868.7V493.03H867.7Z" fill="#313A55" mask="url(#path-82-inside-2)"/>
</g>
<path id="Vector_58" d="M867.95 493.03C867.95 496.223 865.677 499.163 861.896 501.319C858.122 503.471 852.891 504.81 847.1 504.81C841.309 504.81 836.078 503.471 832.304 501.319C828.523 499.163 826.25 496.223 826.25 493.03C826.25 489.837 828.523 486.897 832.304 484.741C836.078 482.589 841.309 481.25 847.1 481.25C852.891 481.25 858.122 482.589 861.896 484.741C865.677 486.897 867.95 489.837 867.95 493.03Z" fill="url(#paint44_radial)" stroke="#3B4974" stroke-width="0.5"/>
</g>
</g>
<defs>
<filter id="filter0_d" x="810" y="529.81" width="62.2" height="44.06" filterUnits="userSpaceOnUse" color-interpolation-filters="sRGB">
<feFlood flood-opacity="0" result="BackgroundImageFix"/>
<feColorMatrix in="SourceAlpha" type="matrix" values="0 0 0 0 0 0 0 0 0 0 0 0 0 0 0 0 0 0 127 0"/>
<feOffset dy="4"/>
<feGaussianBlur stdDeviation="5"/>
<feColorMatrix type="matrix" values="0 0 0 0 0.137255 0 0 0 0 0.160784 0 0 0 0 0.239216 0 0 0 1 0"/>
<feBlend mode="normal" in2="BackgroundImageFix" result="effect1_dropShadow"/>
<feBlend mode="normal" in="SourceGraphic" in2="effect1_dropShadow" result="shape"/>
</filter>
<filter id="filter1_d" x="858" y="504.81" width="62.2" height="44.06" filterUnits="userSpaceOnUse" color-interpolation-filters="sRGB">
<feFlood flood-opacity="0" result="BackgroundImageFix"/>
<feColorMatrix in="SourceAlpha" type="matrix" values="0 0 0 0 0 0 0 0 0 0 0 0 0 0 0 0 0 0 127 0"/>
<feOffset dy="4"/>
<feGaussianBlur stdDeviation="5"/>
<feColorMatrix type="matrix" values="0 0 0 0 0.137255 0 0 0 0 0.160784 0 0 0 0 0.239216 0 0 0 1 0"/>
<feBlend mode="normal" in2="BackgroundImageFix" result="effect1_dropShadow"/>
<feBlend mode="normal" in="SourceGraphic" in2="effect1_dropShadow" result="shape"/>
</filter>
<filter id="filter2_d" x="900" y="480.81" width="62.2" height="44.06" filterUnits="userSpaceOnUse" color-interpolation-filters="sRGB">
<feFlood flood-opacity="0" result="BackgroundImageFix"/>
<feColorMatrix in="SourceAlpha" type="matrix" values="0 0 0 0 0 0 0 0 0 0 0 0 0 0 0 0 0 0 127 0"/>
<feOffset dy="4"/>
<feGaussianBlur stdDeviation="5"/>
<feColorMatrix type="matrix" values="0 0 0 0 0.137255 0 0 0 0 0.160784 0 0 0 0 0.239216 0 0 0 1 0"/>
<feBlend mode="normal" in2="BackgroundImageFix" result="effect1_dropShadow"/>
<feBlend mode="normal" in="SourceGraphic" in2="effect1_dropShadow" result="shape"/>
</filter>
<filter id="filter3_d" x="852" y="554.81" width="62.2" height="44.06" filterUnits="userSpaceOnUse" color-interpolation-filters="sRGB">
<feFlood flood-opacity="0" result="BackgroundImageFix"/>
<feColorMatrix in="SourceAlpha" type="matrix" values="0 0 0 0 0 0 0 0 0 0 0 0 0 0 0 0 0 0 127 0"/>
<feOffset dy="4"/>
<feGaussianBlur stdDeviation="5"/>
<feColorMatrix type="matrix" values="0 0 0 0 0.137255 0 0 0 0 0.160784 0 0 0 0 0.239216 0 0 0 1 0"/>
<feBlend mode="normal" in2="BackgroundImageFix" result="effect1_dropShadow"/>
<feBlend mode="normal" in="SourceGraphic" in2="effect1_dropShadow" result="shape"/>
</filter>
<filter id="filter4_d" x="900" y="529.81" width="62.2" height="44.06" filterUnits="userSpaceOnUse" color-interpolation-filters="sRGB">
<feFlood flood-opacity="0" result="BackgroundImageFix"/>
<feColorMatrix in="SourceAlpha" type="matrix" values="0 0 0 0 0 0 0 0 0 0 0 0 0 0 0 0 0 0 127 0"/>
<feOffset dy="4"/>
<feGaussianBlur stdDeviation="5"/>
<feColorMatrix type="matrix" values="0 0 0 0 0.137255 0 0 0 0 0.160784 0 0 0 0 0.239216 0 0 0 1 0"/>
<feBlend mode="normal" in2="BackgroundImageFix" result="effect1_dropShadow"/>
<feBlend mode="normal" in="SourceGraphic" in2="effect1_dropShadow" result="shape"/>
</filter>
<filter id="filter5_d" x="945" y="505.81" width="62.2" height="44.06" filterUnits="userSpaceOnUse" color-interpolation-filters="sRGB">
<feFlood flood-opacity="0" result="BackgroundImageFix"/>
<feColorMatrix in="SourceAlpha" type="matrix" values="0 0 0 0 0 0 0 0 0 0 0 0 0 0 0 0 0 0 127 0"/>
<feOffset dy="4"/>
<feGaussianBlur stdDeviation="5"/>
<feColorMatrix type="matrix" values="0 0 0 0 0.137255 0 0 0 0 0.160784 0 0 0 0 0.239216 0 0 0 1 0"/>
<feBlend mode="normal" in2="BackgroundImageFix" result="effect1_dropShadow"/>
<feBlend mode="normal" in="SourceGraphic" in2="effect1_dropShadow" result="shape"/>
</filter>
<filter id="filter6_d" x="646" y="442.81" width="62.2" height="44.06" filterUnits="userSpaceOnUse" color-interpolation-filters="sRGB">
<feFlood flood-opacity="0" result="BackgroundImageFix"/>
<feColorMatrix in="SourceAlpha" type="matrix" values="0 0 0 0 0 0 0 0 0 0 0 0 0 0 0 0 0 0 127 0"/>
<feOffset dy="5"/>
<feGaussianBlur stdDeviation="5"/>
<feColorMatrix type="matrix" values="0 0 0 0 1 0 0 0 0 0.141176 0 0 0 0 0.45098 0 0 0 0.5 0"/>
<feBlend mode="normal" in2="BackgroundImageFix" result="effect1_dropShadow"/>
<feBlend mode="normal" in="SourceGraphic" in2="effect1_dropShadow" result="shape"/>
</filter>
<filter id="filter7_d" x="652" y="441" width="50.2" height="32.06" filterUnits="userSpaceOnUse" color-interpolation-filters="sRGB">
<feFlood flood-opacity="0" result="BackgroundImageFix"/>
<feColorMatrix in="SourceAlpha" type="matrix" values="0 0 0 0 0 0 0 0 0 0 0 0 0 0 0 0 0 0 127 0"/>
<feOffset dy="4"/>
<feGaussianBlur stdDeviation="2"/>
<feColorMatrix type="matrix" values="0 0 0 0 0 0 0 0 0 0 0 0 0 0 0 0 0 0 0.25 0"/>
<feBlend mode="normal" in2="BackgroundImageFix" result="effect1_dropShadow"/>
<feBlend mode="normal" in="SourceGraphic" in2="effect1_dropShadow" result="shape"/>
</filter>
<filter id="filter8_i" x="646" y="257" width="55.205" height="39.69" filterUnits="userSpaceOnUse" color-interpolation-filters="sRGB">
<feFlood flood-opacity="0" result="BackgroundImageFix"/>
<feBlend mode="normal" in="SourceGraphic" in2="BackgroundImageFix" result="shape"/>
<feColorMatrix in="SourceAlpha" type="matrix" values="0 0 0 0 0 0 0 0 0 0 0 0 0 0 0 0 0 0 127 0" result="hardAlpha"/>
<feOffset dy="5"/>
<feGaussianBlur stdDeviation="7.5"/>
<feComposite in2="hardAlpha" operator="arithmetic" k2="-1" k3="1"/>
<feColorMatrix type="matrix" values="0 0 0 0 1 0 0 0 0 0.141176 0 0 0 0 0.45098 0 0 0 1 0"/>
<feBlend mode="normal" in2="shape" result="effect1_innerShadow"/>
</filter>
<filter id="filter9_d" x="636" y="253" width="75.205" height="54.69" filterUnits="userSpaceOnUse" color-interpolation-filters="sRGB">
<feFlood flood-opacity="0" result="BackgroundImageFix"/>
<feColorMatrix in="SourceAlpha" type="matrix" values="0 0 0 0 0 0 0 0 0 0 0 0 0 0 0 0 0 0 127 0"/>
<feOffset dy="5"/>
<feGaussianBlur stdDeviation="5"/>
<feColorMatrix type="matrix" values="0 0 0 0 1 0 0 0 0 0.141176 0 0 0 0 0.45098 0 0 0 0.5 0"/>
<feBlend mode="normal" in2="BackgroundImageFix" result="effect1_dropShadow"/>
<feBlend mode="normal" in="SourceGraphic" in2="effect1_dropShadow" result="shape"/>
</filter>
<filter id="filter10_d" x="768" y="460.81" width="62.2" height="44.06" filterUnits="userSpaceOnUse" color-interpolation-filters="sRGB">
<feFlood flood-opacity="0" result="BackgroundImageFix"/>
<feColorMatrix in="SourceAlpha" type="matrix" values="0 0 0 0 0 0 0 0 0 0 0 0 0 0 0 0 0 0 127 0"/>
<feOffset dy="4"/>
<feGaussianBlur stdDeviation="5"/>
<feColorMatrix type="matrix" values="0 0 0 0 1 0 0 0 0 0.141176 0 0 0 0 0.45098 0 0 0 0.5 0"/>
<feBlend mode="normal" in2="BackgroundImageFix" result="effect1_dropShadow"/>
<feBlend mode="normal" in="SourceGraphic" in2="effect1_dropShadow" result="shape"/>
</filter>
<filter id="filter11_d" x="774" y="460" width="50.2" height="32.06" filterUnits="userSpaceOnUse" color-interpolation-filters="sRGB">
<feFlood flood-opacity="0" result="BackgroundImageFix"/>
<feColorMatrix in="SourceAlpha" type="matrix" values="0 0 0 0 0 0 0 0 0 0 0 0 0 0 0 0 0 0 127 0"/>
<feOffset dy="4"/>
<feGaussianBlur stdDeviation="2"/>
<feColorMatrix type="matrix" values="0 0 0 0 0 0 0 0 0 0 0 0 0 0 0 0 0 0 0.25 0"/>
<feBlend mode="normal" in2="BackgroundImageFix" result="effect1_dropShadow"/>
<feBlend mode="normal" in="SourceGraphic" in2="effect1_dropShadow" result="shape"/>
</filter>
<filter id="filter12_d" x="814" y="435.81" width="62.2" height="44.06" filterUnits="userSpaceOnUse" color-interpolation-filters="sRGB">
<feFlood flood-opacity="0" result="BackgroundImageFix"/>
<feColorMatrix in="SourceAlpha" type="matrix" values="0 0 0 0 0 0 0 0 0 0 0 0 0 0 0 0 0 0 127 0"/>
<feOffset dy="4"/>
<feGaussianBlur stdDeviation="5"/>
<feColorMatrix type="matrix" values="0 0 0 0 1 0 0 0 0 0.141176 0 0 0 0 0.45098 0 0 0 0.5 0"/>
<feBlend mode="normal" in2="BackgroundImageFix" result="effect1_dropShadow"/>
<feBlend mode="normal" in="SourceGraphic" in2="effect1_dropShadow" result="shape"/>
</filter>
<filter id="filter13_d" x="820" y="435" width="50.2" height="32.06" filterUnits="userSpaceOnUse" color-interpolation-filters="sRGB">
<feFlood flood-opacity="0" result="BackgroundImageFix"/>
<feColorMatrix in="SourceAlpha" type="matrix" values="0 0 0 0 0 0 0 0 0 0 0 0 0 0 0 0 0 0 127 0"/>
<feOffset dy="4"/>
<feGaussianBlur stdDeviation="2"/>
<feColorMatrix type="matrix" values="0 0 0 0 0 0 0 0 0 0 0 0 0 0 0 0 0 0 0.25 0"/>
<feBlend mode="normal" in2="BackgroundImageFix" result="effect1_dropShadow"/>
<feBlend mode="normal" in="SourceGraphic" in2="effect1_dropShadow" result="shape"/>
</filter>
<filter id="filter14_d" x="597" y="413.81" width="62.2" height="44.06" filterUnits="userSpaceOnUse" color-interpolation-filters="sRGB">
<feFlood flood-opacity="0" result="BackgroundImageFix"/>
<feColorMatrix in="SourceAlpha" type="matrix" values="0 0 0 0 0 0 0 0 0 0 0 0 0 0 0 0 0 0 127 0"/>
<feOffset dy="4"/>
<feGaussianBlur stdDeviation="5"/>
<feColorMatrix type="matrix" values="0 0 0 0 1 0 0 0 0 0.141176 0 0 0 0 0.45098 0 0 0 0.5 0"/>
<feBlend mode="normal" in2="BackgroundImageFix" result="effect1_dropShadow"/>
<feBlend mode="normal" in="SourceGraphic" in2="effect1_dropShadow" result="shape"/>
</filter>
<filter id="filter15_d" x="603" y="413" width="50.2" height="32.06" filterUnits="userSpaceOnUse" color-interpolation-filters="sRGB">
<feFlood flood-opacity="0" result="BackgroundImageFix"/>
<feColorMatrix in="SourceAlpha" type="matrix" values="0 0 0 0 0 0 0 0 0 0 0 0 0 0 0 0 0 0 127 0"/>
<feOffset dy="4"/>
<feGaussianBlur stdDeviation="2"/>
<feColorMatrix type="matrix" values="0 0 0 0 0 0 0 0 0 0 0 0 0 0 0 0 0 0 0.25 0"/>
<feBlend mode="normal" in2="BackgroundImageFix" result="effect1_dropShadow"/>
<feBlend mode="normal" in="SourceGraphic" in2="effect1_dropShadow" result="shape"/>
</filter>
<filter id="filter16_d" x="794.471" y="494.151" width="62.0573" height="41.1977" filterUnits="userSpaceOnUse" color-interpolation-filters="sRGB">
<feFlood flood-opacity="0" result="BackgroundImageFix"/>
<feColorMatrix in="SourceAlpha" type="matrix" values="0 0 0 0 0 0 0 0 0 0 0 0 0 0 0 0 0 0 127 0"/>
<feOffset dy="1"/>
<feGaussianBlur stdDeviation="1"/>
<feColorMatrix type="matrix" values="0 0 0 0 1 0 0 0 0 0.141176 0 0 0 0 0.45098 0 0 0 0.5 0"/>
<feBlend mode="normal" in2="BackgroundImageFix" result="effect1_dropShadow"/>
<feBlend mode="normal" in="SourceGraphic" in2="effect1_dropShadow" result="shape"/>
</filter>
<filter id="filter17_d" x="768" y="506.81" width="62.2" height="44.06" filterUnits="userSpaceOnUse" color-interpolation-filters="sRGB">
<feFlood flood-opacity="0" result="BackgroundImageFix"/>
<feColorMatrix in="SourceAlpha" type="matrix" values="0 0 0 0 0 0 0 0 0 0 0 0 0 0 0 0 0 0 127 0"/>
<feOffset dy="4"/>
<feGaussianBlur stdDeviation="5"/>
<feColorMatrix type="matrix" values="0 0 0 0 0.137255 0 0 0 0 0.160784 0 0 0 0 0.239216 0 0 0 1 0"/>
<feBlend mode="normal" in2="BackgroundImageFix" result="effect1_dropShadow"/>
<feBlend mode="normal" in="SourceGraphic" in2="effect1_dropShadow" result="shape"/>
</filter>
<filter id="filter18_d" x="816" y="481.81" width="62.2" height="44.06" filterUnits="userSpaceOnUse" color-interpolation-filters="sRGB">
<feFlood flood-opacity="0" result="BackgroundImageFix"/>
<feColorMatrix in="SourceAlpha" type="matrix" values="0 0 0 0 0 0 0 0 0 0 0 0 0 0 0 0 0 0 127 0"/>
<feOffset dy="4"/>
<feGaussianBlur stdDeviation="5"/>
<feColorMatrix type="matrix" values="0 0 0 0 0.137255 0 0 0 0 0.160784 0 0 0 0 0.239216 0 0 0 1 0"/>
<feBlend mode="normal" in2="BackgroundImageFix" result="effect1_dropShadow"/>
<feBlend mode="normal" in="SourceGraphic" in2="effect1_dropShadow" result="shape"/>
</filter>
<linearGradient id="paint0_linear" x1="1556.07" y1="584.76" x2="229.525" y2="594.012" gradientUnits="userSpaceOnUse">
<stop offset="0.432292" stop-color="#313A55"/>
<stop offset="0.953125" stop-color="#DE063A"/>
</linearGradient>
<linearGradient id="paint1_linear" x1="572.158" y1="355.046" x2="1107.74" y2="574.457" gradientUnits="userSpaceOnUse">
<stop stop-color="#23293D"/>
<stop offset="0.677083" stop-color="#23293D"/>
<stop offset="0.833333" stop-color="#23293D"/>
</linearGradient>
<linearGradient id="paint2_linear" x1="820.5" y1="551" x2="861.5" y2="551" gradientUnits="userSpaceOnUse">
<stop stop-color="#23293D"/>
<stop offset="0.177006" stop-color="#3B4974"/>
<stop offset="1" stop-color="#23293D"/>
</linearGradient>
<linearGradient id="paint3_linear" x1="821" y1="548" x2="841.105" y2="547.84" gradientUnits="userSpaceOnUse">
<stop stop-color="#23293D"/>
<stop offset="0.114583" stop-color="#313A55"/>
<stop offset="1" stop-color="#23293D"/>
</linearGradient>
<radialGradient id="paint4_radial" cx="0" cy="0" r="1" gradientUnits="userSpaceOnUse" gradientTransform="translate(841.1 541.03) rotate(90) scale(12.03 22.1104)">
<stop offset="0.927083" stop-color="#23293D"/>
<stop offset="1" stop-color="#313A55"/>
</radialGradient>
<linearGradient id="paint5_linear" x1="868.5" y1="526" x2="909.5" y2="526" gradientUnits="userSpaceOnUse">
<stop stop-color="#23293D"/>
<stop offset="0.177006" stop-color="#3B4974"/>
<stop offset="1" stop-color="#23293D"/>
</linearGradient>
<linearGradient id="paint6_linear" x1="869" y1="523" x2="889.105" y2="522.84" gradientUnits="userSpaceOnUse">
<stop stop-color="#23293D"/>
<stop offset="0.114583" stop-color="#313A55"/>
<stop offset="1" stop-color="#23293D"/>
</linearGradient>
<radialGradient id="paint7_radial" cx="0" cy="0" r="1" gradientUnits="userSpaceOnUse" gradientTransform="translate(889.1 516.03) rotate(90) scale(12.03 22.1104)">
<stop offset="0.927083" stop-color="#23293D"/>
<stop offset="1" stop-color="#313A55"/>
</radialGradient>
<linearGradient id="paint8_linear" x1="910.5" y1="502" x2="951.5" y2="502" gradientUnits="userSpaceOnUse">
<stop stop-color="#23293D"/>
<stop offset="0.177006" stop-color="#3B4974"/>
<stop offset="1" stop-color="#23293D"/>
</linearGradient>
<linearGradient id="paint9_linear" x1="911" y1="499" x2="931.105" y2="498.84" gradientUnits="userSpaceOnUse">
<stop stop-color="#23293D"/>
<stop offset="0.114583" stop-color="#313A55"/>
<stop offset="1" stop-color="#23293D"/>
</linearGradient>
<radialGradient id="paint10_radial" cx="0" cy="0" r="1" gradientUnits="userSpaceOnUse" gradientTransform="translate(931.1 492.03) rotate(90) scale(12.03 22.1104)">
<stop offset="0.927083" stop-color="#23293D"/>
<stop offset="1" stop-color="#313A55"/>
</radialGradient>
<linearGradient id="paint11_linear" x1="862.5" y1="576" x2="903.5" y2="576" gradientUnits="userSpaceOnUse">
<stop stop-color="#23293D"/>
<stop offset="0.177006" stop-color="#3B4974"/>
<stop offset="1" stop-color="#23293D"/>
</linearGradient>
<linearGradient id="paint12_linear" x1="863" y1="573" x2="883.105" y2="572.84" gradientUnits="userSpaceOnUse">
<stop stop-color="#23293D"/>
<stop offset="0.114583" stop-color="#313A55"/>
<stop offset="1" stop-color="#23293D"/>
</linearGradient>
<radialGradient id="paint13_radial" cx="0" cy="0" r="1" gradientUnits="userSpaceOnUse" gradientTransform="translate(883.1 566.03) rotate(90) scale(12.03 22.1104)">
<stop offset="0.927083" stop-color="#23293D"/>
<stop offset="1" stop-color="#313A55"/>
</radialGradient>
<linearGradient id="paint14_linear" x1="910.5" y1="551" x2="951.5" y2="551" gradientUnits="userSpaceOnUse">
<stop stop-color="#23293D"/>
<stop offset="0.177006" stop-color="#3B4974"/>
<stop offset="1" stop-color="#23293D"/>
</linearGradient>
<linearGradient id="paint15_linear" x1="911" y1="548" x2="931.105" y2="547.84" gradientUnits="userSpaceOnUse">
<stop stop-color="#23293D"/>
<stop offset="0.114583" stop-color="#313A55"/>
<stop offset="1" stop-color="#23293D"/>
</linearGradient>
<radialGradient id="paint16_radial" cx="0" cy="0" r="1" gradientUnits="userSpaceOnUse" gradientTransform="translate(931.1 541.03) rotate(90) scale(12.03 22.1104)">
<stop offset="0.927083" stop-color="#23293D"/>
<stop offset="1" stop-color="#313A55"/>
</radialGradient>
<linearGradient id="paint17_linear" x1="955.5" y1="527" x2="996.5" y2="527" gradientUnits="userSpaceOnUse">
<stop stop-color="#23293D"/>
<stop offset="0.177006" stop-color="#3B4974"/>
<stop offset="1" stop-color="#23293D"/>
</linearGradient>
<linearGradient id="paint18_linear" x1="956" y1="524" x2="976.105" y2="523.84" gradientUnits="userSpaceOnUse">
<stop stop-color="#23293D"/>
<stop offset="0.114583" stop-color="#313A55"/>
<stop offset="1" stop-color="#23293D"/>
</linearGradient>
<radialGradient id="paint19_radial" cx="0" cy="0" r="1" gradientUnits="userSpaceOnUse" gradientTransform="translate(976.1 517.03) rotate(90) scale(12.03 22.1104)">
<stop offset="0.927083" stop-color="#23293D"/>
<stop offset="1" stop-color="#313A55"/>
</radialGradient>
<linearGradient id="paint20_linear" x1="734.5" y1="485" x2="724" y2="502.5" gradientUnits="userSpaceOnUse">
<stop offset="0.109375" stop-color="#23293D"/>
<stop offset="0.338542" stop-color="#FF2473"/>
<stop offset="0.401042" stop-color="#FF8200"/>
</linearGradient>
<radialGradient id="paint21_radial" cx="0" cy="0" r="1" gradientUnits="userSpaceOnUse" gradientTransform="translate(677.1 459.84) rotate(90) scale(12.03 21.1)">
<stop offset="0.302083" stop-color="#DE063A"/>
<stop offset="1" stop-color="#FF2473"/>
</radialGradient>
<radialGradient id="paint22_radial" cx="0" cy="0" r="1" gradientUnits="userSpaceOnUse" gradientTransform="translate(677.1 453.03) rotate(90) scale(12.03 22.1104)">
<stop offset="0.244792" stop-color="#FF2473"/>
<stop offset="0.244892" stop-color="#23293D"/>
</radialGradient>
<linearGradient id="paint23_linear" x1="652.509" y1="388.694" x2="693.507" y2="388.376" gradientUnits="userSpaceOnUse">
<stop offset="0.463542" stop-color="#DE063A"/>
<stop offset="0.5625" stop-color="#FF4B8C"/>
<stop offset="0.677083" stop-color="#23293D"/>
</linearGradient>
<radialGradient id="paint24_radial" cx="0" cy="0" r="1" gradientUnits="userSpaceOnUse" gradientTransform="translate(671.75 274.5) rotate(89.1815) scale(17.5018 27.852)">
<stop stop-color="#DE063A"/>
<stop offset="1" stop-color="#FF3F84"/>
</radialGradient>
<radialGradient id="paint25_radial" cx="0" cy="0" r="1" gradientUnits="userSpaceOnUse" gradientTransform="translate(671.75 275.5) rotate(89.1815) scale(17.5018 27.852)">
<stop stop-color="#DE063A"/>
<stop offset="1" stop-color="#FF639B"/>
</radialGradient>
<radialGradient id="paint26_diamond" cx="0" cy="0" r="1" gradientUnits="userSpaceOnUse" gradientTransform="translate(674 267) rotate(90) scale(21.5 38.6745)">
<stop offset="0.463542" stop-color="#23293D"/>
<stop offset="1" stop-color="#313A55"/>
</radialGradient>
<radialGradient id="paint27_radial" cx="0" cy="0" r="1" gradientUnits="userSpaceOnUse" gradientTransform="translate(673.603 269.345) rotate(90) scale(17.345 27.6025)">
<stop offset="0.901042" stop-color="#DE063A"/>
<stop offset="1" stop-color="#FF2473"/>
</radialGradient>
<linearGradient id="paint28_linear" x1="649.011" y1="229.993" x2="690.011" y2="230.004" gradientUnits="userSpaceOnUse">
<stop offset="0.463542" stop-color="#DE063A"/>
<stop offset="0.5625" stop-color="#FF4B8C"/>
<stop offset="0.677083" stop-color="#23293D"/>
</linearGradient>
<linearGradient id="paint29_linear" x1="714.811" y1="63.0684" x2="680.3" y2="158.31" gradientUnits="userSpaceOnUse">
<stop stop-color="#DE063A"/>
<stop offset="0.869792" stop-color="#FF5B96"/>
</linearGradient>
<linearGradient id="paint30_linear" x1="779" y1="71" x2="660.5" y2="141.5" gradientUnits="userSpaceOnUse">
<stop stop-color="#DE063A"/>
<stop offset="1" stop-color="#FF2473"/>
</linearGradient>
<radialGradient id="paint31_radial" cx="0" cy="0" r="1" gradientUnits="userSpaceOnUse" gradientTransform="translate(799.1 478.84) rotate(90) scale(12.03 21.1)">
<stop offset="0.302083" stop-color="#DE063A"/>
<stop offset="1" stop-color="#FF2473"/>
</radialGradient>
<radialGradient id="paint32_radial" cx="0" cy="0" r="1" gradientUnits="userSpaceOnUse" gradientTransform="translate(799.1 472.03) rotate(90) scale(12.03 22.1104)">
<stop offset="0.84375" stop-color="#23293D"/>
<stop offset="1" stop-color="#FF2473"/>
</radialGradient>
<radialGradient id="paint33_radial" cx="0" cy="0" r="1" gradientUnits="userSpaceOnUse" gradientTransform="translate(845.1 453.84) rotate(90) scale(12.03 21.1)">
<stop offset="0.302083" stop-color="#DE063A"/>
<stop offset="1" stop-color="#FF2473"/>
</radialGradient>
<radialGradient id="paint34_radial" cx="0" cy="0" r="1" gradientUnits="userSpaceOnUse" gradientTransform="translate(845.1 447.03) rotate(90) scale(12.03 22.1104)">
<stop offset="0.84375" stop-color="#23293D"/>
<stop offset="1" stop-color="#FF2473"/>
</radialGradient>
<radialGradient id="paint35_radial" cx="0" cy="0" r="1" gradientUnits="userSpaceOnUse" gradientTransform="translate(628.1 431.84) rotate(90) scale(12.03 21.1)">
<stop offset="0.302083" stop-color="#DE063A"/>
<stop offset="1" stop-color="#FF2473"/>
</radialGradient>
<radialGradient id="paint36_radial" cx="0" cy="0" r="1" gradientUnits="userSpaceOnUse" gradientTransform="translate(628.1 425.03) rotate(90) scale(12.03 22.1104)">
<stop offset="0.84375" stop-color="#23293D"/>
<stop offset="1" stop-color="#FF2473"/>
</radialGradient>
<linearGradient id="paint37_linear" x1="673.811" y1="142.068" x2="638.649" y2="238.085" gradientUnits="userSpaceOnUse">
<stop stop-color="#FF2473"/>
<stop offset="0.869792" stop-color="#FF8200"/>
</linearGradient>
<linearGradient id="paint38_linear" x1="732.5" y1="154" x2="615" y2="221.5" gradientUnits="userSpaceOnUse">
<stop stop-color="#FF2473"/>
<stop offset="1" stop-color="#FF8200"/>
</linearGradient>
<linearGradient id="paint39_linear" x1="777.811" y1="81.0699" x2="741.179" y2="178.798" gradientUnits="userSpaceOnUse">
<stop stop-color="#313A55"/>
<stop offset="0.869792" stop-color="#343E5B"/>
</linearGradient>
<linearGradient id="paint40_linear" x1="823.094" y1="514.463" x2="819.808" y2="509.129" gradientUnits="userSpaceOnUse">
<stop stop-color="#FF2473"/>
<stop offset="0.0001" stop-color="#FF8200"/>
<stop offset="0.411458" stop-color="#23293D" stop-opacity="0.79"/>
</linearGradient>
<linearGradient id="paint41_linear" x1="763.5" y1="529.5" x2="837.5" y2="530.5" gradientUnits="userSpaceOnUse">
<stop offset="0.151042" stop-color="#FF2473"/>
<stop offset="0.501325" stop-color="#FF8200"/>
<stop offset="0.859375" stop-color="#FF2473"/>
</linearGradient>
<radialGradient id="paint42_radial" cx="0" cy="0" r="1" gradientUnits="userSpaceOnUse" gradientTransform="translate(799.1 518.03) rotate(90) scale(12.03 22.1104)">
<stop offset="0.786458" stop-color="#23293D"/>
<stop offset="1" stop-color="#313A55"/>
</radialGradient>
<linearGradient id="paint43_linear" x1="811.5" y1="504.5" x2="885.5" y2="505.5" gradientUnits="userSpaceOnUse">
<stop offset="0.151042" stop-color="#FF2473"/>
<stop offset="0.501325" stop-color="#FF8200"/>
<stop offset="0.859375" stop-color="#FF2473"/>
</linearGradient>
<radialGradient id="paint44_radial" cx="0" cy="0" r="1" gradientUnits="userSpaceOnUse" gradientTransform="translate(847.1 493.03) rotate(90) scale(12.03 22.1104)">
<stop offset="0.786458" stop-color="#23293D"/>
<stop offset="1" stop-color="#313A55"/>
</radialGradient>
</defs>
</svg>
