<svg id="Ebene_1" data-name="Ebene 1" xmlns="http://www.w3.org/2000/svg" viewBox="0 0 126.94 127.04"><defs><style>.cls-1{fill:#fff;}</style></defs><title>1</title><path class="cls-1" d="M103.68,15.23a2.86,2.86,0,0,1,3.29.07,1.84,1.84,0,0,1,.25.23,80.93,80.93,0,0,1,8.14-4.15A20.44,20.44,0,0,0,93,.4,47.89,47.89,0,0,0,103.68,15.23Z"/><path class="cls-1" d="M64.75,32.6A51,51,0,0,1,48.16,50,83,83,0,0,0,65,57.39a5.66,5.66,0,0,1,1.42-2,5.72,5.72,0,0,1,5-1.38c5.14-13.39,15-24.56,31.2-35.46a2.82,2.82,0,0,1,.13-2.15A49.08,49.08,0,0,1,91.49.77a20.52,20.52,0,0,0-15,19.82,20.28,20.28,0,0,0,1.65,8h0l.16.56a4.81,4.81,0,0,1-5.85,6L71.85,35h0A26.58,26.58,0,0,0,64.75,32.6Z"/><path class="cls-1" d="M46.69,49.14A48.72,48.72,0,0,0,63.16,32.35a26.56,26.56,0,0,0-25,11A87,87,0,0,0,46.69,49.14Z"/><path class="cls-1" d="M37.35,44.55a26.38,26.38,0,0,0-3.62,9.35A41.34,41.34,0,0,0,45.19,50,88.91,88.91,0,0,1,37.35,44.55Z"/><path class="cls-1" d="M107.92,18.68a36.35,36.35,0,0,0,9.37,4.93,21.16,21.16,0,0,0,.25-3.11A20.46,20.46,0,0,0,116,12.74a79.77,79.77,0,0,0-8,4.06A2.83,2.83,0,0,1,107.92,18.68Z"/><path class="cls-1" d="M117,25.12a38.54,38.54,0,0,1-10-5.25,2.85,2.85,0,0,1-3.44,0,.83.83,0,0,1-.17-.15C87.51,30.45,77.82,41.38,72.79,54.43a6,6,0,0,1,1.74,1.29A5.8,5.8,0,0,1,76,60.09c3.59.74,7,1.36,10.1,1.88a28,28,0,0,0,.21-3.32A26.32,26.32,0,0,0,83.12,46h0L83,45.47a4.81,4.81,0,0,1,5.85-6l.55.14v0A20.49,20.49,0,0,0,117,25.12Z"/><path class="cls-1" d="M69.67,65.31c-.57,2.77-1,5.47-1.27,8a113.92,113.92,0,0,1,32.49,21,2.87,2.87,0,0,1,2.71-.18A74.88,74.88,0,0,1,118.35,81a26.54,26.54,0,0,0-27.22-5.29h0l-.55.2a5.11,5.11,0,0,1-6.46-6.66l.21-.55h0a26.36,26.36,0,0,0,1.54-5.26c-3.17-.52-6.58-1.15-10.2-1.9a5.66,5.66,0,0,1-6,3.76Z"/><path class="cls-1" d="M103.88,99.2a2.88,2.88,0,0,1-2.51.2A61,61,0,0,0,94,112.93c-1.5,3.85-2.88,7.83-4.15,11.89a26.5,26.5,0,0,0,30.1-6.32A126.26,126.26,0,0,0,103.88,99.2Z"/><path class="cls-1" d="M104.74,95.1a2.82,2.82,0,0,1,.16,3,127.75,127.75,0,0,1,16,19.22,26.48,26.48,0,0,0-1.5-35.25A72.77,72.77,0,0,0,104.74,95.1Z"/><path class="cls-1" d="M92.57,112.38a63,63,0,0,1,7.59-13.87,2.86,2.86,0,0,1-.28-3.11A112.74,112.74,0,0,0,68.23,74.86c-.35,3.52-.49,6.64-.53,9.07.47-.15,1-.29,1.41-.46h0l.56-.19a5.11,5.11,0,0,1,6.46,6.66l-.22.55h0a26.51,26.51,0,0,0,12.53,33.69C89.71,120.15,91.08,116.2,92.57,112.38Z"/><path class="cls-1" d="M66.79,74.27c-2.91-1.18-5.93-2.26-9.06-3.18-18.57-5.46-33.38-5.27-43.61-3.69a2.76,2.76,0,0,1-.53,1.43A2.88,2.88,0,0,1,11.43,70a57.57,57.57,0,0,0-1,14.19,14.29,14.29,0,0,0,4.16.62A14.66,14.66,0,0,0,28.54,74.71h0l0-.11c.05-.16.09-.34.14-.51a4.81,4.81,0,0,1,8.09-2l.4.41h0a26.41,26.41,0,0,0,29,11.84C66.23,81.73,66.37,78.24,66.79,74.27Z"/><path class="cls-1" d="M8.42,67A2.92,2.92,0,0,1,9,65.42a2.85,2.85,0,0,1,2.34-1.15,36.31,36.31,0,0,1,4.18-8.75c-.28,0-.56-.05-.85-.05A14.64,14.64,0,0,0,0,69.48,68.5,68.5,0,0,1,8.42,67Z"/><path class="cls-1" d="M12.82,64.72l.16.1a2.65,2.65,0,0,1,.89,1.11c10.41-1.62,25.45-1.81,44.28,3.72,3.05.9,6,1.94,8.81,3.07.3-2.46.7-5.08,1.25-7.76A5.8,5.8,0,0,1,66,63.49a5.73,5.73,0,0,1-1.42-4.65,84.42,84.42,0,0,1-17.91-8,42.4,42.4,0,0,1-13.19,4.6c-.07.59-.13,1.18-.16,1.77h0l-.15.56a4.8,4.8,0,0,1-8,2.15l-.35-.34-.15-.16h0a14.69,14.69,0,0,0-7.42-3.75A35.5,35.5,0,0,0,12.82,64.72Z"/><path class="cls-1" d="M9.91,69.63a2.23,2.23,0,0,1-.33-.2,2.93,2.93,0,0,1-.84-1A65.56,65.56,0,0,0,0,71.09,14.65,14.65,0,0,0,8.91,83.63,59.67,59.67,0,0,1,9.91,69.63Z"/></svg>